<svg width="559" height="342" viewBox="0 0 559 342" fill="none" xmlns="http://www.w3.org/2000/svg">
<path d="M543.322 340.282C534.539 322.985 519.194 328.42 506.176 321.399C489.646 312.49 495.899 292.47 471.15 271.685C450.532 254.368 430.645 273.728 407.055 261.189C383.465 248.649 386.137 230.733 357.044 208.148C332.72 189.266 299.663 170.683 238.969 210.368C220.506 222.44 211.209 254.5 175.58 250.603C162.307 249.151 151.364 239.409 138.482 236.401C124.869 233.215 110.95 239.49 101.368 250.401C86.8445 266.94 93.0274 294.171 78.2272 309.724C77.3265 310.667 76.3692 311.543 75.3616 312.348C57.4775 326.679 18.9833 323.708 12.266 340.282" stroke="#A7A9AC" stroke-miterlimit="10" stroke-dasharray="3 2.5"/>
<path d="M202.513 211.523C202.908 207.993 202.531 204.412 201.412 201.071L197.13 202.305C196.598 200.824 195.884 199.428 195.009 198.154L198.241 194.853C196.222 192.057 193.627 189.815 190.665 188.308L188.438 192.481C187.099 191.842 185.687 191.401 184.239 191.171L184.377 186.357C181.131 185.928 177.838 186.338 174.765 187.554L175.9 192.209C174.538 192.788 173.254 193.564 172.082 194.516L169.046 191.001C166.184 192.858 164.044 195.787 163.027 199.238L166.865 201.655C166.277 203.111 165.871 204.647 165.66 206.221L161.233 206.07C160.838 209.6 161.215 213.181 162.334 216.522L166.616 215.287C167.148 216.769 167.861 218.165 168.737 219.439L165.505 222.741C167.525 225.536 170.119 227.778 173.08 229.286L175.308 225.112C176.647 225.752 178.059 226.193 179.507 226.422L179.368 231.236C182.615 231.667 185.909 231.257 188.982 230.04L187.846 225.384C189.208 224.805 190.492 224.029 191.663 223.078L194.7 226.592C197.271 224.397 199.333 221.575 200.719 218.355L196.881 215.939C197.469 214.482 197.874 212.947 198.086 211.373L202.513 211.523ZM183.01 219.624C181.041 219.868 179.049 219.473 177.287 218.487C175.525 217.502 174.071 215.97 173.109 214.086C172.148 212.201 171.721 210.049 171.884 207.902C172.048 205.754 172.793 203.708 174.026 202.02C175.259 200.333 176.924 199.082 178.811 198.424C180.698 197.766 182.722 197.731 184.628 198.324C186.533 198.917 188.234 200.11 189.515 201.754C190.796 203.398 191.601 205.419 191.826 207.559C192.128 210.43 191.369 213.314 189.716 215.577C188.062 217.839 185.65 219.295 183.01 219.624Z" fill="#E6E7E8"/>
<path d="M250.115 285.853C250.751 280.188 250.146 274.439 248.35 269.076L241.481 271.053C240.626 268.676 239.48 266.435 238.074 264.391L243.262 259.091C240.02 254.603 235.856 251.005 231.102 248.586L227.526 255.279C225.377 254.251 223.111 253.544 220.788 253.176L221.01 245.449C215.8 244.757 210.513 245.415 205.581 247.369L207.399 254.837C205.213 255.767 203.152 257.013 201.272 258.542L196.398 252.901C190.63 257.019 188.311 261.194 186.736 266.123L192.891 270.011C191.947 272.348 191.296 274.812 190.957 277.338L183.85 277.096C183.215 282.762 183.821 288.51 185.617 293.873L192.486 291.896C193.34 294.274 194.486 296.515 195.893 298.559L190.705 303.858C193.946 308.346 198.111 311.945 202.865 314.364L206.439 307.672C208.589 308.699 210.856 309.406 213.179 309.774L212.957 317.502C218.167 318.192 223.454 317.534 228.386 315.581L226.568 308.112C228.754 307.182 230.815 305.936 232.695 304.407L237.569 310.048C241.696 306.524 245.006 301.995 247.231 296.827L241.075 292.94C242.02 290.603 242.67 288.138 243.009 285.611L250.115 285.853ZM218.812 298.854C215.652 299.247 212.455 298.613 209.626 297.031C206.797 295.449 204.464 292.99 202.92 289.966C201.376 286.941 200.692 283.487 200.954 280.04C201.215 276.593 202.411 273.307 204.39 270.599C206.369 267.891 209.042 265.882 212.072 264.825C215.101 263.769 218.35 263.713 221.408 264.665C224.466 265.616 227.197 267.533 229.253 270.172C231.31 272.81 232.601 276.053 232.963 279.489C233.203 281.771 233.028 284.082 232.447 286.29C231.866 288.498 230.89 290.561 229.576 292.359C228.262 294.157 226.635 295.656 224.788 296.771C222.941 297.885 220.911 298.593 218.812 298.854Z" fill="#E6E7E8"/>
<path d="M227.451 280.176C227.688 282.427 227.306 284.704 226.352 286.718C225.399 288.733 223.918 290.395 222.096 291.495C220.275 292.594 218.194 293.082 216.117 292.895C214.04 292.709 212.061 291.857 210.43 290.448C208.798 289.038 207.588 287.135 206.952 284.977C206.315 282.82 206.281 280.505 206.855 278.327C207.428 276.149 208.582 274.204 210.172 272.74C211.761 271.275 213.715 270.355 215.785 270.097C217.16 269.926 218.552 270.051 219.882 270.465C221.212 270.879 222.454 271.573 223.538 272.509C224.621 273.445 225.524 274.604 226.195 275.919C226.867 277.235 227.293 278.681 227.451 280.176Z" fill="#E6E7E8"/>
<path d="M527.142 153.489C527.607 149.344 527.165 145.138 525.851 141.215L520.823 142.665C520.197 140.925 519.359 139.286 518.33 137.79L522.125 133.913C519.754 130.629 516.707 127.996 513.229 126.225L510.614 131.121C509.041 130.371 507.383 129.853 505.684 129.583L505.846 123.93C502.034 123.426 498.167 123.907 494.558 125.336L495.891 130.803C494.291 131.483 492.784 132.395 491.409 133.513L487.842 129.386C484.48 131.566 481.966 135.006 480.771 139.059L485.274 141.903C484.584 143.613 484.108 145.416 483.86 147.264L478.661 147.088C478.196 151.232 478.639 155.438 479.953 159.361L484.981 157.912C485.607 159.651 486.446 161.291 487.474 162.786L483.678 166.663C486.05 169.948 489.097 172.581 492.574 174.351L495.191 169.455C496.763 170.206 498.421 170.723 500.12 170.993L499.958 176.646C503.77 177.15 507.638 176.669 511.246 175.24L509.913 169.774C511.512 169.093 513.02 168.181 514.396 167.063L517.962 171.189C520.982 168.611 523.404 165.298 525.032 161.516L520.529 158.673C521.22 156.963 521.696 155.16 521.943 153.312L527.142 153.489ZM504.241 163C501.929 163.288 499.591 162.824 497.521 161.666C495.452 160.509 493.744 158.71 492.615 156.497C491.486 154.285 490.985 151.758 491.177 149.236C491.368 146.714 492.243 144.311 493.691 142.33C495.138 140.348 497.094 138.878 499.31 138.106C501.526 137.333 503.902 137.292 506.14 137.988C508.377 138.684 510.375 140.085 511.879 142.015C513.384 143.946 514.329 146.318 514.594 148.832C514.77 150.501 514.641 152.192 514.216 153.807C513.791 155.423 513.078 156.932 512.116 158.247C511.155 159.563 509.965 160.66 508.613 161.475C507.262 162.291 505.777 162.809 504.241 163Z" fill="#E6E7E8"/>
<path d="M510.56 149.34C510.733 150.987 510.454 152.652 509.756 154.126C509.059 155.6 507.975 156.816 506.642 157.62C505.31 158.424 503.787 158.78 502.268 158.644C500.749 158.507 499.301 157.884 498.108 156.853C496.915 155.822 496.029 154.429 495.564 152.851C495.099 151.272 495.074 149.58 495.493 147.986C495.913 146.393 496.757 144.97 497.92 143.899C499.083 142.827 500.512 142.155 502.026 141.966C503.032 141.841 504.05 141.932 505.024 142.235C505.997 142.537 506.906 143.046 507.698 143.73C508.491 144.415 509.151 145.263 509.643 146.226C510.134 147.188 510.445 148.247 510.56 149.34Z" fill="#E6E7E8"/>
<path d="M542.847 261.616L525.795 266.415L516.603 262.312L533.655 257.514L542.847 261.616Z" stroke="#707070" stroke-miterlimit="10"/>
<path d="M538.231 241.49L521.179 246.289L511.987 242.186L529.039 237.388L538.231 241.49Z" stroke="#707070" stroke-miterlimit="10"/>
<path d="M538.226 241.492L542.846 261.616" stroke="#707070" stroke-miterlimit="10"/>
<path d="M520.986 246.401L525.796 266.416" stroke="#707070" stroke-miterlimit="10"/>
<path d="M511.796 242.299L516.606 262.314" stroke="#707070" stroke-miterlimit="10"/>
<path d="M528.847 237.5L533.657 257.515" stroke="#707070" stroke-miterlimit="10"/>
<path d="M235.986 340.931L242.683 259.49" stroke="#231F20" stroke-width="1.5" stroke-miterlimit="10"/>
<path d="M321.674 340.887L314.927 259.452" stroke="#231F20" stroke-width="1.5" stroke-miterlimit="10"/>
<path d="M363.454 18.0474H194.055V264.028H363.454V18.0474Z" fill="white" stroke="#A7A9AC" stroke-miterlimit="10"/>
<path d="M354.182 255.211L354.084 29.4548L203.286 29.5321L203.384 255.288L354.182 255.211Z" fill="#E6E7E8"/>
<path d="M278.717 53.448C278.717 53.448 240.576 75.1125 240.594 117.093C240.609 152.995 254.792 210.064 254.792 210.064L278.785 210.052L302.776 210.038C302.776 210.038 316.91 152.957 316.894 117.054C316.876 75.0742 278.717 53.448 278.717 53.448Z" fill="url(#paint0_linear_0_20)"/>
<path d="M234.742 187.452C232.62 197.378 232.412 230.68 232.392 238.737C232.393 238.811 232.418 238.883 232.462 238.94C232.507 238.997 232.568 239.035 232.636 239.048C232.703 239.061 232.773 239.048 232.833 239.012C232.893 238.975 232.939 238.916 232.963 238.846C235.509 231.573 245.958 202.575 252.004 198.647C255.129 185.062 253.238 172.355 251.991 168.306C251.991 168.312 238.513 169.789 234.742 187.452Z" fill="url(#paint1_linear_0_20)"/>
<path d="M322.808 187.412C324.936 197.335 325.175 230.638 325.201 238.694C325.2 238.768 325.175 238.84 325.13 238.896C325.086 238.952 325.025 238.99 324.958 239.003C324.891 239.016 324.821 239.003 324.762 238.967C324.702 238.931 324.656 238.873 324.631 238.804C322.078 231.533 311.601 202.546 305.555 198.621C303.431 188.64 303.427 178.263 305.541 168.28C305.541 168.28 319.02 169.748 322.808 187.412Z" fill="url(#paint2_linear_0_20)"/>
<path d="M248.464 239.835C248.464 239.987 248.423 240.136 248.345 240.262C248.268 240.389 248.157 240.487 248.028 240.546C247.899 240.604 247.757 240.619 247.619 240.589C247.482 240.56 247.356 240.486 247.257 240.379C247.159 240.271 247.091 240.134 247.064 239.985C247.037 239.836 247.051 239.682 247.104 239.541C247.158 239.401 247.248 239.28 247.365 239.196C247.481 239.111 247.618 239.066 247.757 239.066C247.945 239.066 248.125 239.147 248.257 239.292C248.39 239.436 248.464 239.631 248.464 239.835Z" fill="white"/>
<path d="M255.412 239.43H249.772V240.238H255.412V239.43Z" fill="white"/>
<path d="M248.467 242.797C248.467 242.949 248.425 243.098 248.348 243.224C248.27 243.351 248.16 243.449 248.03 243.508C247.901 243.566 247.759 243.581 247.622 243.551C247.485 243.522 247.359 243.448 247.26 243.341C247.161 243.233 247.094 243.096 247.066 242.947C247.039 242.798 247.053 242.643 247.107 242.503C247.16 242.362 247.251 242.242 247.367 242.158C247.483 242.073 247.62 242.028 247.76 242.028C247.947 242.028 248.127 242.109 248.26 242.254C248.392 242.398 248.467 242.593 248.467 242.797Z" fill="white"/>
<path d="M255.414 242.391H249.774V243.199H255.414V242.391Z" fill="white"/>
<path d="M248.468 245.76C248.468 245.912 248.426 246.061 248.349 246.187C248.271 246.313 248.161 246.412 248.031 246.47C247.902 246.528 247.76 246.544 247.623 246.514C247.486 246.484 247.36 246.411 247.261 246.304C247.162 246.196 247.095 246.059 247.067 245.91C247.04 245.761 247.054 245.606 247.108 245.466C247.161 245.325 247.252 245.205 247.368 245.121C247.484 245.036 247.621 244.991 247.761 244.991C247.854 244.991 247.946 245.011 248.031 245.05C248.117 245.088 248.195 245.145 248.261 245.216C248.326 245.288 248.379 245.372 248.414 245.466C248.45 245.559 248.468 245.659 248.468 245.76Z" fill="white"/>
<path d="M255.415 245.354H249.775V246.162H255.415V245.354Z" fill="white"/>
<path d="M335.263 69.635C335.263 69.7871 335.304 69.9357 335.382 70.0622C335.46 70.1886 335.57 70.2871 335.699 70.3453C335.829 70.4035 335.971 70.4188 336.108 70.3892C336.245 70.3595 336.371 70.2862 336.47 70.1787C336.569 70.0711 336.636 69.9342 336.663 69.785C336.691 69.6359 336.677 69.4813 336.623 69.3408C336.57 69.2003 336.479 69.0802 336.363 68.9957C336.246 68.9112 336.11 68.8662 335.97 68.8662C335.877 68.8662 335.785 68.886 335.699 68.9247C335.614 68.9633 335.536 69.0201 335.47 69.0915C335.404 69.1628 335.352 69.2476 335.317 69.3408C335.281 69.4341 335.263 69.534 335.263 69.635Z" fill="white"/>
<path d="M333.956 69.2332H328.316V70.0415H333.956V69.2332Z" fill="white"/>
<path d="M335.263 72.5962C335.263 72.7482 335.305 72.8969 335.383 73.0233C335.46 73.1498 335.571 73.2483 335.7 73.3065C335.829 73.3647 335.971 73.3799 336.108 73.3502C336.245 73.3205 336.372 73.2474 336.47 73.1398C336.569 73.0323 336.637 72.8953 336.664 72.7462C336.691 72.5971 336.677 72.4425 336.624 72.302C336.57 72.1615 336.48 72.0414 336.363 71.9569C336.247 71.8724 336.11 71.8274 335.97 71.8274C335.783 71.8274 335.603 71.9083 335.47 72.0525C335.338 72.1967 335.263 72.3923 335.263 72.5962Z" fill="white"/>
<path d="M333.956 72.1943H328.316V73.0027H333.956V72.1943Z" fill="white"/>
<path d="M335.264 75.5582C335.264 75.7103 335.306 75.8589 335.384 75.9854C335.461 76.1118 335.572 76.2104 335.701 76.2685C335.83 76.3267 335.972 76.3419 336.11 76.3123C336.247 76.2826 336.373 76.2094 336.472 76.1019C336.571 75.9944 336.638 75.8574 336.665 75.7082C336.692 75.5591 336.678 75.4044 336.625 75.2639C336.571 75.1234 336.481 75.0034 336.364 74.919C336.248 74.8345 336.111 74.7893 335.972 74.7893C335.784 74.7893 335.604 74.8704 335.472 75.0146C335.339 75.1587 335.264 75.3543 335.264 75.5582Z" fill="white"/>
<path d="M333.958 75.1572H328.317V75.9645H333.958V75.1572Z" fill="white"/>
<path d="M299.946 116.136C299.948 120.695 298.706 125.153 296.378 128.945C294.051 132.737 290.741 135.693 286.868 137.44C282.995 139.187 278.733 139.645 274.62 138.758C270.507 137.871 266.729 135.678 263.762 132.456C260.796 129.234 258.775 125.127 257.955 120.656C257.135 116.185 257.552 111.55 259.154 107.337C260.757 103.124 263.472 99.5224 266.957 96.9874C270.442 94.4523 274.54 93.0978 278.733 93.0952C281.517 93.0935 284.275 93.6882 286.848 94.8452C289.42 96.0022 291.758 97.6989 293.728 99.8385C295.698 101.978 297.261 104.519 298.328 107.315C299.394 110.111 299.944 113.109 299.946 116.136Z" fill="#231F20"/>
<path d="M292.426 131.024C299.982 122.808 299.982 109.487 292.426 101.271C284.87 93.0549 272.619 93.0549 265.063 101.271C257.506 109.487 257.506 122.808 265.063 131.024C272.619 139.24 284.87 139.24 292.426 131.024Z" stroke="#707070" stroke-miterlimit="10"/>
<path d="M290.537 130.209C297.677 123.118 298.179 111.077 291.658 103.314C285.137 95.5503 274.063 95.0046 266.923 102.095C259.784 109.185 259.282 121.226 265.802 128.99C272.323 136.753 283.397 137.299 290.537 130.209Z" fill="#E6E7E8"/>
<g opacity="0.65">
<path opacity="0.65" d="M298.022 103.094L291.867 97.0334L262.56 132.224L268.715 138.284L298.022 103.094Z" fill="white"/>
<path opacity="0.65" d="M300.678 105.705L299.511 104.557L270.205 139.748L271.371 140.896L300.678 105.705Z" fill="white"/>
<path opacity="0.65" d="M289.892 95.5275L287.896 93.5615L258.572 128.757L260.568 130.723L289.892 95.5275Z" fill="white"/>
</g>
<path d="M278.768 172.383C275.604 171.775 271.294 184.59 271.294 196.148C271.294 206.143 276.907 232.018 278.421 238.823C278.435 238.885 278.469 238.939 278.517 238.976C278.564 239.013 278.623 239.031 278.681 239.025C278.739 239.02 278.794 238.992 278.835 238.947C278.876 238.902 278.901 238.842 278.906 238.778C279.582 228.31 282.922 173.183 278.768 172.383Z" fill="url(#paint3_linear_0_20)"/>
<path d="M257.717 71.7715H299.75C293.679 64.487 286.579 58.3015 278.717 53.448C270.866 58.3042 263.777 64.4896 257.717 71.7715Z" fill="#231F20"/>
<path d="M313.827 38.3144L329.169 38.3074" stroke="white" stroke-linejoin="round"/>
<path d="M313.828 41.3639L338.279 41.3518" stroke="white" stroke-linejoin="round"/>
<path d="M313.829 44.4127L338.28 44.4006" stroke="white" stroke-linejoin="round"/>
<path d="M313.831 47.462L338.282 47.45" stroke="white" stroke-linejoin="round"/>
<path d="M216.983 68.7206L232.324 68.7136" stroke="white" stroke-linejoin="round"/>
<path d="M216.985 71.7704L241.436 71.7583" stroke="white" stroke-linejoin="round"/>
<path d="M216.986 74.8192L241.437 74.8071" stroke="white" stroke-linejoin="round"/>
<path d="M216.987 77.8693L241.438 77.8572" stroke="white" stroke-linejoin="round"/>
<path d="M336.261 104.415L344.784 104.411" stroke="white" stroke-linejoin="round"/>
<path d="M320.266 107.473L344.716 107.46" stroke="white" stroke-linejoin="round"/>
<path d="M320.268 110.522L344.718 110.51" stroke="white" stroke-linejoin="round"/>
<path d="M320.269 113.571L344.72 113.559" stroke="white" stroke-linejoin="round"/>
<path d="M227.135 156.28L235.658 156.276" stroke="white" stroke-linejoin="round"/>
<path d="M211.14 159.338L235.591 159.326" stroke="white" stroke-linejoin="round"/>
<path d="M211.141 162.387L235.592 162.375" stroke="white" stroke-linejoin="round"/>
<path d="M211.142 165.436L235.593 165.424" stroke="white" stroke-linejoin="round"/>
<path d="M302.97 232.915L287.732 232.922" stroke="white" stroke-linejoin="round"/>
<path d="M312.251 235.959L287.801 235.971" stroke="white" stroke-linejoin="round"/>
<path d="M312.253 239.008L287.803 239.02" stroke="white" stroke-linejoin="round"/>
<path d="M312.254 242.058L287.803 242.07" stroke="white" stroke-linejoin="round"/>
<path d="M278.288 192.075L298.87 192.065L298.888 227.981" stroke="#A7A9AC" stroke-miterlimit="10"/>
<path d="M278.288 190.747C278.048 190.747 277.813 190.825 277.614 190.97C277.414 191.115 277.259 191.321 277.167 191.562C277.076 191.803 277.052 192.069 277.099 192.324C277.146 192.58 277.262 192.815 277.432 192.999C277.602 193.183 277.819 193.308 278.054 193.359C278.29 193.409 278.534 193.382 278.755 193.281C278.976 193.181 279.165 193.011 279.298 192.794C279.431 192.576 279.501 192.321 279.5 192.06C279.498 191.711 279.37 191.377 279.143 191.131C278.916 190.885 278.608 190.747 278.288 190.747Z" fill="#BCBEC0"/>
<path d="M285.962 64.1292L285.957 44.4273L309.862 44.4153" stroke="#A7A9AC" stroke-miterlimit="10"/>
<path d="M247.609 124.078L227.12 124.089L227.103 83.394" stroke="#A7A9AC" stroke-miterlimit="10"/>
<path d="M237.356 208.38L221.69 208.4L221.674 169.738" stroke="#A7A9AC" stroke-miterlimit="10"/>
<path d="M237.356 207.087C237.116 207.087 236.882 207.164 236.682 207.309C236.483 207.454 236.328 207.66 236.236 207.901C236.144 208.142 236.12 208.407 236.167 208.662C236.214 208.918 236.329 209.153 236.499 209.337C236.668 209.522 236.884 209.647 237.119 209.698C237.354 209.749 237.598 209.723 237.819 209.623C238.041 209.523 238.23 209.354 238.364 209.137C238.497 208.921 238.568 208.666 238.568 208.405C238.568 208.232 238.536 208.061 238.475 207.901C238.415 207.741 238.325 207.596 238.213 207.473C238.1 207.351 237.967 207.254 237.819 207.188C237.672 207.121 237.515 207.087 237.356 207.087Z" fill="#BCBEC0"/>
<path d="M282.188 129.07L332.501 129.045V119.434" stroke="#A7A9AC" stroke-miterlimit="10"/>
<path d="M247.608 122.778C247.369 122.778 247.134 122.855 246.935 123C246.736 123.145 246.58 123.351 246.489 123.592C246.397 123.832 246.373 124.097 246.42 124.353C246.466 124.609 246.582 124.844 246.751 125.028C246.921 125.212 247.137 125.338 247.372 125.389C247.607 125.439 247.851 125.413 248.072 125.314C248.294 125.214 248.483 125.045 248.616 124.828C248.749 124.611 248.821 124.357 248.821 124.096C248.821 123.746 248.693 123.411 248.465 123.164C248.238 122.917 247.93 122.778 247.608 122.778Z" fill="#BCBEC0"/>
<path d="M282.268 127.752C282.028 127.752 281.794 127.83 281.594 127.975C281.395 128.12 281.24 128.326 281.148 128.567C281.056 128.808 281.033 129.074 281.08 129.33C281.127 129.585 281.243 129.82 281.413 130.004C281.583 130.188 281.8 130.314 282.035 130.364C282.271 130.414 282.514 130.387 282.736 130.287C282.957 130.186 283.146 130.016 283.279 129.799C283.411 129.581 283.482 129.326 283.481 129.065C283.479 128.716 283.351 128.383 283.124 128.137C282.897 127.891 282.589 127.752 282.268 127.752Z" fill="#BCBEC0"/>
<path d="M285.956 62.8154C285.716 62.8154 285.482 62.8928 285.283 63.0376C285.083 63.1824 284.928 63.3883 284.836 63.6291C284.745 63.87 284.721 64.1349 284.767 64.3905C284.814 64.6462 284.93 64.8811 285.099 65.0655C285.269 65.2498 285.485 65.3753 285.72 65.4261C285.955 65.477 286.199 65.4509 286.42 65.3512C286.642 65.2514 286.831 65.0824 286.964 64.8657C287.097 64.6489 287.168 64.3942 287.168 64.1335C287.168 63.784 287.041 63.4486 286.813 63.2014C286.586 62.9543 286.278 62.8154 285.956 62.8154Z" fill="#BCBEC0"/>
<path d="M119.919 52.5769H44.5511V185.155H140.266V76.4195L119.919 52.5769Z" fill="white" stroke="#A7A9AC" stroke-miterlimit="10"/>
<path d="M119.913 58.3015H49.8116V179.427H134.994V76.1911" stroke="#A7A9AC" stroke-miterlimit="10"/>
<path d="M119.918 52.5769V76.3482L140.265 76.4163" stroke="#A7A9AC" stroke-miterlimit="10"/>
<path d="M113.609 127.054C113.611 131.613 112.369 136.07 110.041 139.862C107.714 143.654 104.404 146.611 100.531 148.357C96.6582 150.104 92.3958 150.563 88.283 149.676C84.1703 148.789 80.3918 146.596 77.4254 143.373C74.459 140.151 72.4379 136.045 71.6177 131.574C70.7975 127.103 71.215 122.468 72.8174 118.255C74.4199 114.042 77.1353 110.44 80.6203 107.905C84.1052 105.37 88.2033 104.016 92.3962 104.013C95.1804 104.011 97.9377 104.606 100.511 105.763C103.083 106.92 105.422 108.616 107.391 110.756C109.361 112.896 110.924 115.436 111.991 118.233C113.057 121.029 113.607 124.026 113.609 127.054Z" fill="url(#paint4_linear_0_20)"/>
<path d="M105.768 142.284C113.498 134.261 113.783 120.944 106.405 112.539C99.0265 104.134 86.7789 103.824 79.049 111.847C71.3192 119.869 71.0342 133.187 78.4125 141.592C85.7908 149.997 98.0384 150.306 105.768 142.284Z" stroke="white" stroke-width="1.5" stroke-miterlimit="10" stroke-linecap="round" stroke-dasharray="0.03 15"/>
<path d="M109.635 130.52C111.39 120.175 105.1 110.242 95.5862 108.333C86.0721 106.425 76.9367 113.264 75.1816 123.609C73.4265 133.954 79.7164 143.887 89.2305 145.796C98.7445 147.704 107.88 140.865 109.635 130.52Z" fill="#E6E7E8"/>
<path d="M111.687 114.013L105.531 107.95L76.209 143.147L82.3649 149.21L111.687 114.013Z" fill="white"/>
<path d="M114.344 116.624L113.177 115.475L83.8528 150.67L85.0191 151.819L114.344 116.624Z" fill="white"/>
<path d="M103.556 106.443L101.56 104.478L72.2375 139.674L74.2333 141.64L103.556 106.443Z" fill="white"/>
<path d="M109.635 115.631C109.395 115.631 109.161 115.708 108.962 115.853C108.762 115.998 108.607 116.205 108.515 116.446C108.424 116.687 108.4 116.952 108.447 117.208C108.494 117.464 108.61 117.699 108.78 117.883C108.95 118.067 109.167 118.192 109.402 118.242C109.638 118.292 109.881 118.266 110.103 118.165C110.324 118.064 110.513 117.895 110.646 117.677C110.778 117.46 110.849 117.204 110.848 116.943C110.846 116.595 110.718 116.261 110.491 116.015C110.264 115.769 109.956 115.631 109.635 115.631Z" fill="#A7A9AC"/>
<path d="M70.6389 64.4949H114.178" stroke="#A7A9AC" stroke-miterlimit="10"/>
<path d="M68.1248 67.5637H116.692" stroke="#A7A9AC" stroke-miterlimit="10"/>
<path d="M117.552 85.2506L125.823 85.2466" stroke="#A7A9AC" stroke-miterlimit="10"/>
<path d="M117.554 88.2995L130.736 88.2935" stroke="#A7A9AC" stroke-miterlimit="10"/>
<path d="M117.555 91.3488L130.737 91.3428" stroke="#A7A9AC" stroke-miterlimit="10"/>
<path d="M117.557 94.3976L130.739 94.3916" stroke="#A7A9AC" stroke-miterlimit="10"/>
<path d="M109.64 116.939L117.88 116.957V97.7852" stroke="#A7A9AC" stroke-width="0.75" stroke-miterlimit="10"/>
<path d="M67.6809 80.7477L59.4101 80.7437" stroke="#A7A9AC" stroke-miterlimit="10"/>
<path d="M67.6792 83.7965L54.4973 83.7905" stroke="#A7A9AC" stroke-miterlimit="10"/>
<path d="M67.6784 86.8454L54.4965 86.8394" stroke="#A7A9AC" stroke-miterlimit="10"/>
<path d="M67.6775 89.8942L54.4955 89.8882" stroke="#A7A9AC" stroke-miterlimit="10"/>
<path d="M81.733 118.257L67.352 118.275V93.2869" stroke="#A7A9AC" stroke-width="0.75" stroke-miterlimit="10"/>
<path d="M78.3612 155.72L70.0904 155.716" stroke="#A7A9AC" stroke-miterlimit="10"/>
<path d="M78.359 158.768L65.1771 158.762" stroke="#A7A9AC" stroke-miterlimit="10"/>
<path d="M78.3581 161.818L65.1761 161.812" stroke="#A7A9AC" stroke-miterlimit="10"/>
<path d="M78.3572 164.868L65.1752 164.862" stroke="#A7A9AC" stroke-miterlimit="10"/>
<path d="M86.3758 141.981L86.392 167.663H63.411" stroke="#A7A9AC" stroke-width="0.75" stroke-miterlimit="10"/>
<path d="M441.85 53.8125H388.754V147.214H456.185V70.6071L441.85 53.8125Z" fill="white" stroke="#A7A9AC" stroke-miterlimit="10"/>
<path d="M441.848 57.8489H392.464V143.182H452.472V70.4512" stroke="#A7A9AC" stroke-miterlimit="10"/>
<path d="M441.851 53.8125V70.5599L456.185 70.6082" stroke="#A7A9AC" stroke-miterlimit="10"/>
<path d="M407.723 99.1362L437.192 99.1209C432.91 94.0855 427.938 89.8 422.452 86.4165C416.969 89.8053 412 94.0958 407.723 99.1362Z" fill="url(#paint5_linear_0_20)"/>
<path d="M438.875 98.4553H406.939V99.8019H438.875V98.4553Z" fill="url(#paint6_linear_0_20)"/>
<path d="M406.108 125.967C406.108 126.068 406.136 126.166 406.187 126.249C406.238 126.332 406.311 126.397 406.397 126.435C406.482 126.474 406.576 126.483 406.666 126.464C406.757 126.444 406.84 126.396 406.905 126.325C406.97 126.254 407.014 126.163 407.032 126.065C407.05 125.966 407.041 125.864 407.006 125.772C406.97 125.679 406.91 125.6 406.834 125.544C406.757 125.488 406.667 125.459 406.574 125.459C406.513 125.459 406.452 125.472 406.396 125.497C406.339 125.523 406.288 125.56 406.244 125.608C406.201 125.655 406.166 125.711 406.143 125.773C406.12 125.834 406.108 125.901 406.108 125.967Z" fill="#A7A9AC"/>
<path d="M405.246 125.703H401.542V126.233H405.246V125.703Z" fill="#A7A9AC"/>
<path d="M406.108 127.913C406.108 128.013 406.136 128.111 406.187 128.194C406.238 128.277 406.311 128.342 406.397 128.381C406.482 128.419 406.576 128.429 406.666 128.409C406.757 128.389 406.84 128.341 406.905 128.27C406.97 128.199 407.014 128.108 407.032 128.01C407.05 127.912 407.041 127.81 407.006 127.717C406.97 127.624 406.91 127.545 406.834 127.489C406.757 127.434 406.667 127.404 406.574 127.404C406.513 127.404 406.452 127.417 406.396 127.443C406.339 127.468 406.288 127.506 406.244 127.553C406.201 127.6 406.166 127.656 406.143 127.718C406.12 127.78 406.108 127.846 406.108 127.913Z" fill="#A7A9AC"/>
<path d="M405.246 127.648H401.542V128.178H405.246V127.648Z" fill="#A7A9AC"/>
<path d="M406.108 129.858C406.108 129.958 406.136 130.056 406.187 130.139C406.239 130.223 406.312 130.288 406.397 130.326C406.482 130.364 406.576 130.374 406.666 130.354C406.757 130.335 406.84 130.286 406.905 130.215C406.97 130.144 407.015 130.054 407.033 129.955C407.05 129.857 407.041 129.755 407.006 129.662C406.971 129.57 406.911 129.49 406.834 129.435C406.757 129.379 406.667 129.349 406.575 129.349C406.451 129.35 406.332 129.403 406.245 129.499C406.157 129.594 406.108 129.723 406.108 129.858Z" fill="#A7A9AC"/>
<path d="M405.247 129.594H401.543V130.125H405.247V129.594Z" fill="#A7A9AC"/>
<path d="M444.328 112.89C437.576 96.1313 422.449 87.551 422.449 87.551C422.449 87.551 407.344 96.139 400.602 112.89H444.328Z" stroke="#231F20" stroke-miterlimit="10"/>
<path d="M437.299 77.9732L443.904 77.9702" stroke="#A7A9AC" stroke-miterlimit="10"/>
<path d="M437.3 80.8551L447.827 80.8501" stroke="#A7A9AC" stroke-miterlimit="10"/>
<path d="M437.301 83.736L447.828 83.731" stroke="#A7A9AC" stroke-miterlimit="10"/>
<path d="M437.304 86.618L447.831 86.613" stroke="#A7A9AC" stroke-miterlimit="10"/>
<path d="M428.944 102.368L428.939 83.7498L434.909 83.741" stroke="#A7A9AC" stroke-miterlimit="10"/>
<path d="M428.937 101.123C428.711 101.124 428.491 101.198 428.304 101.335C428.117 101.473 427.972 101.667 427.886 101.894C427.801 102.121 427.779 102.37 427.824 102.61C427.869 102.851 427.978 103.071 428.138 103.244C428.298 103.417 428.501 103.534 428.722 103.582C428.944 103.629 429.173 103.604 429.381 103.51C429.589 103.416 429.767 103.257 429.892 103.053C430.017 102.849 430.084 102.609 430.084 102.364C430.083 102.034 429.962 101.718 429.747 101.485C429.531 101.253 429.24 101.122 428.937 101.123Z" fill="#BCBEC0"/>
<path d="M407.594 69.7149L400.989 69.7119" stroke="#A7A9AC" stroke-miterlimit="10"/>
<path d="M407.591 72.5956L397.064 72.5906" stroke="#A7A9AC" stroke-miterlimit="10"/>
<path d="M407.591 75.4777L397.063 75.4727" stroke="#A7A9AC" stroke-miterlimit="10"/>
<path d="M407.59 78.3585L397.062 78.3535" stroke="#A7A9AC" stroke-miterlimit="10"/>
<path d="M415.947 94.1094L415.953 85.2985L397.266 85.2876V80.8547" stroke="#A7A9AC" stroke-miterlimit="10"/>
<path d="M415.954 92.8682C416.18 92.8697 416.4 92.9437 416.587 93.0811C416.773 93.2184 416.919 93.4129 417.004 93.6399C417.089 93.8669 417.111 94.1163 417.066 94.3565C417.021 94.5968 416.912 94.8171 416.752 94.9899C416.592 95.1627 416.388 95.2801 416.167 95.3272C415.945 95.3744 415.716 95.3491 415.508 95.2548C415.3 95.1605 415.122 95.0013 414.997 94.7972C414.872 94.5932 414.806 94.3533 414.806 94.1081C414.806 93.9447 414.837 93.783 414.895 93.6323C414.953 93.4815 415.037 93.3446 415.144 93.2295C415.251 93.1144 415.377 93.0232 415.516 92.9612C415.655 92.8992 415.804 92.8676 415.954 92.8682Z" fill="#BCBEC0"/>
<path d="M429.644 133.669L436.249 133.672" stroke="#A7A9AC" stroke-miterlimit="10"/>
<path d="M429.645 130.788L440.172 130.793" stroke="#A7A9AC" stroke-miterlimit="10"/>
<path d="M429.646 127.907L440.173 127.912" stroke="#A7A9AC" stroke-miterlimit="10"/>
<path d="M429.648 125.025L440.175 125.03" stroke="#A7A9AC" stroke-miterlimit="10"/>
<path d="M419.565 109.091L419.559 133.482L426.933 133.493" stroke="#A7A9AC" stroke-miterlimit="10"/>
<path d="M419.559 110.332C419.333 110.33 419.113 110.256 418.926 110.119C418.739 109.982 418.594 109.788 418.508 109.561C418.423 109.334 418.401 109.085 418.446 108.844C418.491 108.604 418.6 108.384 418.76 108.211C418.92 108.038 419.123 107.92 419.344 107.873C419.565 107.825 419.795 107.85 420.003 107.944C420.211 108.039 420.389 108.198 420.514 108.402C420.639 108.606 420.706 108.845 420.706 109.091C420.706 109.254 420.676 109.416 420.618 109.566C420.56 109.717 420.475 109.854 420.369 109.969C420.262 110.085 420.136 110.176 419.997 110.238C419.858 110.3 419.709 110.332 419.559 110.332Z" fill="#BCBEC0"/>
<path d="M35.1476 264.17L40.6719 271.518L39.3456 276.181L34.5638 276.95L29.0395 269.601C28.3967 271.396 28.3188 273.372 28.8179 275.221C29.317 277.069 30.365 278.686 31.7983 279.818C33.2316 280.951 34.9695 281.535 36.7405 281.481C38.5115 281.426 40.216 280.735 41.5877 279.516C42.9594 278.296 43.9213 276.617 44.3229 274.741C44.7245 272.865 44.5434 270.897 43.8078 269.144C43.0722 267.392 41.8235 265.953 40.2568 265.054C38.6901 264.154 36.8935 263.844 35.1476 264.172V264.17Z" fill="#D7DEF9"/>
<path d="M43.7305 275.587L37.6227 281.016L58.927 309.353L65.0348 303.924L43.7305 275.587Z" fill="#D7DEF9"/>
<path d="M60.4256 304.57C59.1974 305.661 58.2945 307.124 57.831 308.774C57.3676 310.424 57.3644 312.186 57.8219 313.837C58.2794 315.489 59.1771 316.956 60.4014 318.052C61.6256 319.149 63.1215 319.827 64.6999 319.999C66.2782 320.171 67.8682 319.831 69.2686 319.021C70.669 318.21 71.817 316.967 72.5675 315.447C73.3179 313.928 73.637 312.2 73.4845 310.483C73.3319 308.767 72.7146 307.137 71.7106 305.802C70.3643 304.012 68.4191 302.876 66.3028 302.645C64.1865 302.414 62.0724 303.106 60.4256 304.57ZM70.0934 310.507L68.4459 315.238L63.8549 316.053L60.9104 312.136L62.5569 307.405L67.1489 306.591L70.0934 310.507Z" fill="#D7DEF9"/>
<path d="M90.6501 324.692L93.247 314.826L97.8744 313.231L101.448 317.378L98.8512 327.245C100.714 326.759 102.377 325.616 103.579 323.994C104.782 322.372 105.457 320.363 105.498 318.28C105.54 316.197 104.946 314.158 103.809 312.481C102.672 310.804 101.057 309.584 99.2148 309.011C97.3728 308.437 95.4081 308.543 93.6275 309.312C91.8469 310.081 90.3506 311.47 89.3723 313.261C88.394 315.052 87.9888 317.145 88.22 319.213C88.4512 321.281 89.3056 323.208 90.6501 324.692Z" fill="#D7DEF9"/>
<path d="M104.699 271.331L94.6898 309.363L102.887 311.914L112.896 273.882L104.699 271.331Z" fill="#D7DEF9"/>
<path d="M108.075 275.37C109.724 275.883 111.476 275.853 113.109 275.283C114.743 274.714 116.184 273.631 117.251 272.171C118.318 270.711 118.963 268.94 119.104 267.081C119.245 265.222 118.877 263.36 118.044 261.729C117.212 260.099 115.954 258.773 114.429 257.92C112.904 257.067 111.18 256.724 109.476 256.936C107.772 257.148 106.164 257.905 104.856 259.111C103.547 260.316 102.597 261.917 102.125 263.71C101.811 264.9 101.716 266.146 101.846 267.376C101.975 268.607 102.326 269.797 102.879 270.88C103.431 271.963 104.175 272.917 105.066 273.687C105.958 274.457 106.98 275.029 108.075 275.37ZM106.964 262.372L111.844 261.046L115.34 264.979L113.956 270.238L109.075 271.563L105.579 267.631L106.964 262.372Z" fill="#D7DEF9"/>
<path d="M41.0133 255.023L61.4247 249.265L78.4864 324.761C78.4864 324.761 77.245 329.366 70.9197 331.199C64.5944 333.032 60.5954 329.943 60.5954 329.943L41.0133 255.023Z" fill="#E4E7F9"/>
<path d="M48.0007 244.282C48.0007 244.282 58.2311 241.662 61.0442 247.358C63.8574 253.054 58.4826 256.837 53.8523 258.521C49.2219 260.205 40.2016 260.479 41.3683 253.228C42.3935 246.858 51.9037 246.065 54.1785 247.632C56.4533 249.199 56.9927 253.328 50.8815 254.756C44.7704 256.184 46.6299 250.306 49.7966 249.829" fill="#F0F4FF"/>
<path d="M47.0611 254.002C47.0611 254.002 49.2076 256.509 53.242 254.23C57.6764 251.725 56.8502 243.837 46.6986 247.598C36.4641 251.388 41.4237 260.498 48.5288 259.735L47.0611 254.002Z" fill="#E6EBFC"/>
<path d="M50.6501 255.257L49.3116 249.792C49.3116 249.792 46.2722 251.321 46.653 253.337C47.1257 255.823 50.6501 255.257 50.6501 255.257Z" fill="white"/>
<path d="M46.6896 253.528L48.2048 259.788C51.4315 259.611 54.5731 258.601 57.3706 256.844L55.6261 249.72C55.6261 249.72 56.1534 253.201 52.1917 254.65C48.2301 256.1 46.6896 253.528 46.6896 253.528Z" fill="#D7DEF9"/>
<path d="M79.0277 251.433L97.9602 255.343L84.9419 324.963C84.9419 324.963 82.2631 328.241 76.3782 327.069C70.4933 325.897 68.2973 321.649 68.2973 321.649L79.0277 251.433Z" fill="#E4E7F9"/>
<path d="M88.6587 245.527C88.6587 245.527 98.0527 247.706 98.3315 253.606C98.6103 259.506 92.8102 260.351 88.3799 259.775C83.9495 259.2 76.398 255.602 79.9667 250.101C83.098 245.269 91.2435 248.657 92.5597 250.918C93.8759 253.18 92.8395 256.819 87.2778 255.403C81.7162 253.987 85.3587 249.921 88.1506 250.872" fill="#F0F4FF"/>
<path d="M84.3872 253.158C84.3872 253.158 85.26 256.141 89.4115 255.972C93.9752 255.785 96.1258 248.917 86.3873 247.714C76.57 246.505 77.3973 256.132 83.5408 258.518L84.3872 253.158Z" fill="#E6EBFC"/>
<path d="M86.9082 255.72L87.7648 250.636C87.7648 250.636 84.7041 250.61 84.295 252.436C83.791 254.691 86.9082 255.72 86.9082 255.72Z" fill="white"/>
<path d="M84.2544 252.609L83.2564 258.423C85.9861 259.646 88.9443 260.146 91.8868 259.882L93.004 253.256C93.004 253.256 92.1959 256.355 88.3979 255.872C84.5999 255.388 84.2544 252.609 84.2544 252.609Z" fill="#D7DEF9"/>
<path d="M140.586 251.394L158.913 257.868L137.933 325.15C137.933 325.15 134.896 328.035 129.194 326.065C123.492 324.096 121.807 319.585 121.807 319.585L140.586 251.394Z" fill="#E4E7F9"/>
<path d="M150.823 246.854C150.823 246.854 159.89 250.302 159.483 256.19C159.076 262.078 153.22 262.121 148.896 260.948C144.572 259.775 137.494 255.162 141.671 250.199C145.34 245.839 153.025 250.309 154.069 252.734C155.112 255.159 153.665 258.625 148.311 256.459C142.958 254.293 147.048 250.759 149.703 252.084" fill="#F0F4FF"/>
<path d="M145.702 253.84C145.702 253.84 146.223 256.915 150.362 257.319C154.907 257.759 157.836 251.241 148.317 248.713C138.721 246.163 138.423 255.832 144.242 259.037L145.702 253.84Z" fill="#E6EBFC"/>
<path d="M147.907 256.726L149.346 251.8C149.346 251.8 146.316 251.354 145.695 253.111C144.933 255.279 147.907 256.726 147.907 256.726Z" fill="white"/>
<path d="M145.634 253.277L143.971 258.908C146.537 260.495 149.413 261.396 152.363 261.537L154.239 255.117C154.239 255.117 153.073 258.083 149.366 257.081C145.659 256.08 145.634 253.277 145.634 253.277Z" fill="#D7DEF9"/>
<path d="M112.907 298.615H47.7217V340.93H112.907V298.615Z" fill="white" stroke="#A7A9AC" stroke-miterlimit="10"/>
<path d="M147.934 298.615H112.26V340.93H147.934V298.615Z" fill="white" stroke="#A7A9AC" stroke-miterlimit="10"/>
<path d="M98.3074 319.033H33.428L47.3786 298.617H112.258L98.3074 319.033Z" fill="white" stroke="#A7A9AC" stroke-miterlimit="10"/>
<path d="M120.218 319.033H156.07L147.933 298.617H112.081L120.218 319.033Z" fill="white" stroke="#A7A9AC" stroke-miterlimit="10"/>
<path d="M21.496 219.172H32.3396" stroke="#707070" stroke-miterlimit="10"/>
<path d="M276.472 284.638H287.315" stroke="#707070" stroke-miterlimit="10"/>
<path d="M294.054 284.638H303.127" stroke="#707070" stroke-miterlimit="10"/>
<path d="M31.3464 213.987H37.8031" stroke="#707070" stroke-miterlimit="10"/>
<path d="M25.4648 162.838C25.465 163.264 25.3488 163.682 25.1308 164.037C24.9128 164.392 24.6029 164.669 24.2402 164.832C23.8776 164.996 23.4784 165.039 23.0933 164.956C22.7082 164.872 22.3545 164.667 22.0768 164.365C21.7991 164.063 21.6099 163.679 21.5333 163.26C21.4566 162.841 21.4959 162.407 21.6461 162.013C21.7963 161.619 22.0507 161.281 22.3771 161.044C22.7035 160.807 23.0873 160.68 23.4799 160.68C24.0062 160.68 24.5109 160.908 24.8831 161.312C25.2553 161.717 25.4646 162.265 25.4648 162.838V162.838Z" stroke="#707070" stroke-miterlimit="10"/>
<path d="M112.407 37.1123C113.503 37.1123 114.392 36.1461 114.392 34.9541C114.392 33.7622 113.503 32.7959 112.407 32.7959C111.311 32.7959 110.422 33.7622 110.422 34.9541C110.422 36.1461 111.311 37.1123 112.407 37.1123Z" stroke="#707070" stroke-miterlimit="10"/>
<path d="M280.613 307.113C281.709 307.113 282.598 306.146 282.598 304.954C282.598 303.762 281.709 302.796 280.613 302.796C279.517 302.796 278.628 303.762 278.628 304.954C278.628 306.146 279.517 307.113 280.613 307.113Z" stroke="#707070" stroke-miterlimit="10"/>
<path d="M221.674 5.00493C222.77 5.00493 223.659 4.03866 223.659 2.8467C223.659 1.65475 222.77 0.688477 221.674 0.688477C220.577 0.688477 219.689 1.65475 219.689 2.8467C219.689 4.03866 220.577 5.00493 221.674 5.00493Z" stroke="#707070" stroke-miterlimit="10"/>
<path d="M545.306 191.736C545.306 192.163 545.19 192.58 544.972 192.935C544.754 193.29 544.444 193.567 544.081 193.73C543.718 193.893 543.319 193.936 542.934 193.853C542.549 193.77 542.195 193.564 541.918 193.262C541.64 192.96 541.451 192.576 541.375 192.157C541.298 191.738 541.337 191.305 541.488 190.91C541.638 190.516 541.892 190.179 542.219 189.941C542.545 189.704 542.929 189.578 543.321 189.578C543.582 189.578 543.84 189.633 544.081 189.742C544.322 189.85 544.541 190.009 544.725 190.21C544.909 190.41 545.056 190.648 545.155 190.91C545.255 191.172 545.306 191.453 545.306 191.736V191.736Z" stroke="#707070" stroke-miterlimit="10"/>
<path d="M380.145 39.2708C381.241 39.2708 382.13 38.3045 382.13 37.1126C382.13 35.9206 381.241 34.9543 380.145 34.9543C379.049 34.9543 378.16 35.9206 378.16 37.1126C378.16 38.3045 379.049 39.2708 380.145 39.2708Z" stroke="#707070" stroke-miterlimit="10"/>
<path d="M497.235 76.3154H508.078" stroke="#707070" stroke-miterlimit="10"/>
<path d="M486.7 76.3154H493.156" stroke="#707070" stroke-miterlimit="10"/>
<path d="M479.091 93.6404V99.6955" stroke="#707070" stroke-miterlimit="10"/>
<path d="M481.876 96.6687H476.307" stroke="#707070" stroke-miterlimit="10"/>
<path d="M428.894 168.916V174.971" stroke="#707070" stroke-miterlimit="10"/>
<path d="M431.678 171.943H426.109" stroke="#707070" stroke-miterlimit="10"/>
<path d="M179.188 305.796V311.851" stroke="#707070" stroke-miterlimit="10"/>
<path d="M181.972 308.823H176.403" stroke="#707070" stroke-miterlimit="10"/>
<path d="M168.318 65.7109V71.766" stroke="#707070" stroke-miterlimit="10"/>
<path d="M171.102 68.739H165.533" stroke="#707070" stroke-miterlimit="10"/>
<path d="M461.884 340.688H459.965L462.556 278.218H467L461.884 340.688Z" fill="#BCBEC0"/>
<path d="M484.77 278.216L496.664 340.93" stroke="#231F20" stroke-width="0.75" stroke-miterlimit="10"/>
<path d="M442.612 278.216L430.718 340.93" stroke="#231F20" stroke-width="0.75" stroke-miterlimit="10"/>
<path d="M448.257 249.947C448.257 253.07 448.382 262.27 445.57 266.035C442.472 270.183 438.742 268.219 432.452 271.342C428.297 273.403 428.954 283.87 436.276 283.87H486.432C508.453 283.87 512.126 253.806 509.507 225.146C507.042 198.191 493.446 188.364 477.938 189.003C459.297 189.771 448.257 215.071 448.257 249.947Z" fill="#58595B"/>
<path d="M443.711 340.706L469.914 340.684L469.914 339.408L443.71 339.43L443.711 340.706Z" fill="#BCBEC0"/>
<path d="M466.185 328.89L468.453 329.471C468.453 329.471 469.32 332.691 469.653 334.933C469.857 336.414 469.945 337.911 469.913 339.408L443.71 339.43C443.71 339.43 444.395 336.961 450.648 332.978C452.061 332.106 453.32 330.967 454.366 329.614L466.185 328.89Z" fill="#58595B"/>
<path d="M451.853 332.12L453.487 334.232" stroke="white" stroke-width="0.75" stroke-miterlimit="10"/>
<path d="M449.907 333.505L451.541 335.617" stroke="white" stroke-width="0.75" stroke-miterlimit="10"/>
<path d="M448.091 334.774L449.725 336.886" stroke="white" stroke-width="0.75" stroke-miterlimit="10"/>
<path d="M468.883 318.638L468.453 329.471C468.453 329.471 467.353 330.918 462.902 330.921C460.017 330.88 457.149 330.441 454.366 329.614L453.487 315" fill="#F2B18F"/>
<path d="M414.649 340.931L440.342 335.334L440.111 334.083L414.418 339.68L414.649 340.931Z" fill="#BCBEC0"/>
<path d="M434.562 324.561L436.885 324.648C436.885 324.648 438.316 327.622 439.046 329.75C439.513 331.159 439.868 332.609 440.108 334.083L414.414 339.679C414.414 339.679 414.642 337.112 420.057 331.881C421.286 330.725 422.316 329.34 423.097 327.791L434.562 324.561Z" fill="#58595B"/>
<path d="M421.735 330.005L423.736 331.704" stroke="white" stroke-width="0.75" stroke-miterlimit="10"/>
<path d="M420.095 331.798L422.096 333.497" stroke="white" stroke-width="0.75" stroke-miterlimit="10"/>
<path d="M418.56 333.447L420.561 335.146" stroke="white" stroke-width="0.75" stroke-miterlimit="10"/>
<path d="M433.35 314.669L436.886 324.648C436.886 324.648 436.068 326.301 431.705 327.251C428.868 327.825 425.976 328.005 423.098 327.786L417.373 314.535" fill="#F2B18F"/>
<path d="M455.324 239.345C455.324 239.345 418.165 243.477 407.313 258.987C396.46 274.496 414.99 326.813 414.99 326.813L435.89 319.145C435.89 319.145 424.992 281.727 428.402 273.893C431.812 266.06 463.526 267.743 463.526 267.743L484.217 237.099" fill="#231F20"/>
<path d="M493.919 239.345C493.919 239.345 499.244 249.982 495.232 261.83C491.727 272.182 479.699 266.368 473.187 270.675C466.675 274.983 470.128 325.118 470.128 325.118L447.959 325.316C447.959 325.316 441.421 277.487 447.003 261.832C452.585 246.178 471.812 240.782 471.812 240.782" fill="#231F20"/>
<path d="M480.418 243.385C481.327 248.366 490.334 247.31 490.334 247.31" stroke="#D1D3D4" stroke-width="0.75" stroke-linejoin="round"/>
<path d="M464.661 243.385C450.25 251.133 446.03 259.504 445.243 267.581" stroke="#D1D3D4" stroke-width="0.75" stroke-linejoin="round"/>
<path d="M487.927 241.631C487.927 241.631 493.463 249.935 489.454 258.032C485.445 266.129 471.46 260.954 467.664 269.147C463.868 277.341 467.113 324.959 467.113 324.959" stroke="#D1D3D4" stroke-width="0.75" stroke-linejoin="round"/>
<path d="M446.883 260.719C446.883 260.719 426.782 264.58 423.92 272.697C421.059 280.814 432.931 320.229 432.931 320.229" stroke="#D1D3D4" stroke-width="0.75" stroke-linejoin="round"/>
<path d="M460.866 159.089C460.866 159.089 455.934 168.507 458.381 172.329C459.653 174.316 464.158 175.469 466.361 174.153C467.998 173.174 471.356 165.851 470.756 164.345C468.467 158.587 460.866 159.089 460.866 159.089Z" fill="#F2B18F"/>
<path d="M471.039 170.845L471.948 181.958C471.948 181.958 464.508 188.134 460.1 181.131L460.692 172.344L471.039 170.845Z" fill="#F2B18F"/>
<path d="M473.684 169.169C474.449 167.371 474.953 165.455 475.178 163.49C475.282 162.807 475.162 162.105 474.841 161.507C474.52 160.909 474.017 160.452 473.419 160.214C473.419 160.214 473.764 160.491 472.611 158.288C471.526 156.21 468.199 156.477 466.181 156.232C463.53 155.91 461.068 154.128 459.562 155.336C458.905 155.862 457.558 159.722 459.758 160.91C461.015 161.589 463.008 161.065 464.435 161.24C467.092 161.557 469.039 162.345 469.442 164.158C469.591 165.05 469.506 165.97 469.196 166.811C469.113 167.096 469.045 167.386 468.994 167.679L470.077 168.441C471.456 169.356 468.663 172.046 468.929 173.254C469.069 173.887 470.263 174.101 471.284 173.524C472.306 172.948 472.942 171.429 473.684 169.169Z" fill="#231F20"/>
<path d="M469.413 168.585C470.544 167.195 471.386 167.478 471.81 168.305C472.378 169.409 471.016 171.546 470.416 171.889C469.204 172.583 468.252 172.445 468.214 171.399" fill="#F2B18F"/>
<path d="M460.547 174.47C462.628 175.049 464.83 174.815 466.77 173.811" stroke="#E88872" stroke-width="0.75" stroke-linejoin="round"/>
<path fill-rule="evenodd" clip-rule="evenodd" d="M439.73 191.617C439.73 191.617 427.567 201.112 425.258 201.112C423.004 201.112 409.162 180.953 409.162 180.953L402.66 185.475C402.66 185.475 416.095 218.359 425.347 218.579C434.598 218.799 449.488 205.438 449.488 205.438L445.658 187.942" fill="#F2B18F"/>
<path fill-rule="evenodd" clip-rule="evenodd" d="M404.947 188.434L410.631 183.363C408.75 178.568 402.493 167.021 401.549 167.499C400.604 167.977 403.043 173.152 403.552 174.382C403.204 173.503 400.854 173.736 401.127 175.316C401.063 174.94 400.286 175.044 400.038 175.15C399.756 175.276 399.518 175.496 399.357 175.778C399.196 176.06 399.121 176.39 399.142 176.721C399.01 176.611 398.845 176.557 398.678 176.568C398.511 176.579 398.353 176.654 398.233 176.781C396.738 178.122 397.756 181.723 398.388 181.918C399.02 182.112 399.071 178.99 399.071 178.99C399.071 178.99 400.19 181.385 400.384 181.76C400.757 182.475 401.177 183.197 401.596 183.888C402.62 185.482 403.739 187.001 404.947 188.434Z" fill="#F2B18F"/>
<path d="M407.171 177.629C406.297 175.741 404.884 173.246 404.303 173.985C403.623 174.849 404.792 176.973 404.781 178.637C404.257 180.474 404.781 182.837 405.503 183.44" stroke="#E2845A" stroke-width="0.75" stroke-miterlimit="10"/>
<path d="M460.003 179.754C460.003 179.754 451.098 179.754 436.943 192.885L448.088 210.154L456.707 195.946" fill="#BCBEC0"/>
<path d="M447.313 240.6C475.448 248.727 496.663 241.686 496.663 241.686C496.663 241.686 496.728 182.199 471.815 179.902C470.519 181.313 468.717 182.7 464.372 182.066C462.761 181.71 461.259 180.917 460.005 179.76C460.005 179.76 447.639 193.038 447.724 205.559C447.833 221.598 446.31 235.044 447.313 240.6Z" fill="#BCBEC0"/>
<path d="M448.088 208.799C448.449 203.877 449.235 199.003 450.435 194.241L448.088 208.799Z" fill="#939598"/>
<path d="M456.657 235.889H421.848C421.371 235.889 420.908 235.716 420.532 235.398C420.155 235.08 419.887 234.634 419.77 234.131L414.54 211.735C414.447 211.338 414.439 210.922 414.516 210.52C414.594 210.119 414.754 209.742 414.986 209.418C415.218 209.094 415.514 208.832 415.853 208.651C416.192 208.471 416.565 208.378 416.942 208.378H448.322C448.869 208.378 449.4 208.576 449.831 208.941C450.263 209.306 450.57 209.817 450.704 210.393L456.657 235.889Z" fill="#231F20"/>
<path d="M435.858 222.139C435.858 223.507 434.528 224.617 432.888 224.617C431.247 224.617 429.917 223.507 429.917 222.139C429.917 220.77 431.247 219.66 432.888 219.66C434.528 219.66 435.858 220.769 435.858 222.139Z" fill="url(#paint7_linear_0_20)"/>
<path d="M449.442 232.045C448.008 232.179 446.576 232.325 445.145 232.484C442.849 232.743 435.987 233.088 435.808 233.746C435.629 234.404 438.096 234.23 438.5 234.278C438.904 234.325 439.435 234.478 439.435 234.919C439.435 235.283 438.412 235.463 437.027 235.51C434.682 235.589 431.596 235.51 431.596 235.51C432.313 236.924 439.103 239.212 440.676 239.211C446.036 239.277 451.393 238.918 456.704 238.137" fill="#F2B18F"/>
<path d="M489.267 206.503C489.267 206.503 486.445 227.866 482.559 233.454C477.514 240.712 448.163 239.153 448.163 239.153L446.612 232.619C446.612 232.619 466.45 227.261 468.517 225.014C470.583 222.767 472.707 204.95 472.707 204.95" fill="#F2B18F"/>
<path d="M471.813 179.902C486.122 181.518 491.096 195.093 489.867 211.598L470.264 209.968L470.829 196.459" fill="#BCBEC0"/>
<path d="M470.968 210.026C471.651 205.432 472.333 197.739 472.333 197.739L470.968 210.026Z" fill="#939598"/>
<path d="M489.267 211.548C489.719 208.803 490.046 202.789 490.046 202.789L489.267 211.548Z" fill="#939598"/>
<path d="M386.955 157.274C386.955 157.274 392.046 168.665 391.71 180.132C391.539 185.953 380.873 211.52 380.873 211.52C380.873 211.52 373.416 194.729 372.842 194.104C372.267 193.479 378.692 174.956 378.692 174.094C378.692 173.232 372.805 159.647 372.805 159.647" fill="#F2B18F"/>
<path d="M342.699 232.986L346.047 329.859L337.878 335.447C337.878 335.447 360.247 336.843 360.978 336.051C361.71 335.259 360.091 329.791 360.091 329.791L367.061 234.475L342.699 232.986Z" fill="#F2B18F"/>
<path d="M357.414 335.958L360.764 332.415L360.301 330.541L355.155 335.953H352.69L344.027 331.241L334.567 337.604C334.332 337.763 334.15 338.002 334.05 338.283C333.949 338.564 333.936 338.873 334.012 339.164C334.087 339.454 334.248 339.71 334.469 339.892C334.69 340.074 334.96 340.173 335.237 340.174L347.91 340.197L351.966 337.155H353.114L353.109 340.199L361.363 340.214L361.369 335.961L357.414 335.958Z" fill="#58595B"/>
<path d="M365.244 234.101L376.598 330.001L368.417 335.573C368.417 335.573 390.783 337.017 391.517 336.226C392.25 335.435 390.641 329.966 390.641 329.966L390.035 234.864L365.244 234.101Z" fill="#F2B18F"/>
<path d="M387.955 336.128L391.311 332.593L390.852 330.718L385.695 336.119L383.23 336.11L374.577 331.378L365.105 337.72C364.868 337.878 364.686 338.116 364.585 338.397C364.484 338.679 364.47 338.988 364.545 339.279C364.62 339.57 364.78 339.826 365.002 340.009C365.223 340.191 365.493 340.291 365.77 340.292L378.443 340.343L382.508 337.316H383.656L383.646 340.359L391.899 340.393L391.914 336.139L387.955 336.128Z" fill="#58595B"/>
<path d="M381.582 191.736C384.774 193.86 388.36 202.411 390.155 209.564C394.331 226.195 391.914 252.427 391.914 252.427H341.728C341.728 252.427 340.537 206.705 345.044 191.736" fill="#231F20"/>
<path d="M349.448 189.802C345.092 211.394 345.604 252.429 345.604 252.429" stroke="#D1D3D4" stroke-width="0.75" stroke-linejoin="round"/>
<path d="M366.563 138.272C366.563 138.272 365.069 139.905 361.478 139.987C359.938 140.152 358.399 139.663 357.182 138.624C357.182 138.624 349.433 139.063 345.97 143.963C340.016 152.376 345.049 191.74 345.049 191.74H381.586C381.813 168.669 389.59 144.029 366.567 138.275" fill="#BCBEC0"/>
<path d="M306.832 154.89C304.882 152.803 297.463 143.265 296.927 143.44C296.391 143.614 298.028 146.12 297.562 146.174C297.097 146.227 293.877 142.059 293.384 142.389C292.715 142.837 296.187 146.93 296.187 146.93C296.187 146.93 295.416 146.118 294.939 146.689C294.602 147.093 295.264 148.427 295.264 148.427C295.264 148.427 294.42 148.033 294.077 148.461C293.735 148.89 294.458 149.953 294.458 149.953C294.458 149.953 293.787 149.757 293.549 150.247C293.324 150.709 294.74 153.834 298.474 158.741" fill="#F2B18F"/>
<path fill-rule="evenodd" clip-rule="evenodd" d="M334.757 154.401C334.757 154.401 324.769 166.531 322.514 167.075C320.314 167.604 302.79 151.178 302.79 151.178L297.342 157.121C297.342 157.121 316.997 186.068 326.075 184.107C335.154 182.145 347.032 165.602 347.032 165.602L339.813 149.419" fill="#F2B18F"/>
<path d="M357.182 138.624C357.182 138.624 345.544 138.953 333.965 154.452L345.574 168.665L354.968 157.849" fill="#BCBEC0"/>
<path d="M372.068 140.077C381.329 143.199 388.51 158.741 388.51 158.741L380.578 166.811" fill="#BCBEC0"/>
<path d="M383.026 164.319C382.933 160.483 382.579 156.66 381.969 152.881L383.026 164.319Z" fill="#939598"/>
<path d="M357.361 132.44L356.957 138.638C357.657 139.438 358.505 140.068 359.446 140.486C360.386 140.904 361.397 141.101 362.412 141.063C366.715 140.889 367.757 138.272 367.757 138.272L365.143 125.847" fill="#F2B18F"/>
<path d="M356.251 117.958C353.708 120.934 349.757 131.4 354.433 133.883C359.356 136.501 365.882 134.834 367.485 127.829C369.165 120.467 362.935 110.13 356.251 117.958Z" fill="#F2B18F"/>
<path d="M357.191 135.054C358.463 135.226 359.755 135.066 360.959 134.588C362.163 134.11 363.245 133.326 364.115 132.303" stroke="#E2845A" stroke-width="0.75" stroke-miterlimit="10"/>
<path d="M366.044 125.967L366.006 126.035" stroke="#FF855A" stroke-width="0.75" stroke-miterlimit="10"/>
<path d="M356.545 119.575C355.646 120.161 354.574 120.349 353.551 120.103C354.056 116.698 357.212 113.343 360.493 114.739C363.595 113.077 367.724 114.87 369.666 117.805C371.463 120.516 371.262 124.375 370.636 127.614C370.105 130.368 368.01 133.545 366.38 133.678C364.838 132.761 363.437 131.712 362.361 128.265C359.599 124.571 356.815 120.77 356.545 119.575Z" fill="#231F20"/>
<path d="M360.542 126.125C360.624 125.859 360.771 125.622 360.966 125.438C361.162 125.254 361.399 125.131 361.653 125.08C362.923 124.797 363.43 126.558 363.103 127.847C362.921 128.623 362.516 129.315 361.948 129.824C361.156 130.567 360.247 130.625 359.911 129.518" fill="#F2B18F"/>
<path d="M366.833 132.303C366.833 132.303 371.645 134.651 372.426 138.861C373.207 143.071 370.284 146.119 366.833 144.289C363.381 142.459 365.402 131.713 365.402 131.713" fill="#231F20"/>
<path d="M558.857 340.331H0V341.698H558.857V340.331Z" fill="#BCBEC0"/>
<path d="M133.671 128.287L134.141 135.719C133.627 136.851 132.809 137.787 131.795 138.403C130.782 139.019 129.62 139.286 128.464 139.17C124.209 138.7 123.491 136.118 123.491 136.118L125.474 122.12" fill="#F2B18F"/>
<path d="M134.909 112.876C137.463 115.938 140.869 127.213 136.255 129.843C131.393 132.614 125.515 130.502 123.856 123.253C122.113 115.621 128.198 104.827 134.909 112.876Z" fill="#F2B18F"/>
<path d="M134.142 131.019C134.142 131.019 130.59 131.616 128.485 129.333" stroke="#E2845A" stroke-width="0.75" stroke-miterlimit="10"/>
<path d="M124.388 122.431L124.431 122.497" stroke="#FF855A" stroke-width="0.75" stroke-miterlimit="10"/>
<path d="M125.167 122.833C125.044 122.583 124.861 122.375 124.637 122.229C124.414 122.084 124.158 122.006 123.897 122.006C122.611 121.987 122.431 123.889 122.979 125.135C123.289 125.879 123.807 126.498 124.458 126.905C125.367 127.493 126.257 127.359 126.386 126.159" fill="#F2B18F"/>
<path d="M126.408 124.107C127.656 124.107 127.05 120.543 127.05 120.543C127.51 120.609 127.978 120.563 128.419 120.407C128.859 120.25 129.262 119.988 129.598 119.64C130.687 118.466 129.32 117.379 129.32 117.379C129.32 117.379 131.697 119.118 133.575 118.234C134.011 118.062 134.378 117.73 134.613 117.294C134.847 116.859 134.934 116.348 134.858 115.85C134.858 115.85 136.513 117.278 137.318 116.256C138.763 114.416 138.216 112.428 136.471 110.72C136.057 110.235 135.526 109.886 134.938 109.713C134.35 109.54 133.73 109.551 133.147 109.743C133.147 109.743 130.622 106.728 127.799 107.417C125.179 108.057 122.397 109.685 122.334 113.377C122.334 113.377 120.044 112.71 119.193 116.034C118.415 119.075 119.777 120.098 119.777 120.098C119.219 121.457 119.162 122.997 119.616 124.401C119.93 125.05 120.365 125.62 120.893 126.075C121.421 126.53 122.031 126.86 122.684 127.044C122.684 127.044 121.811 129.131 123.905 129.321C125.999 129.511 126.088 127.774 125.248 127.234C123.356 126.014 122.016 124.207 123.413 122.309C124.81 120.411 126.408 124.107 126.408 124.107Z" fill="#231F20"/>
<path d="M162.378 340.411H136.175V341.687H162.378V340.411Z" fill="#BCBEC0"/>
<path d="M139.904 329.882L137.636 330.463C137.636 330.463 136.769 333.683 136.435 335.925C136.232 337.406 136.144 338.903 136.175 340.401L162.378 340.422C162.378 340.422 161.693 337.952 155.441 333.97C154.027 333.098 152.768 331.959 151.724 330.606L139.904 329.882Z" fill="#58595B"/>
<path d="M136.543 317.948L137.637 330.469C137.637 330.469 138.737 331.915 143.186 331.918C146.072 331.878 148.94 331.439 151.724 330.611L152.176 316.479" fill="#F2B18F"/>
<path d="M153.692 332.669L151.991 335.151" stroke="white" stroke-width="0.75" stroke-miterlimit="10"/>
<path d="M155.307 333.911L153.832 336.393" stroke="white" stroke-width="0.75" stroke-miterlimit="10"/>
<path d="M156.958 335.021L155.589 337.389" stroke="white" stroke-width="0.75" stroke-miterlimit="10"/>
<path d="M150.826 204.681C155.855 268.736 154.754 324.265 154.754 324.265L134.997 324.916C134.997 324.916 128.522 235.277 123.853 222.388C121.656 216.324 121.024 201.673 123.493 191.141" fill="#231F20"/>
<path d="M131.366 243.028C136.161 266.22 139.093 324.473 139.093 324.473" stroke="#58595B" stroke-miterlimit="10"/>
<path d="M122.178 340.411H95.9747V341.687H122.178V340.411Z" fill="#BCBEC0"/>
<path d="M99.7043 329.882L97.4366 330.463C97.4366 330.463 96.5689 333.683 96.2366 335.925C96.0321 337.406 95.9445 338.903 95.9749 340.401L122.178 340.422C122.178 340.422 121.493 337.952 115.242 333.97C113.828 333.099 112.569 331.959 111.524 330.606L99.7043 329.882Z" fill="#58595B"/>
<path d="M98.5038 319.631L97.4361 330.463C97.4361 330.463 98.5362 331.909 102.986 331.913C105.871 331.873 108.74 331.433 111.523 330.606L114.137 316.473" fill="#F2B18F"/>
<path d="M113.491 332.669L111.79 335.151" stroke="white" stroke-width="0.75" stroke-miterlimit="10"/>
<path d="M115.106 333.911L113.632 336.393" stroke="white" stroke-width="0.75" stroke-miterlimit="10"/>
<path d="M116.757 335.021L115.389 337.389" stroke="white" stroke-width="0.75" stroke-miterlimit="10"/>
<path d="M139.215 208.101C139.316 220.787 135.073 219.988 135.073 219.988" stroke="#58595B" stroke-miterlimit="10"/>
<path d="M108.711 192.376C103.863 211.384 106.281 216.766 106.085 224.326C105.726 238.384 96.1031 324.394 96.1031 324.394L118.015 324.785C116.129 335.427 141.504 209.635 135.665 188.86" fill="#231F20"/>
<path d="M120.187 208.101C119.738 213.318 112.93 214.532 112.93 214.532" stroke="#58595B" stroke-miterlimit="10"/>
<path d="M147.079 208.101C147.637 213.681 151.468 213.318 151.468 213.318" stroke="#58595B" stroke-miterlimit="10"/>
<path d="M113.176 206.734C113.176 232.29 100.666 324.475 100.666 324.475" stroke="#58595B" stroke-miterlimit="10"/>
<path d="M129.51 261.268C134.117 234.194 136.177 206.734 136.177 206.734" stroke="#58595B" stroke-miterlimit="10"/>
<path fill-rule="evenodd" clip-rule="evenodd" d="M156.926 152.206C156.926 152.206 162.17 161.791 163.763 163.518C165.356 165.246 177.642 140.467 177.642 140.467L184.658 147.638C184.658 147.638 175.562 182.235 166.427 183.85C157.291 185.464 144.432 169.307 144.432 169.307L139.819 154.743" fill="#F2B18F"/>
<path fill-rule="evenodd" clip-rule="evenodd" d="M183.205 152.709L174.72 146.229C177.227 139.828 182.469 129.347 183.466 129.678C184.463 130.008 182.709 135.499 182.362 136.797C182.595 135.876 184.952 135.749 184.888 137.354C184.904 136.972 185.686 136.959 185.944 137.025C186.24 137.107 186.504 137.289 186.699 137.544C186.895 137.799 187.012 138.115 187.033 138.446C187.15 138.318 187.306 138.239 187.472 138.225C187.638 138.211 187.803 138.262 187.937 138.368C189.589 139.466 189.042 143.187 188.442 143.477C187.842 143.767 187.392 140.681 187.392 140.681C187.392 140.681 186.59 143.222 186.444 143.623C186.165 144.392 185.838 145.168 185.513 145.915C184.733 147.657 183.205 152.709 183.205 152.709Z" fill="#F2B18F"/>
<path d="M179.188 140.554C179.813 138.552 180.892 135.868 181.563 136.512C182.346 137.265 181.462 139.545 181.684 141.191C182.439 142.931 182.224 145.349 181.583 146.056" stroke="#E2845A" stroke-width="0.75" stroke-miterlimit="10"/>
<path d="M134.142 134.991C134.142 134.991 141.984 133.732 147.236 137.249C153.007 141.115 158.262 153.918 158.262 153.918L148.054 157.673" fill="#BCBEC0"/>
<path d="M123.69 134.576C123.69 134.576 124.116 137.524 128.912 137.925C133.264 138.29 134.142 134.99 134.142 134.99C134.142 134.99 145.657 138.884 148.27 153.991C150.989 169.744 152.942 209.49 152.942 209.49H105.456C105.456 209.49 105.961 163.126 110.766 149.424C115.571 135.723 123.69 134.576 123.69 134.576Z" fill="#BCBEC0"/>
<path d="M129.199 192.672H164.008C164.485 192.672 164.948 192.499 165.325 192.181C165.701 191.862 165.969 191.417 166.087 190.914L171.316 168.518C171.409 168.121 171.417 167.705 171.34 167.304C171.263 166.902 171.102 166.525 170.87 166.201C170.639 165.877 170.342 165.615 170.003 165.435C169.664 165.255 169.292 165.161 168.914 165.161H137.533C136.987 165.161 136.456 165.359 136.025 165.724C135.593 166.088 135.286 166.599 135.152 167.175L129.199 192.672Z" fill="#231F20"/>
<path d="M148.389 178.915C148.389 180.285 149.718 181.394 151.36 181.394C153.001 181.394 154.331 180.285 154.331 178.915C154.331 177.545 153 176.436 151.36 176.436C149.719 176.436 148.389 177.547 148.389 178.915Z" fill="url(#paint8_linear_0_20)"/>
<path d="M136.741 188.819C138.174 188.953 139.607 189.099 141.038 189.258C143.334 189.516 150.195 189.861 150.374 190.52C150.553 191.179 148.086 191.004 147.682 191.051C147.278 191.099 146.747 191.251 146.747 191.693C146.747 192.056 147.769 192.237 149.155 192.284C151.5 192.363 156.391 192.667 156.391 192.667C154.856 194.653 147.075 195.87 145.506 195.984C139.21 196.399 132.896 196.392 126.601 195.962" fill="#F2B18F"/>
<path d="M100.8 162.612C100.8 162.612 101.385 184.643 105.271 190.231C110.316 197.488 138.022 195.93 138.022 195.93L139.573 189.396C139.573 189.396 120.791 185.186 118.725 182.939C116.658 180.692 117.627 161.059 117.627 161.059" fill="#F2B18F"/>
<path d="M123.69 134.576C106.14 136.692 99.2897 145.417 100.558 164.032L118.958 162.735L118.197 149.305" fill="#BCBEC0"/>
<path d="M148.909 157.188C148.458 154.126 147.713 151.124 146.687 148.231L148.909 157.188Z" fill="#939598"/>
<path d="M81.7395 116.939C81.9792 116.939 82.2136 117.016 82.4129 117.161C82.6122 117.306 82.7676 117.512 82.8593 117.753C82.9511 117.994 82.9751 118.259 82.9283 118.514C82.8815 118.77 82.7661 119.005 82.5966 119.189C82.427 119.373 82.211 119.499 81.9759 119.55C81.7408 119.601 81.4971 119.575 81.2756 119.475C81.0541 119.375 80.8648 119.206 80.7316 118.989C80.5984 118.773 80.5273 118.518 80.5273 118.257C80.5273 117.908 80.655 117.572 80.8823 117.325C81.1096 117.078 81.418 116.939 81.7395 116.939Z" fill="#A7A9AC"/>
<path d="M85.1673 141.97C85.1673 141.71 85.2384 141.455 85.3716 141.238C85.5048 141.021 85.6941 140.852 85.9156 140.753C86.1371 140.653 86.3808 140.627 86.6159 140.678C86.851 140.729 87.067 140.854 87.2366 141.038C87.4061 141.223 87.5215 141.457 87.5683 141.713C87.6151 141.969 87.5911 142.234 87.4993 142.475C87.4076 142.716 87.2522 142.921 87.0529 143.066C86.8536 143.211 86.6192 143.288 86.3795 143.288C86.058 143.288 85.7496 143.149 85.5223 142.902C85.295 142.655 85.1673 142.32 85.1673 141.97Z" fill="#A7A9AC"/>
<defs>
<linearGradient id="paint0_linear_0_20" x1="240.594" y1="131.756" x2="316.894" y2="131.756" gradientUnits="userSpaceOnUse">
<stop stop-color="#EF8431"/>
<stop offset="1" stop-color="#E71A86"/>
</linearGradient>
<linearGradient id="paint1_linear_0_20" x1="232.392" y1="203.68" x2="253.709" y2="203.68" gradientUnits="userSpaceOnUse">
<stop stop-color="#EF8431"/>
<stop offset="1" stop-color="#E71A86"/>
</linearGradient>
<linearGradient id="paint2_linear_0_20" x1="303.959" y1="203.644" x2="325.201" y2="203.644" gradientUnits="userSpaceOnUse">
<stop stop-color="#EF8431"/>
<stop offset="1" stop-color="#E71A86"/>
</linearGradient>
<linearGradient id="paint3_linear_0_20" x1="271.294" y1="205.694" x2="280.816" y2="205.694" gradientUnits="userSpaceOnUse">
<stop stop-color="#EF8431"/>
<stop offset="1" stop-color="#E71A86"/>
</linearGradient>
<linearGradient id="paint4_linear_0_20" x1="71.2081" y1="127.065" x2="113.609" y2="127.065" gradientUnits="userSpaceOnUse">
<stop stop-color="#EF8431"/>
<stop offset="1" stop-color="#E71A86"/>
</linearGradient>
<linearGradient id="paint5_linear_0_20" x1="407.723" y1="92.7764" x2="437.192" y2="92.7764" gradientUnits="userSpaceOnUse">
<stop stop-color="#EF8431"/>
<stop offset="1" stop-color="#E71A86"/>
</linearGradient>
<linearGradient id="paint6_linear_0_20" x1="406.939" y1="99.1286" x2="438.875" y2="99.1286" gradientUnits="userSpaceOnUse">
<stop stop-color="#EF8431"/>
<stop offset="1" stop-color="#E71A86"/>
</linearGradient>
<linearGradient id="paint7_linear_0_20" x1="429.917" y1="222.138" x2="435.858" y2="222.138" gradientUnits="userSpaceOnUse">
<stop stop-color="#EF8431"/>
<stop offset="1" stop-color="#E71A86"/>
</linearGradient>
<linearGradient id="paint8_linear_0_20" x1="148.389" y1="178.915" x2="154.331" y2="178.915" gradientUnits="userSpaceOnUse">
<stop stop-color="#EF8431"/>
<stop offset="1" stop-color="#E71A86"/>
</linearGradient>
</defs>
</svg>
