<svg width="933" height="167" viewBox="0 0 933 167" fill="none" xmlns="http://www.w3.org/2000/svg">
<path d="M125.581 2.07166H156.973V164.245H121.599V79.1329L91.529 137.331H65.4442L35.5961 80.5135L35.3744 164.245H0V2.07166H32.0586L78.9289 94.3141L125.581 2.07166Z" fill="#F1F2F2"/>
<path d="M185.715 164.245V2.07166H226.397V164.245H185.715Z" fill="#F1F2F2"/>
<path d="M276.584 161.485C265.232 158.263 256.02 153.969 248.949 148.604L261.55 118.698C269.043 123.596 277.153 127.39 285.648 129.97C294.046 132.556 302.758 133.873 311.516 133.88C320.36 133.88 327.104 132.615 331.747 130.085C336.389 127.554 338.712 123.989 338.714 119.389C338.714 115.248 336.613 111.874 332.413 109.268C328.212 106.662 320.215 104.055 308.423 101.447C293.832 98.2249 282.409 94.391 274.154 89.9449C265.9 85.4989 260.115 80.2846 256.798 74.3024C253.482 68.3209 251.824 60.9595 251.824 52.2183C251.712 42.6204 254.538 33.2344 259.894 25.4189C265.272 17.5219 272.863 11.3112 282.667 6.7868C292.47 2.2624 303.709 0.000247952 316.383 0.000247952C327.427 -0.0233808 338.415 1.64191 348.994 4.94275C359.53 8.2436 367.748 12.4996 373.646 17.7109L361.264 47.6151C347.115 37.4943 332.228 32.4336 316.603 32.4329C309.086 32.4329 303.043 33.9277 298.474 36.9174C293.905 39.907 291.621 43.8559 291.621 48.764C291.515 51.3785 292.385 53.9344 294.049 55.8966C295.667 57.7367 298.689 59.5383 303.112 61.3015C309.529 63.6268 316.107 65.4345 322.791 66.7086C336.936 69.9304 348.064 73.8024 356.175 78.3246C364.286 82.8468 370.034 88.099 373.42 94.0812C376.809 100.063 378.504 107.194 378.505 115.475C378.505 131.426 372.609 143.886 360.818 152.855C349.026 161.824 332.444 166.31 311.072 166.312C299.42 166.312 287.821 164.688 276.584 161.485Z" fill="#F1F2F2"/>
<path d="M423.386 161.485C412.033 158.263 402.821 153.969 395.749 148.604L408.351 118.698C415.845 123.596 423.954 127.39 432.449 129.97C440.846 132.555 449.556 133.872 458.312 133.88C467.157 133.88 473.9 132.615 478.543 130.085C483.185 127.554 485.508 123.989 485.51 119.389C485.51 115.248 483.41 111.874 479.209 109.268C475.008 106.662 467.012 104.055 455.219 101.447C440.628 98.2249 429.205 94.391 420.95 89.9449C412.696 85.4989 406.911 80.2846 403.595 74.3024C400.278 68.3209 398.62 60.9595 398.62 52.2183C398.508 42.6204 401.334 33.2344 406.69 25.4189C412.068 17.5219 419.659 11.3112 429.462 6.7868C439.264 2.2624 450.504 0.000247952 463.179 0.000247952C474.223 -0.0233808 485.211 1.64191 495.79 4.94275C506.326 8.2436 514.544 12.4996 520.442 17.7109L508.06 47.6151C493.911 37.4943 479.024 32.4336 463.4 32.4329C455.882 32.4329 449.839 33.9277 445.27 36.9174C440.701 39.907 438.417 43.8559 438.417 48.764C438.311 51.3785 439.181 53.9344 440.845 55.8966C442.463 57.7367 445.485 59.5383 449.908 61.3015C456.325 63.6268 462.904 65.4345 469.587 66.7086C483.732 69.9304 494.86 73.8024 502.971 78.3246C511.082 82.8468 516.83 88.099 520.216 94.0812C523.605 100.063 525.3 107.194 525.301 115.475C525.301 131.426 519.405 143.886 507.614 152.855C495.822 161.824 479.24 166.31 457.868 166.312C446.218 166.312 434.621 164.688 423.386 161.485Z" fill="#F1F2F2"/>
<path d="M548.298 164.245V2.07166H588.98V164.245H548.298Z" fill="#F1F2F2"/>
<path d="M649.889 156.08C638.312 149.408 628.889 139.323 622.806 127.094C616.466 114.599 613.297 99.9154 613.299 83.0443C613.3 66.1731 616.469 51.4891 622.806 38.9923C628.875 26.7817 638.304 16.7305 649.889 10.1226C661.608 3.37661 675.426 0.00292976 691.344 0.00146532C707.262 8.76025e-07 721.081 3.37368 732.8 10.1226C744.369 16.7149 753.767 26.7733 759.773 38.9923C766.036 51.4935 769.168 66.1775 769.168 83.0443C769.168 99.911 765.999 114.594 759.661 127.094C753.577 139.323 744.154 149.408 732.577 156.08C720.858 162.904 707.114 166.316 691.343 166.315C675.426 166.315 661.608 162.904 649.889 156.08ZM718.982 120.884C725.613 112.222 728.929 99.6086 728.93 83.0443C728.931 66.4799 725.577 53.9047 718.87 45.3187C712.162 36.7305 702.987 32.4364 691.344 32.4364C679.551 32.4364 670.338 36.6916 663.708 45.2022C657.077 53.7128 653.76 66.3269 653.756 83.0443C653.756 99.7609 657.072 112.412 663.704 120.998C670.337 129.584 679.549 133.878 691.341 133.881C703.133 133.881 712.347 129.548 718.982 120.884Z" fill="#F1F2F2"/>
<path d="M894.305 2.07166H932.332V164.245H902.264L831.073 71.5457V164.245H793.266V2.07166H822.892L894.305 94.771V2.07166Z" fill="#F1F2F2"/>
</svg>
