<svg width="1120" height="530" viewBox="0 0 1120 530" fill="none" xmlns="http://www.w3.org/2000/svg">
<path opacity="0.5" d="M485 0H1120V242L1110.49 283.546C1099.1 333.34 1072.86 378.501 1035.24 413.055C996.651 448.498 934.834 436.909 911.706 389.895L904.708 375.67C900.418 366.949 889.962 363.232 881.13 367.288L551.929 518.458C468.034 556.983 372.818 494.161 375.23 401.874L377.147 328.535C378.605 272.733 350.487 220.309 303.193 190.657C270.722 170.298 233.173 159.5 194.848 159.5H112.521C87.4925 159.5 62.7831 153.886 40.2121 143.07C5.99455 126.674 -8.70058 85.8288 7.22859 51.3915L31 0H485Z" fill="url(#paint0_linear_0_1179)"/>
<defs>
<linearGradient id="paint0_linear_0_1179" x1="-21.5" y1="301" x2="1120" y2="301" gradientUnits="userSpaceOnUse">
<stop stop-color="#EF8431"/>
<stop offset="1" stop-color="#E71A86"/>
</linearGradient>
</defs>
</svg>
