<svg width="645" height="456" viewBox="0 0 645 456" fill="none" xmlns="http://www.w3.org/2000/svg">
<g clip-path="url(#clip0_0_893)">
<path d="M642.241 283.847C642.241 283.847 636.981 280.318 631.377 294.474C625.773 308.63 623.769 316.726 623.769 316.726C623.769 316.726 622.255 319.711 620.419 317.918C618.583 316.127 615.948 310.897 613.01 312.03C609.963 313.206 609.116 317.172 609.957 322.884C610.798 328.596 612.234 341.188 612.36 342.326C612.484 343.445 611.989 345.13 610.566 344.136C609.142 343.142 600.787 333.592 597.026 338.357C593.266 343.123 597.914 358.599 598.394 360.302C598.873 362.005 598.608 362.758 597.903 363.226C597.199 363.694 594.658 360.183 592.184 357.578C589.708 354.972 586.436 352.442 584.469 355.397C582.503 358.352 582.35 370.17 593.077 388.747L598.544 396.986L607.63 395.901C626.949 392.236 634.505 384.092 635.087 380.45C635.669 376.808 631.81 375.798 628.442 375.505C625.074 375.211 621.075 375.475 620.9 374.57C620.725 373.667 621.034 372.934 622.463 372.179C623.893 371.423 637.078 364.798 637.617 358.434C638.155 352.069 626.297 351.587 624.687 351.075C623.077 350.564 623.835 349.009 624.644 348.353C625.467 347.687 634.604 340.343 638.877 337.169C643.15 333.995 645.147 330.599 643.843 327.264C642.585 324.049 637.407 325.4 635 325.086C632.593 324.773 633.501 321.487 633.501 321.487C633.501 321.487 637.39 314.328 642.766 300.057C648.142 285.787 642.13 283.785 642.13 283.785" fill="#E7E8E5"/>
<path d="M597.173 398.921C601.157 388.459 608.515 369.999 614.76 354.113C621.002 338.232 626.641 323.848 630.673 313.41C632.68 308.196 634.306 303.974 635.435 301.042C635.995 299.591 636.432 298.461 636.733 297.68C636.881 297.306 636.995 297.017 637.077 296.808C637.156 296.613 637.203 296.516 637.203 296.516C637.203 296.516 637.173 296.622 637.103 296.822C637.028 297.032 636.921 297.326 636.785 297.705C636.495 298.492 636.075 299.63 635.537 301.09C634.45 304.03 632.85 308.27 630.856 313.499C626.871 323.962 621.26 338.361 615.018 354.243C608.773 370.129 601.387 388.573 597.356 399.012" fill="#DADBD8"/>
<path d="M616.437 319.514C616.456 319.507 616.547 319.751 616.697 320.199C616.848 320.648 617.05 321.302 617.294 322.113C617.777 323.735 618.395 325.997 619.036 328.506C619.661 330.982 620.225 333.222 620.658 334.936C620.856 335.706 621.024 336.357 621.16 336.88C621.28 337.338 621.338 337.596 621.32 337.603C621.3 337.61 621.208 337.367 621.055 336.92C620.904 336.471 620.702 335.817 620.466 335.003C619.997 333.374 619.406 331.104 618.765 328.595C618.125 326.125 617.546 323.891 617.103 322.181C616.9 321.411 616.729 320.762 616.592 320.238C616.475 319.779 616.419 319.521 616.437 319.514Z" fill="#DADBD8"/>
<path d="M622.161 337.739C622.137 337.656 626.193 336.007 631.221 334.059C636.251 332.11 640.347 330.597 640.373 330.681C640.398 330.764 636.342 332.412 631.312 334.362C626.284 336.31 622.187 337.823 622.161 337.739Z" fill="#DADBD8"/>
<path d="M611.603 361.641C611.603 361.619 611.841 361.594 612.272 361.568C612.761 361.542 613.371 361.51 614.095 361.473C615.634 361.39 617.759 361.265 620.1 361.03C622.441 360.802 624.553 360.51 626.081 360.285C626.8 360.18 627.407 360.093 627.892 360.022C628.32 359.962 628.558 359.939 628.561 359.961C628.565 359.982 628.333 360.047 627.909 360.144C627.487 360.242 626.872 360.37 626.11 360.51C624.587 360.792 622.472 361.12 620.124 361.349C617.777 361.584 615.644 361.674 614.102 361.699C613.33 361.708 612.705 361.707 612.274 361.693C611.842 361.68 611.604 361.663 611.603 361.641Z" fill="#DADBD8"/>
<path d="M603.224 346.448C603.241 346.436 603.376 346.635 603.605 347.004C603.864 347.434 604.181 347.962 604.556 348.585C605.348 349.928 606.426 351.795 607.601 353.866C608.777 355.94 609.829 357.826 610.578 359.199C610.922 359.844 611.215 360.39 611.452 360.835C611.654 361.226 611.757 361.448 611.741 361.459C611.724 361.471 611.589 361.273 611.359 360.903C611.101 360.473 610.784 359.945 610.409 359.322C609.618 357.98 608.54 356.113 607.364 354.04C606.187 351.968 605.137 350.081 604.388 348.708C604.043 348.063 603.751 347.517 603.513 347.072C603.312 346.681 603.208 346.46 603.224 346.448Z" fill="#DADBD8"/>
<path d="M591.539 366.206C591.555 366.194 591.725 366.45 592.02 366.923C592.339 367.45 592.751 368.129 593.244 368.944C594.268 370.658 595.666 373.038 597.194 375.678C598.724 378.319 600.096 380.719 601.077 382.464C601.54 383.303 601.926 384.001 602.226 384.542C602.493 385.036 602.632 385.315 602.615 385.327C602.599 385.339 602.429 385.084 602.135 384.611C601.816 384.083 601.404 383.404 600.91 382.589C599.886 380.875 598.489 378.495 596.959 375.854C595.429 373.215 594.059 370.815 593.077 369.068C592.613 368.231 592.227 367.534 591.928 366.991C591.662 366.498 591.523 366.219 591.539 366.206Z" fill="#DADBD8"/>
<path d="M602.464 384.786C602.463 384.763 602.764 384.723 603.309 384.67C603.904 384.614 604.681 384.542 605.617 384.454C607.565 384.27 610.255 384.004 613.217 383.614C616.181 383.231 618.855 382.803 620.79 382.478C621.718 382.323 622.489 382.194 623.08 382.096C623.622 382.007 623.923 381.969 623.926 381.991C623.929 382.012 623.635 382.093 623.099 382.218C622.563 382.344 621.785 382.512 620.82 382.702C618.893 383.084 616.219 383.548 613.25 383.933C610.282 384.322 607.585 384.553 605.631 384.68C604.654 384.74 603.862 384.78 603.315 384.794C602.768 384.81 602.465 384.808 602.464 384.786Z" fill="#DADBD8"/>
<path d="M112.585 106.832C112.585 106.832 106.887 109.342 113.254 123.078C119.62 136.815 124.002 143.599 124.002 143.599C124.002 143.599 125.139 146.793 122.761 147.323C120.384 147.854 115.127 146.976 114.101 150.296C113.035 153.738 115.266 156.942 119.75 159.718C124.233 162.495 133.859 168.985 134.727 169.576C135.58 170.156 136.444 171.637 134.876 172.294C133.307 172.949 121.521 174.505 122.507 180.8C123.494 187.096 137.104 192.503 138.582 193.127C140.06 193.751 140.42 194.452 140.309 195.369C140.199 196.286 136.194 196.386 132.858 196.985C129.522 197.582 125.745 198.939 126.583 202.518C127.42 206.095 135.527 213.526 155.043 215.428L164.137 215.638L168.991 206.865C178.373 187.375 177.385 175.61 175.217 172.842C173.048 170.074 169.965 172.893 167.682 175.715C165.399 178.537 163.113 182.267 162.379 181.864C161.644 181.462 161.325 180.735 161.684 178.994C162.041 177.254 165.582 161.405 161.497 156.996C157.412 152.587 149.757 162.864 148.409 163.984C147.061 165.104 146.449 163.469 146.493 162.343C146.538 161.196 147.082 148.515 147.516 142.746C147.95 136.975 146.827 133.098 143.707 132.203C140.699 131.339 138.44 136.792 136.737 138.745C135.034 140.698 133.313 137.859 133.313 137.859C133.313 137.859 130.744 129.972 124.159 116.369C117.574 102.766 112.472 106.891 112.472 106.891" fill="#E7E8E5"/>
<path d="M164.633 218.056C159.831 208.044 151.561 190.087 144.389 174.712C137.22 159.342 130.718 145.434 125.961 135.395C123.583 130.387 121.656 126.331 120.317 123.513C119.656 122.119 119.141 121.032 118.784 120.281C118.616 119.92 118.486 119.638 118.393 119.437C118.305 119.246 118.267 119.144 118.267 119.144C118.267 119.144 118.323 119.235 118.417 119.421C118.517 119.619 118.655 119.895 118.834 120.25C119.202 120.995 119.732 122.072 120.414 123.453C121.782 126.237 123.738 130.281 126.137 135.287C130.939 145.3 137.469 159.192 144.638 174.562C151.81 189.938 160.052 207.91 164.808 217.948" fill="#DADBD8"/>
<path d="M121.41 151.859C121.417 151.838 121.643 151.907 122.047 152.05C122.451 152.192 123.03 152.415 123.743 152.7C125.168 153.27 127.118 154.115 129.255 155.092C131.36 156.063 133.264 156.942 134.72 157.615C135.377 157.914 135.932 158.165 136.379 158.367C136.771 158.543 136.986 158.651 136.98 158.671C136.973 158.692 136.747 158.625 136.341 158.485C135.938 158.342 135.359 158.119 134.648 157.826C133.227 157.239 131.288 156.365 129.151 155.389C127.04 154.435 125.132 153.571 123.673 152.911C123.014 152.616 122.457 152.368 122.009 152.168C121.618 151.989 121.404 151.879 121.41 151.859Z" fill="#DADBD8"/>
<path d="M137.594 158.005C137.52 157.975 138.88 153.34 140.632 147.653C142.383 141.964 143.862 137.378 143.937 137.407C144.01 137.436 142.65 142.07 140.898 147.758C139.147 153.446 137.668 158.033 137.594 158.005Z" fill="#DADBD8"/>
<path d="M147.666 182.174C147.651 182.16 147.78 181.932 148.028 181.533C148.312 181.081 148.667 180.517 149.088 179.848C149.98 178.424 151.205 176.452 152.486 174.221C153.773 171.991 154.875 169.927 155.662 168.426C156.034 167.719 156.346 167.125 156.596 166.649C156.819 166.23 156.95 166.003 156.967 166.014C156.984 166.024 156.886 166.271 156.693 166.709C156.499 167.146 156.209 167.773 155.836 168.538C155.091 170.071 154.013 172.159 152.723 174.395C151.438 176.633 150.184 178.591 149.248 179.982C148.779 180.676 148.392 181.233 148.116 181.608C147.84 181.986 147.681 182.188 147.666 182.174Z" fill="#DADBD8"/>
<path d="M131.949 180.267C131.95 180.246 132.171 180.248 132.569 180.271C133.028 180.306 133.59 180.349 134.254 180.399C135.674 180.522 137.635 180.713 139.799 180.944C141.964 181.175 143.922 181.402 145.338 181.582C145.998 181.673 146.558 181.749 147.013 181.812C147.409 181.872 147.626 181.917 147.624 181.939C147.622 181.961 147.401 181.959 147.003 181.935C146.545 181.9 145.983 181.858 145.319 181.808C143.898 181.685 141.938 181.493 139.773 181.263C137.609 181.032 135.651 180.805 134.235 180.625C133.575 180.534 133.015 180.458 132.559 180.395C132.164 180.334 131.947 180.29 131.949 180.267Z" fill="#DADBD8"/>
<path d="M138.448 202.885C138.45 202.864 138.733 202.869 139.244 202.899C139.805 202.939 140.532 202.992 141.402 203.054C143.224 203.2 145.738 203.422 148.515 203.688C151.292 203.954 153.804 204.212 155.621 204.415C156.489 204.519 157.212 204.606 157.772 204.673C158.28 204.74 158.559 204.788 158.558 204.81C158.556 204.833 158.273 204.827 157.762 204.797C157.201 204.756 156.475 204.704 155.605 204.641C153.782 204.496 151.268 204.273 148.49 204.007C145.714 203.742 143.202 203.483 141.385 203.28C140.517 203.176 139.795 203.09 139.235 203.023C138.727 202.955 138.447 202.907 138.448 202.885Z" fill="#DADBD8"/>
<path d="M158.088 204.611C158.072 204.598 158.23 204.305 158.529 203.786C158.858 203.22 159.287 202.483 159.804 201.594C160.879 199.743 162.354 197.18 163.913 194.299C165.477 191.418 166.83 188.77 167.799 186.845C168.264 185.921 168.651 185.153 168.947 184.566C169.22 184.028 169.38 183.736 169.397 183.747C169.414 183.757 169.288 184.069 169.044 184.624C168.801 185.18 168.437 185.977 167.973 186.955C167.048 188.909 165.719 191.581 164.154 194.466C162.593 197.353 161.088 199.901 159.969 201.721C159.409 202.63 158.948 203.36 158.62 203.857C158.292 204.355 158.104 204.624 158.088 204.611Z" fill="#DADBD8"/>
<path d="M67.4679 202.774C62.5203 209.96 63.6479 220.331 69.9871 225.939C76.3262 231.548 85.476 230.27 90.4236 223.083C95.3711 215.898 94.244 205.527 87.9041 199.918C81.565 194.31 72.416 195.589 67.4679 202.774ZM58.3779 183.255C60.7671 181.203 63.36 179.552 66.0779 178.315L66.8978 169.062L80.3688 167.18L83.1465 175.93C86.0482 176.382 88.9179 177.268 91.6754 178.602L98.0243 172.719L108.723 182.187L105.231 190.595C107.044 193.304 108.499 196.244 109.59 199.326L117.752 200.255L119.413 215.524L111.693 218.674C111.295 221.961 110.512 225.214 109.336 228.34L114.525 235.538L106.175 247.665L98.7551 243.707C96.3664 245.759 93.7723 247.409 91.0537 248.646L90.234 257.899L76.7636 259.781L73.9854 251.031C71.0839 250.579 68.2146 249.692 65.4573 248.358L59.1079 254.242L48.4083 244.774L51.901 236.366C50.0895 233.656 48.6335 230.718 47.5424 227.636L39.3793 226.707L37.7194 211.438L45.4387 208.287C45.8374 205 46.6206 201.747 47.7966 198.621L42.6068 191.424L50.9576 179.296L58.3779 183.255Z" fill="#E7E8E5"/>
<path d="M451.858 24.5129C447.815 29.2595 447.932 36.8219 452.12 41.4036C456.307 45.9864 462.979 45.8535 467.022 41.1069C471.064 36.3603 470.948 28.7979 466.759 24.2151C462.572 19.6334 455.901 19.7663 451.858 24.5129ZM446.622 9.67968C448.479 8.40829 450.456 7.44294 452.495 6.78664L453.705 0.195793L463.528 0.00105286L464.941 6.53832C467 7.11323 469.006 7.99823 470.901 9.19647L475.866 5.50697L482.934 13.2425L479.857 18.9946C480.98 21.1006 481.83 23.3425 482.409 25.6545L488.222 27.0258L488.395 38.1602L482.627 39.7624C482.12 42.096 481.339 44.3688 480.283 46.518L483.536 52.1455L476.713 60.1571L471.638 56.6685C469.781 57.941 467.803 58.9053 465.764 59.5616L464.553 66.1514L454.731 66.3472L453.317 59.8099C451.259 59.234 449.253 58.349 447.358 57.1518L442.393 60.8402L435.325 53.1058L438.402 47.3526C437.281 45.2477 436.429 43.0057 435.85 40.6938L430.036 39.3224L429.864 28.189L435.632 26.5859C436.139 24.2523 436.92 21.9794 437.976 19.8302L434.722 14.2027L441.545 6.19215L446.622 9.67968Z" fill="#F3F2F1"/>
<path d="M571.262 117.96C568.713 120.953 568.787 125.721 571.428 128.611C574.068 131.5 578.275 131.417 580.824 128.424C583.373 125.431 583.3 120.662 580.659 117.772C578.019 114.883 573.812 114.967 571.262 117.96ZM567.961 108.607C569.132 107.805 570.379 107.196 571.664 106.782L572.428 102.627L578.621 102.504L579.513 106.626C580.811 106.988 582.075 107.547 583.27 108.302L586.401 105.976L590.857 110.854L588.918 114.481C589.625 115.809 590.162 117.222 590.527 118.68L594.192 119.544L594.301 126.565L590.665 127.576C590.345 129.047 589.852 130.48 589.186 131.835L591.237 135.384L586.935 140.436L583.735 138.236C582.563 139.039 581.317 139.647 580.031 140.06L579.267 144.216L573.074 144.339L572.183 140.216C570.885 139.854 569.62 139.295 568.425 138.54L565.294 140.867L560.838 135.989L562.778 132.361C562.07 131.034 561.534 129.621 561.169 128.163L557.503 127.298L557.394 120.278L561.031 119.267C561.35 117.796 561.843 116.362 562.509 115.007L560.458 111.459L564.76 106.407L567.961 108.607Z" fill="#F3F2F1"/>
<path d="M55.4682 95.0636C50.5106 100.885 50.654 110.159 55.7892 115.778C60.9239 121.397 69.1058 121.233 74.0631 115.413C79.02 109.593 78.8769 100.319 73.7418 94.6999C68.6066 89.0807 60.4255 89.2435 55.4682 95.0636ZM49.0471 76.8747C51.3248 75.3149 53.7491 74.1321 56.2497 73.3264L57.7335 65.2458L69.7786 65.0057L71.5121 73.0225C74.0365 73.7272 76.4963 74.8131 78.8208 76.2813L84.9085 71.7583L93.5751 81.2442L89.8019 88.2977C91.1791 90.8806 92.2226 93.6295 92.9324 96.4638L100.06 98.1452L100.272 111.799L93.1997 113.765C92.578 116.625 91.6208 119.413 90.3249 122.048L94.3149 128.949L85.9474 138.773L79.724 134.496C77.4461 136.056 75.021 137.239 72.52 138.044L71.0362 146.125L58.9915 146.364L57.2577 138.347C54.7336 137.643 52.2741 136.557 49.9496 135.089L43.8619 139.612L35.1947 130.127L38.9682 123.072C37.592 120.49 36.5478 117.742 35.8376 114.906L28.7089 113.225L28.4976 99.5722L35.5703 97.6054C36.192 94.7453 37.1503 91.9573 38.4452 89.3218L34.4554 82.4208L42.8223 72.5969L49.0471 76.8747Z" fill="#F3F2F1"/>
<path d="M577.681 185.901C573.638 190.648 573.755 198.21 577.942 202.793C582.13 207.375 588.801 207.242 592.844 202.495C596.886 197.748 596.77 190.186 592.582 185.603C588.395 181.021 581.723 181.154 577.681 185.901ZM572.444 171.068C574.301 169.796 576.278 168.831 578.318 168.175L579.527 161.585L589.35 161.389L590.764 167.926C592.822 168.501 594.828 169.386 596.724 170.585L601.688 166.896L608.756 174.632L605.678 180.384C606.802 182.49 607.653 184.731 608.232 187.043L614.044 188.414L614.217 199.548L608.45 201.15C607.943 203.484 607.162 205.757 606.106 207.906L609.359 213.534L602.535 221.545L597.461 218.057C595.603 219.329 593.625 220.293 591.585 220.95L590.376 227.541L580.554 227.735L579.139 221.198C577.081 220.623 575.075 219.737 573.18 218.54L568.216 222.228L561.148 214.494L564.225 208.741C563.103 206.636 562.251 204.394 561.672 202.082L555.859 200.71L555.686 189.577L561.454 187.974C561.961 185.641 562.742 183.367 563.798 181.218L560.544 175.591L567.368 167.58L572.444 171.068Z" fill="#E7E8E5"/>
<path d="M366.818 62.2682C360.59 69.5803 360.771 81.2288 367.222 88.2884C373.671 95.347 383.949 95.142 390.176 87.8299C396.403 80.5189 396.223 68.8694 389.772 61.8108C383.322 54.7522 373.045 54.9572 366.818 62.2682ZM358.752 39.4203C361.612 37.4617 364.658 35.975 367.8 34.9632L369.663 24.8128L384.794 24.5119L386.971 34.581C390.142 35.4671 393.233 36.8301 396.152 38.6754L403.799 32.9933L414.686 44.9087L409.946 53.7693C411.676 57.0127 412.987 60.4662 413.878 64.027L422.833 66.1401L423.098 83.2904L414.215 85.759C413.434 89.3527 412.23 92.8547 410.603 96.1651L415.615 104.834L405.104 117.174L397.286 111.801C394.425 113.762 391.379 115.246 388.238 116.258L386.374 126.408L371.244 126.71L369.066 116.639C365.895 115.753 362.806 114.39 359.885 112.545L352.239 118.227L341.351 106.312L346.091 97.4509C344.363 94.2075 343.051 90.755 342.159 87.1942L333.204 85.0811L332.938 67.9307L341.823 65.4611C342.604 61.8685 343.808 58.3654 345.434 55.0561L340.422 46.3882L350.932 34.0473L358.752 39.4203Z" fill="#E7E8E5"/>
<path d="M644.72 399.08C644.72 399.229 500.383 399.349 322.375 399.349C144.307 399.349 0 399.229 0 399.08C0 398.933 144.307 398.812 322.375 398.812C500.383 398.812 644.72 398.933 644.72 399.08Z" fill="#17282F"/>
<path d="M496.486 81.9139H180.024C174.568 81.9139 170.146 86.9264 170.146 93.1102V346.479C170.146 352.664 174.568 357.678 180.024 357.678H301.482C301.482 357.678 309.208 384.758 285.257 398.77H398.826C398.826 398.77 371.785 388.262 378.738 357.678H496.486C501.941 357.678 506.364 352.664 506.364 346.48V93.1112C506.364 86.9264 501.941 81.9139 496.486 81.9139Z" fill="#33535F"/>
<path d="M342.48 331.031C346.785 338.005 340.048 345.642 333.894 340.763C333.691 340.601 333.506 340.393 333.365 340.162C329.072 333.189 335.8 325.562 341.951 330.431C342.154 330.591 342.338 330.8 342.48 331.031Z" fill="#17282F"/>
<path d="M500.915 311.325H175.595V96.5473C175.595 91.029 179.541 86.5554 184.409 86.5554H492.101C496.97 86.5554 500.915 91.029 500.915 96.5473V311.325Z" fill="white"/>
<path d="M500.915 105.233H175.595V95.9868C175.595 90.7776 179.32 86.5554 183.914 86.5554H494.084C497.857 86.5554 500.915 90.0224 500.915 94.2991V105.233Z" fill="#E7E8E5"/>
<path d="M188.24 96.2855C188.24 97.7166 187.217 98.8767 185.955 98.8767C184.692 98.8767 183.669 97.7166 183.669 96.2855C183.669 94.8554 184.692 93.6953 185.955 93.6953C187.217 93.6953 188.24 94.8554 188.24 96.2855Z" fill="#DADBD8"/>
<path d="M195.052 96.2855C195.052 97.7166 194.03 98.8767 192.767 98.8767C191.505 98.8767 190.482 97.7166 190.482 96.2855C190.482 94.8554 191.505 93.6953 192.767 93.6953C194.03 93.6953 195.052 94.8554 195.052 96.2855Z" fill="#DADBD8"/>
<path d="M201.531 96.2855C201.531 97.7166 200.508 98.8767 199.246 98.8767C197.984 98.8767 196.96 97.7166 196.96 96.2855C196.96 94.8554 197.984 93.6953 199.246 93.6953C200.508 93.6953 201.531 94.8554 201.531 96.2855Z" fill="#DADBD8"/>
<path d="M439.907 357.714C439.907 357.832 394.875 357.929 339.337 357.929C283.779 357.929 238.757 357.832 238.757 357.714C238.757 357.594 283.779 357.498 339.337 357.498C394.875 357.498 439.907 357.594 439.907 357.714Z" fill="#17282F"/>
<path d="M175.704 217.557H500.174V135.455H175.704V217.557Z" fill="#F3F2F1"/>
<path d="M183.669 127.727H230.495V113.835H183.669V127.727Z" fill="#F3F2F1"/>
<path d="M492.472 127.727H466.833V113.835H492.472V127.727Z" fill="#F3F2F1"/>
<path d="M459.13 127.727H417.172V113.835H459.13V127.727Z" fill="#F3F2F1"/>
<path d="M408.448 127.727H366.491V113.835H408.448V127.727Z" fill="#F3F2F1"/>
<path d="M477.474 255.244H191.501V240.691H477.474V255.244Z" fill="#F3F2F1"/>
<path d="M477.474 282.327H191.501V267.774H477.474V282.327Z" fill="#F3F2F1"/>
<path d="M304.104 184.83L311.986 175.895L325.732 190.097L349.958 162.667L357.278 171.601L324.607 207.328L304.104 184.83Z" fill="url(#paint0_linear_0_893)"/>
<path d="M315.438 163.879C315.338 163.975 314.083 162.481 312.636 160.544C311.189 158.605 310.097 156.957 310.197 156.861C310.296 156.765 311.55 158.259 312.998 160.197C314.445 162.135 315.538 163.783 315.438 163.879Z" fill="#17282F"/>
<path d="M326.011 162.573C325.88 162.58 325.593 158.111 325.37 152.592C325.147 147.072 325.072 142.593 325.202 142.587C325.333 142.58 325.619 147.048 325.843 152.568C326.067 158.086 326.141 162.567 326.011 162.573Z" fill="#17282F"/>
<path d="M342.347 156.455C342.448 156.547 341.306 158.374 339.793 160.537C338.281 162.7 336.972 164.378 336.87 164.286C336.768 164.194 337.91 162.367 339.423 160.203C340.935 158.042 342.244 156.362 342.347 156.455Z" fill="#17282F"/>
<path d="M559.864 398.948H425.094C421.446 398.948 418.489 395.597 418.489 391.462V165.715C418.489 161.581 421.446 158.229 425.094 158.229H559.864C563.512 158.229 566.469 161.581 566.469 165.715V391.461C566.469 395.596 563.512 398.948 559.864 398.948Z" fill="#DADBD8"/>
<path d="M559.864 398.948C559.864 398.948 560.019 398.93 560.324 398.907C560.628 398.885 561.085 398.82 561.665 398.631C562.789 398.265 564.563 397.276 565.679 394.888C565.953 394.3 566.152 393.627 566.29 392.902C566.418 392.171 566.414 391.389 566.41 390.561C566.406 388.907 566.402 387.1 566.399 385.142C566.392 381.226 566.385 376.708 566.377 371.623C566.359 351.272 566.333 321.837 566.302 285.465C566.293 267.276 566.282 247.354 566.272 225.968C566.269 215.274 566.264 204.215 566.261 192.823C566.259 187.126 566.257 181.347 566.255 175.489C566.254 172.56 566.253 169.611 566.253 166.643C566.244 165.894 566.278 165.168 566.15 164.462C566.032 163.758 565.852 163.057 565.547 162.42C564.97 161.13 564.033 160.057 562.912 159.352C562.344 159.013 561.735 158.767 561.106 158.617C560.473 158.475 559.834 158.474 559.158 158.477C557.825 158.479 556.486 158.479 555.144 158.479C552.459 158.48 549.76 158.481 547.044 158.482C541.612 158.483 536.118 158.484 530.566 158.486C519.46 158.488 508.122 158.49 496.58 158.492C473.494 158.494 449.591 158.496 425.111 158.498C423.632 158.503 422.169 159.092 421.032 160.157C419.898 161.225 419.114 162.743 418.84 164.376C418.686 165.186 418.736 166.034 418.726 166.903V169.483C418.726 171.203 418.726 172.918 418.726 174.632C418.726 181.485 418.725 188.293 418.725 195.052C418.724 208.569 418.722 221.887 418.721 234.975C418.716 261.149 418.712 286.396 418.707 310.447C418.699 334.498 418.692 357.352 418.686 378.741C418.685 381.414 418.683 384.065 418.682 386.692C418.682 388.006 418.681 389.313 418.68 390.615C418.645 391.925 418.753 393.17 419.201 394.336C420.074 396.641 422.036 398.352 424.198 398.658C424.668 398.739 425.148 398.738 425.639 398.738C425.705 398.737 425.773 398.737 425.84 398.738L427.502 398.739C428.608 398.739 429.709 398.74 430.804 398.741C439.562 398.746 447.967 398.752 455.99 398.759C488.078 398.794 514.044 398.824 531.996 398.843C540.964 398.865 547.93 398.882 552.659 398.894C555.017 398.905 556.817 398.914 558.033 398.92C559.244 398.93 559.864 398.948 559.864 398.948C559.864 398.948 559.244 398.966 558.033 398.975C556.817 398.981 555.017 398.991 552.659 399.002C547.93 399.013 540.964 399.031 531.996 399.052C514.044 399.072 488.078 399.102 455.99 399.138C447.967 399.143 439.562 399.149 430.804 399.155C429.709 399.155 428.608 399.156 427.502 399.157H425.84C425.772 399.157 425.703 399.157 425.633 399.159C425.148 399.159 424.646 399.16 424.147 399.076C421.857 398.754 419.779 396.949 418.853 394.506C418.377 393.294 418.26 391.901 418.297 390.615C418.297 389.313 418.297 388.006 418.297 386.692C418.295 384.065 418.294 381.414 418.293 378.741C418.287 357.352 418.278 334.498 418.271 310.447C418.267 286.396 418.262 261.149 418.257 234.975C418.256 221.887 418.255 208.569 418.254 195.052C418.253 188.293 418.253 181.485 418.253 174.632C418.253 172.918 418.253 171.203 418.253 169.483V166.903C418.264 166.055 418.21 165.162 418.375 164.277C418.668 162.521 419.512 160.89 420.73 159.745C421.949 158.599 423.526 157.965 425.111 157.961C449.591 157.963 473.494 157.964 496.58 157.966C508.122 157.969 519.46 157.971 530.566 157.973C536.118 157.975 541.612 157.976 547.044 157.978C549.76 157.978 552.459 157.979 555.144 157.98C556.486 157.98 557.825 157.981 559.158 157.981C559.815 157.978 560.516 157.978 561.191 158.13C561.863 158.291 562.514 158.556 563.12 158.918C564.318 159.672 565.317 160.817 565.933 162.196C566.257 162.877 566.452 163.626 566.576 164.378C566.712 165.137 566.676 165.912 566.684 166.643C566.683 169.611 566.682 172.56 566.682 175.489C566.681 181.347 566.679 187.126 566.677 192.823C566.672 204.215 566.669 215.274 566.665 225.968C566.654 247.354 566.645 267.276 566.636 285.465C566.604 321.837 566.579 351.272 566.561 371.623C566.552 376.708 566.545 381.226 566.54 385.142C566.535 387.1 566.532 388.907 566.528 390.561C566.529 391.383 566.529 392.183 566.394 392.925C566.251 393.662 566.045 394.343 565.764 394.938C564.616 397.352 562.815 398.332 561.678 398.684C561.092 398.866 560.632 398.921 560.326 398.935C560.019 398.948 559.864 398.948 559.864 398.948Z" fill="#17282F"/>
<path d="M559.864 398.948C559.864 398.948 560.019 398.933 560.324 398.912C560.478 398.91 560.666 398.878 560.891 398.835C561.119 398.806 561.376 398.731 561.667 398.64C562.243 398.445 562.952 398.127 563.679 397.533C564.399 396.941 565.153 396.084 565.694 394.897C565.97 394.308 566.17 393.633 566.31 392.907C566.438 392.173 566.435 391.388 566.431 390.561C566.43 388.908 566.427 387.101 566.424 385.142C566.421 381.227 566.416 376.709 566.41 371.623C566.4 351.276 566.383 321.839 566.363 285.465C566.358 267.277 566.351 247.354 566.345 225.968C566.342 215.275 566.341 204.215 566.338 192.823C566.337 187.126 566.335 181.347 566.334 175.489C566.334 172.56 566.333 169.611 566.332 166.643C566.324 165.898 566.359 165.162 566.229 164.447C566.11 163.733 565.927 163.023 565.619 162.379C565.034 161.073 564.086 159.986 562.95 159.272C562.375 158.929 561.759 158.678 561.122 158.526C560.481 158.384 559.831 158.383 559.158 158.386C557.825 158.386 556.486 158.386 555.143 158.387C552.459 158.387 549.76 158.388 547.044 158.388C541.612 158.389 536.117 158.39 530.566 158.39C519.46 158.392 508.122 158.393 496.58 158.395C473.494 158.396 449.591 158.397 425.111 158.398C423.612 158.403 422.128 159 420.976 160.081C419.826 161.163 419.031 162.702 418.754 164.357C418.598 165.182 418.648 166.038 418.638 166.903V169.483C418.638 171.203 418.638 172.918 418.637 174.632C418.637 181.485 418.637 188.293 418.637 195.052C418.636 208.569 418.636 221.887 418.635 234.975C418.632 261.149 418.629 286.396 418.626 310.447C418.621 334.498 418.616 357.352 418.613 378.741C418.612 381.414 418.611 384.065 418.611 386.692C418.61 388.006 418.61 389.313 418.609 390.615C418.612 391.269 418.596 391.912 418.686 392.539C418.753 393.172 418.932 393.779 419.136 394.366C420.019 396.698 422.002 398.426 424.189 398.735C424.665 398.818 425.151 398.816 425.642 398.815C425.708 398.815 425.773 398.815 425.84 398.815C426.395 398.816 426.95 398.816 427.502 398.816C428.608 398.816 429.709 398.818 430.804 398.818C439.562 398.822 447.967 398.825 455.99 398.829C488.079 398.851 514.048 398.87 531.995 398.882C540.967 398.896 547.933 398.906 552.659 398.914C555.02 398.921 556.82 398.927 558.033 398.931C559.244 398.936 559.864 398.948 559.864 398.948C559.864 398.948 559.244 398.96 558.033 398.965C556.82 398.969 555.02 398.974 552.659 398.982C547.933 398.989 540.967 399 531.995 399.013C514.048 399.027 488.079 399.044 455.99 399.067C447.967 399.071 439.562 399.074 430.804 399.078C429.709 399.078 428.608 399.079 427.502 399.079C426.95 399.079 426.395 399.08 425.84 399.08C425.772 399.08 425.703 399.08 425.633 399.08C425.147 399.081 424.65 399.082 424.156 398.998C421.89 398.678 419.834 396.892 418.917 394.474C418.705 393.865 418.518 393.235 418.449 392.578C418.355 391.925 418.371 391.26 418.369 390.615C418.368 389.313 418.368 388.006 418.367 386.692C418.367 384.065 418.366 381.414 418.366 378.741C418.361 357.352 418.356 334.498 418.352 310.447C418.349 286.396 418.346 261.149 418.343 234.975C418.342 221.887 418.342 208.569 418.341 195.052C418.341 188.293 418.34 181.485 418.34 174.632C418.34 172.918 418.34 171.203 418.34 169.483V166.903C418.351 166.051 418.298 165.167 418.461 164.296C418.751 162.562 419.584 160.952 420.785 159.821C421.99 158.691 423.546 158.065 425.111 158.06C449.591 158.061 473.494 158.063 496.58 158.064C508.122 158.065 519.46 158.066 530.566 158.069C536.117 158.069 541.612 158.07 547.044 158.071C549.76 158.072 552.459 158.072 555.143 158.073C556.486 158.073 557.825 158.073 559.158 158.073C559.819 158.071 560.508 158.071 561.175 158.22C561.839 158.38 562.482 158.64 563.081 158.999C564.265 159.743 565.253 160.876 565.861 162.238C566.181 162.91 566.373 163.651 566.497 164.394C566.631 165.144 566.596 165.909 566.604 166.643C566.604 169.611 566.603 172.56 566.602 175.489C566.601 181.347 566.6 187.126 566.6 192.823C566.597 204.215 566.594 215.275 566.592 225.968C566.586 247.354 566.58 267.277 566.574 285.465C566.554 321.839 566.538 351.276 566.527 371.623C566.521 376.709 566.517 381.227 566.513 385.142C566.511 387.101 566.508 388.908 566.506 390.561C566.507 391.384 566.508 392.181 566.375 392.921C566.232 393.654 566.028 394.335 565.748 394.929C565.196 396.124 564.434 396.984 563.706 397.575C562.971 398.168 562.256 398.482 561.675 398.673C561.382 398.762 561.123 398.834 560.895 398.861C560.669 398.902 560.48 398.931 560.325 398.93C560.019 398.945 559.864 398.948 559.864 398.948Z" fill="#17282F"/>
<path d="M498.157 386.852C498.157 390.406 495.614 393.287 492.479 393.287C489.343 393.287 486.801 390.406 486.801 386.852C486.801 383.297 489.343 380.415 492.479 380.415C495.614 380.415 498.157 383.297 498.157 386.852Z" fill="white"/>
<path d="M510.967 169.801H480.745C479.581 169.801 478.637 168.731 478.637 167.411C478.637 166.092 479.581 165.022 480.745 165.022H510.967C512.131 165.022 513.075 166.092 513.075 167.411C513.075 168.731 512.131 169.801 510.967 169.801Z" fill="#E7E8E5"/>
<path d="M559.464 376.432H425.238C424.017 376.432 423.028 375.31 423.028 373.926V177.909C423.028 176.525 424.017 175.403 425.238 175.403H559.464C560.684 175.403 561.674 176.525 561.674 177.909V373.926C561.674 375.31 560.684 376.432 559.464 376.432Z" fill="white"/>
<path d="M559.464 376.432C559.463 376.419 559.603 376.434 559.868 376.374C560.129 376.315 560.531 376.171 560.926 375.765C561.316 375.369 561.683 374.662 561.639 373.758C561.635 372.857 561.631 371.812 561.627 370.627C561.617 365.877 561.601 358.884 561.582 349.88C561.564 331.856 561.539 305.789 561.507 273.578C561.498 257.471 561.489 239.827 561.478 220.887C561.474 211.417 561.471 201.622 561.466 191.534C561.465 189.011 561.464 186.471 561.463 183.911C561.463 182.633 561.462 181.349 561.462 180.06L561.461 178.125C561.492 177.5 561.341 176.93 561.005 176.47C560.677 176.015 560.188 175.715 559.671 175.658C559.328 175.642 558.954 175.644 558.578 175.645C558.373 175.646 558.168 175.647 557.968 175.646C556.817 175.646 555.661 175.647 554.502 175.647C552.182 175.648 549.849 175.649 547.5 175.65C509.924 175.657 468.613 175.664 425.253 175.671C424.644 175.667 424.045 175.993 423.678 176.542C423.494 176.813 423.363 177.13 423.303 177.466C423.244 177.787 423.27 178.171 423.264 178.559C423.264 180.091 423.264 181.621 423.264 183.148C423.264 186.202 423.264 189.247 423.264 192.282C423.263 198.351 423.263 204.38 423.263 210.365C423.261 222.336 423.26 234.132 423.259 245.722C423.255 268.902 423.25 291.261 423.246 312.561C423.238 333.86 423.23 354.099 423.224 373.041L423.223 373.929C423.225 374.198 423.268 374.466 423.35 374.718C423.514 375.221 423.836 375.658 424.251 375.917C424.675 376.195 425.122 376.233 425.655 376.213L427.199 376.214C429.251 376.215 431.285 376.216 433.301 376.217C437.332 376.22 441.289 376.223 445.167 376.225C452.923 376.231 460.367 376.236 467.472 376.242C495.888 376.279 518.884 376.308 534.783 376.327C542.725 376.35 548.894 376.366 553.083 376.378C555.171 376.39 556.764 376.398 557.842 376.404C558.915 376.413 559.464 376.432 559.464 376.432C559.464 376.432 558.915 376.45 557.842 376.459C556.764 376.465 555.171 376.474 553.083 376.485C548.894 376.498 542.725 376.514 534.783 376.536C518.884 376.557 495.888 376.586 467.472 376.622C460.367 376.627 452.923 376.633 445.167 376.639C441.289 376.641 437.332 376.644 433.301 376.647C431.285 376.648 429.251 376.65 427.199 376.65L425.655 376.652C425.166 376.677 424.54 376.633 424.059 376.301C423.566 375.992 423.179 375.473 422.983 374.871C422.885 374.57 422.834 374.25 422.832 373.929L422.831 373.041C422.824 354.099 422.817 333.86 422.809 312.561C422.805 291.261 422.8 268.902 422.796 245.722C422.794 234.132 422.793 222.336 422.792 210.365C422.791 204.38 422.791 198.351 422.791 192.282C422.79 189.247 422.79 186.202 422.79 183.148C422.79 181.621 422.79 180.091 422.79 178.559C422.799 178.184 422.765 177.794 422.839 177.361C422.913 176.944 423.076 176.549 423.304 176.213C423.756 175.534 424.505 175.128 425.253 175.134C468.613 175.143 509.924 175.149 547.5 175.156C549.849 175.157 552.182 175.157 554.502 175.158C555.661 175.159 556.817 175.159 557.968 175.16C558.176 175.162 558.378 175.161 558.58 175.16C558.948 175.158 559.316 175.156 559.715 175.176C560.343 175.246 560.937 175.611 561.334 176.162C561.741 176.7 561.925 177.461 561.887 178.125V180.06C561.886 181.349 561.885 182.633 561.885 183.911C561.884 186.471 561.883 189.011 561.882 191.534C561.879 201.622 561.874 211.417 561.87 220.887C561.86 239.827 561.85 257.471 561.841 273.578C561.81 305.789 561.784 331.856 561.767 349.88C561.748 358.884 561.732 365.877 561.722 370.627C561.718 371.812 561.714 372.857 561.71 373.758C561.749 374.682 561.361 375.41 560.959 375.806C560.55 376.215 560.137 376.351 559.873 376.401C559.603 376.453 559.464 376.432 559.464 376.432Z" fill="#17282F"/>
<path d="M561.102 260.992H423.856V204.036H561.102V260.992Z" fill="#F3F2F1"/>
<path d="M459.393 194.397H426.91V184.758H459.393V194.397Z" fill="#F3F2F1"/>
<path d="M558.396 194.397H529.29V184.758H558.396V194.397Z" fill="#F3F2F1"/>
<path d="M523.758 194.397H494.651V184.758H523.758V194.397Z" fill="#F3F2F1"/>
<path d="M549.563 300.42H432.381V290.324H549.563V300.42Z" fill="#F3F2F1"/>
<path d="M549.563 281.322H432.381V271.227H549.563V281.322Z" fill="#F3F2F1"/>
<path d="M549.563 339.521H432.381V329.426H549.563V339.521Z" fill="#F3F2F1"/>
<path d="M549.563 320.424H432.381V310.328H549.563V320.424Z" fill="#F3F2F1"/>
<path d="M465.892 254.169L473.774 245.234L487.521 259.435L511.746 232.005L519.066 240.94L486.395 276.667L465.892 254.169Z" fill="url(#paint1_linear_0_893)"/>
<path d="M604.491 399.236L547.161 399.198C540.267 399.194 534.68 392.874 534.68 385.079L534.709 222.629C534.71 214.831 540.305 208.512 547.204 208.516L604.534 208.554C611.428 208.559 617.016 214.879 617.015 222.672L616.987 385.124C616.985 392.921 611.39 399.241 604.491 399.236Z" fill="#17282F"/>
<path d="M604.892 213.398L593.739 213.339C592.243 213.332 591.025 214.762 591.018 216.534L591.009 218.827C591.004 220.6 589.785 222.03 588.29 222.022L566.549 221.909C565.053 221.902 563.846 220.458 563.852 218.685L563.861 216.392C563.867 214.62 562.659 213.176 561.164 213.169L557.241 213.147L547.479 213.097C542.631 213.072 538.683 217.507 538.663 223.003L538.067 382.572C538.047 388.065 541.957 392.537 546.803 392.563L604.216 392.863C609.064 392.888 613.012 388.453 613.033 382.957L613.628 223.387C613.648 217.895 609.738 213.422 604.892 213.398Z" fill="white"/>
<path d="M613.203 272.807H538.492V241.803H613.203V272.807Z" fill="#F3F2F1"/>
<path d="M557.837 236.556H540.154V231.309H557.837V236.556Z" fill="#F3F2F1"/>
<path d="M611.729 236.556H595.886V231.309H611.729V236.556Z" fill="#F3F2F1"/>
<path d="M592.874 236.556H577.03V231.309H592.874V236.556Z" fill="#F3F2F1"/>
<path d="M606.921 294.27H543.134V288.774H606.921V294.27Z" fill="#F3F2F1"/>
<path d="M606.921 283.874H543.134V278.379H606.921V283.874Z" fill="#F3F2F1"/>
<path d="M606.921 315.555H543.134V310.059H606.921V315.555Z" fill="#F3F2F1"/>
<path d="M606.921 325.278H543.134V319.782H606.921V325.278Z" fill="#F3F2F1"/>
<path d="M606.921 336.389H543.134V330.894H606.921V336.389Z" fill="#F3F2F1"/>
<path d="M606.921 347.501H543.134V342.006H606.921V347.501Z" fill="#F3F2F1"/>
<path d="M606.921 358.613H543.134V353.117H606.921V358.613Z" fill="#F3F2F1"/>
<path d="M606.921 305.159H543.134V299.664H606.921V305.159Z" fill="#F3F2F1"/>
<path d="M555.617 309.468L561.786 302.475L573.683 314.463L597.037 288.99L602.765 295.982L572.801 327.948L555.617 309.468Z" fill="url(#paint2_linear_0_893)"/>
<path d="M252.129 394.815H30.3272C23.0145 394.815 17.0862 388.096 17.0862 379.807V223.714C17.0862 215.425 23.0145 208.706 30.3272 208.706H252.129C259.442 208.706 265.371 215.425 265.371 223.714V379.807C265.371 388.096 259.442 394.815 252.129 394.815Z" fill="#17282F"/>
<path d="M262.653 399.08H21.1097C13.5286 399.08 7.383 392.114 7.383 383.521V382.796H276.38V383.521C276.38 392.114 270.234 399.08 262.653 399.08Z" fill="#17282F"/>
<path d="M258.011 373.267H23.751V216.1H258.011V373.267Z" fill="#17282F"/>
<path d="M116.753 381.051L120.091 387.069H167.061L170.16 381.051H116.753Z" fill="#33535F"/>
<path d="M250.694 372.764H31.5511C29.9083 372.764 28.5762 371.254 28.5762 369.391V224.793C28.5762 222.93 29.9079 221.42 31.5508 221.42H250.694C252.336 221.42 253.668 222.93 253.668 224.792V369.392C253.668 371.255 252.336 372.764 250.694 372.764Z" fill="#E7E8E5"/>
<path d="M253.427 372.986H28.335L28.5762 232.731H253.427V372.986Z" fill="white"/>
<path d="M47.0371 227.265C47.0371 228.39 46.2323 229.303 45.2395 229.303C44.2464 229.303 43.4418 228.39 43.4418 227.265C43.4418 226.139 44.2464 225.227 45.2395 225.227C46.2323 225.227 47.0371 226.139 47.0371 227.265Z" fill="#17282F"/>
<path d="M36.142 227.265C36.142 228.39 35.3374 229.303 34.344 229.303C33.3516 229.303 32.5463 228.39 32.5463 227.265C32.5463 226.139 33.3516 225.227 34.344 225.227C35.3374 225.227 36.142 226.139 36.142 227.265Z" fill="#17282F"/>
<path d="M41.3715 227.265C41.3715 228.39 40.567 229.303 39.5739 229.303C38.5812 229.303 37.7762 228.39 37.7762 227.265C37.7762 226.139 38.5812 225.227 39.5739 225.227C40.567 225.227 41.3715 226.139 41.3715 227.265Z" fill="#17282F"/>
<path d="M263.236 381.051C263.236 381.152 208.129 381.233 140.167 381.233C72.1817 381.233 17.0862 381.152 17.0862 381.051C17.0862 380.95 72.1817 380.869 140.167 380.869C208.129 380.869 263.236 380.95 263.236 381.051Z" fill="#33535F"/>
<path d="M253.668 312.297H28.5762V255.341H253.668V312.297Z" fill="#F3F2F1"/>
<path d="M66.5854 249.98H34.1015V240.342H66.5854V249.98Z" fill="#F3F2F1"/>
<path d="M248.325 249.98H230.539V240.342H248.325V249.98Z" fill="#F3F2F1"/>
<path d="M225.195 249.98H196.088V240.342H225.195V249.98Z" fill="#F3F2F1"/>
<path d="M190.036 249.98H160.929V240.342H190.036V249.98Z" fill="#F3F2F1"/>
<path d="M237.96 356.003H39.5739V345.907H237.96V356.003Z" fill="#F3F2F1"/>
<path d="M237.96 336.906H39.5739V326.81H237.96V336.906Z" fill="#F3F2F1"/>
<path d="M112.589 293.235L120.471 284.301L135.672 299.618L165.514 267.07L172.833 276.005L134.547 316.85L112.589 293.235Z" fill="url(#paint3_linear_0_893)"/>
<path d="M268.116 100.946C268.116 140.613 239.748 172.771 204.752 172.771C169.756 172.771 141.386 140.613 141.386 100.946C141.386 61.2771 169.756 29.1194 204.752 29.1194C239.748 29.1194 268.116 61.2771 268.116 100.946Z" fill="url(#paint4_linear_0_893)"/>
<path d="M204.752 172.771C177.693 172.771 154.597 153.548 145.511 126.491C155.562 151.106 177.544 168.18 203.046 168.18C238.041 168.18 266.41 136.022 266.41 96.3535C266.41 87.3559 264.951 78.7447 262.286 70.8072C266.028 79.9717 268.116 90.183 268.116 100.946C268.116 102.383 268.079 103.815 268.006 105.233C266.05 142.907 238.479 172.771 204.752 172.771Z" fill="#CC4341"/>
<path d="M266.41 96.3536C266.41 136.022 238.041 168.18 203.046 168.18C168.05 168.18 139.68 136.022 139.68 96.3536C139.68 56.685 168.05 24.5273 203.046 24.5273C238.041 24.5273 266.41 56.685 266.41 96.3536Z" fill="url(#paint5_linear_0_893)"/>
<path d="M252.338 96.3536C252.338 127.212 230.269 152.229 203.046 152.229C175.821 152.229 153.752 127.212 153.752 96.3536C153.752 65.4951 175.821 40.4784 203.046 40.4784C230.269 40.4784 252.338 65.4951 252.338 96.3536Z" fill="white"/>
<path d="M237.728 96.3536C237.728 118.066 222.2 135.667 203.046 135.667C183.891 135.667 168.362 118.066 168.362 96.3536C168.362 74.6411 183.891 57.0405 203.046 57.0405C222.2 57.0405 237.728 74.6411 237.728 96.3536Z" fill="url(#paint6_linear_0_893)"/>
<path d="M221.344 96.3536C221.344 107.809 213.152 117.097 203.046 117.097C192.939 117.097 184.746 107.809 184.746 96.3536C184.746 84.8977 192.939 75.6105 203.046 75.6105C213.152 75.6105 221.344 84.8977 221.344 96.3536Z" fill="white"/>
<path d="M252.067 38.1787L250.346 22.8551L264.107 6.16114L265.097 22.6974L252.067 38.1787Z" fill="#33535F"/>
<path d="M281.603 25.9852L267.643 24.6973L253.65 39.955L267.646 41.6509L281.603 25.9852Z" fill="#33535F"/>
<path d="M255.025 55.2653C253.03 52.027 250.805 48.9845 248.377 46.1677L248.46 46.0771C250.767 48.8568 253.377 52.4855 255.025 55.2653Z" fill="#A7A9A8"/>
<path d="M243.623 64.6204C242.022 61.9952 240.225 59.5286 238.26 57.2558L248.377 46.1677C250.805 48.9845 253.03 52.027 255.025 55.2652C255.039 55.2869 255.051 55.3095 255.065 55.3322L243.623 64.6204Z" fill="#CC4341"/>
<path d="M231.741 74.266C230.559 72.2971 229.225 70.458 227.756 68.7673L238.26 57.2558C240.225 59.5286 242.022 61.9951 243.623 64.6203L231.741 74.266Z" fill="#A7A9A8"/>
<path d="M218.412 85.0852C217.707 83.853 216.89 82.7114 215.977 81.677L227.756 68.7673C229.225 70.4581 230.559 72.2971 231.741 74.266L218.412 85.0852Z" fill="#CC4341"/>
<path d="M203.046 97.5601L203.898 94.9153L215.977 81.677C216.89 82.7114 217.707 83.853 218.412 85.0852L203.046 97.5601Z" fill="#A7A9A8"/>
<path d="M267.161 19.5036C264.985 22.0031 262.808 24.5026 260.632 27.0021C255.407 33.0046 250.181 39.0061 244.956 45.0086C238.661 52.2382 232.366 59.4678 226.072 66.6974C220.604 72.9781 215.135 79.2589 209.666 85.5396C207.011 88.5903 204.235 91.5534 201.68 94.7133L201.565 94.8452C200.023 96.6163 202.432 99.3497 203.975 97.5765C206.151 95.077 208.328 92.5775 210.504 90.078C215.73 84.0765 220.955 78.074 226.181 72.0725C232.475 64.8429 238.771 57.6133 245.065 50.3827C250.533 44.102 256.001 37.8213 261.469 31.5406C264.125 28.4898 266.902 25.5267 269.457 22.3668L269.571 22.2359C271.113 20.4638 268.705 17.7304 267.161 19.5036Z" fill="#17282F"/>
<path d="M379.626 206.677C377.481 206.838 375.366 204.942 375.01 202.539C374.654 200.136 376.105 197.562 378.178 196.918C376.916 195.305 376.69 192.759 377.643 190.893C378.597 189.027 380.657 187.982 382.52 188.42C382.688 186.3 383.893 184.323 385.585 183.396C387.276 182.471 389.391 182.629 390.961 183.798C393.118 181.897 396.462 182.002 398.522 184.036C400.36 183.753 402.3 184.96 403.076 186.87C403.854 188.779 403.403 191.235 402.019 192.635" fill="#17282F"/>
<path d="M378.96 207.339C380.19 196.432 388.604 188.425 398.294 188.938L399.258 188.99C409.612 190.227 414.47 200.887 413.092 212.585L409.972 251.696L409.154 260.918L385.621 257.769L386.067 247.782C386.067 247.782 376.157 245.495 376.501 234.176C376.666 228.71 377.816 217.485 378.96 207.339Z" fill="#A05453"/>
<path d="M385.985 247.761C385.985 247.761 392.34 248.534 399.24 244.116C399.24 244.116 395.829 252.094 385.913 250.548L385.985 247.761Z" fill="#73393B"/>
<path d="M381.154 217.767C381.092 218.618 381.677 219.38 382.461 219.469C383.243 219.558 383.929 218.943 383.99 218.091C384.051 217.239 383.467 216.476 382.684 216.387C381.901 216.298 381.216 216.915 381.154 217.767Z" fill="#17282F"/>
<path d="M380.877 212.988C381.045 213.208 382.162 212.359 383.696 212.445C385.229 212.505 386.317 213.459 386.492 213.255C386.577 213.166 386.414 212.775 385.94 212.346C385.474 211.917 384.668 211.482 383.712 211.436C382.756 211.392 381.936 211.747 381.458 212.13C380.969 212.516 380.794 212.889 380.877 212.988Z" fill="#17282F"/>
<path d="M395.123 218.562C395.061 219.415 395.647 220.176 396.43 220.265C397.213 220.354 397.898 219.738 397.96 218.886C398.021 218.035 397.436 217.273 396.654 217.183C395.87 217.093 395.185 217.711 395.123 218.562Z" fill="#17282F"/>
<path d="M395.938 214.11C396.107 214.33 397.225 213.482 398.757 213.568C400.289 213.628 401.378 214.582 401.554 214.378C401.639 214.289 401.477 213.898 401.001 213.469C400.535 213.04 399.729 212.605 398.773 212.559C397.818 212.514 396.997 212.87 396.519 213.253C396.032 213.639 395.856 214.012 395.938 214.11Z" fill="#17282F"/>
<path d="M389.841 226.707C389.852 226.608 388.907 226.371 387.372 226.066C386.982 225.999 386.615 225.891 386.561 225.585C386.482 225.259 386.665 224.79 386.876 224.283C387.289 223.229 387.721 222.123 388.174 220.964C389.981 216.237 391.307 212.342 391.139 212.26C390.971 212.18 389.37 215.946 387.564 220.674C387.127 221.84 386.71 222.952 386.314 224.015C386.145 224.511 385.867 225.07 386.038 225.746C386.13 226.084 386.408 226.34 386.656 226.43C386.904 226.53 387.124 226.546 387.316 226.569C388.867 226.746 389.831 226.805 389.841 226.707Z" fill="#17282F"/>
<path d="M395.61 208.612C395.795 209.063 397.128 208.655 398.749 208.682C400.37 208.666 401.719 209.084 401.887 208.633C401.959 208.419 401.688 208.008 401.119 207.624C400.556 207.24 399.687 206.921 398.715 206.917C397.744 206.915 396.887 207.228 396.338 207.607C395.785 207.987 395.53 208.396 395.61 208.612Z" fill="#17282F"/>
<path d="M381.098 205.816C381.405 206.228 382.688 205.885 384.21 205.945C385.735 205.957 387.011 206.36 387.325 205.963C387.463 205.769 387.276 205.362 386.728 204.959C386.189 204.558 385.273 204.204 384.226 204.178C383.179 204.155 382.258 204.465 381.712 204.841C381.157 205.218 380.964 205.616 381.098 205.816Z" fill="#17282F"/>
<path d="M380.134 202.202C380.134 202.202 383.058 195.258 386.139 193.764C389.87 191.956 391.254 196.578 394.776 195.661C398.298 194.744 401.86 193.008 405.287 196.242C409.039 199.783 407.12 202.026 407.154 207.057C407.289 227.458 410.33 233.386 411.658 223.851C411.803 222.806 414.409 222.107 414.973 217.691C415.704 211.963 416.187 204.988 415.223 200.846C414.409 197.354 412.777 194.885 409.781 192.099C405.051 187.702 398.324 187.257 393.732 187.536C389.141 187.815 380.083 193.31 380.134 202.202Z" fill="#17282F"/>
<path d="M411.034 223.509C411.17 221.767 412.553 220.458 414.081 220.705C415.934 221.004 417.956 222.312 417.653 226.665C417.117 234.387 410.388 232.183 410.391 231.96C410.394 231.81 410.785 226.739 411.034 223.509Z" fill="#A05453"/>
<path d="M412.076 229.188C412.108 229.166 412.188 229.293 412.381 229.415C412.569 229.534 412.901 229.634 413.266 229.515C414.007 229.28 414.703 228.039 414.833 226.649C414.899 225.949 414.816 225.268 414.634 224.694C414.466 224.111 414.171 223.687 413.814 223.582C413.46 223.455 413.186 223.678 413.087 223.888C412.981 224.096 413.014 224.254 412.977 224.264C412.957 224.282 412.84 224.121 412.917 223.808C412.956 223.656 413.048 223.482 413.218 223.348C413.393 223.211 413.638 223.156 413.888 223.21C414.411 223.298 414.845 223.888 415.044 224.518C415.272 225.152 415.381 225.919 415.307 226.706C415.155 228.259 414.351 229.653 413.344 229.887C412.855 229.985 412.467 229.787 412.272 229.586C412.075 229.375 412.051 229.2 412.076 229.188Z" fill="#73393B"/>
<path d="M411.519 208.518C410.604 209.157 409.639 209.814 408.566 209.878C407.494 209.941 406.302 209.182 406.171 207.973C406.112 207.43 406.254 206.812 405.96 206.379C405.607 205.863 404.913 205.983 404.339 206.021C402.346 206.155 400.38 204.457 399.964 202.243C399.423 203.074 398.244 202.974 397.502 202.374C396.759 201.774 396.304 200.832 395.737 200.023C395.17 199.213 394.357 198.474 393.45 198.571C392.942 198.625 392.455 198.94 391.95 198.863C391.058 198.725 390.669 197.512 390.576 196.498C390.481 195.483 390.425 194.301 389.689 193.713C389.006 193.168 388.083 193.413 387.252 193.507C386.422 193.601 385.366 193.325 385.192 192.4C385.101 191.915 385.304 191.419 385.556 191.013C386.696 189.174 389.047 188.454 390.849 189.394C391.623 186.874 393.812 184.996 396.163 184.841C398.513 184.684 400.881 186.26 401.908 188.66C403.411 187.254 405.531 186.743 407.41 187.334C409.288 187.926 410.872 189.603 411.52 191.687C413.2 191.28 415.062 192.107 416.05 193.701C417.038 195.294 417.095 197.56 416.188 199.214C417.382 200.074 418.375 201.51 418.335 203.112C418.294 204.714 416.852 206.237 415.507 205.744C416.006 207.019 415.488 208.687 414.394 209.327C413.3 209.967 411.801 209.478 411.173 208.278" fill="#17282F"/>
<path d="M390.249 191.642C390.243 191.643 390.242 191.69 390.245 191.784C390.249 191.877 390.249 192.018 390.271 192.199C390.319 192.56 390.424 193.096 390.705 193.716C390.988 194.327 391.437 195.04 392.143 195.624C392.833 196.214 393.792 196.685 394.9 196.676L394.791 196.498C394.552 197.148 394.578 197.945 394.84 198.641C395.087 199.346 395.495 199.983 395.929 200.604C396.153 200.904 396.343 201.251 396.657 201.533C396.962 201.803 397.334 201.968 397.719 202.045C398.483 202.196 399.363 201.973 399.951 201.269L399.7 201.172C399.811 202.719 400.519 204.298 401.705 205.3C402.332 205.867 403.121 206.234 403.912 206.251C404.702 206.284 405.446 206.061 406.141 205.82L405.963 205.719C406.29 206.7 406.819 207.55 407.479 208.191C408.126 208.831 409.007 209.233 409.826 209.051C411.452 208.75 412.583 207.289 412.857 205.87L412.699 205.943C413.478 206.48 414.334 206.573 415.028 206.459C415.731 206.35 416.293 206.036 416.697 205.719C417.103 205.394 417.349 205.051 417.498 204.814C417.637 204.566 417.695 204.427 417.688 204.423C417.655 204.389 417.438 204.999 416.632 205.611C416.231 205.901 415.683 206.188 415.007 206.272C414.339 206.365 413.53 206.256 412.811 205.743L412.687 205.655L412.654 205.817C412.382 207.139 411.295 208.501 409.788 208.76C409.045 208.917 408.272 208.558 407.659 207.952C407.043 207.348 406.538 206.529 406.235 205.607L406.187 205.461L406.057 205.507C405.371 205.741 404.652 205.951 403.923 205.918C403.192 205.896 402.484 205.569 401.886 205.034C400.765 204.085 400.1 202.607 399.99 201.142L399.961 200.774L399.738 201.046C399.241 201.649 398.454 201.866 397.765 201.73C397.42 201.665 397.09 201.518 396.824 201.286C396.564 201.063 396.365 200.718 396.138 200.416C395.704 199.805 395.307 199.193 395.071 198.536C394.82 197.885 394.797 197.185 395.002 196.595L395.066 196.413L394.894 196.417C393.851 196.442 392.924 196.012 392.25 195.457C391.56 194.91 391.11 194.232 390.818 193.647C390.244 192.444 390.298 191.626 390.249 191.642Z" fill="#33535F"/>
<path d="M388.095 232.403C388.071 232.477 388.446 232.741 389.138 232.913C389.825 233.089 390.833 233.113 391.876 232.765C392.92 232.413 393.753 231.77 394.246 231.199C394.743 230.628 394.931 230.174 394.875 230.128C394.749 229.996 393.657 231.512 391.713 232.138C389.782 232.814 388.138 232.215 388.095 232.403Z" fill="#17282F"/>
<path d="M365.602 359.008L426.045 359.942C426.045 359.942 442.948 351.924 447.592 351.708C452.235 351.493 461.454 352.162 465.718 359.942C470.124 367.983 470.74 382.169 457.158 392.478C443.932 402.517 383.449 411.794 375.157 410.94L359.874 387.686C359.874 387.686 359.714 368.627 359.874 367.721C360.035 366.813 362.596 358.645 362.596 358.645L365.602 359.008Z" fill="#17282F"/>
<path d="M399.158 389.818L435.245 405.011L418.797 456C414.597 453.921 414.479 423.967 414.479 423.967L391.005 415.307L399.158 389.818Z" fill="url(#paint7_linear_0_893)"/>
<path d="M417.017 410.638H421.24V406.507H417.017V410.638Z" fill="#F9ACB4"/>
<path d="M435.245 405.011L431.603 403.478L417.165 453.04C417.165 453.04 417.304 455.671 418.797 456L435.245 405.011Z" fill="#17282F"/>
<path d="M413.984 424.699C414.205 424.781 414.706 423.577 415.808 422.645C416.888 421.68 418.043 421.443 418.03 421.178C418.061 420.931 416.629 420.758 415.312 421.912C413.987 423.054 413.765 424.668 413.984 424.699Z" fill="#17282F"/>
<path d="M414.21 430.855C414.404 431 415.125 430.077 416.327 429.616C417.517 429.115 418.59 429.318 418.661 429.067C418.771 428.846 417.539 428.142 416.055 428.747C414.566 429.336 414.002 430.763 414.21 430.855Z" fill="#17282F"/>
<path d="M418.876 436.233C418.996 436.025 418.01 435.224 416.601 435.365C415.191 435.495 414.338 436.472 414.487 436.653C414.622 436.868 415.512 436.38 416.67 436.284C417.826 436.159 418.775 436.471 418.876 436.233Z" fill="#17282F"/>
<path d="M408.826 422.052C409.061 422.03 409.126 420.763 409.664 419.391C410.178 418.006 410.948 417.083 410.801 416.876C410.689 416.665 409.532 417.398 408.917 419.025C408.293 420.644 408.615 422.103 408.826 422.052Z" fill="#17282F"/>
<path d="M403.882 418.626C403.971 418.666 404.424 417.739 404.693 416.067C404.826 415.235 404.898 414.219 404.832 413.095C404.797 412.534 404.729 411.946 404.618 411.345C404.561 411.055 404.516 410.72 404.336 410.354C404.196 409.983 403.664 409.585 403.205 409.756C402.776 409.874 402.477 410.273 402.351 410.638C402.219 411.01 402.187 411.342 402.159 411.644C402.097 412.263 402.091 412.863 402.127 413.431C402.204 414.568 402.443 415.564 402.731 416.351C403.315 417.935 404.006 418.679 404.076 418.611C404.185 418.528 403.683 417.668 403.274 416.133C403.07 415.368 402.907 414.431 402.876 413.386C402.863 412.863 402.884 412.315 402.95 411.755C402.999 411.162 403.145 410.702 403.401 410.652C403.498 410.635 403.532 410.641 403.634 410.812C403.726 410.982 403.782 411.253 403.839 411.539C403.953 412.098 404.033 412.645 404.084 413.169C404.186 414.221 404.178 415.182 404.123 415.984C404.011 417.594 403.761 418.581 403.882 418.626Z" fill="#17282F"/>
<path d="M404.301 418.432C404.363 418.358 403.735 417.538 402.342 416.857C401.65 416.522 400.769 416.25 399.763 416.183C399.262 416.152 398.73 416.174 398.186 416.267C397.645 416.381 396.932 416.499 396.523 417.424C396.344 417.921 396.556 418.485 396.807 418.751C397.057 419.045 397.307 419.187 397.548 419.356C398.044 419.667 398.563 419.868 399.065 419.986C400.074 420.222 401.014 420.107 401.744 419.859C403.232 419.346 403.829 418.416 403.761 418.364C403.677 418.235 402.974 418.928 401.608 419.226C400.934 419.373 400.098 419.405 399.231 419.156C398.797 419.034 398.358 418.843 397.944 418.57C397.491 418.292 397.171 417.928 397.285 417.746C397.364 417.492 397.863 417.209 398.312 417.159C398.799 417.064 399.279 417.027 399.737 417.032C400.653 417.049 401.476 417.233 402.145 417.47C403.487 417.947 404.223 418.554 404.301 418.432Z" fill="#17282F"/>
<path d="M379.243 388.758L346.906 405.76L365.362 451.472C369.106 449.206 367.292 421.546 367.292 421.546L388.406 411.616L379.243 388.758Z" fill="url(#paint8_linear_0_893)"/>
<path d="M362.142 409.618C361.571 409.618 360.965 409.347 360.635 408.882C360.077 408.097 360.226 406.802 360.933 406.188C361.226 405.933 361.592 405.811 361.96 405.811C362.421 405.811 362.886 406.003 363.218 406.363C363.922 406.976 363.818 408.503 363.179 409.202C362.918 409.488 362.538 409.618 362.142 409.618Z" fill="#F9ACB4"/>
<path d="M346.906 405.76L350.17 404.044L366.679 448.606C366.679 448.606 366.719 451.047 365.362 451.472L346.906 405.76Z" fill="#17282F"/>
<path d="M367.797 422.18C367.597 422.275 367.057 421.205 365.98 420.435C364.922 419.634 363.84 419.51 363.835 419.264C363.79 419.038 365.102 418.761 366.391 419.718C367.687 420.663 367.997 422.134 367.797 422.18Z" fill="#17282F"/>
<path d="M367.983 427.882C367.813 428.033 367.088 427.239 365.949 426.914C364.818 426.549 363.84 426.825 363.759 426.598C363.644 426.405 364.735 425.652 366.144 426.087C367.556 426.51 368.17 427.78 367.983 427.882Z" fill="#17282F"/>
<path d="M364.02 433.232C363.897 433.05 364.755 432.229 366.064 432.244C367.375 432.246 368.225 433.078 368.1 433.257C367.989 433.468 367.136 433.09 366.06 433.098C364.986 433.076 364.129 433.443 364.02 433.232Z" fill="#17282F"/>
<path d="M372.387 419.312C372.17 419.311 372.028 418.147 371.444 416.924C370.88 415.687 370.11 414.9 370.232 414.696C370.322 414.493 371.438 415.073 372.11 416.524C372.79 417.969 372.586 419.341 372.387 419.312Z" fill="#17282F"/>
<path d="M376.733 415.741C376.652 415.786 376.174 414.967 375.818 413.447C375.642 412.689 375.511 411.758 375.501 410.714C375.496 410.193 375.521 409.645 375.586 409.08C375.62 408.808 375.639 408.496 375.781 408.143C375.886 407.789 376.352 407.377 376.787 407.497C377.192 407.571 377.492 407.915 377.632 408.242C377.778 408.573 377.829 408.877 377.874 409.154C377.971 409.72 378.015 410.274 378.019 410.802C378.021 411.857 377.863 412.795 377.648 413.546C377.21 415.056 376.621 415.8 376.552 415.743C376.445 415.676 376.853 414.841 377.133 413.39C377.272 412.667 377.362 411.789 377.324 410.821C377.303 410.338 377.248 409.833 377.151 409.321C377.068 408.779 376.904 408.366 376.664 408.341C376.574 408.332 376.543 408.341 376.458 408.507C376.385 408.672 376.352 408.927 376.316 409.195C376.247 409.721 376.209 410.233 376.195 410.722C376.168 411.7 376.237 412.586 376.34 413.323C376.547 414.799 376.841 415.69 376.733 415.741Z" fill="#17282F"/>
<path d="M376.333 415.597C376.27 415.533 376.797 414.724 378.04 413.982C378.657 413.616 379.454 413.291 380.377 413.146C380.838 413.077 381.33 413.053 381.838 413.093C382.345 413.155 383.011 413.204 383.448 414.025C383.645 414.47 383.486 415.007 383.271 415.273C383.059 415.566 382.837 415.717 382.625 415.892C382.188 416.22 381.722 416.45 381.266 416.599C380.349 416.901 379.474 416.873 378.784 416.705C377.379 416.353 376.767 415.543 376.826 415.49C376.895 415.364 377.59 415.945 378.87 416.108C379.5 416.187 380.275 416.148 381.06 415.847C381.452 415.698 381.845 415.487 382.21 415.2C382.61 414.906 382.882 414.545 382.764 414.385C382.676 414.157 382.197 413.937 381.78 413.928C381.324 413.88 380.878 413.886 380.457 413.929C379.611 414.021 378.863 414.258 378.262 414.53C377.053 415.082 376.412 415.703 376.333 415.597Z" fill="#17282F"/>
<path d="M362.596 358.645C362.596 358.645 336.495 347.595 326.888 349.025C321.516 349.825 313.117 354.47 312.476 362.276C311.836 370.08 313.516 380.52 322.804 385.603C332.091 390.684 369.159 409.54 377.965 412.444C386.773 415.349 408.731 422.149 408.731 422.149L417.073 395.201C417.073 395.201 371.564 377.34 369.161 375.344C366.76 373.348 360.675 370.625 360.675 370.625L362.596 358.645Z" fill="#17282F"/>
<path d="M453.329 362.31C453.327 362.315 453.266 362.296 453.148 362.256C453.015 362.211 452.843 362.151 452.624 362.076C452.163 361.918 451.482 361.693 450.593 361.453C449.705 361.216 448.61 360.95 447.322 360.808C446.034 360.664 444.553 360.656 442.93 360.815C441.308 360.975 439.537 361.308 437.707 361.943C436.793 362.261 435.862 362.648 434.952 363.161C434.03 363.671 433.082 364.195 432.111 364.733C428.206 366.848 423.845 369.014 419.2 371.094C409.9 375.318 400.971 377.322 394.607 378.963C391.413 379.763 388.832 380.421 387.053 380.902C386.176 381.136 385.488 381.321 385.003 381.452C384.78 381.508 384.603 381.554 384.469 381.589C384.348 381.618 384.285 381.63 384.284 381.625C384.283 381.62 384.343 381.596 384.461 381.557C384.594 381.515 384.769 381.459 384.989 381.389C385.454 381.248 386.138 381.031 387.026 380.781C388.798 380.264 391.375 379.57 394.563 378.742C400.92 377.045 409.824 375.009 419.096 370.797C423.736 368.72 428.093 366.565 431.999 364.467C432.971 363.935 433.92 363.414 434.842 362.909C435.77 362.392 436.714 362.006 437.639 361.689C439.491 361.059 441.278 360.738 442.913 360.589C444.549 360.444 446.041 360.468 447.337 360.631C448.636 360.79 449.732 361.076 450.619 361.332C451.507 361.592 452.185 361.837 452.641 362.014C452.856 362.103 453.027 362.172 453.157 362.225C453.272 362.276 453.331 362.305 453.329 362.31Z" fill="#33535F"/>
<path d="M451.956 358.409C451.947 358.46 451.162 358.3 449.884 358.143C448.606 357.986 446.831 357.867 444.874 357.979C442.916 358.095 441.161 358.419 439.904 358.724C438.647 359.028 437.88 359.28 437.867 359.23C437.86 359.209 438.047 359.125 438.389 358.991C438.729 358.854 439.232 358.685 439.859 358.505C441.113 358.141 442.882 357.777 444.859 357.66C446.835 357.548 448.629 357.703 449.908 357.92C450.548 358.027 451.064 358.136 451.415 358.232C451.767 358.326 451.96 358.387 451.956 358.409Z" fill="#33535F"/>
<path d="M351.616 366.471C351.586 366.515 350.862 365.88 349.612 365.002C348.364 364.123 346.56 363.043 344.446 362.194C342.329 361.35 340.327 360.909 338.868 360.704C337.408 360.498 336.494 360.479 336.495 360.422C336.496 360.401 336.724 360.388 337.138 360.384C337.552 360.375 338.152 360.405 338.89 360.48C340.366 360.627 342.399 361.041 344.54 361.893C346.678 362.752 348.489 363.877 349.719 364.812C350.336 365.278 350.82 365.682 351.137 365.984C351.457 366.281 351.629 366.454 351.616 366.471Z" fill="#33535F"/>
<path d="M364.715 406.661C364.715 406.661 364.785 406.688 364.918 406.75C365.058 406.816 365.255 406.909 365.511 407.031C366.036 407.272 366.796 407.681 367.817 408.124C369.849 409.039 372.854 410.292 376.707 411.729C384.417 414.584 395.499 418.223 408.761 422.008L408.611 422.1C411.083 414.322 413.81 405.74 416.68 396.712L416.758 396.912C413.557 395.422 410.189 393.854 406.766 392.261C384.739 381.986 364.943 372.751 351.472 366.467L351.454 366.458L351.441 366.442C349.19 363.741 347.119 361.362 345.178 359.441C343.236 357.522 341.451 356.039 339.928 354.957C338.413 353.857 337.162 353.165 336.326 352.68C335.906 352.457 335.584 352.287 335.359 352.168C335.141 352.051 335.033 351.985 335.033 351.985C335.033 351.985 335.149 352.033 335.37 352.14C335.598 352.253 335.923 352.415 336.349 352.625C337.193 353.094 338.455 353.771 339.982 354.859C341.519 355.928 343.318 357.402 345.275 359.315C347.231 361.228 349.317 363.603 351.577 366.294L351.544 366.269C365.024 372.529 384.831 381.73 406.872 391.967C410.295 393.56 413.664 395.129 416.864 396.618L416.988 396.677L416.942 396.819C414.065 405.844 411.33 414.423 408.85 422.198L408.811 422.32L408.7 422.289C395.437 418.475 384.36 414.797 376.659 411.892C372.811 410.431 369.811 409.151 367.787 408.209C366.77 407.752 366.014 407.329 365.494 407.074C365.241 406.943 365.047 406.842 364.909 406.771C364.778 406.702 364.715 406.661 364.715 406.661Z" fill="#33535F"/>
<path d="M429.226 264.356C429.226 264.356 436.742 269.263 438.265 275.029C439.189 278.529 446.2 323.315 447.309 332.146C448.429 341.062 446.078 347.519 442.756 350.448C439.434 353.377 429.362 357.281 429.362 357.281L415.193 362.483L411.132 350.766L424.62 328.804L423.315 314.009L429.226 264.356Z" fill="url(#paint9_linear_0_893)"/>
<path d="M414.454 256.618L408.805 252.964C408.805 252.964 403.663 259.784 396.649 258.946C389.635 258.109 385.481 252.025 385.481 252.025L364.565 256.852C363.161 257.171 360.602 258.176 358.154 262.14C355.424 266.563 342.481 286.173 342.481 286.173H333.416C330.918 286.173 328.624 287.738 327.461 290.246C325.914 293.584 324.056 298.05 324.238 299.9C324.544 303.028 324.012 311.618 327.714 314.299C328.887 315.15 333.087 317.701 336.346 317.527C341.155 317.27 346.74 314.432 349.958 311.882C352.682 309.721 359.02 302.256 361.458 299.342L361.454 299.387L363.02 361.586L417.861 359.816L429.227 264.356C429.227 264.356 415.008 256.618 414.454 256.618Z" fill="url(#paint10_linear_0_893)"/>
<path d="M361.263 273.284C361.341 273.283 361.484 280.992 361.582 290.501C361.682 300.014 361.699 307.722 361.622 307.724C361.543 307.725 361.4 300.017 361.302 290.505C361.203 280.995 361.185 273.285 361.263 273.284Z" fill="#17282F"/>
<path d="M435.867 323.564C435.87 323.596 435.402 323.648 434.573 323.827C433.743 323.999 432.559 324.371 431.177 325.053C429.793 325.728 428.241 326.778 426.656 328.148C425.072 329.523 423.466 331.231 421.892 333.142C420.323 335.06 418.892 336.96 417.546 338.647C416.201 340.335 414.941 341.808 413.81 342.96C412.682 344.114 411.707 344.968 411.002 345.507C410.658 345.788 410.369 345.972 410.182 346.109C409.991 346.241 409.888 346.306 409.883 346.297C409.878 346.288 409.97 346.204 410.15 346.056C410.328 345.901 410.605 345.701 410.938 345.406C411.62 344.839 412.57 343.962 413.676 342.794C414.783 341.628 416.022 340.145 417.353 338.45C418.686 336.757 420.111 334.85 421.687 332.924C423.268 331.003 424.891 329.289 426.499 327.914C428.108 326.544 429.688 325.502 431.099 324.845C432.506 324.183 433.712 323.84 434.554 323.704C434.971 323.611 435.305 323.609 435.526 323.578C435.749 323.558 435.866 323.553 435.867 323.564Z" fill="#17282F"/>
<path d="M437.108 319.35C437.115 319.409 436.278 319.539 434.971 319.95C433.665 320.357 431.9 321.104 430.122 322.3C428.347 323.503 426.926 324.907 425.989 326.014C425.048 327.122 424.548 327.895 424.507 327.86C424.491 327.846 424.605 327.644 424.825 327.29C425.04 326.931 425.387 326.439 425.843 325.861C426.753 324.702 428.176 323.247 429.977 322.025C431.782 320.811 433.588 320.086 434.921 319.732C435.587 319.551 436.134 319.44 436.514 319.397C436.894 319.346 437.105 319.329 437.108 319.35Z" fill="#17282F"/>
<path d="M335.783 308.545C335.531 308.545 335.282 308.509 335.038 308.433C337.635 307.673 339.623 305.428 341.302 303.288C342.89 301.268 344.387 299.137 345.02 296.458C345.778 293.248 345.223 289.334 344.98 286.779C345.885 288.268 346.31 289.354 346.91 291.03C347.511 292.705 347.784 294.588 347.367 296.334C346.861 298.447 345.435 300.091 344.064 301.632C341.649 304.345 338.522 308.545 335.783 308.545Z" fill="#CC4341"/>
<path d="M347.449 305.725C347.395 305.705 347.731 304.64 348.003 302.855C348.145 301.965 348.237 300.892 348.269 299.697C348.282 298.503 348.223 297.189 348.039 295.826C347.843 294.465 347.542 293.193 347.205 292.061C346.85 290.936 346.47 289.947 346.093 289.149C345.35 287.547 344.74 286.652 344.786 286.614C344.802 286.6 344.96 286.818 345.232 287.225C345.372 287.426 345.535 287.678 345.703 287.987C345.873 288.294 346.083 288.635 346.269 289.042C346.672 289.834 347.077 290.828 347.45 291.963C347.806 293.105 348.118 294.395 348.317 295.776C348.504 297.16 348.556 298.495 348.528 299.706C348.483 300.915 348.367 302.001 348.199 302.897C348.133 303.349 348.027 303.746 347.947 304.098C347.872 304.45 347.786 304.747 347.708 304.987C347.558 305.469 347.468 305.732 347.449 305.725Z" fill="#17282F"/>
<path d="M387.765 254.427C387.803 254.511 387.16 254.934 386.487 255.619C385.81 256.297 385.365 256.971 385.296 256.919C385.232 256.879 385.589 256.093 386.3 255.38C387.007 254.663 387.737 254.351 387.765 254.427Z" fill="#17282F"/>
<path d="M393.473 258.186C393.532 258.254 392.979 258.925 392.535 259.917C392.083 260.903 391.922 261.803 391.839 261.788C391.767 261.785 391.807 260.814 392.286 259.77C392.755 258.724 393.428 258.122 393.473 258.186Z" fill="#17282F"/>
<path d="M403.244 262.085C403.165 262.105 402.942 261.254 402.616 260.231C402.292 259.207 401.984 258.391 402.056 258.348C402.122 258.308 402.549 259.075 402.88 260.123C403.215 261.169 403.317 262.069 403.244 262.085Z" fill="#17282F"/>
<path d="M409.531 258.716C409.447 258.738 409.233 257.653 408.614 256.508C408.006 255.354 407.258 254.636 407.313 254.562C407.348 254.493 408.214 255.131 408.855 256.342C409.504 257.548 409.602 258.713 409.531 258.716Z" fill="#17282F"/>
<path d="M427.588 278.859C427.665 278.87 426.737 287.366 425.514 297.833C424.292 308.301 423.238 316.778 423.161 316.765C423.085 316.754 424.013 308.26 425.235 297.79C426.457 287.325 427.51 278.847 427.588 278.859Z" fill="#17282F"/>
<path d="M345.404 292.615C345.423 292.616 345.417 292.927 345.388 293.493C345.383 293.777 345.339 294.119 345.275 294.516C345.245 294.717 345.213 294.929 345.181 295.152C345.139 295.375 345.079 295.607 345.024 295.852C344.822 296.841 344.43 297.97 343.944 299.191C343.414 300.389 342.762 301.672 341.929 302.9C341.084 304.117 340.173 305.183 339.25 306.027C338.308 306.839 337.4 307.5 336.56 307.866C336.353 307.962 336.159 308.065 335.97 308.142C335.777 308.203 335.593 308.26 335.419 308.315C335.251 308.367 335.092 308.417 334.941 308.463C334.792 308.5 334.652 308.508 334.528 308.528C334.03 308.594 333.757 308.62 333.755 308.597C333.742 308.511 334.872 308.487 336.48 307.659C337.293 307.275 338.172 306.608 339.086 305.799C339.984 304.957 340.874 303.904 341.705 302.705C342.527 301.495 343.175 300.236 343.71 299.062C344.202 297.866 344.608 296.761 344.832 295.793C345.325 293.868 345.341 292.609 345.404 292.615Z" fill="#17282F"/>
<path d="M422.827 359.892L422.272 359.884L422.827 359.68C422.827 359.75 422.827 359.822 422.827 359.892Z" fill="#8F9192"/>
<path d="M426.045 359.942L423.228 359.898C423.228 359.776 423.228 359.654 423.228 359.532L428.777 357.495C428.726 357.919 428.664 358.344 428.587 358.763C427.029 359.476 426.045 359.942 426.045 359.942Z" fill="#A7A9A8"/>
<path d="M423.228 359.898L422.827 359.892C422.827 359.822 422.827 359.75 422.827 359.68L423.228 359.532C423.228 359.654 423.228 359.776 423.228 359.898Z" fill="#0F191D"/>
<path d="M425.823 363.714L396.572 360.502L414.308 359.93L415.193 362.483L422.272 359.884L422.827 359.892L423.228 359.898L426.045 359.942C426.045 359.942 427.029 359.475 428.587 358.763C428.205 360.86 427.459 362.817 425.823 363.714Z" fill="#0F191D"/>
<path d="M420.816 334.998L420.889 334.388C421.217 333.974 421.551 333.558 421.892 333.142C421.974 333.042 422.056 332.943 422.139 332.845L420.816 334.998ZM420.955 333.829L422.811 318.241C422.813 322.742 422.815 327.195 422.816 331.596C422.438 332.026 422.061 332.469 421.687 332.924C421.439 333.226 421.195 333.528 420.955 333.829Z" fill="#8F9192"/>
<path d="M423.238 331.054C423.24 326.219 423.242 321.325 423.244 316.37C423.338 316.38 423.433 316.392 423.527 316.405L424.531 327.791C424.51 327.832 424.502 327.856 424.507 327.86C424.508 327.86 424.509 327.861 424.51 327.861C424.515 327.861 424.524 327.855 424.536 327.844L424.62 328.804L423.238 331.054Z" fill="#A7A9A8"/>
<path d="M422.816 331.595C422.815 327.195 422.813 322.742 422.811 318.241L423.037 316.347C423.084 316.352 423.132 316.357 423.179 316.363C423.158 316.625 423.152 316.764 423.161 316.765H423.162C423.172 316.765 423.198 316.629 423.238 316.369C423.239 316.37 423.242 316.37 423.244 316.37C423.242 321.324 423.24 326.219 423.238 331.054L423.106 331.27C423.009 331.377 422.913 331.486 422.816 331.595Z" fill="#0F191D"/>
<path d="M415.193 362.483L414.308 359.93L417.861 359.815L420.816 334.998L422.139 332.845C423.633 331.054 425.154 329.451 426.656 328.148C428.221 326.795 429.754 325.755 431.125 325.079C431.253 326.858 431.143 328.72 431 330.472C430.305 339.017 429.61 347.561 428.915 356.104C428.877 356.56 428.834 357.026 428.777 357.495L423.228 359.532L422.827 359.68L422.272 359.884L415.193 362.483ZM423.106 331.27L423.238 331.054L424.62 328.804L424.535 327.844C424.659 327.727 425.147 327.004 425.989 326.014C426.926 324.907 428.347 323.503 430.122 322.3C430.278 322.195 430.434 322.093 430.589 321.995C430.863 322.895 431.023 323.854 431.107 324.842C431.104 324.843 431.102 324.844 431.099 324.845C429.688 325.502 428.108 326.544 426.499 327.914C425.369 328.881 424.231 330.014 423.106 331.27ZM424.531 327.791L423.527 316.405C425.593 316.677 427.554 317.352 428.987 318.997C429.67 319.783 430.155 320.697 430.492 321.692C430.321 321.799 430.149 321.91 429.977 322.025C428.176 323.247 426.753 324.702 425.843 325.861C425.387 326.439 425.04 326.931 424.824 327.29C424.675 327.531 424.575 327.702 424.531 327.791Z" fill="#CC4341"/>
<path d="M396.572 360.502L362.99 356.816L361.968 317.024C382.036 316.958 399.759 316.293 419.827 316.228C419.914 316.228 420.002 316.228 420.089 316.228C421.058 316.228 422.055 316.247 423.037 316.347L422.811 318.241L420.955 333.829C419.665 335.444 418.476 337.023 417.353 338.45C416.022 340.145 414.783 341.627 413.675 342.794C412.57 343.962 411.619 344.839 410.938 345.406C410.605 345.701 410.328 345.901 410.15 346.056C409.97 346.204 409.878 346.288 409.883 346.297C409.883 346.297 409.884 346.298 409.885 346.298C409.902 346.298 410.002 346.233 410.181 346.109C410.369 345.972 410.658 345.788 411.002 345.507C411.707 344.968 412.682 344.114 413.81 342.96C414.941 341.808 416.201 340.334 417.546 338.647C418.6 337.327 419.705 335.875 420.889 334.388L420.816 334.998L417.861 359.815L414.308 359.93L396.572 360.502Z" fill="#CC4341"/>
<path d="M409.885 346.298C409.884 346.298 409.883 346.297 409.883 346.297C409.878 346.288 409.97 346.204 410.15 346.056C410.328 345.901 410.605 345.701 410.938 345.406C411.62 344.839 412.57 343.962 413.676 342.794C414.783 341.628 416.022 340.145 417.353 338.45C418.477 337.023 419.665 335.444 420.955 333.829C421.195 333.528 421.439 333.226 421.687 332.924C422.061 332.469 422.438 332.026 422.816 331.595C422.913 331.486 423.009 331.377 423.106 331.27C424.231 330.014 425.369 328.881 426.499 327.914C428.108 326.544 429.688 325.502 431.099 324.845C431.102 324.844 431.104 324.843 431.107 324.842C431.114 324.92 431.12 324.999 431.125 325.079C429.754 325.755 428.221 326.795 426.656 328.148C425.154 329.451 423.633 331.054 422.139 332.845C422.056 332.943 421.974 333.042 421.892 333.142C421.551 333.558 421.217 333.974 420.889 334.388C419.705 335.875 418.6 337.327 417.546 338.647C416.201 340.334 414.941 341.808 413.81 342.96C412.682 344.114 411.707 344.968 411.002 345.507C410.658 345.788 410.369 345.972 410.182 346.109C410.002 346.233 409.902 346.298 409.885 346.298Z" fill="#0F191D"/>
<path d="M424.51 327.861C424.509 327.861 424.508 327.86 424.507 327.86C424.502 327.856 424.51 327.832 424.531 327.791C424.575 327.702 424.675 327.531 424.825 327.29C425.04 326.931 425.387 326.439 425.843 325.861C426.753 324.702 428.176 323.247 429.977 322.025C430.149 321.91 430.321 321.799 430.492 321.692C430.526 321.792 430.558 321.893 430.589 321.995C430.434 322.093 430.278 322.195 430.122 322.3C428.347 323.503 426.926 324.907 425.989 326.014C425.147 327.005 424.659 327.727 424.536 327.844C424.524 327.855 424.515 327.861 424.51 327.861Z" fill="#0F191D"/>
<path d="M423.162 316.765H423.161C423.152 316.764 423.158 316.625 423.179 316.362C423.198 316.365 423.217 316.367 423.237 316.369C423.197 316.629 423.172 316.765 423.162 316.765Z" fill="#0F191D"/>
<path d="M353.318 323.188L355.455 369.339C355.538 371.119 356.85 372.513 358.439 372.513L423.297 372.641C424.89 372.64 426.203 371.238 426.281 369.455L428.756 324.087C428.838 322.203 427.655 319.697 425.972 319.66L356.362 319.667C354.628 319.628 353.228 321.247 353.318 323.188Z" fill="#DADBD8"/>
<path d="M353.318 323.188C353.318 323.188 353.314 323.13 353.311 323.015C353.304 322.9 353.313 322.728 353.336 322.501C353.394 322.059 353.562 321.363 354.105 320.703C354.374 320.38 354.734 320.066 355.189 319.867C355.641 319.649 356.19 319.602 356.756 319.619C357.899 319.614 359.216 319.61 360.7 319.604C366.639 319.591 375.223 319.573 385.829 319.55C396.44 319.54 409.073 319.527 423.098 319.512C423.976 319.512 424.857 319.511 425.745 319.51C426.188 319.488 426.694 319.611 427.085 319.899C427.487 320.177 427.813 320.568 428.075 321C428.59 321.87 428.896 322.906 428.889 323.976C428.836 325.006 428.782 326.04 428.727 327.08C428.502 331.234 428.272 335.475 428.038 339.793C427.568 348.427 427.081 357.367 426.582 366.524L426.489 368.239C426.446 368.815 426.453 369.366 426.363 369.967C426.172 371.15 425.39 372.157 424.408 372.568C423.924 372.789 423.37 372.818 422.885 372.799L421.393 372.796C420.401 372.794 419.412 372.792 418.426 372.79C414.484 372.782 410.599 372.772 406.782 372.764C399.148 372.746 391.785 372.728 384.769 372.712C377.755 372.692 371.09 372.675 364.851 372.657C363.292 372.653 361.759 372.649 360.254 372.644C359.878 372.643 359.504 372.642 359.131 372.641C358.758 372.634 358.389 372.658 358.004 372.6C357.245 372.484 356.541 372.035 356.06 371.383C355.57 370.737 355.329 369.871 355.336 369.059C355.3 368.257 355.263 367.462 355.228 366.676C355.156 365.105 355.087 363.568 355.019 362.066C354.482 350.061 354.047 340.344 353.746 333.62C353.603 330.266 353.491 327.661 353.415 325.886C353.38 325.007 353.354 324.334 353.336 323.873C353.319 323.42 353.318 323.188 353.318 323.188C353.318 323.188 353.339 323.419 353.365 323.872C353.389 324.332 353.425 325.004 353.472 325.882C353.56 327.657 353.689 330.261 353.856 333.614C354.178 340.336 354.644 350.05 355.218 362.055C355.289 363.556 355.362 365.093 355.436 366.664C355.473 367.45 355.511 368.244 355.549 369.047C355.546 369.842 355.769 370.616 356.226 371.224C356.674 371.83 357.33 372.245 358.035 372.351C358.382 372.404 358.758 372.381 359.131 372.387C359.504 372.387 359.878 372.388 360.254 372.388C361.759 372.39 363.292 372.391 364.851 372.392C371.09 372.4 377.755 372.409 384.77 372.417C391.785 372.428 399.148 372.44 406.782 372.452C410.6 372.458 414.484 372.465 418.427 372.472C419.412 372.475 420.401 372.476 421.393 372.478L422.886 372.481C423.393 372.498 423.856 372.471 424.308 372.271C425.203 371.896 425.913 370.979 426.087 369.905C426.168 369.382 426.166 368.784 426.207 368.222L426.301 366.506C426.801 357.35 427.29 348.41 427.762 339.775C427.999 335.457 428.231 331.216 428.458 327.063C428.514 326.027 428.568 324.995 428.623 323.969C428.63 322.98 428.341 321.984 427.857 321.17C427.377 320.354 426.615 319.733 425.743 319.808C424.855 319.807 423.973 319.807 423.096 319.807C409.07 319.795 396.438 319.785 385.827 319.776C375.222 319.756 366.638 319.74 360.698 319.729C359.216 319.722 357.899 319.718 356.755 319.714C356.183 319.692 355.662 319.734 355.214 319.941C354.768 320.131 354.413 320.433 354.146 320.747C353.607 321.387 353.43 322.069 353.364 322.506C353.304 322.953 353.334 323.188 353.318 323.188Z" fill="#17282F"/>
<path d="M395.338 345.697C395.338 348.09 393.628 350.028 391.517 350.028C389.408 350.028 387.698 348.09 387.698 345.697C387.698 343.306 389.408 341.368 391.517 341.368C393.628 341.368 395.338 343.306 395.338 345.697Z" fill="white"/>
<path d="M395.338 345.697C395.307 345.699 395.321 345.312 395.165 344.656C395.011 344.012 394.624 343.07 393.769 342.346C393.344 341.991 392.813 341.692 392.202 341.574C391.594 341.461 390.91 341.485 390.26 341.769C389.611 342.036 388.992 342.537 388.552 343.231C388.101 343.915 387.846 344.793 387.838 345.697C387.846 346.602 388.1 347.48 388.552 348.164C388.992 348.858 389.611 349.36 390.26 349.627C390.91 349.91 391.594 349.935 392.202 349.822C392.814 349.703 393.345 349.403 393.769 349.05C394.625 348.326 395.011 347.384 395.165 346.74C395.321 346.084 395.307 345.695 395.338 345.697C395.348 345.697 395.353 345.793 395.354 345.975C395.359 346.158 395.339 346.43 395.271 346.77C395.146 347.442 394.775 348.442 393.89 349.229C393.452 349.613 392.893 349.944 392.245 350.081C391.6 350.214 390.871 350.198 390.172 349.903C389.474 349.626 388.806 349.092 388.33 348.349C387.841 347.617 387.564 346.671 387.557 345.697C387.564 344.724 387.842 343.778 388.331 343.045C388.806 342.303 389.474 341.77 390.172 341.493C390.871 341.198 391.6 341.181 392.245 341.314C392.893 341.451 393.451 341.781 393.89 342.166C394.775 342.954 395.146 343.954 395.271 344.626C395.339 344.966 395.359 345.238 395.354 345.42C395.353 345.602 395.348 345.697 395.338 345.697Z" fill="#17282F"/>
<path d="M355.504 328.297C355.581 328.293 355.901 336.048 356.217 345.617C356.534 355.188 356.728 362.948 356.65 362.952C356.572 362.955 356.253 355.2 355.936 345.629C355.619 336.061 355.425 328.3 355.504 328.297Z" fill="#17282F"/>
<path d="M336.01 268.081C335.63 267.716 337.291 260.468 337.291 260.468C337.291 260.468 332.892 252.33 332.776 249.705C332.66 247.081 334.513 241.7 334.513 241.7L347.133 238.025C347.133 238.025 351.188 246.556 351.997 249.574C352.807 252.593 350.607 262.83 350.607 262.83L348.469 268.081C348.469 268.081 342.022 273.855 336.01 268.081Z" fill="#A05453"/>
<path d="M332.8 251.275C332.8 251.275 332.252 250.2 331.47 248.098C330.671 245.951 329.691 243.844 331.47 242.643C332.518 241.936 333.373 242.303 333.373 242.303C333.373 242.303 333.099 240.494 334.052 239.815C335.005 239.136 335.923 239.631 335.923 239.631C335.923 239.631 335.622 237.081 336.995 235.999C338.715 234.642 340.49 235.887 340.49 235.887C340.49 235.887 339.403 224.723 339.31 224.131C338.964 221.96 339.673 220.04 341.578 220.576C342.276 220.771 342.664 221.606 343.483 225.241C344.302 228.877 345.617 235.081 345.617 235.081C345.617 235.081 347.834 239.448 348.881 241.815C349.927 244.183 351.997 249.574 352.169 251.002C352.616 254.696 350.707 259.586 350.707 259.586L337.291 260.468C337.291 260.468 333.311 252.335 332.8 251.275Z" fill="#A05453"/>
<path d="M333.637 242.784C333.67 242.76 334.064 243.39 334.675 244.427C334.992 244.973 335.349 245.588 335.736 246.257C335.933 246.602 336.15 246.969 336.313 247.399C336.476 247.822 336.578 248.34 336.471 248.85C336.381 249.35 336.066 249.835 335.623 249.976C335.185 250.131 334.76 249.982 334.422 249.808C334.078 249.628 333.787 249.393 333.525 249.18C333.262 248.965 333.02 248.758 332.803 248.566C332.368 248.18 332.029 247.851 331.802 247.614C331.575 247.377 331.458 247.235 331.47 247.218C331.498 247.182 332.029 247.664 332.922 248.385C333.374 248.727 333.897 249.206 334.528 249.539C334.843 249.696 335.21 249.802 335.54 249.678C335.874 249.567 336.116 249.205 336.197 248.78C336.286 248.353 336.206 247.917 336.059 247.521C335.912 247.124 335.709 246.765 335.517 246.414C335.148 245.732 334.809 245.105 334.507 244.548C333.939 243.48 333.604 242.807 333.637 242.784Z" fill="#73393B"/>
<path d="M344.64 244.11C344.567 244.114 344.5 243.021 344.781 241.72C345.054 240.417 345.554 239.48 345.617 239.521C345.692 239.562 345.319 240.535 345.054 241.795C344.783 243.054 344.723 244.112 344.64 244.11Z" fill="#73393B"/>
<path d="M349.958 247.374C348.759 245.989 347.142 245.13 345.47 244.718C343.797 244.307 342.064 244.32 340.36 244.495C338.995 244.636 337.437 245.036 336.815 246.421C336.175 247.845 336.945 249.682 338.156 250.502C339.366 251.321 340.863 251.354 342.268 251.208C343.673 251.064 345.089 250.768 346.482 251.014" fill="#A05453"/>
<path d="M346.482 251.014C346.48 251.041 346.104 250.973 345.424 250.982C344.743 250.982 343.765 251.123 342.549 251.292C341.939 251.368 341.264 251.432 340.535 251.388C339.811 251.34 339.016 251.188 338.275 250.745C337.529 250.309 336.891 249.521 336.596 248.531C336.443 248.039 336.404 247.486 336.5 246.948C336.612 246.415 336.869 245.91 337.24 245.542C337.989 244.793 338.949 244.553 339.82 244.407C340.705 244.286 341.553 244.236 342.368 244.233C343.997 244.226 345.469 244.499 346.634 244.965C347.803 245.424 348.659 246.041 349.194 246.531C349.463 246.774 349.655 246.985 349.781 247.133C349.904 247.283 349.964 247.365 349.958 247.374C349.939 247.395 349.677 247.081 349.127 246.63C348.58 246.177 347.725 245.603 346.57 245.179C345.42 244.75 343.975 244.504 342.369 244.527C341.569 244.538 340.719 244.595 339.857 244.718C339.01 244.86 338.096 245.105 337.429 245.779C337.097 246.107 336.873 246.553 336.774 247.017C336.689 247.488 336.719 247.983 336.858 248.433C337.124 249.34 337.71 250.076 338.396 250.484C339.088 250.908 339.846 251.066 340.55 251.124C341.257 251.178 341.922 251.128 342.528 251.066C343.742 250.928 344.736 250.819 345.425 250.857C345.77 250.871 346.035 250.91 346.214 250.941C346.392 250.977 346.484 251.002 346.482 251.014Z" fill="#73393B"/>
<path d="M333.734 242.958C335.146 245.387 336.392 248.059 337.582 250.637C337.927 251.386 338.294 252.179 338.929 252.623C339.438 252.979 340.701 252.334 341.267 252.114L337.391 242.117" fill="#A05453"/>
<path d="M337.391 242.117C337.407 242.109 337.528 242.373 337.735 242.862C337.956 243.403 338.245 244.106 338.593 244.956C339.311 246.738 340.296 249.229 341.394 252.05L341.455 252.206L341.312 252.264C340.893 252.433 340.444 252.647 339.959 252.785C339.768 252.837 339.573 252.88 339.366 252.885C339.264 252.887 339.158 252.883 339.049 252.847C338.939 252.82 338.83 252.742 338.757 252.684C338.43 252.427 338.18 252.086 337.976 251.738C337.577 251.028 337.297 250.317 336.981 249.657C336.373 248.328 335.815 247.137 335.331 246.147C334.848 245.156 334.441 244.365 334.157 243.819C333.874 243.273 333.716 242.971 333.734 242.958C333.749 242.947 333.938 243.226 334.25 243.753C334.562 244.28 334.998 245.056 335.503 246.035C336.011 247.014 336.589 248.196 337.211 249.52C337.531 250.173 337.826 250.899 338.205 251.564C338.4 251.893 338.629 252.199 338.916 252.423C339.16 252.648 339.536 252.565 339.892 252.475C340.35 252.345 340.786 252.139 341.221 251.964L341.139 252.177C340.048 249.352 339.094 246.845 338.423 245.04C338.106 244.175 337.844 243.46 337.642 242.908C337.464 242.405 337.375 242.125 337.391 242.117Z" fill="#73393B"/>
<path d="M336.346 239.147C337.592 242.689 338.837 246.23 340.083 249.771C340.348 250.523 340.621 251.291 341.089 251.902C341.556 252.514 342.264 252.952 342.97 252.832C343.944 252.667 344.581 251.496 344.63 250.382C344.679 249.268 344.29 248.196 343.93 247.157C342.812 243.928 341.915 240.601 341.25 237.215" fill="#A05453"/>
<path d="M341.25 237.215C341.26 237.212 341.291 237.324 341.344 237.538C341.403 237.788 341.477 238.098 341.566 238.477C341.759 239.292 342.04 240.471 342.436 241.91C342.83 243.349 343.339 245.049 343.983 246.904C344.295 247.827 344.699 248.81 344.765 249.943C344.802 250.502 344.715 251.102 344.484 251.63C344.255 252.155 343.881 252.647 343.359 252.878C342.838 253.115 342.248 253.013 341.789 252.733C341.322 252.46 340.952 252.026 340.687 251.556C340.156 250.599 339.899 249.586 339.555 248.669C338.917 246.819 338.34 245.148 337.85 243.729C337.386 242.35 337.004 241.219 336.724 240.388C336.605 240.018 336.509 239.717 336.43 239.473C336.367 239.263 336.337 239.151 336.346 239.147C336.355 239.143 336.402 239.248 336.483 239.45C336.574 239.687 336.687 239.981 336.826 240.342C337.127 241.164 337.536 242.282 338.036 243.645C338.542 245.057 339.137 246.719 339.797 248.56C340.144 249.473 340.419 250.498 340.917 251.384C341.169 251.824 341.502 252.208 341.919 252.451C342.328 252.698 342.824 252.777 343.257 252.58C343.693 252.388 344.026 251.964 344.232 251.49C344.442 251.011 344.521 250.484 344.49 249.961C344.434 248.908 344.05 247.942 343.741 247.01C343.107 245.142 342.616 243.428 342.245 241.975C341.873 240.522 341.62 239.332 341.46 238.507C341.38 238.094 341.322 237.772 341.289 237.553C341.254 237.333 341.24 237.217 341.25 237.215Z" fill="#73393B"/>
<path d="M336.647 264.056C336.647 264.056 328.087 292.651 327.75 294.054C327.412 295.459 329.439 305.671 333.155 308.096C336.872 310.523 344.079 300.437 344.98 296.735C345.881 293.033 344.98 286.779 344.98 286.779L350.75 262.14" fill="#A05453"/>
<path d="M344.981 259.612C344.977 259.648 344.662 259.653 344.175 259.492C343.691 259.334 343.047 258.977 342.473 258.382C341.9 257.786 341.53 257.089 341.35 256.556C341.167 256.02 341.144 255.663 341.175 255.656C341.257 255.618 341.553 257.017 342.663 258.148C343.752 259.301 345.007 259.517 344.981 259.612Z" fill="#73393B"/>
</g>
<defs>
<linearGradient id="paint0_linear_0_893" x1="304.104" y1="184.997" x2="357.278" y2="184.997" gradientUnits="userSpaceOnUse">
<stop stop-color="#EF8431"/>
<stop offset="1" stop-color="#E71A86"/>
</linearGradient>
<linearGradient id="paint1_linear_0_893" x1="465.892" y1="254.336" x2="519.066" y2="254.336" gradientUnits="userSpaceOnUse">
<stop stop-color="#EF8431"/>
<stop offset="1" stop-color="#E71A86"/>
</linearGradient>
<linearGradient id="paint2_linear_0_893" x1="555.617" y1="308.469" x2="602.765" y2="308.469" gradientUnits="userSpaceOnUse">
<stop stop-color="#EF8431"/>
<stop offset="1" stop-color="#E71A86"/>
</linearGradient>
<linearGradient id="paint3_linear_0_893" x1="112.589" y1="291.96" x2="172.833" y2="291.96" gradientUnits="userSpaceOnUse">
<stop stop-color="#EF8431"/>
<stop offset="1" stop-color="#E71A86"/>
</linearGradient>
<linearGradient id="paint4_linear_0_893" x1="141.386" y1="100.945" x2="268.116" y2="100.945" gradientUnits="userSpaceOnUse">
<stop stop-color="#EF8431"/>
<stop offset="1" stop-color="#E71A86"/>
</linearGradient>
<linearGradient id="paint5_linear_0_893" x1="139.68" y1="96.3536" x2="266.41" y2="96.3536" gradientUnits="userSpaceOnUse">
<stop stop-color="#EF8431"/>
<stop offset="1" stop-color="#E71A86"/>
</linearGradient>
<linearGradient id="paint6_linear_0_893" x1="168.362" y1="96.3536" x2="237.728" y2="96.3536" gradientUnits="userSpaceOnUse">
<stop stop-color="#EF8431"/>
<stop offset="1" stop-color="#E71A86"/>
</linearGradient>
<linearGradient id="paint7_linear_0_893" x1="391.005" y1="422.909" x2="435.245" y2="422.909" gradientUnits="userSpaceOnUse">
<stop stop-color="#EF8431"/>
<stop offset="1" stop-color="#E71A86"/>
</linearGradient>
<linearGradient id="paint8_linear_0_893" x1="346.906" y1="420.115" x2="388.406" y2="420.115" gradientUnits="userSpaceOnUse">
<stop stop-color="#EF8431"/>
<stop offset="1" stop-color="#E71A86"/>
</linearGradient>
<linearGradient id="paint9_linear_0_893" x1="411.132" y1="313.42" x2="447.591" y2="313.42" gradientUnits="userSpaceOnUse">
<stop stop-color="#EF8431"/>
<stop offset="1" stop-color="#E71A86"/>
</linearGradient>
<linearGradient id="paint10_linear_0_893" x1="324.226" y1="306.805" x2="429.227" y2="306.805" gradientUnits="userSpaceOnUse">
<stop stop-color="#EF8431"/>
<stop offset="1" stop-color="#E71A86"/>
</linearGradient>
<clipPath id="clip0_0_893">
<rect width="645" height="456" fill="white"/>
</clipPath>
</defs>
</svg>
