<svg width="783" height="160" viewBox="0 0 783 160" fill="none" xmlns="http://www.w3.org/2000/svg">
<path d="M133.039 1.98901H174.139L103.2 157.789H70.939L0 1.98901H42.21L87.51 107.182L133.039 1.98901Z" fill="#F1F2F2"/>
<path d="M183.425 157.79V1.98999H224.088V157.79H183.425Z" fill="#F1F2F2"/>
<path d="M274.253 155.138C262.906 152.044 253.698 147.919 246.629 142.762L259.229 114.033C266.719 118.739 274.826 122.383 283.317 124.862C291.711 127.346 300.419 128.611 309.173 128.619C318.013 128.619 324.754 127.403 329.395 124.972C334.036 122.541 336.356 119.115 336.355 114.696C336.355 110.718 334.255 107.477 330.055 104.972C325.855 102.467 317.862 99.963 306.077 97.459C291.492 94.3643 280.074 90.6809 271.823 86.4089C263.572 82.1369 257.79 77.1274 254.477 71.3801C251.162 65.6348 249.504 58.5633 249.504 50.166C249.392 40.9452 252.217 31.9279 257.571 24.4199C262.947 16.8339 270.535 10.8673 280.334 6.52001C290.133 2.17267 301.367 -0.000369236 314.034 0.000964097C325.075 -0.0214269 336.059 1.57933 346.634 4.75194C357.167 7.92194 365.381 12.0104 371.275 17.0171L358.899 45.7471C344.755 36.0231 329.875 31.1609 314.258 31.1609C306.744 31.1609 300.704 32.5973 296.137 35.47C291.57 38.3426 289.287 42.1364 289.286 46.8511C289.181 49.3633 290.052 51.8189 291.717 53.7031C293.336 55.4704 296.356 57.2013 300.777 58.896C307.19 61.1298 313.766 62.866 320.446 64.0891C334.59 67.1831 345.713 70.9033 353.816 75.25C361.919 79.5966 367.664 84.6423 371.053 90.3869C374.441 96.1329 376.135 102.984 376.136 110.94C376.136 126.264 370.243 138.234 358.457 146.851C346.671 155.468 330.096 159.777 308.733 159.78C297.084 159.779 285.487 158.218 274.253 155.138Z" fill="#F1F2F2"/>
<path d="M399.112 157.79V1.98999H439.777V157.79H399.112Z" fill="#F1F2F2"/>
<path d="M500.659 149.945C489.086 143.536 479.667 133.848 473.586 122.099C467.253 110.093 464.086 95.9864 464.086 79.7791C464.086 63.5717 467.253 49.465 473.586 37.459C479.652 25.7278 489.078 16.0711 500.659 9.7229C512.372 3.24223 526.184 0.00133374 542.095 4.11239e-07C558.006 -0.00133292 571.818 3.23957 583.532 9.7229C595.096 16.0563 604.49 25.7199 610.493 37.459C616.752 49.467 619.883 63.5737 619.885 79.7791C619.887 95.9844 616.72 110.091 610.385 122.099C604.303 133.847 594.885 143.535 583.313 149.945C571.6 156.502 557.861 159.78 542.097 159.779C526.184 159.779 512.371 156.501 500.659 149.945ZM569.719 116.132C576.349 107.81 579.664 95.6924 579.665 79.7791C579.666 63.8657 576.314 51.7846 569.609 43.5359C562.903 35.2859 553.732 31.1606 542.095 31.1599C530.306 31.1599 521.098 35.2484 514.471 43.425C507.844 51.6017 504.529 63.7197 504.526 79.7791C504.526 95.8377 507.841 107.992 514.471 116.243C521.101 124.494 530.309 128.619 542.095 128.619C553.883 128.619 563.091 124.456 569.719 116.131V116.132Z" fill="#F1F2F2"/>
<path d="M744.966 1.98901H782.977V157.789H752.921L681.761 68.728V157.789H643.971V1.98901H673.584L744.966 91.0491V1.98901Z" fill="#F1F2F2"/>
</svg>
