<svg width="495" height="462" viewBox="0 0 495 462" fill="none" xmlns="http://www.w3.org/2000/svg">
<path d="M247.05 462C383.492 462 494.1 402.313 494.1 328.685C494.1 255.057 383.492 195.37 247.05 195.37C110.608 195.37 0 255.057 0 328.685C0 402.313 110.608 462 247.05 462Z" fill="#F5F5F5"/>
<path d="M289.336 401.986C314.423 401.986 334.761 391.012 334.761 377.474C334.761 363.936 314.423 352.962 289.336 352.962C264.248 352.962 243.91 363.936 243.91 377.474C243.91 391.012 264.248 401.986 289.336 401.986Z" fill="#E0E0E0"/>
<path d="M407.509 387.468C432.597 387.468 452.934 376.493 452.934 362.955C452.934 349.418 432.597 338.443 407.509 338.443C382.422 338.443 362.084 349.418 362.084 362.955C362.084 376.493 382.422 387.468 407.509 387.468Z" fill="#E0E0E0"/>
<path d="M159.043 438.74C184.131 438.74 204.468 427.765 204.468 414.227C204.468 400.689 184.131 389.715 159.043 389.715C133.955 389.715 113.618 400.689 113.618 414.227C113.618 427.765 133.955 438.74 159.043 438.74Z" fill="#E0E0E0"/>
<path d="M84.5933 333.621C84.5933 333.621 83.4078 307.703 71.7825 293.276C60.1573 278.85 45.9084 276.777 38.8498 280.841C33.6904 283.796 34.382 292.579 43.3067 298.284C52.2315 303.988 69.4333 318.61 72.1228 328.142L84.5933 333.621Z" fill="#37474F"/>
<path d="M76.9089 329.845C76.7206 329.832 76.5452 329.75 76.4201 329.618C76.2951 329.486 76.2302 329.313 76.2393 329.137C77.4358 305.62 55.3819 290.958 49.3772 288.321C49.2049 288.245 49.0714 288.109 49.0057 287.942C48.9399 287.775 48.9472 287.59 49.0259 287.428C49.1092 287.266 49.2568 287.141 49.4374 287.08C49.6179 287.019 49.8169 287.026 49.9919 287.1C56.1503 289.829 78.9068 304.943 77.6773 329.168C77.666 329.346 77.5801 329.512 77.4383 329.631C77.2966 329.75 77.1103 329.812 76.9199 329.804L76.9089 329.845Z" fill="white"/>
<path d="M79.1044 325.433C77.5195 325.413 75.9956 324.859 74.8122 323.873C73.462 322.488 73.5717 320.364 72.946 318.579C71.9251 315.644 68.8294 313.654 65.602 313.028C62.3296 312.551 58.9846 312.761 55.81 313.644C49.3333 315.131 43.109 311.407 36.6213 311.848C34.2804 311.918 32.0038 312.582 30.0347 313.767C29.0635 314.367 28.2678 315.185 27.7196 316.145C27.1714 317.105 26.8881 318.178 26.8951 319.266C27.1177 321.068 28.0776 322.719 29.5737 323.873C31.0738 325.025 32.7268 325.991 34.4916 326.746L40.189 329.465C41.1739 329.874 42.082 330.429 42.8785 331.107C43.6312 331.861 44.1989 332.759 44.5421 333.739C44.8852 334.719 44.9956 335.757 44.8654 336.781C44.4263 338.833 42.6699 340.393 42.11 342.404C41.4185 345.041 43.1419 347.863 45.6229 349.289C48.1997 350.593 51.1413 351.13 54.0536 350.828C56.9627 350.674 59.8388 350.13 62.7479 350.079C64.7161 349.947 66.6831 350.35 68.4123 351.238C70.3651 352.56 71.772 354.469 72.3971 356.646C72.7742 358.042 73.3737 359.377 74.1755 360.606C75.1641 361.774 76.4954 362.648 78.0067 363.12C80.9296 364.126 84.1402 364.126 87.0632 363.12C89.4672 362.258 90.6418 359.724 91.542 357.528C92.4415 355.229 92.8698 352.793 92.8044 350.346C92.6662 344.056 91.1454 337.86 88.3366 332.143C86.9863 329.517 85.0433 326.89 82.0574 325.987C81.0904 325.729 80.1029 325.544 79.1044 325.433Z" fill="#455A64"/>
<path d="M85.3398 353.629C85.2071 353.629 85.0775 353.591 84.9693 353.519C84.861 353.447 84.7795 353.346 84.736 353.229C77.9628 335.078 45.9193 319.287 34.2392 317.471C34.1563 317.458 34.0769 317.43 34.0056 317.388C33.9343 317.347 33.8724 317.293 33.8234 317.229C33.7745 317.165 33.7395 317.093 33.7204 317.016C33.7014 316.94 33.6986 316.861 33.7123 316.783C33.726 316.706 33.7559 316.632 33.8002 316.565C33.8446 316.498 33.9026 316.44 33.9709 316.395C34.0392 316.349 34.1165 316.316 34.1983 316.298C34.2801 316.28 34.3649 316.278 34.4478 316.291C46.3914 318.138 79.0716 334.277 86.0423 352.828C86.0717 352.903 86.0847 352.983 86.0807 353.062C86.0766 353.142 86.0556 353.22 86.0187 353.291C85.9819 353.363 85.93 353.427 85.8662 353.48C85.8023 353.532 85.7279 353.573 85.6471 353.598C85.5485 353.63 85.4434 353.64 85.3398 353.629Z" fill="white"/>
<path d="M56.5345 343.676C56.4119 343.666 56.2949 343.624 56.1976 343.554C56.1003 343.483 56.0268 343.388 55.9862 343.279C55.9455 343.171 55.9394 343.054 55.9685 342.942C55.9977 342.83 56.0608 342.729 56.1503 342.65C61.3898 339.262 67.5859 337.402 73.9559 337.304C74.1118 337.323 74.2549 337.395 74.3586 337.505C74.4623 337.616 74.5195 337.757 74.5195 337.904C74.5195 338.051 74.4623 338.193 74.3586 338.304C74.2549 338.414 74.1118 338.486 73.9559 338.505C67.8628 338.643 61.9424 340.424 56.9078 343.635C56.7903 343.682 56.6606 343.696 56.5345 343.676Z" fill="white"/>
<path d="M85.6906 367.665C85.0003 367.226 84.43 366.642 84.0257 365.96C83.6214 365.277 83.3946 364.515 83.3634 363.735V149.916C83.4112 149.113 83.6607 148.331 84.0917 147.634C84.5226 146.937 85.1231 146.344 85.8443 145.905L354.97 0.66688C355.685 0.246198 356.51 0.0158977 357.355 0.000793882C358.2 -0.01431 359.033 0.186355 359.765 0.581167C360.497 0.97598 361.099 1.54997 361.508 2.24129C361.917 2.93262 362.116 3.71506 362.084 4.50432V218.334C362.036 219.137 361.786 219.919 361.355 220.616C360.924 221.313 360.324 221.906 359.603 222.345L90.4769 367.583C89.7413 367.945 88.9253 368.141 88.0942 368.155C87.2631 368.169 86.4399 368.002 85.6906 367.665Z" fill="#455A64"/>
<path d="M90.0048 367.778H89.906C89.831 367.82 89.7496 367.851 89.6645 367.87H89.4779C89.3677 367.906 89.2536 367.93 89.1376 367.942C89.064 367.97 88.9862 367.987 88.9071 367.993L88.5338 368.045C87.5543 368.169 86.5577 368.007 85.6797 367.583C84.9903 367.146 84.4212 366.564 84.0186 365.883C83.6161 365.202 83.3915 364.441 83.3634 363.663V177.322L88.0179 179.836V366.239C88.0179 367.265 88.5778 367.901 89.3901 367.901C89.4992 367.916 89.6103 367.916 89.7194 367.901C89.8207 367.874 89.917 367.832 90.0048 367.778Z" fill="url(#paint0_linear_0_733)"/>
<path opacity="0.81" d="M90.0048 367.778H89.906C89.831 367.82 89.7496 367.851 89.6645 367.87H89.4779C89.3677 367.906 89.2536 367.93 89.1376 367.942C89.064 367.97 88.9862 367.987 88.9071 367.993L88.5338 368.045C87.5543 368.169 86.5577 368.007 85.6797 367.583C84.9903 367.146 84.4212 366.564 84.0186 365.883C83.6161 365.202 83.3915 364.441 83.3634 363.663V177.322L88.0179 179.836V366.239C88.0179 367.265 88.5778 367.901 89.3901 367.901C89.4992 367.916 89.6103 367.916 89.7194 367.901C89.8207 367.874 89.917 367.832 90.0048 367.778Z" fill="#E0E0E0"/>
<path d="M88.0069 179.836L83.3524 177.322V218.723L88.0069 221.258V179.836Z" fill="url(#paint1_linear_0_733)"/>
<path opacity="0.15" d="M88.0069 179.836L83.3524 177.322V218.723L88.0069 221.258V179.836Z" fill="black"/>
<path d="M88.7205 150.142C88.2812 150.833 88.0357 151.616 88.007 152.42V179.836L83.3525 177.322V149.916C83.347 149.824 83.347 149.732 83.3525 149.639C83.3738 149.446 83.4067 149.254 83.4513 149.065C83.5881 148.563 83.7948 148.08 84.066 147.628L88.7205 150.142Z" fill="#263238"/>
<path d="M362.084 4.51484V16.889L164.806 123.342C163.445 124.081 162.336 123.475 162.336 122.008V117.319C162.336 115.852 161.238 115.267 159.855 115.985L99.7748 148.419C99.0536 148.859 98.4532 149.451 98.0222 150.148C97.5912 150.845 97.3417 151.627 97.2939 152.43V157.109C97.2474 157.912 96.9996 158.693 96.5705 159.39C96.1415 160.087 95.5432 160.68 94.824 161.121L88.0069 164.835V152.523C88.0535 151.72 88.3012 150.939 88.7303 150.242C89.1593 149.545 89.7576 148.952 90.4768 148.511L359.614 3.18097C360.975 2.44221 362.084 3.03732 362.084 4.51484Z" fill="#37474F"/>
<path d="M362.095 218.344C362.045 219.146 361.795 219.926 361.364 220.621C360.933 221.316 360.334 221.906 359.614 222.345L90.4768 367.583C89.1156 368.311 88.0069 367.716 88.0069 366.239V164.835L94.824 161.162C96.1852 160.423 98.4026 149.198 99.7748 148.459L158.845 116.58C160.217 115.841 163.445 124.132 164.806 123.393L362.084 16.8887V218.344H362.095Z" fill="url(#paint2_linear_0_733)"/>
<path opacity="0.9" d="M362.095 218.344C362.045 219.146 361.795 219.926 361.364 220.621C360.933 221.316 360.334 221.906 359.614 222.345L90.4768 367.583C89.1156 368.311 88.0069 367.716 88.0069 366.239V164.835L94.824 161.162C96.1852 160.423 98.4026 149.198 99.7748 148.459L158.845 116.58C160.217 115.841 163.445 124.132 164.806 123.393L362.084 16.8887V218.344H362.095Z" fill="white"/>
<g opacity="0.4">
<path opacity="0.4" d="M360.986 18.664V218.344C360.932 218.96 360.731 219.557 360.396 220.09C360.062 220.623 359.603 221.078 359.054 221.422L89.9279 366.691C89.7618 366.795 89.5682 366.856 89.3681 366.865C89.1156 366.865 89.1046 366.352 89.1046 366.239V165.379L95.3728 161.993C96.3388 161.47 96.9535 159.674 98.3367 155.057C98.8389 153.068 99.5296 151.124 100.401 149.25L158.988 117.637C159.689 118.53 160.32 119.47 160.876 120.448C162.468 123.055 163.346 124.409 164.619 124.409C164.876 124.408 165.129 124.348 165.355 124.234L360.986 18.664ZM362.084 16.8889L164.806 123.342C164.745 123.356 164.68 123.356 164.619 123.342C163.236 123.342 160.426 116.436 159.032 116.436C158.97 116.422 158.906 116.422 158.845 116.436L99.7748 148.419C98.4026 149.157 96.1851 160.382 94.8239 161.121L88.0068 164.835V366.239C88.0068 367.265 88.5667 367.891 89.3681 367.891C89.7558 367.876 90.1333 367.77 90.4658 367.583L359.614 222.346C360.333 221.907 360.933 221.316 361.364 220.621C361.795 219.926 362.045 219.146 362.095 218.344V16.8889H362.084Z" fill="url(#paint3_linear_0_733)"/>
</g>
<path d="M88.0069 179.836V221.258L362.084 73.3729V31.9409L88.0069 179.836Z" fill="url(#paint4_linear_0_733)"/>
<path d="M362.084 16.8887V31.9408L88.0069 179.836V164.835L93.0895 162.085C94.4507 161.347 94.9118 160.218 95.5595 158.073L97.2939 152.471C97.8318 150.522 98.3917 149.198 99.7748 148.459L158.845 116.58C160.217 115.841 161.293 115.759 162.336 117.37L164.455 120.961C165.223 122.223 165.618 122.962 166.979 122.223L362.084 16.8887Z" fill="#F0F0F0"/>
<path d="M350.469 12.2714C352.193 11.348 353.587 12.097 353.587 13.9541C353.528 14.9654 353.216 15.9495 352.674 16.8266C352.132 17.7037 351.377 18.4491 350.469 19.0023C348.757 19.9258 347.363 19.1767 347.363 17.3196C347.422 16.3096 347.734 15.3268 348.273 14.45C348.813 13.5732 349.565 12.827 350.469 12.2714Z" fill="url(#paint5_linear_0_733)"/>
<path d="M339.272 18.3151C340.985 17.3917 342.379 18.1407 342.379 19.9978C342.32 21.0078 342.008 21.9907 341.468 22.8675C340.929 23.7442 340.177 24.4904 339.272 25.046C337.549 25.9695 336.155 25.2204 336.155 23.3633C336.213 22.3521 336.526 21.368 337.068 20.4909C337.61 19.6138 338.365 18.8684 339.272 18.3151Z" fill="url(#paint6_linear_0_733)"/>
<path d="M328.042 24.3586C329.755 23.4351 331.16 24.1841 331.16 26.0413C331.099 27.052 330.785 28.0351 330.243 28.9119C329.702 29.7886 328.948 30.5344 328.042 31.0895C326.319 32.0232 324.925 31.2639 324.925 29.4068C324.983 28.3955 325.296 27.4114 325.838 26.5343C326.38 25.6572 327.135 24.9118 328.042 24.3586Z" fill="url(#paint7_linear_0_733)"/>
<path opacity="0.5" d="M99.3577 165.861L95.4717 167.913L96.9536 165.256C97.0122 165.155 97.0429 165.042 97.0429 164.927C97.0429 164.813 97.0122 164.7 96.9536 164.599C96.8438 164.476 96.6462 164.599 96.5145 164.794L94.4068 168.59C94.4022 168.638 94.4022 168.686 94.4068 168.734C94.402 168.799 94.402 168.864 94.4068 168.929C94.4001 168.987 94.4001 169.046 94.4068 169.104C94.4015 169.131 94.4015 169.158 94.4068 169.186L96.5145 170.704C96.5458 170.722 96.5819 170.732 96.6188 170.732C96.6557 170.732 96.6918 170.722 96.7231 170.704C96.8237 170.627 96.9028 170.529 96.9536 170.417C97.0634 170.171 97.0524 169.894 96.9536 169.801L95.4717 168.775L99.3577 166.723C99.4594 166.649 99.5412 166.554 99.5965 166.446C99.6518 166.337 99.6791 166.218 99.6761 166.097C99.6761 165.861 99.5333 165.779 99.3577 165.861Z" fill="#455A64"/>
<path opacity="0.5" d="M102.607 164.117L106.493 162.065L105.011 161.039C104.88 160.946 104.869 160.669 105.011 160.423C105.154 160.177 105.319 160.043 105.45 160.136L107.558 161.654C107.586 161.673 107.608 161.698 107.624 161.726C107.635 161.78 107.635 161.836 107.624 161.89C107.635 161.955 107.635 162.021 107.624 162.085C107.624 162.085 107.624 162.085 107.624 162.137C107.607 162.186 107.585 162.234 107.558 162.28L105.45 166.036C105.405 166.128 105.332 166.206 105.242 166.261C105.211 166.29 105.17 166.305 105.126 166.305C105.083 166.305 105.042 166.29 105.011 166.261C104.95 166.162 104.917 166.048 104.917 165.933C104.917 165.818 104.95 165.705 105.011 165.605L106.493 162.937L102.607 165.04C102.432 165.133 102.3 165.04 102.3 164.753C102.293 164.632 102.317 164.511 102.371 164.4C102.424 164.289 102.505 164.192 102.607 164.117Z" fill="#455A64"/>
<path opacity="0.5" d="M115.33 153.651C115.33 153.436 115.1 153.467 115.001 153.703L114.463 154.924C113.552 154.831 112.454 155.652 111.707 157.13C110.752 159.028 110.752 161.234 111.707 162.147C111.942 162.352 112.245 162.474 112.566 162.493C112.886 162.512 113.204 162.426 113.464 162.25C114.24 161.763 114.847 161.075 115.209 160.269C115.27 160.173 115.302 160.063 115.302 159.951C115.302 159.839 115.27 159.73 115.209 159.633C115.078 159.52 114.88 159.633 114.759 159.869C114.046 161.285 112.871 161.921 112.158 161.275C111.444 160.629 111.433 158.946 112.158 157.52C112.662 156.494 113.398 155.909 114.046 155.878L113.639 156.791C113.541 157.027 113.639 157.253 113.793 157.15L115.385 156.186C115.446 156.134 115.493 156.071 115.524 156C115.554 155.928 115.567 155.852 115.561 155.775L115.33 153.651Z" fill="#455A64"/>
<path opacity="0.5" d="M157.144 123.403L158.56 120.592C158.643 120.46 158.686 120.309 158.686 120.156C158.686 120.002 158.643 119.852 158.56 119.72C158.395 119.576 158.121 119.72 157.956 120.048L156.54 122.849L155.113 121.577C154.948 121.423 154.674 121.577 154.509 121.905C154.426 122.037 154.382 122.188 154.382 122.341C154.382 122.495 154.426 122.645 154.509 122.777L155.925 124.05L154.509 126.871C154.426 127.003 154.382 127.154 154.382 127.307C154.382 127.461 154.426 127.611 154.509 127.743C154.552 127.777 154.607 127.795 154.663 127.795C154.719 127.795 154.773 127.777 154.816 127.743C154.953 127.664 155.057 127.545 155.113 127.405L156.54 124.593L157.956 125.876C157.997 125.909 158.05 125.926 158.104 125.926C158.158 125.926 158.211 125.909 158.252 125.876C158.389 125.795 158.496 125.677 158.56 125.537C158.643 125.405 158.686 125.255 158.686 125.101C158.686 124.948 158.643 124.797 158.56 124.665L157.144 123.403Z" fill="#455A64"/>
<path d="M120.523 157.099V152.42C120.573 151.617 120.825 150.836 121.258 150.141C121.691 149.446 122.293 148.856 123.014 148.418L345.694 28.3702C347.066 27.6314 348.175 28.2265 348.175 29.704V34.3213C348.127 35.125 347.878 35.907 347.447 36.6039C347.016 37.3009 346.416 37.8932 345.694 38.3331L123.014 158.443C121.631 159.182 120.523 158.576 120.523 157.099Z" fill="white"/>
<path d="M342.302 38.6305C342.244 38.6413 342.185 38.6413 342.127 38.6305C342.01 38.5762 341.917 38.4871 341.861 38.3773C341.806 38.2676 341.791 38.1437 341.819 38.0252L342.061 36.0859L341.051 35.4087C340.979 35.3595 340.921 35.2944 340.883 35.2192C340.845 35.1439 340.827 35.061 340.831 34.9778C340.832 34.8366 340.866 34.6973 340.93 34.5696C340.995 34.442 341.088 34.3291 341.205 34.239L342.654 33.213C342.702 33.172 342.737 33.1184 342.752 33.0591L343.4 31.0685C343.437 30.9233 343.517 30.7911 343.632 30.6874C343.747 30.5837 343.891 30.513 344.048 30.4837C344.146 30.4806 344.242 30.5041 344.326 30.5515C344.41 30.5989 344.477 30.668 344.52 30.7504L345.102 31.9201L346.419 31.4482C346.512 31.4111 346.614 31.4021 346.713 31.4223C346.811 31.4425 346.9 31.491 346.968 31.561C347.054 31.6846 347.1 31.829 347.1 31.9766C347.1 32.1242 347.054 32.2686 346.968 32.3921L345.87 34.239C345.858 34.2932 345.858 34.349 345.87 34.4032L346.122 36.0757C346.138 36.2125 346.12 36.3508 346.07 36.4803C346.021 36.6099 345.941 36.7276 345.837 36.8247C345.779 36.8898 345.704 36.9407 345.62 36.9728C345.536 37.005 345.445 37.0175 345.354 37.0094L344.048 36.8554L342.785 38.4356C342.724 38.4984 342.65 38.5482 342.566 38.5819C342.483 38.6155 342.393 38.6321 342.302 38.6305ZM341.468 34.8649L342.478 35.5421C342.563 35.6084 342.627 35.6948 342.664 35.7923C342.7 35.8899 342.708 35.9948 342.686 36.0962L342.566 37.6968L343.664 36.404C343.726 36.3207 343.81 36.2535 343.908 36.2086C344.006 36.1638 344.114 36.1428 344.223 36.1475L345.53 36.3014C345.53 36.3014 345.585 36.1372 345.53 36.0551L345.277 34.3827C345.26 34.1975 345.302 34.0118 345.398 33.8491L346.496 32.0022L345.288 32.4332C345.231 32.4567 345.169 32.4693 345.106 32.4702C345.043 32.471 344.981 32.4601 344.922 32.4382C344.864 32.4162 344.811 32.3835 344.766 32.3422C344.722 32.3008 344.686 32.2515 344.662 32.1972L344.125 31.1711L343.477 33.1617C343.423 33.3447 343.308 33.5066 343.148 33.6234L341.699 34.6494C341.596 34.6926 341.514 34.7692 341.468 34.8649Z" fill="#E0E0E0"/>
<g opacity="0.5">
<path opacity="0.5" d="M351.073 27.7341C350.883 27.7359 350.698 27.6786 350.546 27.5711C350.395 27.4636 350.286 27.312 350.237 27.1404C350.188 26.9687 350.202 26.7867 350.275 26.6229C350.349 26.4592 350.479 26.3231 350.645 26.2361L357.605 22.4807C357.702 22.4275 357.81 22.3927 357.921 22.3783C358.033 22.364 358.147 22.3703 358.256 22.397C358.365 22.4237 358.467 22.4702 358.557 22.5338C358.647 22.5975 358.723 22.6771 358.779 22.768C358.836 22.859 358.874 22.9595 358.889 23.0639C358.904 23.1683 358.898 23.2745 358.869 23.3765C358.841 23.4784 358.791 23.5741 358.723 23.6581C358.655 23.7421 358.569 23.8127 358.472 23.8659L351.501 27.6315C351.371 27.7001 351.223 27.7355 351.073 27.7341Z" fill="#455A64"/>
<path opacity="0.5" d="M351.073 31.4996C350.922 31.4993 350.774 31.4623 350.643 31.3921C350.512 31.3219 350.403 31.221 350.327 31.0994C350.27 31.0079 350.233 30.9068 350.218 30.8019C350.204 30.697 350.211 30.5905 350.241 30.4884C350.271 30.3863 350.322 30.2907 350.391 30.2071C350.46 30.1236 350.547 30.0537 350.645 30.0015L357.605 26.2359C357.801 26.1517 358.023 26.1388 358.229 26.1997C358.435 26.2606 358.609 26.391 358.717 26.5653C358.825 26.7396 358.86 26.9454 358.815 27.1425C358.77 27.3396 358.647 27.5139 358.472 27.6313L351.501 31.3867C351.372 31.4585 351.224 31.4974 351.073 31.4996Z" fill="#455A64"/>
<path opacity="0.5" d="M351.073 35.2551C350.922 35.2549 350.774 35.2178 350.643 35.1477C350.512 35.0775 350.403 34.9766 350.327 34.8549C350.27 34.7642 350.233 34.6639 350.219 34.5598C350.204 34.4557 350.212 34.35 350.242 34.2487C350.271 34.1474 350.322 34.0527 350.391 33.9701C350.461 33.8874 350.547 33.8185 350.645 33.7673L357.605 30.0017C357.702 29.9485 357.81 29.9137 357.921 29.8993C358.033 29.885 358.147 29.8913 358.256 29.918C358.365 29.9447 358.467 29.9912 358.557 30.0548C358.647 30.1185 358.722 30.1981 358.779 30.289C358.836 30.38 358.874 30.4805 358.889 30.5849C358.904 30.6893 358.897 30.7955 358.869 30.8974C358.84 30.9994 358.791 31.0951 358.723 31.1791C358.654 31.263 358.569 31.3337 358.472 31.3869L351.501 35.1525C351.371 35.2211 351.223 35.2565 351.073 35.2551Z" fill="#455A64"/>
</g>
<path d="M88.0069 164.784V179.836L83.3524 177.322V162.28L88.0069 164.784Z" fill="#E0E0E0"/>
<path d="M281.823 87.0049L277.468 103.045L275.689 104.017L280.702 86.289L281.85 85.6621L281.823 87.0049ZM285.472 98.6711L281.109 87.3949L281.082 86.0817L282.229 85.4548L287.261 97.6937L285.472 98.6711ZM285.246 93.2459V94.8724L277.857 98.9102V97.2837L285.246 93.2459ZM288.76 81.0624L290.441 80.1443V93.7944L290.296 96.0352L288.76 96.8743V81.0624ZM297.044 86.686V86.9022C297.044 87.712 296.96 88.5096 296.791 89.2948C296.622 90.0733 296.376 90.8053 296.05 91.4908C295.725 92.1764 295.328 92.7882 294.858 93.3262C294.388 93.8643 293.849 94.2995 293.241 94.6319C292.621 94.9708 292.076 95.1485 291.606 95.165C291.142 95.1714 290.751 95.0318 290.431 94.7464C290.112 94.461 289.856 94.045 289.664 93.4983C289.477 92.9484 289.347 92.2848 289.275 91.5076V90.5606C289.347 89.6975 289.477 88.889 289.664 88.135C289.856 87.3778 290.112 86.682 290.431 86.0478C290.751 85.4067 291.142 84.8394 291.606 84.3458C292.07 83.8453 292.609 83.4273 293.223 83.0916C293.837 82.756 294.382 82.5954 294.858 82.6099C295.334 82.6176 295.731 82.7847 296.05 83.1113C296.376 83.4346 296.622 83.9002 296.791 84.508C296.96 85.109 297.044 85.835 297.044 86.686ZM295.364 87.8203V87.6042C295.364 87.0483 295.319 86.5514 295.228 86.1135C295.138 85.6687 294.993 85.3153 294.795 85.0533C294.596 84.7845 294.334 84.6325 294.009 84.5975C293.684 84.5556 293.283 84.6646 292.807 84.9246C292.386 85.1549 292.018 85.438 291.705 85.7739C291.398 86.1064 291.136 86.4726 290.919 86.8724C290.702 87.2654 290.525 87.6782 290.386 88.1107C290.254 88.5331 290.154 88.9512 290.088 89.3648V91.8457C290.185 92.2735 290.341 92.6512 290.558 92.9788C290.781 93.2962 291.076 93.4953 291.443 93.5759C291.817 93.6533 292.277 93.5422 292.825 93.2427C293.277 92.9959 293.662 92.6824 293.982 92.3021C294.307 91.9116 294.569 91.4768 294.768 90.9976C294.972 90.5151 295.123 90.0039 295.219 89.464C295.316 88.9241 295.364 88.3762 295.364 87.8203ZM298.715 85.989V85.7522C298.715 84.9493 298.818 84.1487 299.022 83.3506C299.227 82.5455 299.522 81.7838 299.908 81.0653C300.293 80.34 300.76 79.6869 301.308 79.1061C301.856 78.5184 302.47 78.0386 303.151 77.6667C303.837 77.2916 304.455 77.0984 305.003 77.0872C305.557 77.0658 306.026 77.2072 306.412 77.5113C306.803 77.8052 307.101 78.2428 307.306 78.8241C307.511 79.3985 307.613 80.0871 307.613 80.8901V81.1269C307.613 81.9298 307.511 82.7304 307.306 83.5285C307.101 84.3267 306.803 85.0901 306.412 85.8187C306.026 86.5372 305.56 87.1902 305.012 87.7779C304.47 88.3555 303.855 88.8318 303.169 89.207C302.482 89.5821 301.865 89.7788 301.317 89.7968C300.769 89.8081 300.299 89.6667 299.908 89.3728C299.522 89.0687 299.227 88.6294 299.022 88.055C298.818 87.4806 298.715 86.792 298.715 85.989ZM300.386 84.839V85.0758C300.386 85.6317 300.444 86.1254 300.558 86.557C300.673 86.9818 300.844 87.3203 301.073 87.5727C301.308 87.8219 301.6 87.9608 301.949 87.9895C302.299 88.0114 302.705 87.8957 303.169 87.6423C303.626 87.3922 304.027 87.067 304.37 86.6666C304.72 86.2562 305.009 85.7997 305.237 85.2972C305.466 84.7947 305.638 84.2685 305.752 83.7187C305.873 83.1588 305.933 82.6009 305.933 82.045V81.8082C305.933 81.2592 305.873 80.774 305.752 80.3525C305.638 79.9209 305.463 79.5806 305.228 79.3314C305 79.0722 304.711 78.9282 304.361 78.8994C304.018 78.8674 303.614 78.9781 303.151 79.2315C302.693 79.4816 302.29 79.8119 301.94 80.2223C301.597 80.6295 301.308 81.0894 301.073 81.6021C300.844 82.1046 300.673 82.6342 300.558 83.1908C300.444 83.7406 300.386 84.29 300.386 84.839ZM315.689 79.586V71.0212L317.37 70.1031V81.2414L315.771 82.1151L315.689 79.586ZM316.005 77.0661L316.701 76.6655C316.701 77.4066 316.632 78.1308 316.493 78.8378C316.361 79.5348 316.144 80.1954 315.843 80.8197C315.542 81.4441 315.147 82.0199 314.659 82.5473C314.172 83.0677 313.578 83.5188 312.88 83.9006C312.404 84.1606 311.967 84.3202 311.57 84.3796C311.179 84.4356 310.841 84.3763 310.558 84.2015C310.275 84.0268 310.055 83.718 309.899 83.2751C309.748 82.8289 309.673 82.2352 309.673 81.4941V74.3087L311.344 73.3955V80.6015C311.344 81.1024 311.392 81.4913 311.489 81.7681C311.591 82.0347 311.727 82.218 311.895 82.318C312.07 82.4079 312.263 82.433 312.473 82.3933C312.69 82.3503 312.913 82.2663 313.142 82.1412C313.852 81.7529 314.416 81.2908 314.831 80.7549C315.247 80.2122 315.545 79.6272 315.725 79.0001C315.912 78.3627 316.005 77.7181 316.005 77.0661ZM324.009 66.475V67.9367L318.725 70.8244V69.3626L324.009 66.475ZM320.513 65.6779L322.184 64.7647V75.8516C322.184 76.229 322.236 76.4859 322.338 76.6221C322.44 76.7583 322.573 76.8129 322.735 76.7858C322.898 76.7587 323.073 76.6941 323.259 76.5921C323.398 76.5164 323.542 76.4237 323.693 76.314C323.85 76.1941 323.967 76.1025 324.045 76.0391L324.054 77.5886C323.922 77.7091 323.747 77.8491 323.53 78.0087C323.32 78.172 323.064 78.3358 322.763 78.5004C322.353 78.7242 321.977 78.8372 321.633 78.8395C321.29 78.8417 321.016 78.6826 320.811 78.3622C320.613 78.0316 320.513 77.4957 320.513 76.7545V65.6779ZM336.539 68.1933V59.6285L338.219 58.7103V69.8487L336.62 70.7224L336.539 68.1933ZM336.855 65.6734L337.55 65.2727C337.55 66.0139 337.481 66.738 337.343 67.4451C337.21 68.142 336.993 68.8026 336.692 69.427C336.391 70.0513 335.997 70.6272 335.509 71.1545C335.021 71.675 334.428 72.1261 333.729 72.5078C333.254 72.7678 332.817 72.9275 332.419 72.9868C332.028 73.0429 331.691 72.9835 331.408 72.8088C331.125 72.634 330.905 72.3252 330.748 71.8824C330.598 71.4362 330.522 70.8425 330.522 70.1013V62.916L332.194 62.0028V69.2087C332.194 69.7097 332.242 70.0986 332.338 70.3753C332.441 70.642 332.576 70.8253 332.745 70.9253C332.919 71.0151 333.112 71.0402 333.323 71.0005C333.54 70.9576 333.762 70.8736 333.991 70.7485C334.702 70.3602 335.265 69.8981 335.681 69.3622C336.096 68.8194 336.394 68.2345 336.575 67.6073C336.762 66.97 336.855 66.3254 336.855 65.6734ZM346.458 62.3924C346.458 62.1179 346.403 61.8936 346.295 61.7195C346.193 61.5352 345.979 61.4359 345.654 61.4214C345.334 61.3968 344.853 61.4885 344.208 61.6965C343.666 61.8623 343.175 61.9761 342.736 62.0379C342.302 62.0964 341.932 62.0826 341.625 61.9965C341.323 61.9071 341.092 61.7353 340.929 61.481C340.766 61.2267 340.685 60.8696 340.685 60.4098C340.685 59.9706 340.769 59.5093 340.938 59.026C341.113 58.5394 341.357 58.0596 341.67 57.5865C341.989 57.1101 342.371 56.6644 342.817 56.2493C343.263 55.8342 343.76 55.4769 344.308 55.1774C345.09 54.7496 345.759 54.5422 346.313 54.5551C346.867 54.5681 347.292 54.7581 347.587 55.1253C347.882 55.4857 348.029 55.9849 348.029 56.6232L346.358 57.5364C346.358 57.2276 346.277 56.9734 346.114 56.7741C345.958 56.5645 345.726 56.4476 345.419 56.4233C345.118 56.3956 344.747 56.5019 344.308 56.7422C343.844 56.9956 343.467 57.2836 343.178 57.6063C342.895 57.9188 342.688 58.2348 342.555 58.5542C342.429 58.8704 342.365 59.1657 342.365 59.4402C342.365 59.6461 342.395 59.815 342.456 59.9468C342.522 60.0684 342.636 60.1534 342.799 60.2018C342.962 60.2434 343.19 60.2419 343.486 60.1973C343.781 60.1527 344.157 60.0637 344.615 59.9303C345.416 59.6985 346.075 59.5852 346.593 59.5904C347.111 59.5956 347.496 59.7385 347.749 60.0189C348.002 60.2993 348.129 60.738 348.129 61.3351C348.129 61.8224 348.038 62.3178 347.858 62.8214C347.683 63.3218 347.427 63.8116 347.09 64.291C346.759 64.7603 346.361 65.2039 345.897 65.622C345.44 66.03 344.925 66.3903 344.353 66.7029C343.492 67.1735 342.763 67.3967 342.167 67.3724C341.57 67.3482 341.119 67.1421 340.812 66.754C340.504 66.366 340.351 65.8631 340.351 65.2455L342.031 64.3273C342.055 64.8357 342.188 65.1785 342.429 65.3557C342.669 65.5261 342.965 65.581 343.314 65.5205C343.663 65.4532 344.009 65.3257 344.353 65.1382C344.81 64.8881 345.193 64.6105 345.5 64.3054C345.813 63.997 346.051 63.6783 346.214 63.3492C346.376 63.0202 346.458 62.7013 346.458 62.3924Z" fill="#455A64"/>
<path opacity="0.1" d="M99.8957 231.026L175.696 190.117V305.62L99.6762 346.416L99.8957 231.026Z" fill="url(#paint8_linear_0_733)"/>
<path opacity="0.15" d="M192.404 183.232L283.847 133.889C285.691 132.863 287.14 133.643 287.14 135.562C287.071 136.623 286.737 137.655 286.166 138.574C285.594 139.494 284.8 140.275 283.847 140.856L192.393 190.753C190.559 191.779 189.099 190.958 189.099 188.978V188.619C189.161 187.542 189.492 186.494 190.066 185.558C190.64 184.623 191.441 183.826 192.404 183.232Z" fill="url(#paint9_linear_0_733)"/>
<path opacity="0.1" d="M191.449 198.182L342.763 116.529C344.081 115.821 345.145 116.323 345.145 117.647C345.087 118.394 344.841 119.119 344.427 119.76C344.014 120.402 343.443 120.944 342.763 121.341L191.449 202.994C190.142 203.702 189.077 203.199 189.077 201.876C189.135 201.129 189.38 200.406 189.792 199.764C190.203 199.123 190.771 198.58 191.449 198.182Z" fill="url(#paint10_linear_0_733)"/>
<path opacity="0.1" d="M191.449 207.847L342.763 126.194C344.081 125.486 345.145 125.989 345.145 127.312C345.087 128.06 344.841 128.784 344.427 129.426C344.014 130.068 343.443 130.609 342.763 131.006L191.449 212.659C190.142 213.367 189.077 212.865 189.077 211.531C189.137 210.786 189.382 210.065 189.794 209.425C190.206 208.785 190.772 208.245 191.449 207.847Z" fill="url(#paint11_linear_0_733)"/>
<path opacity="0.1" d="M191.449 217.502L342.763 135.849C344.081 135.141 345.145 135.644 345.145 136.978C345.086 137.724 344.839 138.446 344.425 139.086C344.011 139.726 343.442 140.265 342.763 140.661L191.449 222.294C190.142 223.002 189.077 222.499 189.077 221.165C189.142 220.425 189.389 219.708 189.801 219.073C190.212 218.437 190.776 217.899 191.449 217.502Z" fill="url(#paint12_linear_0_733)"/>
<path opacity="0.1" d="M191.449 227.168L342.763 145.515C344.081 144.807 345.145 145.309 345.145 146.633C345.087 147.38 344.841 148.105 344.427 148.746C344.014 149.388 343.443 149.93 342.763 150.327L191.449 231.98C190.142 232.688 189.077 232.185 189.077 230.862C189.135 230.115 189.38 229.392 189.792 228.75C190.203 228.109 190.771 227.567 191.449 227.168Z" fill="url(#paint13_linear_0_733)"/>
<path opacity="0.1" d="M191.449 236.833L297.031 179.374C298.337 178.666 299.402 179.169 299.402 180.503C299.343 181.247 299.097 181.969 298.685 182.608C298.273 183.248 297.707 183.789 297.031 184.186L191.449 241.645C190.142 242.353 189.077 241.85 189.077 240.517C189.137 239.772 189.382 239.051 189.794 238.411C190.206 237.771 190.772 237.231 191.449 236.833Z" fill="url(#paint14_linear_0_733)"/>
<path opacity="0.1" d="M191.449 256.154L342.763 174.501C344.081 173.793 345.145 174.295 345.145 175.619C345.087 176.367 344.841 177.091 344.427 177.733C344.014 178.374 343.443 178.916 342.763 179.313L191.449 260.966C190.142 261.674 189.077 261.171 189.077 259.848C189.135 259.101 189.38 258.378 189.792 257.736C190.203 257.095 190.771 256.553 191.449 256.154Z" fill="url(#paint15_linear_0_733)"/>
<path opacity="0.1" d="M191.449 265.819L342.763 184.166C344.081 183.458 345.145 183.961 345.145 185.284C345.087 186.032 344.841 186.756 344.427 187.398C344.014 188.04 343.443 188.581 342.763 188.978L191.449 270.631C190.142 271.339 189.077 270.837 189.077 269.503C189.137 268.758 189.382 268.037 189.794 267.397C190.206 266.757 190.772 266.217 191.449 265.819Z" fill="url(#paint16_linear_0_733)"/>
<path opacity="0.1" d="M191.449 275.474L342.763 193.821C344.081 193.113 345.145 193.616 345.145 194.95C345.086 195.696 344.839 196.418 344.425 197.058C344.011 197.698 343.442 198.237 342.763 198.633L191.449 280.297C190.142 281.005 189.077 280.502 189.077 279.168C189.137 278.422 189.382 277.7 189.794 277.058C190.206 276.417 190.772 275.874 191.449 275.474Z" fill="url(#paint17_linear_0_733)"/>
<path opacity="0.1" d="M191.449 285.14L247.061 254.81C248.367 254.102 249.432 254.605 249.432 255.938C249.373 256.683 249.127 257.404 248.715 258.044C248.304 258.684 247.737 259.224 247.061 259.622L191.46 289.952C190.153 290.66 189.088 290.157 189.088 288.834C189.145 288.088 189.388 287.366 189.798 286.724C190.208 286.082 190.773 285.54 191.449 285.14Z" fill="url(#paint18_linear_0_733)"/>
<path d="M393.655 229.681C401.702 205.282 409.529 189.204 401.548 184.227C394.127 185.52 390.801 188.957 389.22 198.11C387.563 207.703 384.116 221.083 382.107 228.799C380.371 235.247 377.886 241.499 374.697 247.442C374.216 248.265 373.438 248.902 372.502 249.238C370.021 250.151 368.835 251.29 366.815 252.685C365.223 253.712 364.06 253.855 364.137 254.296C364.267 254.792 364.6 255.219 365.064 255.488C365.527 255.756 366.085 255.844 366.618 255.733C367.81 255.522 368.971 255.178 370.076 254.707C369.126 256.955 367.648 258.975 365.75 260.617C361.853 263.695 362.457 266.701 368.703 267.05C370.899 267.173 376.135 265.265 380.954 257.6C382.584 254.743 384.017 251.793 385.247 248.766C388.606 240.906 392.042 234.606 393.655 229.681Z" fill="#FFA8A7"/>
<path d="M402.942 183.94C402.942 183.94 396.751 183.643 392.997 187.511C389.242 191.379 384.873 214.486 384.873 214.486C384.873 214.486 388.979 219.76 399.803 217.564L402.942 183.94Z" fill="url(#paint19_linear_0_733)"/>
<path opacity="0.3" d="M402.942 183.94C402.942 183.94 396.751 183.643 392.997 187.511C389.242 191.379 384.873 214.486 384.873 214.486C384.873 214.486 388.979 219.76 399.803 217.564L402.942 183.94Z" fill="black"/>
<path d="M431.934 347.862H423.624V361.714H431.934V347.862Z" fill="#FFA8A7"/>
<path d="M403.118 347.123L394.808 347.411L394.391 332.748L403.118 332.471V347.123Z" fill="#FFA8A7"/>
<path d="M433.109 227.937C433.109 235.663 431.89 297.842 431.89 297.842C432.077 300.069 434.217 304.173 433.756 312.709C433.131 324.304 432.285 354.778 432.285 354.778C430.859 355.464 429.285 355.837 427.681 355.869C426.078 355.901 424.487 355.591 423.031 354.962C423.031 354.962 415.171 312.74 413.689 301.238C412.383 291.214 410.177 257.436 410.177 257.436L405.676 296.703C406.635 300.929 406.982 305.257 406.708 309.57C406.313 314.885 403.645 342.578 403.645 342.578C402.208 343.369 400.598 343.844 398.935 343.967C397.273 344.09 395.602 343.857 394.051 343.286C394.051 343.286 389.319 301.587 389.22 296.703C389.111 291.142 391.987 227.845 391.987 227.845L433.109 227.937Z" fill="#37474F"/>
<path d="M423.624 357.732V356.573C422.823 356.912 420.979 363.755 417.685 366.71C415.062 369.029 411.483 371.718 410.572 374.313C409.661 376.909 415.556 378.51 418.004 378.089C420.847 377.597 425.787 375.647 427.016 373.831C428.246 372.015 428.839 369.358 429.848 368.034C430.858 366.71 433.142 365.233 433.713 363.694C434.02 362.852 433.713 361.006 433.241 359.446C432.768 357.886 432.439 356.44 431.934 356.573V357.455C430.769 358.359 429.298 358.846 427.785 358.83C426.566 358.861 423.613 358.625 423.624 357.732Z" fill="#263238"/>
<path d="M394.72 344.907C394.292 344.907 393.941 345.512 392.986 346.518C391.575 347.909 389.923 349.067 388.101 349.945C384.983 351.463 378.934 353.793 376.19 354.993C374.488 355.742 374.565 357.753 376.333 358.902C378.1 360.052 382.37 360.872 387.497 359.754C390.285 359.149 393.93 356.676 396.224 356.768C398.518 356.861 402.811 356.881 404.534 355.742C406.257 354.603 405.555 352.171 405.072 350.078C404.545 347.8 403.897 344.24 403.118 344.394V345.184C402.119 346.651 396.959 347.236 394.764 346.21L394.72 344.907Z" fill="#263238"/>
<path d="M410.177 257.446C405.852 256.126 401.898 253.917 398.606 250.982C398.606 250.982 400.802 255.086 407.476 258.842L406.06 293.912L410.177 257.446Z" fill="#263238"/>
<path d="M428.784 185.787C428.784 185.787 435.282 186.351 434.821 197.925L433.383 216.394V244.097C427.269 250.572 400.176 250.089 390.9 243.574C390.9 243.574 391.943 210.812 392.569 198.202C393.019 189.245 395.225 184.73 404.644 183.745L416.225 184.217L428.784 185.787Z" fill="url(#paint20_linear_0_733)"/>
<path opacity="0.3" d="M410.308 191.861L408.815 201.588L405.346 201.526L409.265 202.111L410.308 191.861Z" fill="black"/>
<path d="M418.981 159.705C419.048 162.836 417.783 165.865 415.464 168.125C413.144 170.386 409.959 171.693 406.609 171.761C399.77 171.761 394.534 166.353 394.226 159.715C393.688 147.946 399.77 147.659 406.609 147.659C409.957 147.726 413.14 149.032 415.46 151.29C417.779 153.549 419.045 156.575 418.981 159.705Z" fill="#263238"/>
<path d="M425.995 165.666C425.995 165.666 424.096 174.346 423.339 175.773C422.849 176.643 422.013 177.298 421.011 177.599L421.143 171.494L425.995 165.666Z" fill="#263238"/>
<path d="M423.646 153.23C423.646 153.23 425.007 152.912 426.456 155.026C427.697 156.832 427.982 160.895 426.028 165.666L422.46 166.066L423.646 153.23Z" fill="#263238"/>
<path d="M421.385 166.066C422.098 166.487 423.119 165.143 424.008 164.24C424.898 163.337 427.774 162.116 429.223 165.061C430.672 168.005 427.949 172.048 425.677 172.746C421.758 173.946 421.176 171.494 421.176 171.494L420.869 185.243C415.676 192.764 403.897 192.487 408.135 184.884V180.698C406.391 180.969 404.62 181.058 402.855 180.964C399.978 180.523 398.167 178.317 397.289 175.28C395.884 170.406 395.357 166.477 396.543 156.883C397.86 146.366 410.418 146.274 417.213 150.47C424.008 154.667 421.385 166.066 421.385 166.066Z" fill="#FFA8A7"/>
<path d="M420.935 182.165C419.727 184.475 417.992 186.51 415.852 188.126C414.034 189.382 411.924 190.219 409.694 190.568C411.533 191.733 413.041 193.301 414.085 195.134C415.391 197.802 424.535 190.445 424.447 185.222C424.447 185.222 423.02 179.979 421.044 179.651L420.935 182.165Z" fill="#263238"/>
<path d="M409.693 190.568C409.693 190.568 406.872 189.265 408.135 184.884V180.698L406.894 180.851C405.449 182.168 404.423 183.834 403.93 185.664C403.645 186.864 402.942 192.938 404.183 194.139C405.423 195.339 407.158 190.896 409.693 190.568Z" fill="#263238"/>
<path d="M416.576 154.574C416.897 154.509 417.231 154.526 417.542 154.626C418.64 155.077 418.838 158.176 419.024 159.068C419.65 162.075 420.177 167.174 421.385 167.195C421.747 167.195 423.119 164.989 424.008 164.199C425.249 163.101 423.646 153.189 423.646 153.189C423.973 152.333 424.035 151.408 423.826 150.521C423.616 149.633 423.143 148.819 422.46 148.172C420.265 145.791 416.73 145.258 413.536 145.094C409.77 144.899 405.95 145.165 402.24 144.396C401.074 144.093 399.89 143.857 398.694 143.688C398.644 143.668 398.589 143.657 398.535 143.657C398.48 143.657 398.426 143.668 398.376 143.688C398.255 143.78 398.277 143.955 398.31 144.098C398.542 145.137 398.934 146.14 399.473 147.074C397.265 146.911 395.084 146.508 392.975 145.873C392.853 145.838 392.723 145.838 392.601 145.873C392.349 145.945 392.305 146.253 392.327 146.499C392.47 148.982 393.732 152.738 395.895 154.195C397.812 155.368 400.037 156.024 402.328 156.093C408.146 156.298 411.724 155.149 416.576 154.574Z" fill="#263238"/>
<path d="M423.646 153.754L427.982 151.486C427.85 151.207 427.656 150.957 427.415 150.751C427.173 150.546 426.888 150.39 426.578 150.294C426.268 150.197 425.94 150.162 425.615 150.191C425.289 150.219 424.974 150.311 424.689 150.46C424.112 150.793 423.687 151.313 423.494 151.92C423.302 152.528 423.356 153.181 423.646 153.754Z" fill="#263238"/>
<path d="M408.146 180.698C408.146 180.698 414.568 179.436 416.818 178.276C418.151 177.591 419.233 176.547 419.925 175.28C419.59 176.554 418.989 177.753 418.157 178.81C416.522 180.862 408.146 182.36 408.146 182.36V180.698Z" fill="#F28F8F"/>
<path d="M409.694 164.507C409.717 164.738 409.812 164.958 409.966 165.14C410.121 165.322 410.329 165.458 410.564 165.532C410.8 165.606 411.054 165.614 411.294 165.556C411.535 165.498 411.752 165.375 411.92 165.204C412.088 165.032 412.199 164.819 412.239 164.59C412.28 164.36 412.248 164.125 412.149 163.912C412.049 163.699 411.885 163.518 411.677 163.39C411.469 163.263 411.227 163.194 410.978 163.193C410.801 163.199 410.626 163.237 410.465 163.306C410.304 163.375 410.159 163.474 410.039 163.597C409.919 163.719 409.827 163.863 409.768 164.019C409.708 164.175 409.683 164.341 409.694 164.507Z" fill="#263238"/>
<path d="M411.724 159.315L414.48 160.792C414.679 160.437 414.732 160.025 414.629 159.636C414.526 159.247 414.273 158.906 413.92 158.678C413.735 158.568 413.528 158.497 413.311 158.469C413.094 158.442 412.873 158.459 412.664 158.52C412.455 158.58 412.263 158.683 412.1 158.82C411.938 158.957 411.81 159.126 411.724 159.315Z" fill="#263238"/>
<path d="M408.728 173.167L405.786 174.193C405.844 174.381 405.943 174.557 406.077 174.709C406.21 174.861 406.376 174.985 406.563 175.075C406.75 175.164 406.955 175.217 407.165 175.229C407.375 175.241 407.586 175.213 407.784 175.147C408.175 174.984 408.488 174.691 408.662 174.326C408.836 173.96 408.86 173.547 408.728 173.167Z" fill="#F28F8F"/>
<path d="M397.871 160.413L400.385 158.525C400.271 158.359 400.122 158.218 399.946 158.111C399.77 158.004 399.571 157.933 399.363 157.903C399.156 157.873 398.944 157.884 398.741 157.937C398.539 157.989 398.351 158.081 398.189 158.207C397.853 158.472 397.635 158.845 397.576 159.252C397.518 159.66 397.622 160.073 397.871 160.413Z" fill="#263238"/>
<path d="M398.979 164.147C398.972 164.311 398.999 164.475 399.06 164.629C399.121 164.783 399.214 164.924 399.333 165.044C399.453 165.164 399.596 165.261 399.756 165.329C399.916 165.397 400.088 165.435 400.264 165.44C400.633 165.44 400.988 165.303 401.25 165.058C401.511 164.814 401.658 164.483 401.658 164.137C401.658 163.791 401.511 163.46 401.25 163.216C400.988 162.971 400.633 162.834 400.264 162.834C399.908 162.853 399.575 163 399.335 163.246C399.095 163.491 398.967 163.815 398.979 164.147Z" fill="#263238"/>
<path d="M405.873 163.142L405.72 170.745L401.098 169.75L405.873 163.142Z" fill="#F28F8F"/>
<path d="M441.43 170.786C443.285 168.488 447.039 173.587 448.774 177.107C450.508 180.626 450.541 182.616 449.114 184.012C447.687 185.407 444.997 184.566 442.308 181.231C439.618 177.897 440.365 172.479 441.43 170.786Z" fill="url(#paint21_linear_0_733)"/>
<path opacity="0.5" d="M441.43 170.786C443.285 168.488 447.039 173.587 448.774 177.107C450.508 180.626 450.541 182.616 449.114 184.012C447.687 185.407 444.997 184.566 442.308 181.231C439.618 177.897 440.365 172.479 441.43 170.786Z" fill="black"/>
<path d="M454.537 171.463C447.95 185.828 438.784 193.923 434.667 203.168C429.278 202.83 425.073 190.65 429.091 185.448C429.091 185.448 444.877 169.473 446.304 163.193C447.577 157.622 449.279 148.428 449.136 143.698C449.079 142.928 448.733 142.201 448.159 141.646C446.501 139.974 446.501 138.64 445.436 136.803C444.613 135.367 443.702 134.833 443.965 134.505C444.307 134.163 444.773 133.955 445.272 133.921C445.77 133.886 446.264 134.029 446.655 134.32C447.417 134.841 448.1 135.455 448.686 136.146C448.889 134.302 448.567 132.44 447.753 130.749C445.92 126.871 446.37 124.901 451.957 126.276C455.47 127.148 457.665 129.877 458.192 137.747C458.436 141.022 458.458 144.309 458.258 147.587C457.644 153.651 457.259 159.971 456.458 165.03C456.112 167.242 455.467 169.404 454.537 171.463Z" fill="#FFA8A7"/>
<path d="M427.444 185.623L441.364 170.745C441.364 170.745 439.706 174.367 443.329 179.651C446.952 184.935 449.103 184.012 449.103 184.012C449.103 184.012 440.881 195.226 438.685 198.982C436.49 202.737 434.196 205.908 434.196 205.908C433.953 206.346 433.575 206.706 433.112 206.942C432.648 207.178 432.119 207.278 431.594 207.231C429.552 207.231 424.14 198.756 427.444 185.623Z" fill="url(#paint22_linear_0_733)"/>
<path opacity="0.3" d="M427.444 185.623L441.364 170.745C441.364 170.745 439.706 174.367 443.329 179.651C446.952 184.935 449.103 184.012 449.103 184.012C449.103 184.012 440.881 195.226 438.685 198.982C436.49 202.737 434.196 205.908 434.196 205.908C433.953 206.346 433.575 206.706 433.112 206.942C432.648 207.178 432.119 207.278 431.594 207.231C429.552 207.231 424.14 198.756 427.444 185.623Z" fill="black"/>
<path d="M314.485 219.062L321.039 227.219L313.991 234.76L304.913 224.838L314.485 219.062Z" fill="#F28F8F"/>
<path d="M293.024 200.511C298.743 200.757 301.466 201.537 304.463 204.882C307.459 208.227 322.433 228.45 322.433 228.45C322.433 228.45 319.787 235.386 313.991 234.791L303.464 224.644L293.024 200.511Z" fill="#455A64"/>
<path d="M264.965 369.933C264.559 372.06 264.338 374.215 264.307 376.376C264.23 380.275 263.461 381.671 263.363 384.872C263.242 388.535 263.923 389.91 265.558 391.962C267.194 394.014 271.321 395.892 273.089 392.413C274.856 388.935 274.626 386.657 274.055 383.056C273.484 379.454 273.396 377.289 273.067 374.457C272.759 371.954 272.408 370.056 272.408 370.056L264.965 369.933Z" fill="#263238"/>
<path d="M276.832 339.264L263.055 339.028C263.264 347.626 264.724 361.93 264.965 369.984C264.965 371.503 264.965 381.773 265.536 384.903C266.458 389.592 272.408 388.956 272.726 386.155C273.045 383.354 272.342 371.349 272.364 370.107C272.309 364.977 274.9 351.454 276.261 342.168C276.327 341.665 276.766 339.654 276.832 339.264Z" fill="#FFBDA7"/>
<path d="M297.064 363.253C297.064 363.253 296.361 363.253 296.24 363.828C296.12 364.402 296.076 365.49 295.79 366.557C295.322 368.229 295.159 369.964 295.307 371.687C295.538 372.888 298.469 374.673 300.478 374.991C302.487 375.309 305.308 377.156 306.878 378.541C309.399 380.486 312.517 381.629 315.78 381.804C319.074 381.804 321.456 380.778 322.554 379.095C323.651 377.412 321.555 377.218 317.734 374.899L314.76 373.093C308.711 369.399 306.493 367.419 304.781 363.725L297.064 363.253Z" fill="#263238"/>
<path d="M304.825 361.242C304.726 358.574 306.175 338.977 306.175 338.977L294.33 340.228C297.141 355.845 297.36 361.17 297.042 363.448C296.982 363.659 296.956 363.876 296.965 364.094C296.965 367.172 300.643 368.773 303.552 370.794C304.649 371.595 307.58 374.057 310.983 375.135C313.179 375.843 317.252 376.161 317.768 374.858C314.299 372.375 309.556 369.132 306.79 366.29C305.429 364.915 304.924 363.889 304.825 361.242Z" fill="#FFBDA7"/>
<path d="M266.25 250.367C259.795 263.562 266.491 310.021 266.491 310.021C266.294 312.166 263.67 316.373 262.704 325.802C261.551 336.924 264.823 366.731 264.823 366.731C265.976 367.385 267.294 367.744 268.643 367.771C269.992 367.798 271.324 367.492 272.507 366.885C272.507 366.885 280.839 323.093 282.387 312.032C283.693 302.367 286.196 281.128 286.196 281.128L293.309 311.971C292.266 315.086 291.51 318.278 291.048 321.513C290.378 328.018 297.163 360.698 297.163 360.698C298.385 361.17 299.698 361.401 301.021 361.376C302.343 361.351 303.646 361.072 304.847 360.554C304.847 360.554 307.844 318.343 308.48 310.504C309.578 297.329 305.791 256.236 303.211 248.438L266.25 250.367Z" fill="url(#paint23_linear_0_733)"/>
<path opacity="0.5" d="M266.25 250.367C259.795 263.562 266.491 310.021 266.491 310.021C266.294 312.166 263.67 316.373 262.704 325.802C261.551 336.924 264.823 366.731 264.823 366.731C265.976 367.385 267.294 367.744 268.643 367.771C269.992 367.798 271.324 367.492 272.507 366.885C272.507 366.885 280.839 323.093 282.387 312.032C283.693 302.367 286.196 281.128 286.196 281.128L293.309 311.971C292.266 315.086 291.51 318.278 291.048 321.513C290.378 328.018 297.163 360.698 297.163 360.698C298.385 361.17 299.698 361.401 301.021 361.376C302.343 361.351 303.646 361.072 304.847 360.554C304.847 360.554 307.844 318.343 308.48 310.504C309.578 297.329 305.791 256.236 303.211 248.438L266.25 250.367Z" fill="black"/>
<path opacity="0.2" d="M286.174 281.128L288.271 268.877C288.271 268.877 297.14 267.163 301.169 263.624C298.391 266.669 294.755 268.926 290.675 270.139L288.314 279.579L292.442 308.134L286.174 281.128Z" fill="black"/>
<path d="M269.565 209.397L278.347 211.531V194.16C273.495 192.98 269.565 195.596 269.565 200.008V209.397Z" fill="url(#paint24_linear_0_733)"/>
<path opacity="0.6" d="M269.565 209.397L278.347 211.531V194.16C273.495 192.98 269.565 195.596 269.565 200.008V209.397Z" fill="black"/>
<path d="M286.953 196.643L283.803 196.581C274.186 196.366 266.568 188.619 266.777 179.261C266.777 169.063 275.229 160.793 285.702 160.7C296.174 160.649 304.715 168.909 304.77 179.067V180.093C304.506 189.46 296.548 196.838 286.953 196.643Z" fill="url(#paint25_linear_0_733)"/>
<path opacity="0.6" d="M286.953 196.643L283.803 196.581C274.186 196.366 266.568 188.619 266.777 179.261C266.777 169.063 275.229 160.793 285.702 160.7C296.174 160.649 304.715 168.909 304.77 179.067V180.093C304.506 189.46 296.548 196.838 286.953 196.643Z" fill="black"/>
<path d="M272.232 164.958C272.156 164.66 272.014 164.381 271.817 164.137C271.62 163.892 271.37 163.689 271.085 163.538C270.8 163.388 270.484 163.295 270.159 163.264C269.833 163.232 269.504 163.264 269.192 163.357L270.037 166.436C269.862 166.228 269.646 166.054 269.4 165.923C269.115 165.772 268.8 165.679 268.474 165.65C268.149 165.62 267.82 165.655 267.51 165.752C267.199 165.848 266.914 166.005 266.672 166.211C266.431 166.417 266.238 166.668 266.107 166.949L270.388 169.298C270.611 168.897 270.71 168.446 270.674 167.995C271.286 167.755 271.784 167.314 272.071 166.754C272.358 166.194 272.416 165.555 272.232 164.958Z" fill="url(#paint26_linear_0_733)"/>
<path opacity="0.6" d="M272.232 164.958C272.156 164.66 272.014 164.381 271.817 164.137C271.62 163.892 271.37 163.689 271.085 163.538C270.8 163.388 270.484 163.295 270.159 163.264C269.833 163.232 269.504 163.264 269.192 163.357L270.037 166.436C269.862 166.228 269.646 166.054 269.4 165.923C269.115 165.772 268.8 165.679 268.474 165.65C268.149 165.62 267.82 165.655 267.51 165.752C267.199 165.848 266.914 166.005 266.672 166.211C266.431 166.417 266.238 166.668 266.107 166.949L270.388 169.298C270.611 168.897 270.71 168.446 270.674 167.995C271.286 167.755 271.784 167.314 272.071 166.754C272.358 166.194 272.416 165.555 272.232 164.958Z" fill="black"/>
<path d="M277.425 201.219C274.468 201.594 271.537 202.121 268.643 202.799C272.046 210.597 266.711 222.643 266.711 222.643L271.749 237.141C268.269 243.8 265.404 247.104 264.219 252.532C267.424 258.38 290.049 263.962 304.781 253.301C304.781 253.301 304.309 238.495 302.432 229.866C307.251 221.073 306.471 218.487 305.483 215.419C303.189 208.288 298.557 205.549 293.035 200.521L289.742 200.193L277.425 201.219Z" fill="#37474F"/>
<path d="M272.309 242.948C275.043 240.332 280.839 239.583 280.839 239.583L275.515 236.751L269.565 223.32C272.062 218.748 273.296 213.666 273.154 208.534L269.73 207.765C270.147 214.875 266.7 222.653 266.7 222.653L271.738 237.151C268.259 243.81 265.393 247.114 264.208 252.542C266.403 256.543 277.699 260.422 289.335 259.047C273.747 258.062 269.686 245.483 272.309 242.948Z" fill="#263238"/>
<path d="M288.062 259.161L288.699 259.098C288.485 259.102 288.272 259.123 288.062 259.161Z" fill="#E6E6E6"/>
<path d="M297.7 169.791C299.588 171.412 301.949 174.921 301.762 185.182C301.597 193.903 298.71 196.068 297.25 196.694C295.79 197.32 292.991 196.961 290.258 196.53V200.142C290.258 200.142 293.858 203.876 293.639 206.298C293.419 208.719 288.501 209.694 284.955 207.324C282.457 205.556 280.24 203.466 278.369 201.116V190.148C278.369 190.148 276.766 191.677 273.978 189.378C271.782 187.47 270.948 184.248 272.693 182.504C273.142 182.091 273.691 181.787 274.294 181.619C274.898 181.451 275.536 181.424 276.152 181.541C276.769 181.657 277.346 181.914 277.832 182.287C278.318 182.661 278.698 183.141 278.94 183.684C283.123 183.275 287.197 182.177 290.971 180.441C293.094 179.487 294.866 177.966 296.064 176.07C297.262 174.174 297.831 171.989 297.7 169.791Z" fill="#FFBDA7"/>
<path d="M290.247 183.222C290.246 183.421 290.183 183.616 290.066 183.782C289.949 183.949 289.782 184.08 289.587 184.159C289.391 184.239 289.175 184.263 288.965 184.23C288.755 184.197 288.559 184.107 288.403 183.971C288.246 183.836 288.136 183.661 288.084 183.468C288.032 183.274 288.042 183.071 288.111 182.883C288.181 182.694 288.308 182.529 288.477 182.407C288.645 182.285 288.848 182.212 289.061 182.196C289.362 182.19 289.654 182.294 289.875 182.485C290.096 182.677 290.23 182.941 290.247 183.222Z" fill="#263238"/>
<path d="M290.675 190.486L293.606 191.379C293.559 191.566 293.472 191.742 293.349 191.897C293.227 192.051 293.072 192.18 292.894 192.276C292.716 192.372 292.519 192.434 292.315 192.456C292.11 192.478 291.904 192.461 291.707 192.405C291.308 192.266 290.98 191.99 290.788 191.635C290.597 191.279 290.557 190.869 290.675 190.486Z" fill="#F79776"/>
<path d="M300.851 179.292L298.183 178.44C298.225 178.274 298.304 178.118 298.415 177.982C298.526 177.846 298.666 177.733 298.826 177.651C298.987 177.568 299.164 177.519 299.346 177.504C299.529 177.49 299.712 177.512 299.885 177.568C300.245 177.694 300.543 177.939 300.721 178.257C300.899 178.576 300.945 178.944 300.851 179.292Z" fill="#263238"/>
<path d="M278.951 182.709V186.393C279.203 186.402 279.456 186.364 279.692 186.279C279.928 186.194 280.143 186.065 280.324 185.9C280.505 185.735 280.648 185.537 280.744 185.318C280.84 185.099 280.887 184.864 280.883 184.628C280.886 184.137 280.688 183.664 280.328 183.307C279.968 182.949 279.475 182.735 278.951 182.709Z" fill="url(#paint27_linear_0_733)"/>
<path opacity="0.6" d="M278.951 182.709V186.393C279.203 186.402 279.456 186.364 279.692 186.279C279.928 186.194 280.143 186.065 280.324 185.9C280.505 185.735 280.648 185.537 280.744 185.318C280.84 185.099 280.887 184.864 280.883 184.628C280.886 184.137 280.688 183.664 280.328 183.307C279.968 182.949 279.475 182.735 278.951 182.709Z" fill="black"/>
<path d="M299.885 182.863C299.909 183.158 299.807 183.45 299.601 183.675C299.396 183.9 299.103 184.04 298.787 184.063C298.545 184.085 298.302 184.039 298.088 183.931C297.875 183.823 297.7 183.658 297.588 183.456C297.476 183.255 297.43 183.027 297.458 182.801C297.485 182.575 297.584 182.362 297.742 182.19C297.9 182.017 298.11 181.892 298.344 181.832C298.578 181.771 298.826 181.778 299.057 181.85C299.287 181.922 299.489 182.058 299.637 182.238C299.784 182.418 299.871 182.636 299.885 182.863Z" fill="#263238"/>
<path d="M293.628 181.375L293.606 188.516L297.162 187.418L293.628 181.375Z" fill="#F79776"/>
<path d="M290.258 196.571C287.371 196.222 281.476 194.591 280.499 192.313C280.87 193.455 281.601 194.467 282.595 195.216C284.374 196.684 290.28 198.295 290.28 198.295L290.258 196.571Z" fill="#F79776"/>
<path d="M255.129 237.685C255.129 237.685 262.177 247.042 263.385 248.263C264.592 249.484 265.426 249.074 266.733 248.53C268.326 247.929 269.962 247.432 271.629 247.042C273.824 246.54 274.241 248.397 272.112 249.72C270.575 250.685 268.818 251.095 269.543 251.885C271.045 253.156 272.787 254.155 274.68 254.83C279.884 256.749 279.478 257.713 278.523 259.283C277.688 260.658 275.229 263.613 265.964 260.125C262.122 258.678 256.721 254.584 254.174 251.916C250.497 248.109 244.756 241.286 244.756 241.286L255.129 237.685Z" fill="#FFBDA7"/>
<path d="M269.993 202.46C267.446 202.614 262.649 203.189 256.633 212.526C251.353 220.734 243.175 231.826 241.66 235.797C241.045 237.408 243.438 240.742 246.523 244.159C250.727 243.985 254.559 241.266 256.546 239.09C256.024 237.934 255.377 236.83 254.613 235.797L266.952 222.643C266.952 222.643 271.64 218.631 272.617 213.408C273.671 207.745 273.341 203.292 269.993 202.46Z" fill="#455A64"/>
<path d="M339.075 220.17L308.656 227.66L300.28 259.827L329.206 251.978L339.075 220.17Z" fill="url(#paint28_linear_0_733)"/>
<path opacity="0.25" d="M339.075 220.17L308.656 227.66L300.28 259.827L329.206 251.978L339.075 220.17Z" fill="black"/>
<g opacity="0.1">
<path opacity="0.1" d="M325.331 242.948C325.84 243.941 326.651 244.773 327.662 245.338C328.673 245.904 329.84 246.179 331.017 246.129L331.237 245.421L325.331 242.948Z" fill="black"/>
</g>
<g opacity="0.1">
<path opacity="0.1" d="M329.909 225.28L330.161 224.192C330.304 223.597 328.514 223.566 326.176 224.192L321.686 225.218C319.348 225.793 317.295 226.737 317.197 227.332L316.955 228.419L329.909 225.28Z" fill="black"/>
</g>
<path d="M332.247 221.206C332.335 220.827 331.61 220.724 330.633 220.981L328.855 221.442C328.855 221.442 329.382 219.093 325.452 219.914C324.397 220.059 323.4 220.456 322.557 221.067C321.715 221.679 321.056 222.483 320.643 223.402L318.755 223.905C317.658 224.182 316.757 224.705 316.637 225.075L316.406 225.752L332.082 221.894L332.247 221.206Z" fill="#37474F"/>
<path d="M330.084 222.356C328.657 222.684 328.053 222.858 327.889 223.782C327.724 224.705 327.537 225.608 327.537 225.608L320.611 227.322C320.611 227.322 320.951 225.988 321.061 225.475C321.17 224.962 320.929 224.633 319.82 224.91L319.732 224.5L330.6 221.904L330.084 222.356Z" fill="#37474F"/>
<path d="M330.326 225.372L330.578 224.285C330.721 223.689 328.931 223.659 326.593 224.285L322.103 225.311C319.765 225.885 317.712 226.829 317.614 227.424L317.372 228.512L330.326 225.372Z" fill="#37474F"/>
<path d="M335.869 230.502C335.869 230.502 334.772 234.145 334.475 235.007C334.179 235.869 330.798 237.438 328.569 238.013C326.341 238.588 323.882 239.265 324.947 242.189C325.913 244.888 329.601 245.503 331.467 245.421C333.334 245.339 335.913 243.677 336.956 240.978C338.24 237.531 337.549 233.858 338.054 231.846C338.559 229.835 336.989 229.302 335.869 230.502Z" fill="#FFBDA7"/>
<path d="M220.638 231.354C216.467 227.424 214.974 228.953 214.447 233.262C214.251 235.07 213.782 236.842 213.053 238.526C212.923 237.631 212.66 236.757 212.273 235.93C212.09 235.483 211.732 235.117 211.272 234.905C210.812 234.694 210.283 234.653 209.792 234.791C209.386 234.945 209.891 235.817 209.792 237.531C209.715 239.665 208.969 240.845 209.507 243.112C209.694 243.966 209.55 244.853 209.101 245.616C206.905 249.515 199.671 256.718 194.599 261.91L175.334 245.647C168.747 240.106 166.617 237.613 160.261 238.013C162.25 238.718 164.081 239.762 165.662 241.091C168.615 243.42 167.913 256.749 167.913 256.749C167.913 256.749 189.78 271.401 192.063 272.796C192.393 273.001 192.733 273.186 193.062 273.36C194.142 273.886 195.38 274.056 196.575 273.842C197.771 273.628 198.854 273.042 199.649 272.181C204.314 267.194 211.12 257.375 215.018 252.275C216.799 249.807 218.388 247.221 219.771 244.539C223.679 237.284 223.251 233.816 220.638 231.354Z" fill="#914F4E"/>
<path d="M160.942 237.685C162.478 237.423 164.056 237.471 165.57 237.825C167.084 238.179 168.501 238.831 169.724 239.737C173.479 242.404 189.484 256.154 189.484 256.154C189.484 256.154 189.923 263.428 181.8 267.758L162.183 254.83L160.942 237.685Z" fill="url(#paint29_linear_0_733)"/>
<path opacity="0.3" d="M160.942 237.685C162.478 237.423 164.056 237.471 165.57 237.825C167.084 238.179 168.501 238.831 169.724 239.737C173.479 242.404 189.484 256.154 189.484 256.154C189.484 256.154 189.923 263.428 181.8 267.758L162.183 254.83L160.942 237.685Z" fill="black"/>
<path d="M142.006 401.812H133.696V415.663H142.006V401.812Z" fill="#914F4E"/>
<path d="M162.512 401.073L170.822 401.35L171.239 386.688L162.512 386.411V401.073Z" fill="#914F4E"/>
<path d="M132.521 281.877C132.521 289.603 133.74 351.792 133.74 351.792C133.553 354.008 131.413 358.112 131.874 366.649C132.499 378.254 133.345 408.717 133.345 408.717C134.772 409.4 136.347 409.771 137.95 409.801C139.553 409.831 141.143 409.52 142.599 408.891C142.599 408.891 150.459 366.669 151.952 355.178C153.247 345.143 155.453 311.365 155.453 311.365L159.954 350.643C158.995 354.865 158.648 359.19 158.922 363.499C159.318 368.814 161.985 396.507 161.985 396.507C163.422 397.302 165.034 397.779 166.699 397.904C168.363 398.028 170.036 397.796 171.59 397.225C171.59 397.225 176.311 355.516 176.41 350.643C176.519 345.081 173.643 281.774 173.643 281.774L132.521 281.877Z" fill="#37474F"/>
<path d="M142.006 411.662V410.513C142.807 410.851 144.651 417.695 147.945 420.64C150.568 422.969 154.147 425.657 155.058 428.253C155.969 430.849 150.074 432.44 147.626 432.019C144.783 431.526 139.843 429.577 138.614 427.771C137.384 425.965 136.792 423.287 135.782 421.964C134.772 420.64 132.488 419.162 131.917 417.623C131.754 416.192 131.915 414.745 132.39 413.376C132.774 411.949 133.191 410.379 133.696 410.513V411.395C134.868 412.292 136.341 412.776 137.856 412.76C139.064 412.801 142.017 412.565 142.006 411.662Z" fill="#263238"/>
<path d="M170.91 398.857C171.338 398.857 171.689 399.462 172.644 400.468C174.055 401.855 175.707 403.01 177.529 403.885C180.647 405.403 186.695 407.743 189.44 408.943C191.152 409.692 191.064 411.703 189.297 412.842C187.53 413.981 183.259 414.812 178.133 413.704C175.345 413.088 171.7 410.626 169.351 410.718C167.002 410.81 162.764 410.821 161.041 409.692C159.317 408.563 160.02 406.111 160.503 404.028C161.03 401.74 161.689 398.18 162.457 398.334V399.124C163.456 400.601 168.615 401.176 170.811 400.15L170.91 398.857Z" fill="#263238"/>
<path d="M155.453 311.386C159.778 310.066 163.732 307.857 167.024 304.922C167.024 304.922 164.828 309.026 158.154 312.781L159.57 347.862L155.453 311.386Z" fill="#263238"/>
<path d="M136.846 239.737C136.846 239.737 130.348 240.291 130.809 251.875L132.247 270.344L132.115 298.047C138.219 304.522 165.322 304.05 174.598 297.524C174.598 297.524 173.643 264.762 173.017 252.152C172.567 243.194 170.361 238.68 160.942 237.695L149.35 238.167L136.846 239.737Z" fill="url(#paint30_linear_0_733)"/>
<path opacity="0.3" d="M155.322 245.811L156.815 255.538L160.294 255.476L156.364 256.051L155.322 245.811Z" fill="black"/>
<path d="M116.22 279.507C119.59 254.163 127.351 241.543 136.802 240.086L136.133 256.297C132.197 264.943 129.182 273.93 127.131 283.129C125.891 289.367 124.453 300.212 124.826 305.538C124.901 306.476 125.328 307.359 126.034 308.031C127.9 309.806 128.46 311.345 129.711 313.346C130.699 314.916 131.709 315.47 131.445 315.849C131.106 316.249 130.613 316.508 130.072 316.573C129.531 316.639 128.984 316.504 128.547 316.198C127.557 315.542 126.651 314.781 125.847 313.931C125.727 316.346 126.192 318.756 127.208 320.98C129.404 325.248 129.052 327.495 122.927 326.233C119.085 325.453 116.34 321.667 115.243 312.833C114.954 309.536 114.891 306.225 115.056 302.921C115.473 294.477 115.55 284.575 116.22 279.507Z" fill="#914F4E"/>
<path d="M137.34 239.665C132.433 239.665 127.955 240.455 124.387 246.847C120.973 253.003 118.349 266.024 117.021 270.282C117.021 270.282 124.189 274.243 130.787 274.14L135.43 259.078C135.43 259.078 138.57 252.049 137.34 239.665Z" fill="url(#paint31_linear_0_733)"/>
<path opacity="0.3" d="M137.34 239.665C132.433 239.665 127.955 240.455 124.387 246.847C120.973 253.003 118.349 266.024 117.021 270.282C117.021 270.282 124.189 274.243 130.787 274.14L135.43 259.078C135.43 259.078 138.57 252.049 137.34 239.665Z" fill="black"/>
<path d="M147.473 213.583C147.572 215.85 148.381 218.04 149.801 219.88C151.221 221.721 153.189 223.13 155.459 223.934C157.729 224.738 160.202 224.9 162.57 224.401C164.938 223.902 167.097 222.763 168.778 221.126C170.459 219.489 171.588 217.426 172.025 215.194C172.462 212.962 172.188 210.66 171.236 208.572C170.284 206.485 168.697 204.705 166.671 203.454C164.646 202.204 162.272 201.537 159.844 201.537C156.496 201.604 153.313 202.91 150.994 205.169C148.674 207.427 147.408 210.453 147.473 213.583Z" fill="#263238"/>
<path d="M139.602 219.606C139.602 219.606 141.501 228.286 142.258 229.712C142.753 230.586 143.591 231.244 144.597 231.549L144.454 225.393L139.602 219.606Z" fill="#263238"/>
<path d="M141.984 207.17C141.984 207.17 140.579 206.903 139.174 208.955C137.933 210.761 137.659 214.824 139.602 219.595L143.17 219.995L141.984 207.17Z" fill="#263238"/>
<path d="M144.245 220.006C143.532 220.427 142.511 219.082 141.622 218.19C140.732 217.297 137.856 216.056 136.418 219.011C134.98 221.966 137.681 225.998 139.953 226.685C143.872 227.886 144.454 225.434 144.454 225.434L144.761 239.193C149.953 246.704 161.732 246.437 157.495 238.824V234.607C159.239 234.878 161.01 234.967 162.775 234.873C165.651 234.442 167.463 232.226 168.341 229.189C169.746 224.315 170.273 220.386 169.087 210.802C167.781 200.295 155.234 200.183 148.45 204.338C141.665 208.494 144.245 220.006 144.245 220.006Z" fill="#914F4E"/>
<path d="M144.695 236.104C145.903 238.415 147.638 240.45 149.778 242.066C151.598 243.32 153.707 244.16 155.936 244.518C154.099 245.681 152.592 247.245 151.545 249.074C150.25 251.752 141.095 244.395 141.182 239.172C141.182 239.172 142.62 233.929 144.585 233.591L144.695 236.104Z" fill="#263238"/>
<path d="M155.947 244.518C155.947 244.518 158.769 243.205 157.506 238.824V234.606L158.747 234.76C160.192 236.077 161.218 237.743 161.711 239.573C161.996 240.773 162.699 246.847 161.458 248.048C160.218 249.248 158.472 244.867 155.947 244.518Z" fill="#263238"/>
<path d="M144.245 221.186C143.883 221.186 142.511 218.98 141.622 218.19C140.381 217.092 141.984 207.17 141.984 207.17C141.661 206.313 141.6 205.39 141.81 204.503C142.019 203.616 142.49 202.802 143.169 202.152C144.871 200.336 147.703 200.1 152.533 199.403C154.462 199.181 156.375 198.855 158.264 198.428C160.258 197.73 162.176 196.858 163.994 195.822C164.566 195.475 165.25 195.33 165.926 195.411C166.238 195.509 166.516 195.682 166.734 195.913C166.952 196.143 167.101 196.423 167.166 196.725C167.276 197.326 167.276 197.94 167.166 198.541C167.777 198.01 168.588 197.727 169.421 197.754C170.254 197.781 171.042 198.115 171.612 198.684C172.151 199.285 172.502 200.012 172.626 200.787C172.75 201.562 172.643 202.354 172.315 203.076C171.613 204.511 170.466 205.716 169.022 206.534C162.951 210.371 155.783 209.304 148.977 208.586C148.655 208.518 148.319 208.54 148.011 208.647C146.913 209.099 146.715 212.187 146.529 213.08C145.98 216.055 145.453 221.165 144.245 221.186Z" fill="#263238"/>
<path d="M141.984 207.693L137.659 205.425C137.79 205.145 137.983 204.894 138.224 204.688C138.466 204.482 138.751 204.325 139.062 204.228C139.372 204.132 139.701 204.097 140.026 204.126C140.352 204.156 140.667 204.249 140.952 204.399C141.527 204.734 141.95 205.255 142.141 205.862C142.331 206.47 142.275 207.122 141.984 207.693Z" fill="#263238"/>
<path d="M157.484 234.606C157.484 234.606 151.062 233.344 148.812 232.185C147.476 231.503 146.393 230.458 145.705 229.189C146.04 230.463 146.641 231.662 147.473 232.718C149.108 234.77 157.484 236.279 157.484 236.279V234.606Z" fill="#783736"/>
<path d="M155.157 218.087C155.164 218.251 155.137 218.416 155.076 218.57C155.016 218.725 154.923 218.866 154.804 218.987C154.684 219.108 154.541 219.206 154.381 219.275C154.221 219.344 154.048 219.383 153.872 219.39C153.517 219.371 153.184 219.224 152.944 218.978C152.704 218.733 152.576 218.409 152.588 218.077C152.588 217.758 152.723 217.453 152.964 217.228C153.205 217.003 153.532 216.876 153.872 216.876C154.213 216.876 154.54 217.003 154.781 217.228C155.022 217.453 155.157 217.758 155.157 218.077V218.087Z" fill="#263238"/>
<path d="M152.95 212.875L150.195 214.352C149.997 213.987 149.952 213.565 150.07 213.17C150.188 212.775 150.46 212.435 150.832 212.218C151.015 212.123 151.218 212.064 151.427 212.046C151.636 212.027 151.846 212.05 152.046 212.111C152.245 212.173 152.428 212.273 152.584 212.404C152.74 212.536 152.864 212.696 152.95 212.875Z" fill="#263238"/>
<path d="M156.902 227.106L159.844 228.184C159.787 228.372 159.688 228.548 159.554 228.699C159.42 228.851 159.254 228.975 159.066 229.063C158.878 229.152 158.673 229.203 158.463 229.214C158.254 229.225 158.044 229.196 157.847 229.128C157.445 228.964 157.125 228.665 156.95 228.29C156.775 227.915 156.758 227.492 156.902 227.106Z" fill="#783736"/>
<path d="M168.023 214.311L165.125 212.998C165.196 212.814 165.307 212.647 165.453 212.506C165.598 212.366 165.773 212.256 165.967 212.183C166.16 212.11 166.369 212.077 166.577 212.085C166.786 212.092 166.99 212.141 167.177 212.228C167.569 212.416 167.873 212.733 168.029 213.118C168.185 213.502 168.183 213.928 168.023 214.311Z" fill="#263238"/>
<path d="M166.124 218.087C166.14 218.255 166.119 218.424 166.062 218.583C166.005 218.743 165.912 218.89 165.791 219.014C165.669 219.139 165.522 219.238 165.357 219.306C165.192 219.374 165.014 219.409 164.834 219.409C164.654 219.409 164.475 219.374 164.311 219.306C164.146 219.238 163.998 219.139 163.877 219.014C163.755 218.89 163.663 218.743 163.606 218.583C163.548 218.424 163.527 218.255 163.544 218.087C163.537 217.923 163.564 217.759 163.625 217.606C163.685 217.452 163.778 217.31 163.898 217.19C164.017 217.07 164.161 216.973 164.321 216.905C164.48 216.837 164.653 216.799 164.828 216.794C165.183 216.808 165.517 216.951 165.759 217.193C166.002 217.434 166.133 217.756 166.124 218.087Z" fill="#263238"/>
<path d="M158.823 217.153L158.966 224.756L163.588 223.771L158.823 217.153Z" fill="#783736"/>
<path d="M153.17 214.947C152.317 214.947 151.499 215.264 150.896 215.828C150.292 216.392 149.953 217.156 149.953 217.954C149.953 218.751 150.292 219.516 150.896 220.079C151.499 220.643 152.317 220.96 153.17 220.96H153.752C154.605 220.96 155.423 220.643 156.026 220.079C156.629 219.516 156.968 218.751 156.968 217.954C156.968 217.156 156.629 216.392 156.026 215.828C155.423 215.264 154.605 214.947 153.752 214.947H153.17ZM149.361 217.954C149.352 217.003 149.747 216.088 150.459 215.409C151.171 214.73 152.142 214.342 153.159 214.332H153.752C154.684 214.446 155.54 214.873 156.16 215.534C156.781 216.195 157.123 217.044 157.123 217.923C157.123 218.802 156.781 219.651 156.16 220.311C155.54 220.972 154.684 221.4 153.752 221.514H153.17C152.161 221.509 151.196 221.132 150.483 220.465C149.77 219.799 149.366 218.896 149.361 217.954Z" fill="#263238"/>
<path d="M164.729 214.947C163.876 214.947 163.058 215.264 162.455 215.828C161.852 216.392 161.513 217.156 161.513 217.954C161.513 218.751 161.852 219.516 162.455 220.079C163.058 220.643 163.876 220.96 164.729 220.96H165.311C166.164 220.96 166.982 220.643 167.585 220.079C168.189 219.516 168.528 218.751 168.528 217.954C168.528 217.156 168.189 216.392 167.585 215.828C166.982 215.264 166.164 214.947 165.311 214.947H164.729ZM160.931 217.954C160.922 217.003 161.317 216.088 162.029 215.409C162.741 214.73 163.712 214.342 164.729 214.332H165.311C166.244 214.446 167.1 214.873 167.72 215.534C168.34 216.195 168.682 217.044 168.682 217.923C168.682 218.802 168.34 219.651 167.72 220.311C167.1 220.972 166.244 221.4 165.311 221.514H164.729C163.727 221.5 162.769 221.12 162.063 220.454C161.357 219.789 160.959 218.891 160.953 217.954H160.931Z" fill="#263238"/>
<path d="M157.506 217.235C157.736 216.937 158.038 216.694 158.387 216.525C158.735 216.355 159.122 216.265 159.515 216.26C159.839 216.228 160.167 216.268 160.471 216.379C160.775 216.49 161.045 216.667 161.26 216.897L161.776 216.527C161.502 216.214 161.149 215.971 160.748 215.818C160.347 215.666 159.912 215.61 159.482 215.655C158.984 215.66 158.494 215.777 158.054 215.997C157.615 216.217 157.238 216.532 156.957 216.917L157.506 217.235Z" fill="#263238"/>
<path d="M149.712 217.205H143.17V217.81H149.712V217.205Z" fill="#263238"/>
<defs>
<linearGradient id="paint0_linear_0_733" x1="83.3634" y1="272.704" x2="90.0048" y2="272.704" gradientUnits="userSpaceOnUse">
<stop stop-color="#EF8431"/>
<stop offset="1" stop-color="#E71A86"/>
</linearGradient>
<linearGradient id="paint1_linear_0_733" x1="83.3524" y1="199.29" x2="88.0069" y2="199.29" gradientUnits="userSpaceOnUse">
<stop stop-color="#EF8431"/>
<stop offset="1" stop-color="#E71A86"/>
</linearGradient>
<linearGradient id="paint2_linear_0_733" x1="88.0069" y1="192.391" x2="362.095" y2="192.391" gradientUnits="userSpaceOnUse">
<stop stop-color="#EF8431"/>
<stop offset="1" stop-color="#E71A86"/>
</linearGradient>
<linearGradient id="paint3_linear_0_733" x1="88.0068" y1="192.39" x2="362.095" y2="192.39" gradientUnits="userSpaceOnUse">
<stop stop-color="#EF8431"/>
<stop offset="1" stop-color="#E71A86"/>
</linearGradient>
<linearGradient id="paint4_linear_0_733" x1="88.0069" y1="126.599" x2="362.084" y2="126.599" gradientUnits="userSpaceOnUse">
<stop stop-color="#EF8431"/>
<stop offset="1" stop-color="#E71A86"/>
</linearGradient>
<linearGradient id="paint5_linear_0_733" x1="347.363" y1="15.6369" x2="353.587" y2="15.6369" gradientUnits="userSpaceOnUse">
<stop stop-color="#EF8431"/>
<stop offset="1" stop-color="#E71A86"/>
</linearGradient>
<linearGradient id="paint6_linear_0_733" x1="336.155" y1="21.6806" x2="342.379" y2="21.6806" gradientUnits="userSpaceOnUse">
<stop stop-color="#EF8431"/>
<stop offset="1" stop-color="#E71A86"/>
</linearGradient>
<linearGradient id="paint7_linear_0_733" x1="324.925" y1="27.7263" x2="331.16" y2="27.7263" gradientUnits="userSpaceOnUse">
<stop stop-color="#EF8431"/>
<stop offset="1" stop-color="#E71A86"/>
</linearGradient>
<linearGradient id="paint8_linear_0_733" x1="99.6762" y1="268.266" x2="175.696" y2="268.266" gradientUnits="userSpaceOnUse">
<stop stop-color="#EF8431"/>
<stop offset="1" stop-color="#E71A86"/>
</linearGradient>
<linearGradient id="paint9_linear_0_733" x1="189.099" y1="162.316" x2="287.14" y2="162.316" gradientUnits="userSpaceOnUse">
<stop stop-color="#EF8431"/>
<stop offset="1" stop-color="#E71A86"/>
</linearGradient>
<linearGradient id="paint10_linear_0_733" x1="189.077" y1="159.761" x2="345.145" y2="159.761" gradientUnits="userSpaceOnUse">
<stop stop-color="#EF8431"/>
<stop offset="1" stop-color="#E71A86"/>
</linearGradient>
<linearGradient id="paint11_linear_0_733" x1="189.077" y1="169.427" x2="345.145" y2="169.427" gradientUnits="userSpaceOnUse">
<stop stop-color="#EF8431"/>
<stop offset="1" stop-color="#E71A86"/>
</linearGradient>
<linearGradient id="paint12_linear_0_733" x1="189.077" y1="179.072" x2="345.145" y2="179.072" gradientUnits="userSpaceOnUse">
<stop stop-color="#EF8431"/>
<stop offset="1" stop-color="#E71A86"/>
</linearGradient>
<linearGradient id="paint13_linear_0_733" x1="189.077" y1="188.747" x2="345.145" y2="188.747" gradientUnits="userSpaceOnUse">
<stop stop-color="#EF8431"/>
<stop offset="1" stop-color="#E71A86"/>
</linearGradient>
<linearGradient id="paint14_linear_0_733" x1="189.077" y1="210.51" x2="299.402" y2="210.51" gradientUnits="userSpaceOnUse">
<stop stop-color="#EF8431"/>
<stop offset="1" stop-color="#E71A86"/>
</linearGradient>
<linearGradient id="paint15_linear_0_733" x1="189.077" y1="217.733" x2="345.145" y2="217.733" gradientUnits="userSpaceOnUse">
<stop stop-color="#EF8431"/>
<stop offset="1" stop-color="#E71A86"/>
</linearGradient>
<linearGradient id="paint16_linear_0_733" x1="189.077" y1="227.399" x2="345.145" y2="227.399" gradientUnits="userSpaceOnUse">
<stop stop-color="#EF8431"/>
<stop offset="1" stop-color="#E71A86"/>
</linearGradient>
<linearGradient id="paint17_linear_0_733" x1="189.077" y1="237.059" x2="345.145" y2="237.059" gradientUnits="userSpaceOnUse">
<stop stop-color="#EF8431"/>
<stop offset="1" stop-color="#E71A86"/>
</linearGradient>
<linearGradient id="paint18_linear_0_733" x1="189.088" y1="272.381" x2="249.432" y2="272.381" gradientUnits="userSpaceOnUse">
<stop stop-color="#EF8431"/>
<stop offset="1" stop-color="#E71A86"/>
</linearGradient>
<linearGradient id="paint19_linear_0_733" x1="384.873" y1="201.017" x2="402.942" y2="201.017" gradientUnits="userSpaceOnUse">
<stop stop-color="#EF8431"/>
<stop offset="1" stop-color="#E71A86"/>
</linearGradient>
<linearGradient id="paint20_linear_0_733" x1="390.9" y1="216.229" x2="434.845" y2="216.229" gradientUnits="userSpaceOnUse">
<stop stop-color="#EF8431"/>
<stop offset="1" stop-color="#E71A86"/>
</linearGradient>
<linearGradient id="paint21_linear_0_733" x1="440.461" y1="177.434" x2="450.134" y2="177.434" gradientUnits="userSpaceOnUse">
<stop stop-color="#EF8431"/>
<stop offset="1" stop-color="#E71A86"/>
</linearGradient>
<linearGradient id="paint22_linear_0_733" x1="426.4" y1="188.994" x2="449.103" y2="188.994" gradientUnits="userSpaceOnUse">
<stop stop-color="#EF8431"/>
<stop offset="1" stop-color="#E71A86"/>
</linearGradient>
<linearGradient id="paint23_linear_0_733" x1="262.458" y1="308.105" x2="308.675" y2="308.105" gradientUnits="userSpaceOnUse">
<stop stop-color="#EF8431"/>
<stop offset="1" stop-color="#E71A86"/>
</linearGradient>
<linearGradient id="paint24_linear_0_733" x1="269.565" y1="202.704" x2="278.347" y2="202.704" gradientUnits="userSpaceOnUse">
<stop stop-color="#EF8431"/>
<stop offset="1" stop-color="#E71A86"/>
</linearGradient>
<linearGradient id="paint25_linear_0_733" x1="266.772" y1="178.673" x2="304.77" y2="178.673" gradientUnits="userSpaceOnUse">
<stop stop-color="#EF8431"/>
<stop offset="1" stop-color="#E71A86"/>
</linearGradient>
<linearGradient id="paint26_linear_0_733" x1="266.107" y1="166.275" x2="272.338" y2="166.275" gradientUnits="userSpaceOnUse">
<stop stop-color="#EF8431"/>
<stop offset="1" stop-color="#E71A86"/>
</linearGradient>
<linearGradient id="paint27_linear_0_733" x1="278.951" y1="184.551" x2="280.883" y2="184.551" gradientUnits="userSpaceOnUse">
<stop stop-color="#EF8431"/>
<stop offset="1" stop-color="#E71A86"/>
</linearGradient>
<linearGradient id="paint28_linear_0_733" x1="300.28" y1="239.998" x2="339.075" y2="239.998" gradientUnits="userSpaceOnUse">
<stop stop-color="#EF8431"/>
<stop offset="1" stop-color="#E71A86"/>
</linearGradient>
<linearGradient id="paint29_linear_0_733" x1="160.942" y1="252.638" x2="189.488" y2="252.638" gradientUnits="userSpaceOnUse">
<stop stop-color="#EF8431"/>
<stop offset="1" stop-color="#E71A86"/>
</linearGradient>
<linearGradient id="paint30_linear_0_733" x1="130.785" y1="270.181" x2="174.598" y2="270.181" gradientUnits="userSpaceOnUse">
<stop stop-color="#EF8431"/>
<stop offset="1" stop-color="#E71A86"/>
</linearGradient>
<linearGradient id="paint31_linear_0_733" x1="117.021" y1="256.903" x2="137.626" y2="256.903" gradientUnits="userSpaceOnUse">
<stop stop-color="#EF8431"/>
<stop offset="1" stop-color="#E71A86"/>
</linearGradient>
</defs>
</svg>
