<svg width="131" height="104" viewBox="0 0 131 104" fill="none" xmlns="http://www.w3.org/2000/svg">
<path d="M94.7671 44.0922V45.6846C94.7672 47.6354 95.0593 49.5731 95.6323 51.4237L98.9794 62.2404H105.297V37.2865H101.085C99.4094 37.2865 97.8024 38.0035 96.6175 39.2799C95.4327 40.5562 94.7671 42.2871 94.7671 44.0922Z" fill="#231F20"/>
<path d="M123.602 48.8055L120.039 62.2415L103.19 46.3615C102.073 46.3612 101.002 45.8832 100.212 45.0322C99.4227 44.1813 98.979 43.0273 98.979 41.824C98.9793 40.0191 99.6451 38.288 100.83 37.0117C102.015 35.7355 103.621 35.0181 105.297 35.0178H120.039C120.592 35.0178 121.139 35.1354 121.65 35.3634C122.161 35.5915 122.626 35.9257 123.017 36.3471C123.408 36.7685 123.718 37.2685 123.93 37.819C124.141 38.3696 124.25 38.96 124.25 39.5558V43.8191C124.25 45.5055 124.033 47.184 123.602 48.8055Z" fill="#231F20"/>
<path d="M115.826 69.0488H103.19V79.089H115.826V69.0488Z" fill="#E6AF78"/>
<path d="M103.191 73.2136C107.24 74.9956 111.777 74.9956 115.827 73.2136V69.0466H103.191V73.2136Z" fill="#D29B6E"/>
<path d="M125.986 77.6781L115.827 74.55L109.509 79.066L103.192 74.55L93.0316 77.6781C91.7115 78.0842 90.5501 78.942 89.7233 80.1226C88.8965 81.3033 88.4492 82.7422 88.4492 84.2211V100.808C88.4492 101.408 88.6707 101.984 89.065 102.409C89.4593 102.834 89.9941 103.073 90.5517 103.073H128.458C129.016 103.073 129.551 102.834 129.945 102.409C130.34 101.984 130.561 101.408 130.561 100.808V84.2211C130.561 82.7432 130.115 81.3053 129.29 80.1248C128.464 78.9444 127.305 78.0856 125.986 77.6781Z" fill="#D5DCED"/>
<path d="M111.615 103.076H107.403L108.454 79.0875H110.557L111.615 103.076Z" fill="#AFB9D2"/>
<path d="M109.508 71.3159C106.157 71.3156 102.944 69.8813 100.574 67.3286C98.2047 64.7759 96.8735 61.3139 96.8735 57.704V55.046C96.8734 54.4503 96.9823 53.8602 97.1939 53.3098C97.4055 52.7593 97.7156 52.2592 98.1067 51.8378L101.926 47.7239C102.324 47.2893 102.801 46.9468 103.327 46.7176C103.852 46.4884 104.416 46.3771 104.983 46.3908C111.711 46.6173 117.673 48.1733 120.931 51.6001C121.322 52.0219 121.63 52.5232 121.838 53.0748C122.046 53.6264 122.151 54.2172 122.144 54.8127V57.704C122.144 61.3141 120.813 64.7764 118.443 67.3292C116.074 69.8819 112.86 71.3159 109.508 71.3159Z" fill="#F0C087"/>
<path d="M103.191 55.609C103.189 54.9899 103.306 54.3773 103.534 53.8086C103.761 53.24 104.094 52.7275 104.512 52.303C104.931 51.8785 105.426 51.5507 105.966 51.3403C106.507 51.1298 107.082 51.0411 107.655 51.0793C111.907 51.3715 118.216 52.1371 122.087 54.1426C121.972 53.1814 121.565 52.2878 120.93 51.6013C117.671 48.1734 111.714 46.619 104.982 46.3925C104.415 46.3785 103.851 46.4896 103.326 46.7188C102.8 46.948 102.323 47.2903 101.925 47.7251L98.1056 51.8379C97.3162 52.6891 96.8727 53.843 96.8726 55.0461V57.7052C96.8739 60.6561 97.7654 63.5264 99.413 65.8839C101.06 68.2414 103.375 69.9584 106.007 70.7758C104.184 68.3654 103.189 65.3508 103.191 62.2416V55.6101V55.609Z" fill="#E6AF78"/>
<path d="M122.145 90.9819C122.145 89.1767 122.811 87.4454 123.996 86.1691L129.416 80.3289C130.164 81.4676 130.568 82.8271 130.572 84.2221V100.808C130.572 101.408 130.351 101.984 129.957 102.409C129.562 102.834 129.028 103.073 128.47 103.073H122.152V90.978L122.145 90.9819Z" fill="#C7CFE2"/>
<path d="M110.562 83.6244H108.459C108.181 83.6244 107.913 83.505 107.716 83.2927C107.519 83.0803 107.408 82.7923 107.408 82.492V79.0886H111.621V82.492C111.621 82.6414 111.593 82.7893 111.54 82.9272C111.487 83.0651 111.408 83.1902 111.31 83.2954C111.212 83.4007 111.095 83.4839 110.966 83.5404C110.838 83.5968 110.701 83.6255 110.562 83.6244Z" fill="#959CB5"/>
<path d="M109.509 79.0678L105.94 82.0039C105.795 82.1233 105.628 82.2077 105.451 82.2511C105.273 82.2944 105.089 82.2956 104.911 82.2549C104.732 82.2143 104.564 82.1328 104.418 82.0155C104.272 81.8983 104.152 81.7482 104.064 81.5759L100.862 75.2773L102.151 73.1595C102.218 73.0489 102.307 72.9557 102.411 72.8858C102.515 72.816 102.632 72.7714 102.753 72.7553C102.875 72.7393 102.998 72.7517 103.115 72.7924C103.232 72.8331 103.339 72.901 103.428 72.9909L109.509 79.0678Z" fill="#C7CFE2"/>
<path d="M109.509 79.0676L113.083 82.0037C113.228 82.1231 113.394 82.2075 113.572 82.2509C113.75 82.2942 113.934 82.2954 114.112 82.2547C114.29 82.2141 114.458 82.1326 114.604 82.0153C114.751 81.8981 114.871 81.748 114.958 81.5757L118.161 75.2771L116.872 73.1593C116.805 73.0488 116.716 72.9554 116.612 72.8856C116.508 72.8159 116.391 72.7717 116.269 72.7557C116.148 72.7397 116.024 72.7525 115.908 72.7933C115.791 72.8341 115.684 72.9018 115.594 72.9918L109.509 79.0676Z" fill="#C7CFE2"/>
<path d="M37.6958 70.3682C35.8546 64.3483 34.6682 58.1186 34.1605 51.8041C33.5739 43.0561 27.4535 35.9241 19.1802 35.9241C10.9069 35.9241 4.78763 43.0583 4.20103 51.8041C3.69328 58.1186 2.50692 64.3483 0.665723 70.3682C0.470299 70.9089 0.474959 71.5098 0.67878 72.0469C0.882601 72.584 1.27003 73.0161 1.76111 73.2545C5.25303 74.9846 8.95704 76.1669 12.7603 76.7652H25.6002C29.4024 76.162 33.1058 74.9799 36.5993 73.2545C37.0917 73.0176 37.4803 72.5856 37.6845 72.048C37.8887 71.5104 37.8927 70.9089 37.6958 70.3682Z" fill="#231F20"/>
<path d="M36.5994 73.2545C37.0917 73.0179 37.4803 72.5859 37.6845 72.0486C37.8887 71.5112 37.8928 70.9098 37.6959 70.3693C35.8542 64.3492 34.6678 58.1191 34.1605 51.8041C33.575 43.0561 27.4536 35.9241 19.1813 35.9241H19.1183C12.7709 35.9513 10.5264 45.278 15.9919 48.7579C16.1662 48.8709 16.3458 48.9741 16.5301 49.067L21.3164 76.7585H25.6013C29.4029 76.1575 33.1059 74.9776 36.5994 73.2545Z" fill="#231F20"/>
<path d="M34.4142 81.3143L27.599 77.6438C26.8993 77.267 26.3108 76.688 25.8995 75.9712C25.4883 75.2543 25.2705 74.4279 25.2705 73.5852V66.7784H12.6345V73.5852C12.6351 74.4279 12.4176 75.2544 12.0062 75.9712C11.5949 76.688 11.0061 77.2667 10.306 77.6427L3.49076 81.3143C2.44144 81.8795 1.55895 82.7485 0.942146 83.8235C0.325346 84.8986 -0.00138983 86.1373 -0.00146484 87.4011V100.808C-0.00146484 101.408 0.220045 101.984 0.614338 102.409C1.00863 102.834 1.54341 103.073 2.10102 103.073H35.7966C36.3542 103.073 36.889 102.834 37.2833 102.409C37.6776 101.984 37.8991 101.408 37.8991 100.808V87.4011C37.8997 86.1381 37.574 84.8996 36.9586 83.8246C36.3431 82.7497 35.4621 81.8806 34.4142 81.3143Z" fill="#E6AF78"/>
<path d="M18.9505 75.8523C21.1594 75.8502 23.3457 75.3745 25.3821 74.4528C25.3177 74.168 25.2796 73.877 25.2685 73.5841V66.7784H12.6326V73.5852C12.6214 73.8792 12.5834 74.1713 12.519 74.4572C14.5564 75.3748 16.7422 75.8489 18.9505 75.8523Z" fill="#D29B6E"/>
<path d="M34.4142 81.3142L29.5585 78.6993C28.4157 80.6109 26.846 82.1829 24.993 83.2716C23.1401 84.3604 21.0631 84.931 18.9525 84.931C16.8418 84.931 14.7649 84.3604 12.9119 83.2716C11.059 82.1829 9.48924 80.6109 8.34648 78.6993L3.49182 81.3153C2.44238 81.8805 1.55974 82.749 0.942756 83.824C0.325777 84.8991 -0.00117159 86.1382 -0.00146484 87.4022V100.809C-0.00146484 101.41 0.220045 101.985 0.614338 102.41C1.00863 102.835 1.54341 103.074 2.10102 103.074H35.7966C36.3542 103.074 36.889 102.835 37.2833 102.41C37.6776 101.985 37.8991 101.41 37.8991 100.809V87.4022C37.8999 86.139 37.5743 84.9003 36.9589 83.8251C36.3434 82.75 35.4623 81.8807 34.4142 81.3142Z" fill="#D5DCED"/>
<path d="M18.9504 71.316C15.8824 71.3156 12.9194 70.1128 10.6138 67.9325C8.30814 65.7522 6.81741 62.7434 6.41959 59.4664C6.3568 58.9959 6.43145 58.5161 6.63319 58.0934C6.83493 57.6707 7.15375 57.3262 7.54546 57.1075C8.89054 56.3793 10.1434 55.4681 11.2732 54.3964C12.4738 53.2523 13.453 51.8643 14.1546 50.3118C14.356 49.8409 14.7024 49.4595 15.1351 49.2325C15.5678 49.0054 16.06 48.9466 16.5284 49.066C21.7814 50.512 26.6668 53.2078 30.8253 56.9555C31.0705 57.1767 31.2638 57.4571 31.3896 57.7738C31.5155 58.0906 31.5703 58.4352 31.5496 58.7791C31.2984 62.1928 29.862 65.3789 27.5268 67.7025C25.1917 70.0261 22.1294 71.3165 18.9504 71.316Z" fill="#F0C087"/>
<path d="M30.829 56.9574C26.6707 53.2094 21.7853 50.5136 16.5321 49.068C16.0636 48.9483 15.5711 49.0068 15.1382 49.2339C14.7053 49.461 14.3587 49.8427 14.1573 50.3138C13.6525 51.4159 13.0048 52.4349 12.2336 53.3406V53.3484C11.9346 53.7188 11.6156 54.0699 11.278 54.3995C10.1481 55.4712 8.89533 56.3824 7.55025 57.1106C7.15864 57.3294 6.83989 57.6739 6.63817 58.0965C6.43645 58.5191 6.36175 58.9991 6.42438 59.4695C6.7817 62.3937 8.00969 65.1143 9.92408 67.2229C11.8385 69.3315 14.336 70.7145 17.0419 71.1643C15.6348 70.2375 14.4841 68.921 13.7098 67.3523C12.9354 65.7836 12.5658 64.0196 12.6393 62.2447V59.0094C13.1187 58.6289 13.6002 58.2495 14.0837 57.7841C15.2485 56.6658 16.2623 55.3776 17.0956 53.9566C21.113 55.2985 24.8436 57.4853 28.0716 60.3901C28.4711 60.7672 29.4613 61.7489 30.6198 62.9221C31.1325 61.6051 31.4479 60.209 31.5544 58.7855C31.5755 58.4408 31.5208 58.0956 31.3948 57.778C31.2688 57.4604 31.0749 57.1791 30.829 56.9574Z" fill="#E6AF78"/>
<path d="M1.28314 83.3059C0.453654 84.4823 0.00269138 85.9182 -0.00146484 87.3955V100.802C-0.00146484 101.403 0.220045 101.979 0.614338 102.404C1.00863 102.828 1.54341 103.067 2.10102 103.067H8.41901V91.636C8.41936 90.9559 8.27781 90.2847 8.00487 89.6714C7.73194 89.0581 7.33459 88.5184 6.84215 88.0928L1.28314 83.3059Z" fill="#C7CFE2"/>
<path d="M95.5395 78.2183L77.9196 71.3103L65.2836 75.8467L52.6476 71.3103L35.0277 78.2183C33.4026 78.8548 31.9987 80.0146 31.0066 81.5403C30.0145 83.0661 29.4824 84.8835 29.4824 86.7463V100.808C29.4824 101.408 29.7039 101.984 30.0982 102.409C30.4925 102.834 31.0273 103.073 31.5849 103.073H98.976C99.5336 103.073 100.068 102.834 100.463 102.409C100.857 101.984 101.078 101.408 101.078 100.808V86.7463C101.079 84.8843 100.548 83.0671 99.5571 81.5415C98.5662 80.0158 97.1635 78.8557 95.5395 78.2183Z" fill="url(#paint0_linear_0_541)"/>
<path d="M63.0776 80.3903L61.0718 103.076H69.4954L67.4897 80.3903H63.0776Z" fill="#231F20"/>
<path d="M67.4949 83.5067H63.0733C62.6829 83.5067 62.3086 83.3396 62.0326 83.0422C61.7566 82.7449 61.6016 82.3413 61.6016 81.9209V75.8545H68.9718V81.9209C68.9718 82.1295 68.9336 82.3364 68.8593 82.5291C68.785 82.7218 68.6761 82.8972 68.5389 83.0444C68.4017 83.1917 68.2389 83.3079 68.0597 83.3873C67.8805 83.4666 67.6886 83.5075 67.4949 83.5067Z" fill="#231F20"/>
<path d="M98.8187 80.5634C100.274 82.2403 101.084 84.4497 101.085 86.7453V100.808C101.085 101.408 100.864 101.984 100.469 102.409C100.075 102.834 99.5403 103.073 98.9827 103.073H88.4492V95.4851C88.4497 93.0786 89.3371 90.7708 90.9165 89.0688L98.8187 80.5634Z" fill="#A7A9AC"/>
<path d="M88.4491 24.5328V5.52807C88.4493 4.93223 88.3404 4.34235 88.1288 3.79182C87.9172 3.2413 87.6071 2.74126 87.216 2.31988C86.825 1.89851 86.3606 1.56424 85.8496 1.33619C85.3386 1.10814 84.791 0.990601 84.2379 0.990601H58.9659C54.4976 0.990901 50.2125 2.90351 47.053 6.30717C43.8936 9.71083 42.1187 14.3266 42.1187 19.1399V24.5328C42.1186 26.9712 42.4835 29.3935 43.1993 31.7067L43.9005 33.9716C44.1151 34.6654 44.2244 35.3918 44.2243 36.1231V37.2876H86.3435V36.1231C86.3434 35.3918 86.4527 34.6654 86.6673 33.9716L87.3684 31.7067C88.0842 29.3935 88.4492 26.9712 88.4491 24.5328Z" fill="#231F20"/>
<path d="M52.6479 10.2054C52.6482 12.6497 53.5498 14.9937 55.1543 16.7219C56.7589 18.4502 58.935 19.4208 61.2041 19.4208H62.3877L62.9596 37.2865H86.3435V36.122C86.3436 35.3907 86.4529 34.6643 86.6673 33.9705L87.3685 31.7056C88.0843 29.3924 88.4492 26.9701 88.4492 24.5317V5.52697C88.4492 4.32371 88.0055 3.16973 87.2157 2.31878C86.426 1.46784 85.3549 0.989802 84.2379 0.989502H61.2041C58.935 0.989502 56.7589 1.96018 55.1543 3.68843C53.5498 5.41668 52.6482 7.76118 52.6479 10.2054Z" fill="#231F20"/>
<path d="M77.9199 55.437H52.6479V75.8536H77.9199V55.437Z" fill="#E6AF78"/>
<path d="M52.6479 63.1068C56.4848 65.5118 60.8448 66.7789 65.2839 66.7789C69.7231 66.7789 74.083 65.5118 77.9199 63.1068V55.4347H52.6479V63.1068Z" fill="#D29B6E"/>
<path d="M65.2838 75.8524L58.5674 83.0888C58.355 83.3185 58.0993 83.4967 57.8175 83.6108C57.5358 83.7249 57.2346 83.7723 56.9343 83.7501C56.634 83.728 56.3416 83.6369 56.0769 83.4825C55.8122 83.3282 55.5814 83.1142 55.4 82.8555L48.4365 72.9705L50.2573 68.835C50.3838 68.5466 50.5654 68.29 50.7903 68.0824C51.0151 67.8749 51.2781 67.7211 51.562 67.6307C51.846 67.5402 52.1444 67.5153 52.4378 67.5577C52.7313 67.6001 53.0132 67.7089 53.2649 67.8767L65.2838 75.8524Z" fill="#A7A9AC"/>
<path d="M65.2836 75.8524L72 83.0888C72.2124 83.3185 72.4682 83.4967 72.7499 83.6108C73.0316 83.7249 73.3328 83.7723 73.6331 83.7501C73.9334 83.728 74.2258 83.6369 74.4905 83.4825C74.7552 83.3282 74.986 83.1142 75.1674 82.8555L82.1309 72.9705L80.3101 68.835C80.1836 68.5466 80.002 68.29 79.7771 68.0824C79.5523 67.8749 79.2893 67.7211 79.0054 67.6307C78.7215 67.5402 78.423 67.5153 78.1296 67.5577C77.8361 67.6001 77.5543 67.7089 77.3025 67.8767L65.2836 75.8524Z" fill="#A7A9AC"/>
<path d="M65.2837 62.2428C59.6983 62.2425 54.3417 59.8521 50.3923 55.5975C46.4429 51.3428 44.2241 45.5728 44.2241 39.556V36.898C44.2243 35.6948 44.6678 34.5409 45.4573 33.6898L47.2023 31.8109C47.9919 30.9594 48.4355 29.8051 48.4355 28.6016V23.1661C48.4325 22.6575 48.5893 22.1625 48.8806 21.7622C49.1719 21.3618 49.5804 21.0799 50.0397 20.9615C55.0204 19.6943 70.5199 16.6932 81.0671 25.0495C81.4024 25.3245 81.6732 25.6804 81.858 26.0884C82.0427 26.4965 82.1362 26.945 82.131 27.3989V28.6043C82.131 29.8079 82.5745 30.9622 83.3641 31.8136L85.1092 33.692C85.8985 34.5432 86.342 35.697 86.3422 36.9002V39.5582C86.3422 45.5746 84.1236 51.3443 80.1743 55.5986C76.2251 59.8528 70.8688 62.2428 65.2837 62.2428Z" fill="#F0C087"/>
<path d="M81.0682 25.0457C73.6495 19.1684 63.7952 18.9145 56.8601 19.723C54.5652 19.9886 52.2875 20.4047 50.0397 20.9688C49.5805 21.0869 49.1721 21.3687 48.8809 21.7689C48.5898 22.1692 48.4331 22.6639 48.4365 23.1723V28.6083C48.4365 29.2044 48.3276 29.7945 48.1158 30.3451C47.904 30.8958 47.5936 31.3962 47.2023 31.8176L45.4573 33.696C44.6677 34.5475 44.2241 35.7017 44.2241 36.9053V39.5633C44.2259 45.103 46.1101 50.4504 49.521 54.5962C52.9319 58.742 57.6336 61.3995 62.7386 62.0671C58.9646 57.8529 56.857 52.225 56.8601 46.3695V29.7872C56.86 28.6783 57.2365 27.6078 57.9188 26.7775C58.6011 25.9472 59.5419 25.4146 60.5636 25.2802C65.618 24.6007 74.8742 24.1873 82.131 28.6094V27.4035C82.1374 26.9483 82.0446 26.4975 81.86 26.088C81.6754 25.6785 81.4042 25.3217 81.0682 25.0457Z" fill="#E6AF78"/>
<path d="M31.7489 80.5634C30.2936 82.2403 29.4836 84.4497 29.4824 86.7453V100.808C29.4824 101.408 29.7039 101.984 30.0982 102.409C30.4925 102.834 31.0273 103.073 31.5849 103.073H42.1152V95.4851C42.1147 93.0786 41.2273 90.7708 39.648 89.0688L31.7489 80.5634Z" fill="#A7A9AC"/>
<defs>
<linearGradient id="paint0_linear_0_541" x1="29.4824" y1="87.1915" x2="101.078" y2="87.1915" gradientUnits="userSpaceOnUse">
<stop stop-color="#EF8431"/>
<stop offset="1" stop-color="#E71A86"/>
</linearGradient>
</defs>
</svg>
