<svg width="127" height="149" viewBox="0 0 127 149" fill="none" xmlns="http://www.w3.org/2000/svg">
<path d="M105.507 65.8427C105.238 65.8427 104.973 65.8494 104.712 65.8637C99.6574 66.1134 94.8987 68.5016 91.4693 72.509C88.0399 76.5165 86.2169 81.8196 86.3964 87.2666C86.5758 92.7136 88.7432 97.8646 92.4277 101.6C96.1122 105.336 101.016 107.354 106.074 107.217C111.132 107.08 115.936 104.799 119.441 100.869C122.947 96.9384 124.872 91.6769 124.797 86.2271C124.722 80.7772 122.654 75.5794 119.042 71.7626C115.43 67.9457 110.566 65.8186 105.507 65.8427ZM105.507 97.6968C104.943 97.6979 104.38 97.6479 103.824 97.5481C101.343 97.1063 99.0985 95.7011 97.5138 93.5978C95.9291 91.4945 95.1142 88.8389 95.2233 86.1325C95.3324 83.4262 96.3579 80.8568 98.1059 78.9094C99.8539 76.962 102.203 75.7719 104.711 75.5635C104.971 75.5416 105.236 75.5307 105.505 75.5314C108.216 75.561 110.806 76.7419 112.713 78.817C114.62 80.8922 115.69 83.6941 115.69 86.6141C115.69 89.5342 114.62 92.336 112.713 94.4112C110.806 96.4864 108.216 97.6673 105.505 97.6968H105.507Z" fill="url(#paint0_linear_0_580)"/>
<path opacity="0.5" d="M95.2183 86.6133C95.218 89.239 96.0831 91.7796 97.6595 93.7822C99.2359 95.7848 101.421 97.119 103.826 97.5478C103.165 100.74 102.133 103.83 100.755 106.745C96.2681 105.516 92.3417 102.588 89.6936 98.4966C87.0454 94.4053 85.8524 89.4236 86.3325 84.4629C86.8127 79.5021 88.934 74.8934 92.3086 71.4786C95.6833 68.0638 100.086 66.0714 104.712 65.8651V75.5632C102.129 75.7791 99.7162 77.0364 97.9562 79.0849C96.1962 81.1334 95.2185 83.8221 95.2183 86.6133Z" fill="#231F20"/>
<path d="M99.7341 62.8139V88.4579C99.7858 93.6623 98.8822 98.8264 97.0752 103.653C95.2682 108.48 92.5935 112.875 89.2048 116.585C85.816 120.295 81.7801 123.247 77.3288 125.271C72.8776 127.295 68.0989 128.351 63.2674 128.379C58.4359 128.408 53.647 127.407 49.1757 125.435C44.7043 123.463 40.6389 120.559 37.213 116.889C33.7871 113.219 31.0684 108.855 29.2129 104.05C27.3575 99.2442 26.402 94.0906 26.4014 88.8859V62.8139C26.4014 62.4395 26.4699 62.0689 26.6029 61.723C26.7359 61.3771 26.9309 61.0626 27.1767 60.7979C27.4225 60.5332 27.7143 60.3234 28.0355 60.1803C28.3566 60.0371 28.7008 59.9634 29.0484 59.9635H97.087C97.4346 59.9634 97.7788 60.0371 98.0999 60.1803C98.4211 60.3234 98.7129 60.5332 98.9587 60.7979C99.2045 61.0626 99.3995 61.3771 99.5325 61.723C99.6656 62.0689 99.7341 62.4395 99.7341 62.8139Z" fill="url(#paint1_linear_0_580)"/>
<g opacity="0.5">
<path opacity="0.5" d="M52.5992 123.73C52.1705 124.609 51.6695 125.444 51.1022 126.227C44.922 123.925 39.4248 119.887 35.1793 114.529C30.9338 109.171 28.0942 102.688 26.9541 95.7518C27.8586 96.1053 28.7205 96.5749 29.5213 97.1497C31.4923 98.5881 33.0374 100.607 33.9722 102.966C35.1545 102.765 36.3495 102.662 37.5464 102.66C45.8565 102.66 52.5792 107.627 53.888 114.736C54.4333 117.804 53.9781 120.981 52.5992 123.73Z" fill="#231F20"/>
<path opacity="0.5" d="M99.7341 80.7438V88.8859C99.7341 99.3614 95.871 109.408 88.9948 116.816C82.1185 124.223 72.7922 128.384 63.0677 128.384C53.3432 128.384 44.017 124.223 37.1407 116.816C30.2644 109.408 26.4014 99.3614 26.4014 88.8859V80.7438C26.4014 91.2193 30.2644 101.266 37.1407 108.673C44.017 116.08 53.3432 120.242 63.0677 120.242C72.7922 120.242 82.1185 116.08 88.9948 108.673C95.871 101.266 99.7341 91.2193 99.7341 80.7438Z" fill="#231F20"/>
<path opacity="0.5" d="M92.3943 135.527H33.7412V145.917H92.3943V135.527Z" fill="#231F20"/>
</g>
<path d="M48.2507 121.285C46.5267 124.84 42.6329 127.817 37.7383 128.862C30.43 130.427 23.6568 127.101 22.6108 121.429C22.6003 121.38 22.5941 121.334 22.5878 121.285C21.649 115.662 26.7044 109.881 33.9486 108.331C41.2579 106.767 48.0352 110.093 49.077 115.764C49.4021 117.652 49.1102 119.603 48.2507 121.285Z" fill="#E2780E"/>
<path d="M48.2504 121.285C46.5263 124.84 42.6325 127.817 37.7379 128.862C30.4297 130.427 23.6565 127.101 22.6105 121.429C22.6 121.38 22.5937 121.334 22.5874 121.285H48.2504Z" fill="#A85000"/>
<path d="M37.7382 128.862C30.4321 130.426 23.6599 127.1 22.6129 121.43C22.4739 120.679 22.4414 119.91 22.5162 119.148C24.6681 123.475 30.596 125.788 36.9182 124.433C43.2404 123.079 47.9006 118.5 48.3526 113.615C48.6916 114.289 48.9344 115.015 49.0727 115.767C50.1218 121.434 45.0454 127.297 37.7382 128.862Z" fill="#A85000"/>
<path d="M27.376 119.439C26.9778 120.08 26.5465 120.697 26.084 121.285C21.8948 126.608 15.8259 128.605 11.8028 125.702C10.3645 124.639 9.30367 123.082 8.79415 121.285C7.63778 117.449 8.42206 112.323 11.2205 107.809C15.3613 101.128 22.3331 98.3298 26.7936 101.543C31.254 104.755 31.521 112.767 27.376 119.439Z" fill="#E2780E"/>
<path d="M26.0838 121.285C21.8946 126.608 15.8257 128.605 11.8026 125.702C10.3643 124.639 9.30346 123.082 8.79395 121.285H26.0838Z" fill="#A85000"/>
<path d="M27.3758 119.44C23.236 126.112 16.2642 128.919 11.8027 125.706C11.2112 125.281 10.6828 124.762 10.2353 124.167C14.598 125.588 20.3073 122.707 23.891 116.931C27.4746 111.154 27.7616 104.371 24.8749 100.573C25.5566 100.79 26.2039 101.117 26.7945 101.543C31.256 104.752 31.5156 112.769 27.3758 119.44Z" fill="#A85000"/>
<path d="M2.64355 126.219V131.381L33.6363 137.722H92.506L123.499 131.381V126.219H2.64355Z" fill="url(#paint2_linear_0_580)"/>
<path d="M123.493 124.059H104.144C103.613 124.059 103.103 124.287 102.727 124.692C102.352 125.097 102.141 125.646 102.141 126.218C102.141 126.791 102.352 127.339 102.727 127.744C103.103 128.149 103.613 128.376 104.144 128.376H121.49V129.594L92.3125 135.563H33.8255L4.6482 129.594V128.376H96.7036C97.235 128.376 97.7446 128.149 98.1203 127.744C98.4961 127.339 98.7072 126.791 98.7072 126.218C98.7072 125.646 98.4961 125.097 98.1203 124.692C97.7446 124.287 97.235 124.059 96.7036 124.059H83.7785C89.6121 120.075 94.3521 114.484 97.5088 107.866C100.048 108.98 102.765 109.549 105.507 109.542C108.462 109.543 111.385 108.88 114.089 107.598C116.794 106.315 119.221 104.439 121.215 102.091C123.21 99.7422 124.729 96.9716 125.676 93.9559C126.622 90.9402 126.975 87.7454 126.712 84.5746C126.449 81.4039 125.577 78.3269 124.149 75.5395C122.722 72.7521 120.772 70.3153 118.422 68.3844C116.073 66.4535 113.376 65.0706 110.503 64.3241C107.631 63.5776 104.645 63.4841 101.737 64.0487V62.814C101.736 61.4857 101.245 60.2123 100.373 59.273C99.5014 58.3336 98.3193 57.805 97.0862 57.8032H87.6093C87.0778 57.8032 86.5682 58.0305 86.1924 58.4352C85.8166 58.84 85.6056 59.3889 85.6056 59.9614C85.6056 60.5338 85.8166 61.0827 86.1924 61.4875C86.5682 61.8923 87.0778 62.1201 87.6093 62.1201H97.0862C97.257 62.1204 97.4206 62.1934 97.5412 62.3236C97.6618 62.4537 97.7296 62.6301 97.7296 62.814V66.4834H28.4053V62.814C28.4055 62.63 28.4735 62.4537 28.5943 62.3236C28.7151 62.1934 28.8788 62.1204 29.0497 62.1201H80.1654C80.6968 62.1201 81.2064 61.8923 81.5822 61.4875C81.9579 61.0827 82.1691 60.5338 82.1691 59.9614C82.1691 59.3889 81.9579 58.84 81.5822 58.4352C81.2064 58.0305 80.6968 57.8032 80.1654 57.8032H29.0497C27.8164 57.8047 26.634 58.333 25.7619 59.2724C24.8898 60.2118 24.3993 61.4855 24.3979 62.814V88.8837C24.3979 92.1223 24.7475 95.3501 25.4397 98.5017C22.1809 97.4542 18.2913 98.275 14.7465 100.891C14.3078 101.214 14.0062 101.712 13.9082 102.275C13.8103 102.838 13.9239 103.419 14.224 103.892C14.5241 104.364 14.9862 104.689 15.5087 104.795C16.0311 104.9 16.571 104.778 17.0098 104.455C17.9653 103.666 19.0558 103.088 20.2189 102.753C21.3819 102.419 22.5948 102.334 23.7882 102.505L16.4884 114.264C16.3421 114.5 16.2403 114.764 16.1889 115.042C16.1375 115.32 16.1374 115.606 16.1887 115.884C16.2399 116.162 16.3415 116.427 16.4876 116.663C16.6337 116.898 16.8215 117.101 17.0402 117.258C17.259 117.416 17.5044 117.525 17.7624 117.581C18.0205 117.636 18.2862 117.636 18.5443 117.581C18.8024 117.526 19.0479 117.416 19.2667 117.259C19.4856 117.101 19.6735 116.899 19.8198 116.664L27.1207 104.896C27.9296 106.286 28.3437 107.9 28.3117 109.54V109.553C28.2619 112.662 27.3555 115.685 25.7077 118.239C24.773 119.762 23.6165 121.113 22.2828 122.24C21.419 122.974 20.4697 123.583 19.4592 124.052H13.1296C13.0571 124.005 12.9846 123.958 12.9131 123.906C9.57643 121.505 9.36615 115.299 12.4326 109.773C12.5677 109.53 12.657 109.26 12.6954 108.979C12.7337 108.699 12.7205 108.413 12.6563 108.138C12.5921 107.863 12.4783 107.605 12.3213 107.377C12.1643 107.149 11.9673 106.957 11.7415 106.812C11.5156 106.666 11.2654 106.57 11.005 106.529C10.7446 106.487 10.4793 106.502 10.2241 106.571C9.96886 106.64 9.72875 106.763 9.51752 106.932C9.30629 107.101 9.12807 107.313 8.99298 107.557C7.08839 110.865 6.15179 114.715 6.30494 118.605C6.39842 120.514 6.89036 122.376 7.74412 124.052H2.64137C2.10997 124.052 1.60029 124.279 1.22453 124.684C0.848768 125.088 0.637695 125.637 0.637695 126.21V131.373C0.637609 131.875 0.800456 132.363 1.09813 132.75C1.3958 133.137 1.80958 133.4 2.26814 133.494L31.7346 139.522V145.91C31.7346 146.482 31.9456 147.031 32.3214 147.436C32.6971 147.841 33.2068 148.068 33.7382 148.068H92.3914C92.9228 148.068 93.4324 147.841 93.8082 147.436C94.1839 147.031 94.3951 146.482 94.3951 145.91V139.523L123.865 133.494C124.323 133.4 124.737 133.137 125.034 132.749C125.331 132.362 125.494 131.875 125.494 131.373V126.21C125.492 125.639 125.281 125.093 124.906 124.69C124.531 124.287 124.023 124.06 123.493 124.059ZM101.733 78.6703C103.01 77.9659 104.435 77.631 105.868 77.6982C107.302 77.7654 108.694 78.2323 109.91 79.0535C111.125 79.8747 112.122 81.0219 112.802 82.3828C113.482 83.7436 113.823 85.2717 113.79 86.8168C113.757 88.362 113.352 89.8712 112.615 91.1973C111.878 92.5233 110.834 93.6204 109.585 94.3811C108.336 95.1418 106.925 95.5401 105.491 95.5368C104.056 95.5335 102.646 95.1287 101.401 94.3623C101.621 92.5454 101.732 90.7151 101.733 88.8826V78.6703ZM105.504 68.0029C110.062 68.0412 114.422 70.0191 117.633 73.5052C120.844 76.9913 122.646 81.703 122.646 86.6139C122.646 91.5248 120.844 96.2365 117.633 99.7226C114.422 103.209 110.062 105.187 105.504 105.225C103.327 105.229 101.171 104.786 99.1488 103.919C99.7496 102.242 100.248 100.524 100.639 98.777C102.464 99.6233 104.452 99.9805 106.433 99.8182C108.414 99.6559 110.329 98.9786 112.014 97.8448C113.699 96.711 115.103 95.1543 116.108 93.3079C117.112 91.4614 117.686 89.3802 117.78 87.2426C117.874 85.1049 117.486 82.9744 116.649 81.0336C115.812 79.0928 114.551 77.3994 112.974 76.0985C111.396 74.7976 109.549 73.9279 107.592 73.5638C105.634 73.1998 103.624 73.3525 101.733 74.0084V68.4502C102.972 68.1525 104.238 68.0025 105.508 68.0029H105.504ZM97.7243 70.8002V88.8826C97.7369 93.7884 96.8462 98.6481 95.1038 103.181C93.3614 107.713 90.802 111.829 87.5735 115.289C83.9388 119.197 79.5475 122.192 74.7136 124.059H51.4212C50.7747 123.811 50.1324 123.545 49.4964 123.253C50.9429 120.935 51.4976 118.102 51.0438 115.352V115.342V115.331C50.6613 113.55 49.8842 111.897 48.779 110.511C47.6737 109.125 46.2733 108.048 44.6974 107.372C41.1873 105.751 37.296 105.346 33.5627 106.214C33.2032 106.291 32.8478 106.379 32.4957 106.475C29.8109 101.063 28.4073 95.0203 28.4094 88.8837V70.8002H97.7243ZM29.0381 120.639C30.8439 117.785 31.9528 114.486 32.2623 111.048C32.9403 110.8 33.6324 110.6 34.3343 110.448C39.4328 109.357 44.3484 111.014 46.309 114.154L33.4313 116.911C33.1732 116.967 32.9277 117.076 32.7089 117.234C32.49 117.391 32.3022 117.594 32.156 117.829C32.0097 118.065 31.908 118.329 31.8567 118.607C31.8053 118.885 31.8052 119.171 31.8565 119.449C31.9077 119.727 32.0094 119.992 32.1555 120.227C32.3017 120.463 32.4895 120.665 32.7083 120.823C32.927 120.981 33.1724 121.09 33.4305 121.145C33.6886 121.201 33.9542 121.201 34.2123 121.146L47.0985 118.386C46.7632 119.967 46.0099 121.409 44.9298 122.538L44.9203 122.548C44.4134 123.103 43.8615 123.609 43.2709 124.058H26.4268C27.4042 123.017 28.281 121.872 29.0434 120.639H29.0381ZM90.3846 143.76H35.7451V139.881H90.3908L90.3846 143.76Z" fill="#231F20"/>
<path d="M68.3094 43.8576C67.8596 44.1624 67.5406 44.6469 67.4226 45.2051C67.3046 45.7633 67.3973 46.3495 67.6803 46.8341C67.9632 47.3187 68.4134 47.6625 68.9316 47.7896C69.4498 47.9167 69.9936 47.8169 70.4435 47.512C69.3214 35.7592 71.5658 23.9177 76.875 13.5794C76.8813 11.074 76.2938 8.60851 75.1684 6.41599C74.0429 4.22347 72.4166 2.37652 70.4435 1.05021C69.9936 0.745367 69.4498 0.645528 68.9316 0.772633C68.4134 0.899738 67.9632 1.24352 67.6803 1.72812C67.3973 2.21272 67.3046 2.79833 67.4226 3.35655C67.5406 3.91477 67.8596 4.39978 68.3094 4.70463C69.7048 5.64689 70.8551 6.95557 71.6525 8.50779C72.4498 10.06 72.8681 11.8048 72.8681 13.5789C72.8681 15.3529 72.4498 17.0982 71.6525 18.6505C70.8551 20.2027 69.7048 21.5108 68.3094 22.4531C68.0275 22.6514 67.7959 22.9225 67.6355 23.2416C67.4752 23.5606 67.3912 23.9178 67.3912 24.2806C67.3912 24.6433 67.4752 25.0005 67.6355 25.3195C67.7959 25.6386 68.0275 25.9091 68.3094 26.1075C69.7045 27.0501 70.8546 28.3589 71.6517 29.9112C72.4489 31.4635 72.8671 33.2088 72.8671 34.9828C72.8671 36.7568 72.4489 38.5016 71.6517 40.0539C70.8546 41.6062 69.7045 42.915 68.3094 43.8576Z" fill="#231F20"/>
<path d="M82.4121 43.8574C81.9623 44.1622 81.6433 44.6467 81.5253 45.2049C81.4073 45.7631 81.5 46.3493 81.783 46.8339C82.066 47.3185 82.5161 47.6623 83.0343 47.7894C83.5525 47.9165 84.0963 47.8166 84.5462 47.5118C86.5146 46.1802 88.1371 44.3323 89.2617 42.141C90.3863 39.9498 90.9762 37.487 90.9762 34.9831C90.9762 32.4793 90.3863 30.016 89.2617 27.8247C88.1371 25.6335 86.5146 23.7855 84.5462 22.4539C84.3235 22.2978 84.0742 22.1912 83.8128 22.1399C83.5514 22.0885 83.2832 22.094 83.0237 22.1554C82.7642 22.2167 82.5186 22.3331 82.3012 22.4976C82.0838 22.6622 81.899 22.8714 81.7575 23.1136C81.616 23.3559 81.5207 23.6264 81.477 23.9087C81.4333 24.1911 81.4422 24.4795 81.5031 24.7581C81.564 25.0367 81.6757 25.2995 81.8318 25.5311C81.9879 25.7627 82.1851 25.9585 82.4121 26.1073C83.807 27.0501 84.9568 28.3593 85.7538 29.9115C86.5508 31.4638 86.9689 33.2087 86.9689 34.9826C86.9689 36.7565 86.5508 38.5008 85.7538 40.0531C84.9568 41.6054 83.807 42.9146 82.4121 43.8574Z" fill="#231F20"/>
<path d="M53.0526 43.8576C52.6027 44.1624 52.2837 44.6469 52.1657 45.2051C52.0478 45.7633 52.1404 46.3495 52.4234 46.8341C52.7064 47.3187 53.1565 47.6625 53.6747 47.7896C54.1929 47.9167 54.7368 47.8168 55.1867 47.512C57.1553 46.1805 58.7779 44.332 59.9027 42.1407C61.0274 39.9493 61.6174 37.4868 61.6174 34.9828C61.6174 32.4788 61.0274 30.0157 59.9027 27.8244C58.7779 25.633 57.1553 23.7845 55.1867 22.453C54.7368 22.1482 54.1929 22.0484 53.6747 22.1755C53.1565 22.3026 52.7064 22.6464 52.4234 23.131C52.1404 23.6156 52.0478 24.2017 52.1657 24.7599C52.2837 25.3182 52.6027 25.8026 53.0526 26.1075C54.4477 27.0501 55.5977 28.3589 56.3949 29.9112C57.1921 31.4635 57.6102 33.2088 57.6102 34.9828C57.6102 36.7568 57.1921 38.5016 56.3949 40.0539C55.5977 41.6061 54.4477 42.915 53.0526 43.8576Z" fill="#231F20"/>
<defs>
<linearGradient id="paint0_linear_0_580" x1="86.3843" y1="86.533" x2="124.799" y2="86.533" gradientUnits="userSpaceOnUse">
<stop stop-color="#EF8431"/>
<stop offset="1" stop-color="#E71A86"/>
</linearGradient>
<linearGradient id="paint1_linear_0_580" x1="26.4014" y1="94.1718" x2="99.7362" y2="94.1718" gradientUnits="userSpaceOnUse">
<stop stop-color="#EF8431"/>
<stop offset="1" stop-color="#E71A86"/>
</linearGradient>
<linearGradient id="paint2_linear_0_580" x1="2.64355" y1="131.971" x2="123.499" y2="131.971" gradientUnits="userSpaceOnUse">
<stop stop-color="#EF8431"/>
<stop offset="1" stop-color="#E71A86"/>
</linearGradient>
</defs>
</svg>
