<svg width="106" height="100" viewBox="0 0 106 100" fill="none" xmlns="http://www.w3.org/2000/svg">
<path d="M30.8907 47.8459L16.2462 56.2956C14.8182 57.1237 13.6323 58.3113 12.8067 59.7399C11.9811 61.1685 11.5445 62.7881 11.5405 64.4377C11.5468 66.0843 11.9856 67.7006 12.8129 69.1247C13.6402 70.5488 14.8271 71.7309 16.255 72.5532C17.6829 73.3755 19.3018 73.8092 20.95 73.8106C22.5981 73.812 24.2178 73.3812 25.6471 72.5614L40.2916 64.1118L30.8907 47.8459ZM27.0127 67.4259L23.7613 69.3098C22.4658 70.0545 20.9273 70.2553 19.4839 69.8677C18.0404 69.48 16.8099 68.5359 16.0627 67.2426C15.8139 66.8117 15.7466 66.2997 15.8756 65.8192C16.0046 65.3387 16.3194 64.9292 16.7507 64.6806C17.182 64.432 17.6945 64.3645 18.1755 64.4934C18.6564 64.6223 19.0664 64.937 19.3152 65.3679C19.5663 65.7978 19.9775 66.1109 20.4591 66.2387C20.9406 66.3666 21.4532 66.2988 21.8848 66.0501L25.1373 64.1753C25.3509 64.0522 25.5866 63.9725 25.8311 63.9404C26.0755 63.9083 26.3239 63.9246 26.562 63.9885C26.8002 64.0523 27.0234 64.1624 27.219 64.3124C27.4145 64.4624 27.5786 64.6493 27.7018 64.8626C27.825 65.076 27.9049 65.3115 27.937 65.5558C27.9691 65.8 27.9528 66.0481 27.8889 66.286C27.825 66.5239 27.7148 66.7469 27.5647 66.9423C27.4145 67.1377 27.2273 67.3018 27.0138 67.4249L27.0127 67.4259ZM33.527 63.6765C33.2052 63.8602 32.8361 63.9446 32.4663 63.919C32.0964 63.8934 31.7425 63.7589 31.4491 63.5325C31.1557 63.3062 30.9359 62.9982 30.8176 62.6472C30.6993 62.2962 30.6878 61.918 30.7844 61.5604C30.881 61.2029 31.0814 60.8818 31.3604 60.638C31.6394 60.3941 31.9844 60.2383 32.352 60.1902C32.7196 60.142 33.0932 60.2036 33.4257 60.3674C33.7582 60.5312 34.0347 60.7895 34.2203 61.1101C34.4681 61.5428 34.5343 62.056 34.4044 62.5373C34.2745 63.0187 33.959 63.429 33.527 63.6785V63.6765Z" fill="url(#paint0_linear_0_455)"/>
<path d="M44.0444 70.6096L40.7919 72.4938L38.9155 69.2348L42.168 67.3603L44.0444 70.6096Z" fill="url(#paint1_linear_0_455)"/>
<path d="M43.6787 92.509C43.2517 92.7553 42.7803 92.915 42.2914 92.9792C41.8026 93.0434 41.3058 93.0107 40.8296 92.8831C40.3534 92.7554 39.907 92.5353 39.516 92.2352C39.125 91.9351 38.797 91.561 38.5508 91.1342L29.1499 74.8684L35.6643 71.1189C43.7663 85.1342 44.9109 87.1246 45.036 87.3558L45.0454 87.3652C45.0508 87.37 45.0541 87.3765 45.0547 87.3837C45.3016 87.8104 45.4618 88.2816 45.5263 88.7703C45.5907 89.2589 45.5581 89.7553 45.4303 90.2313C45.3025 90.7073 45.082 91.1535 44.7815 91.5443C44.4809 91.9351 44.1061 92.263 43.6787 92.509Z" fill="url(#paint2_linear_0_455)"/>
<path d="M81.5335 55.334C81.1856 55.3602 80.8409 55.4181 80.5036 55.5069L57.3818 15.4962C57.6078 15.2253 57.8197 14.9431 58.0167 14.6505C58.1861 14.3705 58.4266 14.1405 58.7139 13.9835C59.0012 13.8266 59.325 13.7484 59.6523 13.757C59.9781 13.756 60.2983 13.8423 60.5792 14.0072C60.8601 14.1721 61.0916 14.4094 61.2494 14.6942L83.1118 52.523C83.2744 52.8046 83.3609 53.1235 83.3629 53.4486C83.3649 53.7736 83.2822 54.0937 83.123 54.3772C82.9639 54.6607 82.7337 54.8977 82.455 55.0655C82.1763 55.2332 81.8588 55.3258 81.5335 55.334Z" fill="url(#paint3_linear_0_455)"/>
<path d="M76.597 56.2767L43.8138 62.6986L33.8447 45.4421L54.8795 18.676L76.597 56.2767Z" fill="url(#paint4_linear_0_455)"/>
<path d="M28.7634 63.1909C29.1121 62.9897 29.3933 62.69 29.5714 62.3292C29.7495 61.9684 29.8165 61.563 29.7639 61.1641C29.7114 60.7653 29.5416 60.3908 29.2761 60.0883C29.0106 59.7858 28.6614 59.569 28.2725 59.4648C27.8835 59.3607 27.4724 59.3742 27.0911 59.5035C26.7098 59.6328 26.3754 59.8719 26.1303 60.191C25.8851 60.5102 25.7402 60.8949 25.7138 61.2963C25.6875 61.6978 25.7809 62.098 25.9822 62.4464C26.2523 62.9134 26.697 63.2542 27.2185 63.3938C27.74 63.5334 28.2957 63.4604 28.7634 63.1909Z" fill="#231F20"/>
<path d="M20.42 77.2313L30.6736 94.9752C31.2083 95.9005 31.9203 96.7115 32.7687 97.362C33.6172 98.0124 34.5855 98.4895 35.6185 98.7661C36.6516 99.0426 37.7289 99.1133 38.7893 98.9738C39.8496 98.8343 40.872 98.4876 41.7982 97.9534C42.7244 97.4192 43.5362 96.7079 44.1872 95.8603C44.8383 95.0126 45.3159 94.045 45.5927 93.013C45.8695 91.9809 45.9401 90.9046 45.8005 89.8453C45.6609 88.786 45.3139 87.7644 44.7791 86.8391L38.6714 76.2681L43.9608 73.2164C44.4282 72.9465 44.7694 72.5022 44.9091 71.9811C45.0489 71.4601 44.9759 70.905 44.7062 70.4377L42.0583 65.8553C42.3711 65.7949 44.4497 65.3875 81.0567 58.2127C82.0985 58.155 83.1082 57.8317 83.9894 57.2735C84.8706 56.7152 85.594 55.9408 86.0905 55.0239C86.587 54.1071 86.8402 53.0784 86.8258 52.036C86.8115 50.9937 86.53 49.9726 86.0084 49.0697L79.2408 37.3602L83.5659 30.8176C83.774 30.5021 83.8902 30.1351 83.9014 29.7575C83.9126 29.3799 83.8185 29.0066 83.6295 28.6794L79.5577 21.6329C79.3681 21.306 79.0914 21.0381 78.7585 20.8591C78.4255 20.6802 78.0493 20.5972 77.6719 20.6194L69.8388 21.089L62.3269 8.08925C61.8013 7.16954 61.0432 6.40378 60.1285 5.86847C59.2138 5.33315 58.1746 5.04708 57.1146 5.03879H57.0364C56.011 5.03421 55.0013 5.28992 54.1018 5.78176C53.2024 6.2736 52.4427 6.9854 51.8939 7.85074L25.2966 41.699L8.00533 51.6724C4.8846 53.4723 2.56208 56.3861 1.50523 59.8279C0.44837 63.2696 0.73561 66.9835 2.30915 70.2221C3.88269 73.4607 6.62571 75.9839 9.98615 77.2834C13.3466 78.5829 17.075 78.5624 20.421 77.2262L20.42 77.2313ZM41.2535 88.8742C41.7935 89.8087 41.9398 90.9191 41.6602 91.9613C41.3807 93.0035 40.6981 93.8921 39.7628 94.4315C38.8275 94.971 37.716 95.1172 36.6728 94.8379C35.6296 94.5586 34.7402 93.8767 34.2002 92.9423L24.0196 75.3235L31.0729 71.2554L41.2535 88.8742ZM36.6354 72.7437L34.5995 69.2213L38.1261 67.1864L40.1621 70.7095L36.6354 72.7437ZM76.6659 24.7561L79.4805 29.625L76.9713 33.4223L72.1218 25.0291L76.6659 24.7561ZM55.3038 10.0837C55.4875 9.78229 55.7465 9.53373 56.0554 9.36263C56.3643 9.19152 56.7124 9.10375 57.0656 9.10785C57.4188 9.11195 57.7649 9.20779 58.0697 9.38602C58.3746 9.56425 58.6278 9.81879 58.8044 10.1244L82.487 51.1047C82.6634 51.4102 82.7572 51.7563 82.7592 52.109C82.7612 52.4617 82.6714 52.8091 82.4985 53.1167C82.3257 53.4242 82.0757 53.6816 81.7732 53.8635C81.4707 54.0454 81.1262 54.1455 80.7732 54.1541C80.3969 54.1899 80.0237 54.2534 79.6567 54.3438L54.6064 10.995C55.1266 10.3191 55.1891 10.2545 55.2986 10.0837H55.3038ZM51.896 14.4434L75.4326 55.1717L39.9119 62.132L29.1057 43.4476L51.896 14.4434ZM6.31859 69.0942C5.6494 67.9376 5.21499 66.6607 5.04013 65.3363C4.86527 64.0119 4.95342 62.6662 5.29954 61.3758C5.64566 60.0855 6.24296 58.8759 7.05729 57.8163C7.87162 56.7568 8.887 55.8681 10.0454 55.2009L25.9148 46.0472L36.0944 63.664L20.225 72.8177C17.8855 74.1645 15.1066 74.5287 12.4984 73.8307C9.89018 73.1326 7.66578 71.4291 6.31343 69.0942H6.31859Z" fill="#231F20"/>
<path d="M22.456 64.4859C22.3223 64.2545 22.1443 64.0518 21.9322 63.8891C21.7201 63.7265 21.478 63.6071 21.2197 63.538C20.9614 63.4688 20.6921 63.4512 20.427 63.4861C20.1619 63.521 19.9062 63.6076 19.6747 63.7411L16.148 65.775C15.6802 66.044 15.1247 66.1168 14.6034 65.9772C14.082 65.8376 13.6373 65.4972 13.3668 65.0305C13.0968 64.5633 12.6521 64.2223 12.1305 64.0826C11.6089 63.943 11.0531 64.0161 10.5855 64.2858C10.1178 64.5555 9.77657 64.9999 9.63678 65.521C9.497 66.0421 9.57015 66.5972 9.84013 67.0644C10.6516 68.4634 11.9848 69.4841 13.548 69.9028C15.1111 70.3216 16.7767 70.1042 18.1798 69.2984L21.7064 67.2645C22.1746 66.9953 22.5166 66.5514 22.6572 66.0303C22.7977 65.5092 22.7254 64.9537 22.456 64.4859Z" fill="#231F20"/>
<path d="M102.1 9.39111L90.7547 15.6995C90.2829 15.9619 89.9347 16.4006 89.7868 16.9195C89.6389 17.4384 89.7034 17.9948 89.9661 18.4662C90.2287 18.9376 90.668 19.2854 91.1874 19.4332C91.7067 19.581 92.2636 19.5163 92.7354 19.2539L104.08 12.9458C104.314 12.8159 104.52 12.6413 104.686 12.4319C104.852 12.2225 104.975 11.9823 105.049 11.7253C105.122 11.4683 105.144 11.1997 105.113 10.9343C105.082 10.6688 105 10.412 104.87 10.1786C104.74 9.94511 104.565 9.73939 104.355 9.57342C104.146 9.40744 103.905 9.28429 103.648 9.21108C103.129 9.06323 102.572 9.12768 102.1 9.39009V9.39111Z" fill="#231F20"/>
<path d="M100.907 30.4581L93.0409 28.3523C92.5194 28.2127 91.9637 28.2857 91.496 28.5554C91.0284 28.8252 90.6872 29.2696 90.5474 29.7907C90.4077 30.3118 90.4808 30.8669 90.7508 31.3341C91.0208 31.8013 91.4655 32.1421 91.987 32.2818L99.8545 34.3876C100.374 34.5217 100.926 34.4454 101.39 34.175C101.853 33.9047 102.191 33.4622 102.33 32.9441C102.469 32.426 102.397 31.8742 102.131 31.4086C101.864 30.943 101.425 30.6014 100.907 30.4581Z" fill="#231F20"/>
<path d="M81.1383 1.99667L79.0283 9.85662C78.8997 10.3741 78.9794 10.9214 79.2505 11.3807C79.5215 11.84 79.9621 12.1748 80.4776 12.3129C80.9931 12.451 81.5423 12.3813 82.007 12.1191C82.4717 11.8569 82.8148 11.4229 82.9626 10.9106L85.0715 3.05061C85.1407 2.79259 85.1585 2.52342 85.1237 2.25856C85.0888 1.9937 85.0021 1.73832 84.8684 1.50694C84.7348 1.27556 84.5569 1.0726 84.3448 0.909921C84.1327 0.747245 83.8906 0.627982 83.6324 0.558776C83.3741 0.489571 83.1047 0.47185 82.8396 0.506651C82.5745 0.541452 82.3189 0.628173 82.0873 0.761683C81.8557 0.895192 81.6526 1.07282 81.4898 1.28471C81.327 1.49661 81.2075 1.73865 81.1383 1.99667Z" fill="#231F20"/>
<defs>
<linearGradient id="paint0_linear_0_455" x1="11.5405" y1="60.8283" x2="40.2916" y2="60.8283" gradientUnits="userSpaceOnUse">
<stop stop-color="#EF8431"/>
<stop offset="1" stop-color="#E71A86"/>
</linearGradient>
<linearGradient id="paint1_linear_0_455" x1="38.9155" y1="69.927" x2="44.0444" y2="69.927" gradientUnits="userSpaceOnUse">
<stop stop-color="#EF8431"/>
<stop offset="1" stop-color="#E71A86"/>
</linearGradient>
<linearGradient id="paint2_linear_0_455" x1="29.1499" y1="82.065" x2="45.5584" y2="82.065" gradientUnits="userSpaceOnUse">
<stop stop-color="#EF8431"/>
<stop offset="1" stop-color="#E71A86"/>
</linearGradient>
<linearGradient id="paint3_linear_0_455" x1="57.3818" y1="34.6316" x2="83.3629" y2="34.6316" gradientUnits="userSpaceOnUse">
<stop stop-color="#EF8431"/>
<stop offset="1" stop-color="#E71A86"/>
</linearGradient>
<linearGradient id="paint4_linear_0_455" x1="33.8447" y1="40.6873" x2="76.597" y2="40.6873" gradientUnits="userSpaceOnUse">
<stop stop-color="#EF8431"/>
<stop offset="1" stop-color="#E71A86"/>
</linearGradient>
</defs>
</svg>
