<svg width="106" height="115" viewBox="0 0 106 115" fill="none" xmlns="http://www.w3.org/2000/svg">
<path d="M84.4801 44.5516C84.4793 38.6811 83.0602 32.9122 80.3622 27.8117C77.6643 22.7112 73.7804 18.455 69.0925 15.4617C64.4047 12.4683 59.0743 10.8405 53.6256 10.7389C48.1768 10.6374 42.7974 12.0658 38.0163 14.8827C33.2351 17.6997 29.2169 21.8084 26.3568 26.8053C23.4967 31.8023 21.8932 37.5152 21.704 43.3821C21.5148 49.249 22.7463 55.0676 25.2776 60.2663C27.8088 65.465 31.5526 69.8645 36.1407 73.0321C37.5698 73.9866 38.7524 75.314 39.5792 76.8911C40.4061 78.4683 40.8505 80.2445 40.8713 82.0556V89.6487C40.8713 91.1438 41.4227 92.5777 42.4041 93.6349C43.3855 94.6921 44.7165 95.286 46.1044 95.286H60.0586C60.7459 95.2861 61.4264 95.1401 62.0614 94.8569C62.6964 94.5736 63.2733 94.1584 63.7593 93.6349C64.2453 93.1114 64.6307 92.4903 64.8937 91.8063C65.1566 91.1223 65.2919 90.389 65.2917 89.6487V82.2121C65.3137 80.3575 65.768 78.5382 66.613 76.9221C67.458 75.306 68.6665 73.9451 70.1275 72.9636C74.5339 69.8978 78.1565 65.6908 80.6639 60.7274C83.1712 55.764 84.4833 50.2023 84.4801 44.5516Z" fill="url(#paint0_linear_0_523)"/>
<path d="M44.3604 106.56C44.3604 108.056 44.9117 109.489 45.8931 110.547C46.8745 111.604 48.2055 112.198 49.5934 112.198H56.5705C57.9584 112.198 59.2895 111.604 60.2709 110.547C61.2523 109.489 61.8037 108.056 61.8037 106.56V95.2859H44.3604V106.56Z" fill="#EBEBEB"/>
<path d="M95.2824 24.6731L100.764 20.2451L94.4845 11.2254L89.0002 15.6567C88.448 16.102 87.7858 16.361 87.0971 16.401C86.4084 16.441 85.7241 16.2599 85.1307 15.8812C84.5373 15.5025 84.0614 14.9432 83.7631 14.2733C83.4648 13.6033 83.3575 12.8534 83.4548 12.1179L84.423 4.81015L74.0619 3.21545L73.0938 10.5232C72.9962 11.2589 72.6983 11.9471 72.2377 12.5005C71.7772 13.0539 71.1747 13.4478 70.5063 13.6324C69.838 13.817 69.1339 13.7837 68.483 13.5373C67.8321 13.2909 67.2636 12.8422 66.8494 12.2478L62.738 6.34015L54.3648 13.1038L58.4762 19.012C58.89 19.6066 59.1309 20.3198 59.1683 21.0618C59.2058 21.8038 59.0381 22.5413 58.6866 23.1807C58.3351 23.82 57.8155 24.3324 57.1935 24.6537C56.5715 24.975 55.875 25.0906 55.1921 24.9855L48.4084 23.9426L46.9272 35.1049L53.712 36.1467C54.3952 36.2518 55.0341 36.5727 55.5479 37.069C56.0617 37.5653 56.4274 38.2145 56.5986 38.9346C56.7699 39.6548 56.7391 40.4136 56.5101 41.1149C56.281 41.8162 55.8641 42.4284 55.312 42.8744L49.8297 47.3046L56.1088 56.3242L61.5921 51.8957C62.1441 51.4494 62.8065 51.1892 63.4957 51.1486C64.1848 51.1081 64.8696 51.289 65.4634 51.6679C66.0572 52.0467 66.5333 52.607 66.8315 53.2775C67.1296 53.948 67.2365 54.6986 67.1385 55.4345L66.1619 62.7395L76.5229 64.3353L77.4995 57.0253C77.5971 56.2894 77.8951 55.601 78.3558 55.0475C78.8165 54.494 79.4192 54.1001 80.0877 53.9156C80.7562 53.7311 81.4605 53.7645 82.1115 54.0112C82.7625 54.258 83.3309 54.7071 83.745 55.3018L87.8574 61.2084L96.2306 54.4436L92.116 48.5376C91.7021 47.943 91.4611 47.2295 91.4235 46.4873C91.3859 45.7451 91.5535 45.0075 91.905 44.3679C92.2565 43.7283 92.7762 43.2158 93.3983 42.8943C94.0204 42.5728 94.717 42.457 95.4001 42.562L102.184 43.607L103.665 32.4458L96.8813 31.4007C96.1986 31.2954 95.5601 30.9745 95.0466 30.4784C94.5332 29.9824 94.1677 29.3336 93.9963 28.6139C93.825 27.8942 93.8555 27.1358 94.0841 26.4347C94.3126 25.7337 94.7289 25.1216 95.2803 24.6753L95.2824 24.6731ZM75.2993 46.9252C72.8843 46.9252 70.5236 46.1538 68.5156 44.7085C66.5077 43.2632 64.9427 41.2087 64.0185 38.8052C63.0944 36.4018 62.8525 33.7576 63.3237 31.2061C63.7948 28.6546 64.9577 26.3107 66.6654 24.4712C68.373 22.6317 70.5486 21.3791 72.9172 20.8716C75.2857 20.364 77.7408 20.6247 79.9719 21.6202C82.203 22.6158 84.11 24.3016 85.4517 26.4646C86.7934 28.6276 87.5095 31.1703 87.5095 33.7718C87.5095 35.4991 87.1936 37.2094 86.58 38.8052C85.9664 40.4011 85.067 41.8515 83.9332 43.0729C82.7994 44.2943 81.4533 45.2629 79.9719 45.9239C78.4905 46.5849 76.9027 46.9252 75.2993 46.9252Z" fill="#BCBEC0"/>
<path d="M36.1407 73.032C34.6144 71.9729 33.1761 70.7739 31.8422 69.4472C31.432 71.145 30.5881 72.6848 29.4062 73.8918C28.2243 75.0988 26.7519 75.9242 25.1562 76.275C23.5605 76.6257 21.9054 76.4875 20.379 75.8758C18.8527 75.264 17.5162 74.2037 16.5213 72.8146C15.5265 71.4256 14.9132 69.7635 14.7511 68.0178C14.5891 66.2722 14.8848 64.5128 15.6046 62.939C16.3244 61.3653 17.4394 60.0407 18.8231 59.1154C20.2068 58.1902 21.8036 57.7015 23.4322 57.7049C23.6993 57.7049 23.9579 57.7645 24.2102 57.7895C22.5568 53.6032 21.7048 49.1007 21.705 44.5514H19.4848L18.279 50.7278C18.2199 51.0307 18.0922 51.3131 17.9074 51.55C17.7225 51.787 17.4862 51.9714 17.2195 52.0864C16.9527 52.2013 16.6637 52.2434 16.3782 52.2091C16.0926 52.1749 15.8193 52.0649 15.5826 51.8895L10.7626 48.3103L5.53058 53.9476L8.84412 59.1386C9.00688 59.3937 9.10871 59.6876 9.14056 59.9952C9.17242 60.3028 9.13332 60.6146 9.02674 60.902C8.92016 61.1894 8.74939 61.4436 8.52957 61.6429C8.30975 61.8422 8.04767 61.9803 7.76658 62.0444L2.0415 63.3421V70.8578L7.7729 72.1566C8.05406 72.2204 8.31625 72.3579 8.53621 72.557C8.75618 72.7561 8.92711 73.0111 9.03381 73.2985C9.14052 73.5858 9.1797 73.8972 9.14789 74.2048C9.11609 74.5124 9.01427 74.8062 8.85148 75.0613L5.53058 80.254L10.7626 85.8913L15.5826 82.3203C15.7711 82.1801 15.9834 82.0813 16.2073 82.0295C16.4313 81.9777 16.6625 81.9739 16.8878 82.0184C17.1131 82.0629 17.3281 82.1548 17.5205 82.2888C17.7128 82.4228 17.8788 82.5961 18.0089 82.7992C18.141 83.0037 18.2336 83.2349 18.2811 83.4788L19.4848 89.6452H26.4619L27.6656 83.4688C27.7243 83.1654 27.8518 82.8824 28.0367 82.6449C28.2217 82.4075 28.4584 82.2229 28.7256 82.108C28.9928 81.9931 29.2823 81.9509 29.5682 81.9858C29.8541 82.0207 30.1276 82.1317 30.3641 82.3082L35.1841 85.8874L40.659 79.9886C40.375 78.563 39.8295 77.2131 39.0543 76.0179C38.2791 74.8226 37.2899 73.8062 36.1449 73.0286L36.1407 73.032Z" fill="#BCBEC0"/>
<path d="M103.918 30.5828L97.1318 29.5399C96.7901 29.4877 96.4705 29.3273 96.2134 29.0793C95.9563 28.8313 95.7733 28.5066 95.6875 28.1465C95.6017 27.7864 95.617 27.4073 95.7315 27.0566C95.846 26.7059 96.0546 26.3993 96.3307 26.1763L101.815 21.7456C102.185 21.4465 102.43 21.0014 102.495 20.5081C102.56 20.0148 102.441 19.5135 102.164 19.1147L95.884 10.0961C95.7467 9.89856 95.5745 9.73207 95.3774 9.60623C95.1803 9.48038 94.9621 9.3973 94.7353 9.36238C94.5085 9.32746 94.2775 9.34141 94.0556 9.40274C93.8336 9.46408 93.6251 9.5719 93.4419 9.72013L87.9597 14.1503C87.6839 14.376 87.352 14.508 87.0063 14.5297C86.6605 14.5514 86.3167 14.4616 86.0184 14.272C85.7202 14.0824 85.4811 13.8012 85.3316 13.4647C85.1821 13.1282 85.1291 12.7517 85.1791 12.3826L86.1494 5.07263C86.182 4.82836 86.1695 4.57961 86.1128 4.34053C86.0561 4.10144 85.9562 3.8767 85.8189 3.6792C85.6815 3.48171 85.5094 3.31511 85.3123 3.18929C85.1152 3.06348 84.8971 2.98098 84.6703 2.946L74.3166 1.35241C74.0899 1.31717 73.8589 1.33071 73.6369 1.39167C73.4149 1.45262 73.2062 1.56009 73.0227 1.70795C72.8393 1.85581 72.6847 2.04092 72.5678 2.25316C72.4509 2.4654 72.3739 2.7006 72.3413 2.94489L71.3721 10.2548C71.3232 10.6228 71.1741 10.9668 70.9437 11.2435C70.7133 11.5202 70.4119 11.7169 70.0776 11.8092C69.7434 11.9014 69.3912 11.8849 69.0657 11.7616C68.7402 11.6383 68.4559 11.4136 68.2488 11.1163L64.1374 5.20865C63.8597 4.81013 63.4465 4.5465 62.9886 4.476C62.5307 4.4055 62.0656 4.53387 61.6954 4.83265L56.4539 9.06987C54.0826 8.79835 51.6914 8.79835 49.3201 9.06987C41.7834 9.99747 34.7702 13.6825 29.4514 19.5089C24.1326 25.3354 20.8302 32.9506 20.0955 41.0838C20.0493 41.6149 20.0314 42.1436 20.0072 42.669H19.4816C19.0801 42.6699 18.6912 42.82 18.3804 43.0937C18.0696 43.3675 17.856 43.7483 17.7754 44.172L16.5707 50.3473L11.7423 46.7597C11.4064 46.51 10.9998 46.3952 10.5934 46.4352C10.1869 46.4751 9.80634 46.6671 9.5179 46.9782L4.28481 52.6154C3.99701 52.9261 3.81925 53.3357 3.78238 53.7728C3.74551 54.2098 3.85186 54.6471 4.08297 55.0086L7.3965 60.2007L1.663 61.4996C1.27458 61.5921 0.927242 61.8247 0.678645 62.1593C0.430049 62.4938 0.295169 62.9102 0.296395 63.3387V70.8543C0.296197 71.2856 0.433659 71.7037 0.685735 72.0387C0.937812 72.3738 1.28917 72.6054 1.68089 72.6945L7.41541 73.9923L4.10084 79.1845C3.86965 79.5461 3.76327 79.9836 3.80014 80.4209C3.837 80.8581 4.01479 81.2679 4.30268 81.5787L9.53578 87.216C9.82446 87.5267 10.2051 87.7182 10.6115 87.7579C11.0179 87.7976 11.4243 87.683 11.7602 87.4333L16.5802 83.8535L17.7849 90.031C17.8654 90.4547 18.0791 90.8355 18.3899 91.1093C18.7007 91.383 19.0896 91.5331 19.4911 91.534H26.4682C26.8685 91.5342 27.2568 91.3858 27.5678 91.1143C27.8788 90.8427 28.0937 90.4641 28.1764 90.0421L29.3812 83.8652L34.2011 87.4355C34.5368 87.6846 34.9428 87.7993 35.3488 87.7595C35.7547 87.7198 36.1349 87.5283 36.4235 87.2182L39.1325 84.2898V89.6451C39.1361 90.9586 39.4602 92.2476 40.0724 93.3836C40.6846 94.5195 41.5634 95.4622 42.6206 96.1168V106.556C42.6206 107.543 42.801 108.521 43.1517 109.433C43.5024 110.345 44.0165 111.174 44.6645 111.872C45.3125 112.57 46.0817 113.123 46.9284 113.501C47.775 113.878 48.6824 114.073 49.5987 114.073H56.5758C58.4263 114.073 60.2009 113.281 61.5094 111.871C62.8178 110.462 63.5529 108.55 63.5529 106.556V96.1179C64.61 95.4632 65.4889 94.5205 66.1012 93.3847C66.7136 92.2488 67.038 90.9597 67.042 89.6462V82.2091C67.0651 80.6691 67.4466 79.1604 68.1515 77.8204C68.8564 76.4803 69.8622 75.3519 71.0767 74.5392C72.5242 73.5272 73.897 72.3965 75.1828 71.1568L72.8554 68.3572C71.7036 69.4674 70.4734 70.4799 69.176 71.3846C67.4714 72.5368 66.0628 74.1319 65.0796 76.0233C64.0963 77.9147 63.5699 80.0414 63.5487 82.2091V89.6462C63.5487 90.643 63.1811 91.5988 62.5268 92.3036C61.8725 93.0085 60.985 93.4046 60.0596 93.4046H46.1044C45.179 93.4046 44.2915 93.0085 43.6372 92.3036C42.9829 91.5988 42.6153 90.643 42.6153 89.6462V82.0531C42.5955 79.9268 42.0782 77.84 41.1111 75.9862C40.144 74.1325 38.7584 72.5714 37.0826 71.4477C31.6602 67.7768 27.4909 62.3088 25.2018 55.8656C22.9128 49.4225 22.6278 42.3529 24.3897 35.7202C26.1517 29.0875 29.8652 23.2504 34.9718 19.087C40.0784 14.9236 46.3019 12.6588 52.7062 12.6336C52.6805 12.7006 52.658 12.7692 52.6389 12.8387C52.6067 13.0829 52.6195 13.3315 52.6767 13.5703C52.7339 13.8091 52.8343 14.0336 52.9722 14.2305L57.0836 20.136C57.2953 20.4312 57.4188 20.7892 57.4375 21.1617C57.4563 21.5342 57.3695 21.904 57.1887 22.2222C57.0149 22.5433 56.7561 22.8012 56.4453 22.9626C56.1346 23.1241 55.7861 23.1815 55.4447 23.128L48.6589 22.084C48.201 22.0135 47.7358 22.1419 47.3656 22.4406C46.9954 22.7394 46.7505 23.1838 46.6847 23.677L45.2035 34.836C45.138 35.3293 45.257 35.8307 45.5344 36.2294C45.8117 36.6282 46.2247 36.8923 46.6826 36.9632L53.4683 38.0072C53.81 38.0596 54.1294 38.2197 54.3864 38.4678C54.6434 38.7158 54.8262 39.0405 54.9119 39.4006C54.9975 39.7607 54.9821 40.1404 54.8675 40.491C54.753 40.8416 54.5444 41.1473 54.2683 41.3702L48.7861 45.7993C48.4161 46.0984 48.1716 46.5435 48.1061 47.0368C48.0407 47.53 48.1597 48.0314 48.4371 48.4302L54.7172 57.4498C54.8546 57.6473 55.0268 57.8134 55.2239 57.9392C55.421 58.065 55.6392 58.1481 55.8659 58.183C56.0927 58.218 56.3237 58.2039 56.5456 58.1427C56.7675 58.0814 56.976 57.9739 57.1592 57.8258L62.6425 53.3967C62.9184 53.1742 63.2494 53.0447 63.5936 53.0246C63.9378 53.0045 64.2797 53.0948 64.5764 53.2839C64.873 53.4731 65.1109 53.7527 65.2601 54.0874C65.4093 54.4221 65.4631 54.7969 65.4147 55.1645L64.4465 62.4745C64.4139 62.7187 64.4264 62.9675 64.4831 63.2066C64.5398 63.4456 64.6397 63.6704 64.777 63.8679C64.9144 64.0654 65.0865 64.232 65.2836 64.3578C65.4807 64.4836 65.6988 64.5661 65.9256 64.6011L76.2877 66.1969C76.3689 66.2081 76.4507 66.2134 76.5326 66.2135C76.9529 66.2142 77.3592 66.0519 77.6769 65.7556C77.9947 65.4594 78.2024 65.0492 78.262 64.6011L79.2301 57.2922C79.2786 56.9242 79.4274 56.58 79.6576 56.303C79.8878 56.0261 80.1891 55.8292 80.5234 55.7368C80.8577 55.6444 81.2099 55.6605 81.5355 55.7838C81.8611 55.9072 82.1453 56.1322 82.3523 56.4297L86.4659 62.3351C86.6033 62.5326 86.7754 62.6987 86.9725 62.8245C87.1696 62.9502 87.3878 63.0334 87.6146 63.0683C87.8413 63.1032 88.0723 63.0892 88.2942 63.028C88.5161 62.9667 88.7246 62.8592 88.9079 62.7111L97.28 55.9458C97.4633 55.7978 97.6177 55.6124 97.7345 55.4001C97.8512 55.1877 97.928 54.9526 97.9604 54.7083C97.9928 54.464 97.9802 54.2153 97.9234 53.9762C97.8665 53.7372 97.7665 53.5129 97.629 53.3155L93.5176 47.4095C93.3068 47.1138 93.184 46.7566 93.1652 46.3843C93.1464 46.012 93.2326 45.6423 93.4125 45.3237C93.5824 44.9988 93.8406 44.7376 94.1524 44.5756C94.4643 44.4136 94.8147 44.3589 95.1565 44.418L101.942 45.4609C102.4 45.5314 102.865 45.403 103.236 45.1042C103.606 44.8055 103.851 44.3605 103.917 43.8673L105.396 32.7061C105.461 32.2127 105.342 31.7116 105.065 31.3127C104.787 30.9137 104.374 30.6495 103.917 30.5783L103.918 30.5828ZM23.0359 59.5842C24.6401 63.3097 26.8306 66.7082 29.5105 69.629C29.0785 70.9226 28.325 72.0636 27.3321 72.9273C26.3393 73.7911 25.1452 74.3444 23.8803 74.527C22.6154 74.7096 21.3283 74.5147 20.1593 73.963C18.9904 73.4113 17.9846 72.5245 17.2517 71.399C16.5188 70.2735 16.087 68.9527 16.0034 67.5809C15.9198 66.2091 16.1876 64.8386 16.7776 63.6196C17.3676 62.4006 18.2571 61.3796 19.3491 60.668C20.441 59.9564 21.6934 59.5813 22.9696 59.5842H23.0359ZM56.5706 110.318H49.5935C48.6681 110.318 47.7806 109.921 47.1263 109.217C46.472 108.512 46.1044 107.556 46.1044 106.559V104.68H60.0586V106.559C60.0589 107.053 59.9688 107.541 59.7937 107.997C59.6185 108.453 59.3616 108.868 59.0377 109.217C58.7138 109.566 58.3292 109.843 57.9058 110.032C57.4825 110.221 57.0288 110.319 56.5706 110.319V110.318ZM60.0586 97.164V100.922H46.1044V97.164H60.0586ZM38.7131 79.4233L34.9717 83.4471L31.3491 80.7565C30.8759 80.4052 30.3294 80.1852 29.7583 80.1162C29.1872 80.0472 28.6091 80.131 28.0754 80.3606C27.5417 80.5902 27.0689 80.9584 26.699 81.4322C26.3291 81.906 26.0736 82.4709 25.9552 83.0767L25.0416 87.7684H20.8955L19.9809 83.0838C19.8629 82.4779 19.6077 81.9123 19.2379 81.4383C18.8682 80.9643 18.3954 80.5963 17.8617 80.3667C17.328 80.137 16.7498 80.0531 16.1787 80.1223C15.6075 80.1914 15.0611 80.4115 14.5881 80.7631L10.9634 83.4471L7.78441 80.0305L10.2811 76.1294C10.6074 75.6197 10.8118 75.0312 10.8761 74.4159C10.9403 73.8006 10.8625 73.1773 10.6494 72.6022C10.4364 72.0271 10.0948 71.5178 9.6549 71.1192C9.21505 70.7206 8.6906 70.4451 8.12816 70.3174L3.78021 69.3315V64.8626L8.12816 63.8751C8.68916 63.747 9.2122 63.4721 9.65097 63.0744C10.0898 62.6767 10.4307 62.1688 10.6437 61.5953C10.8567 61.0217 10.9352 60.4 10.8721 59.786C10.809 59.172 10.6064 58.5842 10.2822 58.0747L7.78441 54.1626L10.9634 50.747L14.5891 53.4377C15.0625 53.7881 15.6089 54.0073 16.1798 54.0758C16.7507 54.1442 17.3284 54.06 17.8618 53.8303C18.3952 53.6005 18.8676 53.2323 19.2373 52.7586C19.607 52.285 19.8624 51.7202 19.9809 51.1147L20.2868 49.5521C20.5659 51.7169 21.0287 53.8494 21.6692 55.9232C19.8756 56.1535 18.1679 56.8802 16.7122 58.0321C15.2564 59.184 14.1022 60.7223 13.3617 62.4971C12.6213 64.2719 12.3199 66.2229 12.4867 68.1604C12.6536 70.0979 13.2831 71.9555 14.3141 73.5533C15.345 75.151 16.7422 76.4342 18.3699 77.2779C19.9975 78.1216 21.8002 78.4974 23.6025 78.3683C25.4048 78.2392 27.1454 77.6098 28.6551 76.5414C30.1647 75.473 31.3919 74.0017 32.2174 72.271C33.1699 73.1102 34.1652 73.8912 35.1988 74.6105C36.8466 75.7327 38.0871 77.43 38.7131 79.4189V79.4233ZM100.702 41.4769L95.6432 40.6989C94.6186 40.5409 93.5736 40.714 92.6402 41.196C91.7069 41.678 90.9272 42.4473 90.3999 43.4067C89.8726 44.3661 89.6212 45.4723 89.6777 46.5856C89.7341 47.6989 90.0959 48.7692 90.7171 49.661L93.7825 54.0636L88.2004 58.5745L85.1339 54.1725C84.5128 53.2809 83.6602 52.6076 82.6839 52.2378C81.7076 51.8679 80.6515 51.818 79.649 52.0946C78.6464 52.3711 77.7425 52.9617 77.0514 53.7915C76.3603 54.6214 75.9131 55.6535 75.7663 56.757L75.0598 62.214L68.1542 61.1496L68.8764 55.7003C69.023 54.5965 68.8624 53.4705 68.4149 52.465C67.9674 51.4595 67.2532 50.6196 66.3625 50.0514C65.4718 49.4833 64.4447 49.2122 63.4111 49.2729C62.3775 49.3336 61.3839 49.7235 60.5558 50.3926L56.4696 53.6937L52.2825 47.6815L56.3677 44.3771C57.1955 43.7082 57.8207 42.79 58.1641 41.7384C58.5076 40.6869 58.5539 39.5493 58.2973 38.4694C58.0406 37.3895 57.4925 36.4154 56.7223 35.671C55.952 34.9266 54.9941 34.445 53.9698 34.2869L48.9112 33.509L49.8983 26.0702L54.9569 26.8482C55.9816 27.0061 57.0267 26.8331 57.9601 26.3511C58.8936 25.869 59.6733 25.0993 60.2007 24.1398C60.7281 23.1804 60.9796 22.0744 60.9232 20.961C60.8669 19.8475 60.5052 18.7769 59.8841 17.8849L56.8092 13.4785L62.3913 8.96923L65.4578 13.3712C66.0784 14.2635 66.9308 14.9373 67.9071 15.3076C68.8834 15.678 69.9397 15.7279 70.9424 15.4514C71.9451 15.1749 72.8492 14.584 73.5402 13.7539C74.2312 12.9238 74.6781 11.8917 74.8244 10.7879L75.5466 5.33859L82.4522 6.39969L81.731 11.849C81.5844 12.9527 81.745 14.0783 82.1924 15.0837C82.6398 16.0891 83.354 16.9292 84.2446 17.4973C85.1352 18.0654 86.1622 18.3361 87.1957 18.2753C88.2292 18.2145 89.2227 17.8248 90.0506 17.1556L94.1378 13.8545L98.3239 19.8678L94.2377 23.1711C93.4094 23.8397 92.7838 24.7581 92.44 25.8097C92.0962 26.8614 92.0497 27.9992 92.3064 29.0793C92.5631 30.1595 93.1115 31.1334 93.8821 31.8778C94.6527 32.6221 95.6109 33.1037 96.6356 33.2612L101.694 34.0392L100.702 41.4769Z" fill="#231F20"/>
<path d="M75.2972 18.7411C72.537 18.7409 69.8387 19.6224 67.5436 21.2741C65.2485 22.9259 63.4597 25.2736 62.4033 28.0206C61.3469 30.7676 61.0705 33.7906 61.6089 36.7068C62.1474 39.6231 63.4765 42.3019 65.4282 44.4044C67.38 46.5069 69.8667 47.9383 72.5738 48.5183C75.281 49.0983 78.087 48.8009 80.637 47.6629C83.1871 46.525 85.3666 44.5981 86.8999 42.1257C88.4333 39.6534 89.2516 36.7463 89.2514 33.7729C89.2514 29.7862 87.7812 25.9632 85.1643 23.1442C82.5474 20.3252 78.998 18.7411 75.2972 18.7411ZM75.2972 45.0475C73.2274 45.0472 71.2042 44.3858 69.4834 43.147C67.7626 41.9082 66.4214 40.148 65.6295 38.0881C64.8375 36.0282 64.6304 33.7611 65.0342 31.5744C65.438 29.3877 66.4347 27.3793 67.8982 25.8028C69.3617 24.2262 71.2264 23.1523 73.2563 22.7173C75.2862 22.2823 77.3903 22.5056 79.3026 23.3587C81.2148 24.2119 82.8492 25.6565 83.9992 27.5103C85.1492 29.364 85.7631 31.5433 85.7633 33.7729C85.7628 36.7627 84.6599 39.6303 82.6971 41.7442C80.7344 43.8581 78.0726 45.0453 75.2972 45.0453V45.0475Z" fill="#231F20"/>
<path d="M51.338 84.0123H54.8249V89.6485H51.3369L51.338 84.0123Z" fill="#231F20"/>
<path d="M45.4517 65.5584C41.8419 64.0395 38.6945 61.4711 36.3598 58.139C34.0252 54.8069 32.5951 50.8418 32.2288 46.6858C31.8625 42.5298 32.5744 38.3459 34.2852 34.6001C35.996 30.8542 38.6386 27.6933 41.9185 25.4698L40.0536 22.2904C36.2291 24.8859 33.1483 28.5736 31.1544 32.9435C29.1604 37.3133 28.3315 42.1935 28.7598 47.0408C29.1882 51.8881 30.8571 56.5128 33.5807 60.3989C36.3042 64.285 39.9756 67.2804 44.186 69.0519C46.2892 69.9209 48.0983 71.4566 49.3746 73.4561C50.6508 75.4557 51.3342 77.8247 51.3345 80.2513H54.8246C54.8274 77.0678 53.9327 73.9588 52.259 71.335C50.5853 68.7113 48.2115 66.6969 45.4517 65.5584Z" fill="#231F20"/>
<path d="M86.2236 70.8578H98.4339V74.6167H86.2236V70.8578Z" fill="#231F20"/>
<path d="M83.3638 83.5772L85.5966 80.6897L96.0628 90.0887L93.83 92.9756L83.3638 83.5772Z" fill="#231F20"/>
<path d="M75.7583 85.8914H79.2474V99.0443H75.7583V85.8914Z" fill="#231F20"/>
<path d="M2.07275 33.3339L16.027 29.575L16.8732 33.2194L2.919 36.9778L2.07275 33.3339Z" fill="#231F20"/>
<path d="M4.97021 14.1378L6.99701 11.0806L19.2072 20.4795L17.1804 23.5373L4.97021 14.1378Z" fill="#231F20"/>
<path d="M19.917 1.79767L23.2967 0.867065L26.8636 15.8989L23.4839 16.8295L19.917 1.79767Z" fill="#231F20"/>
<defs>
<linearGradient id="paint0_linear_0_523" x1="21.6851" y1="53.0099" x2="84.4801" y2="53.0099" gradientUnits="userSpaceOnUse">
<stop stop-color="#EF8431"/>
<stop offset="1" stop-color="#E71A86"/>
</linearGradient>
</defs>
</svg>
