<svg width="118" height="115" viewBox="0 0 118 115" fill="none" xmlns="http://www.w3.org/2000/svg">
<path d="M58.854 0.832764C47.2138 0.832764 35.8349 4.15383 26.1565 10.3755C16.478 16.5972 8.93458 25.4399 4.48006 35.7861C0.0255436 46.1324 -1.14002 57.5171 1.13087 68.5006C3.40177 79.4841 9.0071 89.5734 17.238 97.4921C25.4689 105.411 35.9556 110.804 47.3722 112.988C58.7887 115.173 70.6223 114.051 81.3764 109.766C92.1306 105.48 101.322 98.2234 107.789 88.912C114.256 79.6006 117.708 68.6531 117.708 57.4544C117.708 42.4374 111.507 28.0353 100.47 17.4167C89.4328 6.79809 74.4631 0.832764 58.854 0.832764ZM58.854 92.8429C51.5789 92.8429 44.4671 90.7674 38.4181 86.8788C32.369 82.9903 27.6544 77.4635 24.8703 70.9971C22.0862 64.5307 21.3578 57.415 22.7771 50.5503C24.1964 43.6856 27.6996 37.38 32.8439 32.4308C37.9882 27.4817 44.5425 24.1115 51.6779 22.746C58.8132 21.3805 66.2092 22.0814 72.9305 24.7598C79.6519 27.4383 85.3967 31.9742 89.4385 37.7939C93.4804 43.6135 95.6377 50.4552 95.6377 57.4544C95.6377 66.84 91.7623 75.8413 84.864 82.4779C77.9657 89.1146 68.6097 92.8429 58.854 92.8429Z" fill="url(#paint0_linear_0_604)"/>
<path d="M99.8566 57.4545C99.8566 49.6526 97.4518 42.0261 92.9464 35.539C88.441 29.052 82.0373 23.9961 74.5451 21.0104C67.0529 18.0247 58.8087 17.2434 50.8551 18.7654C42.9014 20.2875 35.5955 24.0444 29.8612 29.5611C24.1269 35.0779 20.2218 42.1066 18.6397 49.7586C17.0576 57.4106 17.8695 65.3424 20.9729 72.5505C24.0763 79.7585 29.3317 85.9191 36.0745 90.2536C42.8173 94.5881 50.7447 96.9016 58.8542 96.9016C69.7287 96.9016 80.1578 92.7456 87.8473 85.3478C95.5367 77.9501 99.8566 67.9165 99.8566 57.4545ZM22.0705 57.4545C22.0705 50.4553 24.2279 43.6136 28.2697 37.794C32.3116 31.9743 38.0564 27.4384 44.7777 24.7599C51.499 22.0815 58.895 21.3806 66.0304 22.7461C73.1657 24.1116 79.7199 27.4818 84.8642 32.4309C90.0085 37.3801 93.5119 43.6857 94.9312 50.5504C96.3505 57.4151 95.622 64.5308 92.8379 70.9972C90.0539 77.4636 85.3392 82.9904 79.2902 86.8789C73.2411 90.7675 66.1294 92.843 58.8542 92.843C49.0986 92.843 39.7424 89.1147 32.8441 82.478C25.9458 75.8414 22.0705 66.8401 22.0705 57.4545ZM117.708 57.4545C117.708 72.4715 111.508 86.8736 100.47 97.4922C89.433 108.111 74.4633 114.076 58.8542 114.076C58.0067 114.076 57.1639 114.056 56.3258 114.022C71.4641 113.37 85.7578 107.126 96.2307 96.5892C106.704 86.0526 112.548 72.0354 112.548 57.4567C112.548 42.878 106.704 28.8614 96.2307 18.3247C85.7578 7.78811 71.4641 1.54385 56.3258 0.892029C57.1639 0.858056 58.0067 0.836182 58.8542 0.836182C74.4627 0.836182 89.4318 6.80114 100.469 17.419C111.506 28.0369 117.707 42.4381 117.708 57.4545Z" fill="#231F20"/>
<path d="M73.3526 48.5308L49.233 71.0661C48.5824 71.6702 47.7113 72.0044 46.8072 71.9967C45.9031 71.989 45.0384 71.6402 44.3991 71.0252C43.7597 70.4101 43.3971 69.5781 43.3891 68.7083C43.3811 67.8385 43.7284 67.0002 44.3564 66.3743L68.4759 43.839C69.1264 43.2349 69.9975 42.9008 70.9016 42.9084C71.8057 42.9161 72.6706 43.2649 73.3099 43.88C73.9492 44.495 74.3119 45.327 74.3199 46.1968C74.3279 47.0666 73.9805 47.9049 73.3526 48.5308ZM49.6591 50.8205C50.5684 50.8203 51.4572 50.5608 52.2132 50.0746C52.9691 49.5884 53.5581 48.8973 53.9059 48.089C54.2537 47.2807 54.3447 46.3918 54.1671 45.5338C53.9896 44.6759 53.5516 43.8875 52.9086 43.269C52.2656 42.6505 51.4463 42.2297 50.5544 42.0591C49.6626 41.8885 48.7383 41.9759 47.8982 42.3107C47.0582 42.6455 46.3402 43.2123 45.8351 43.9397C45.3299 44.6671 45.0603 45.5227 45.0603 46.3975C45.0619 47.5704 45.5469 48.6946 46.4091 49.5239C47.2712 50.3531 48.44 50.8193 49.6591 50.8205ZM68.051 64.0918C67.1417 64.0918 66.2528 64.3511 65.4967 64.8372C64.7406 65.3232 64.1513 66.014 63.8033 66.8222C63.4553 67.6305 63.3643 68.5199 63.5417 69.3779C63.7191 70.236 64.1569 71.0236 64.7999 71.6423C65.4429 72.2609 66.2621 72.6825 67.154 72.8532C68.0458 73.0239 68.9703 72.9364 69.8104 72.6016C70.6505 72.2668 71.3686 71.6995 71.8738 70.9721C72.379 70.2447 72.6487 69.3896 72.6487 68.5148C72.6474 67.3419 72.1627 66.2173 71.3007 65.3879C70.4388 64.5584 69.2701 64.0916 68.051 64.0901V64.0918Z" fill="url(#paint1_linear_0_604)"/>
<path d="M117.708 57.4544H92.1652C91.867 57.4539 91.5806 57.3419 91.3666 57.142C91.1527 56.9421 91.0279 56.6702 91.0188 56.3833C90.7363 48.5462 87.3738 41.1037 81.6099 35.5589C75.846 30.014 68.1101 26.7794 59.964 26.5083C59.6658 26.4991 59.3831 26.3792 59.1755 26.1732C58.968 25.9671 58.8517 25.6915 58.8515 25.4046V0.830566C66.5807 0.830269 74.2343 2.29471 81.3752 5.14022C88.5162 7.98574 95.0046 12.1564 100.47 17.4145C105.935 22.6726 110.271 28.915 113.228 35.785C116.186 42.6551 117.708 50.0184 117.708 57.4544Z" fill="#231F20"/>
<path d="M112.65 57.4544H95.6375C95.6375 48.0688 91.762 39.0675 84.8637 32.4309C77.9654 25.7942 68.6094 22.0659 58.8537 22.0659V1.04346C73.5325 2.26161 87.2025 8.73222 97.1628 19.1768C107.123 29.6213 112.649 43.28 112.65 57.4544ZM117.694 56.3491C117.701 56.7171 117.708 57.0852 117.708 57.4544C117.708 57.0852 117.701 56.7171 117.694 56.3491Z" fill="#231F20"/>
<defs>
<linearGradient id="paint0_linear_0_604" x1="0" y1="57.4545" x2="117.708" y2="57.4545" gradientUnits="userSpaceOnUse">
<stop stop-color="#EF8431"/>
<stop offset="1" stop-color="#E71A86"/>
</linearGradient>
<linearGradient id="paint1_linear_0_604" x1="43.3889" y1="57.4562" x2="74.32" y2="57.4562" gradientUnits="userSpaceOnUse">
<stop stop-color="#EF8431"/>
<stop offset="1" stop-color="#E71A86"/>
</linearGradient>
</defs>
</svg>
