<svg width="105" height="105" viewBox="0 0 105 105" fill="none" xmlns="http://www.w3.org/2000/svg">
<path d="M103.053 16.7174H13.9111V78.4973H103.053V16.7174Z" fill="url(#paint0_linear_0_472)"/>
<path d="M13.911 7.06183C12.9553 7.06183 12.0212 7.34506 11.2266 7.87549C10.432 8.40592 9.81264 9.15979 9.44693 10.0419C9.08122 10.9239 8.9855 11.8945 9.17194 12.8309C9.35837 13.7673 9.81861 14.6273 10.4944 15.3024C11.1701 15.9775 12.031 16.4373 12.9683 16.6236C13.9056 16.8099 14.8771 16.7144 15.76 16.349C16.6429 15.9836 17.3974 15.3647 17.9284 14.5709C18.4593 13.7771 18.7428 12.8439 18.7428 11.8891C18.7409 10.6094 18.2312 9.38272 17.3254 8.47785C16.4197 7.57298 15.1919 7.06376 13.911 7.06183ZM13.911 13.6357C13.5652 13.6359 13.227 13.5335 12.9394 13.3418C12.6518 13.15 12.4276 12.8772 12.2951 12.5581C12.1626 12.239 12.1278 11.8878 12.1951 11.5489C12.2624 11.21 12.4289 10.8988 12.6733 10.6544C12.9178 10.41 13.2293 10.2436 13.5684 10.1761C13.9076 10.1086 14.2592 10.1431 14.5787 10.2753C14.8982 10.4074 15.1713 10.6313 15.3634 10.9186C15.5556 11.2058 15.658 11.5436 15.658 11.8891C15.6585 12.1188 15.6137 12.3463 15.5261 12.5586C15.4385 12.7709 15.3099 12.9637 15.1476 13.1264C14.9854 13.2891 14.7927 13.4183 14.5805 13.5065C14.3683 13.5948 14.1408 13.6404 13.911 13.6408V13.6357Z" fill="#231F20"/>
<path d="M26.8645 7.06183C25.9089 7.06183 24.9748 7.34485 24.1802 7.87523C23.3856 8.40562 22.7664 9.15959 22.4007 10.0416C22.035 10.9236 21.9391 11.8941 22.1255 12.8304C22.3118 13.7668 22.772 14.627 23.4476 15.3022C24.1233 15.9773 24.9841 16.4372 25.9213 16.6236C26.8585 16.81 27.8299 16.7145 28.7129 16.3492C29.5958 15.984 30.3505 15.3654 30.8815 14.5717C31.4126 13.778 31.6961 12.8448 31.6963 11.8901C31.6947 10.6103 31.1851 9.3832 30.2793 8.47811C29.3736 7.57301 28.1456 7.06376 26.8645 7.06183ZM26.8645 13.6357C26.5187 13.6359 26.1807 13.5335 25.893 13.3418C25.6054 13.15 25.3811 12.8772 25.2486 12.5581C25.1162 12.239 25.0814 11.8878 25.1487 11.5489C25.2161 11.21 25.3825 10.8988 25.627 10.6544C25.8714 10.41 26.1829 10.2436 26.5221 10.1761C26.8612 10.1086 27.2128 10.1431 27.5323 10.2753C27.8518 10.4074 28.1248 10.6313 28.317 10.9186C28.5091 11.2058 28.6117 11.5436 28.6117 11.8891C28.6121 12.1188 28.5673 12.3463 28.4797 12.5586C28.3921 12.7709 28.2635 12.9637 28.1013 13.1264C27.939 13.2891 27.7463 13.4183 27.5341 13.5065C27.3219 13.5948 27.0943 13.6404 26.8645 13.6408V13.6357Z" fill="#231F20"/>
<path d="M39.8181 7.06183C38.8625 7.06183 37.9284 7.34485 37.1339 7.87523C36.3393 8.40562 35.72 9.15959 35.3542 10.0416C34.9885 10.9236 34.8927 11.8941 35.0791 12.8304C35.2655 13.7668 35.7256 14.627 36.4013 15.3022C37.0769 15.9773 37.9377 16.4372 38.8749 16.6236C39.8121 16.81 40.7836 16.7145 41.6665 16.3492C42.5494 15.984 43.3041 15.3654 43.8352 14.5717C44.3662 13.778 44.6497 12.8448 44.65 11.8901C44.6486 10.6102 44.1392 9.38301 43.2334 8.47785C42.3276 7.57269 41.0993 7.06348 39.8181 7.06183ZM39.8181 13.6357C39.4724 13.6357 39.1344 13.5332 38.8469 13.3412C38.5595 13.1493 38.3354 12.8767 38.203 12.5576C38.0707 12.2384 38.0361 11.8872 38.1035 11.5484C38.171 11.2096 38.3375 10.8984 38.582 10.6541C38.8265 10.4099 39.138 10.2435 39.4771 10.1761C39.8162 10.1087 40.1678 10.1433 40.4872 10.2755C40.8067 10.4077 41.0797 10.6316 41.2718 10.9188C41.4639 11.2061 41.5663 11.5437 41.5663 11.8891C41.5669 12.1189 41.5221 12.3464 41.4345 12.5589C41.3469 12.7713 41.2183 12.9644 41.0559 13.1272C40.8936 13.2899 40.7006 13.4189 40.4883 13.507C40.2759 13.5952 40.0481 13.6406 39.8181 13.6408V13.6357Z" fill="#231F20"/>
<path d="M99.2406 0.694153H6.30318C4.80425 0.695806 3.36729 1.29139 2.30729 2.35021C1.24729 3.40902 0.650857 4.8447 0.648926 6.34222V74.3375C0.650857 75.835 1.24729 77.2707 2.30729 78.3295C3.36729 79.3883 4.80425 79.9839 6.30318 79.9856H16.2515C16.02 80.2817 15.9048 80.6523 15.9279 81.0273C15.9509 81.4024 16.1105 81.7559 16.3766 82.0215L23.7863 89.4245C23.23 90.5618 22.7427 91.7314 22.3269 92.9271H11.8502C11.4411 92.9274 11.049 93.0899 10.7598 93.3789C10.4707 93.668 10.3083 94.0598 10.3083 94.4685V103.301C10.3083 103.71 10.4707 104.102 10.7598 104.391C11.049 104.68 11.4411 104.842 11.8502 104.843H42.2817C42.6907 104.842 43.0828 104.68 43.372 104.391C43.6611 104.102 43.8235 103.71 43.8235 103.301C43.8235 101.04 44.7224 98.8722 46.3226 97.2736C47.9227 95.6749 50.093 94.7766 52.3559 94.7766C54.6189 94.7766 56.7892 95.6749 58.3894 97.2736C59.9895 98.8722 60.8885 101.04 60.8885 103.301C60.8888 103.71 61.0514 104.102 61.3406 104.391C61.6299 104.68 62.0222 104.842 62.4313 104.843H92.8618C93.2709 104.842 93.6631 104.68 93.9524 104.391C94.2417 104.102 94.4044 103.71 94.4046 103.301V94.4685C94.4046 94.0597 94.2421 93.6675 93.9528 93.3784C93.6634 93.0893 93.271 92.9271 92.8618 92.9271H82.385C81.9688 91.7316 81.4815 90.5619 80.9256 89.4245L88.3354 82.0215C88.601 81.7556 88.7603 81.4022 88.7833 81.0273C88.8064 80.6524 88.6916 80.2819 88.4605 79.9856H99.2312C100.73 79.9836 102.167 79.3878 103.226 78.329C104.286 77.2702 104.883 75.8348 104.884 74.3375V36.2193C104.884 35.8108 104.722 35.4189 104.433 35.13C104.144 34.8411 103.752 34.6789 103.343 34.6789C102.934 34.6789 102.542 34.8411 102.252 35.13C101.963 35.4189 101.801 35.8108 101.801 36.2193V74.3375C101.8 75.0181 101.529 75.6707 101.047 76.152C100.566 76.6332 99.9125 76.904 99.2312 76.9048H85.401L76.3118 67.8242V57.2875C76.3118 56.8787 76.1491 56.4865 75.8597 56.1975C75.5704 55.9084 75.178 55.7459 74.7688 55.7459H71.9938V46.2528L74.1694 44.2448C74.3837 44.0475 74.5377 43.7936 74.6133 43.5125C74.6889 43.2314 74.6833 42.9347 74.5969 42.6566L70.8961 30.7421C70.7985 30.428 70.6029 30.1533 70.3378 29.9582C70.0728 29.7631 69.7523 29.658 69.4231 29.6579H65.3106C64.9814 29.6578 64.6608 29.7629 64.3957 29.9579C64.1307 30.153 63.9351 30.428 63.8376 30.7421L60.1368 42.6566C60.0502 42.9346 60.0445 43.2316 60.1202 43.5128C60.1958 43.7939 60.3498 44.0477 60.5643 44.2448L62.7409 46.2528V55.7459H59.9649C59.7624 55.7459 59.5617 55.7859 59.3746 55.8633C59.1875 55.9408 59.0175 56.0543 58.8743 56.1975C58.7312 56.3406 58.6176 56.5106 58.5402 56.6976C58.4628 56.8846 58.423 57.0851 58.4231 57.2875V61.293H46.292V58.9527L52.2131 53.0361C52.5025 52.7473 52.6652 52.3553 52.6655 51.9466V39.3125C52.6653 39.1086 52.6248 38.9068 52.546 38.7188C52.4673 38.5307 52.352 38.3601 52.2069 38.2168L43.9829 30.1026C43.7666 29.8889 43.4918 29.7439 43.1932 29.6859C42.8945 29.6278 42.5853 29.6593 42.3046 29.7764C42.0238 29.8935 41.7841 30.0909 41.6155 30.3439C41.4469 30.5969 41.3569 30.8943 41.357 31.1983V44.9323L37.3477 47.4547L33.3384 44.9323V44.0543C33.3384 43.6457 33.1759 43.2538 32.8867 42.9648C32.5974 42.6758 32.2051 42.5135 31.7961 42.5135C31.3871 42.5135 30.9947 42.6758 30.7054 42.9648C30.4162 43.2538 30.2538 43.6457 30.2538 44.0543V45.7831C30.2537 46.0436 30.3197 46.2998 30.4457 46.5279C30.5717 46.7559 30.7534 46.9482 30.974 47.087L36.5252 50.5791C36.7715 50.7337 37.0563 50.8159 37.3471 50.8159C37.638 50.8159 37.9228 50.7337 38.1691 50.5791L43.7203 47.087C43.9409 46.9482 44.1226 46.7559 44.2486 46.5279C44.3746 46.2998 44.4407 46.0436 44.4406 45.7831V34.8872L49.5809 39.9581V51.3104L43.6588 57.227C43.3697 57.5164 43.2073 57.9087 43.2073 58.3176V61.3263C42.8591 61.3976 42.5462 61.5866 42.3215 61.8618C42.0968 62.137 41.9741 62.4813 41.9741 62.8364V73.3034C40.7766 73.7169 39.6052 74.202 38.4662 74.7563L31.4818 67.7835V58.3176C31.482 58.1151 31.4423 57.9145 31.3648 57.7274C31.2874 57.5403 31.1737 57.3702 31.0304 57.227L25.1082 51.3104V39.9581L30.2486 34.8872V36.841C30.2486 37.2497 30.4111 37.6416 30.7003 37.9305C30.9896 38.2195 31.3818 38.3819 31.7909 38.3819C32.1999 38.3819 32.5922 38.2195 32.8814 37.9305C33.1707 37.6416 33.3332 37.2497 33.3332 36.841V31.2013C33.3332 30.8973 33.2432 30.6 33.0745 30.347C32.9058 30.0939 32.666 29.8964 32.3852 29.7792C32.1044 29.662 31.7952 29.6302 31.4964 29.6882C31.1977 29.7461 30.9227 29.891 30.7062 30.1047L22.4822 38.2189C22.3369 38.362 22.2215 38.5325 22.1428 38.7206C22.064 38.9086 22.0235 39.1106 22.0236 39.3145V51.9486C22.0236 52.151 22.0636 52.3516 22.1413 52.5385C22.2189 52.7255 22.3326 52.8952 22.4759 53.0382L28.3982 58.9547V67.8262L19.309 76.9069H6.2949C5.61356 76.9063 4.96027 76.6356 4.47849 76.1542C3.9967 75.6729 3.72583 75.0202 3.72528 74.3395V23.0871H101.802V29.0477C101.802 29.4563 101.964 29.8482 102.254 30.1372C102.543 30.4262 102.935 30.5885 103.344 30.5885C103.753 30.5885 104.146 30.4262 104.435 30.1372C104.724 29.8482 104.886 29.4563 104.886 29.0477V6.34324C104.885 4.84698 104.29 3.41231 103.232 2.35351C102.173 1.29471 100.738 0.69801 99.2406 0.694153ZM65.3314 44.4459L63.3748 42.6411L66.451 32.7396H68.29L71.3663 42.6411L69.4085 44.4459C69.252 44.5904 69.1272 44.7655 69.0418 44.9606C68.9564 45.1556 68.9123 45.3661 68.9123 45.5789V55.7471H65.8287V45.5789C65.8286 45.366 65.7843 45.1556 65.6987 44.9606C65.6131 44.7655 65.4881 44.5903 65.3314 44.4459ZM73.2302 58.8279V67.7845L66.251 74.7563C65.1118 74.2032 63.9408 73.718 62.7441 73.3034V62.8374C62.7443 62.4821 62.6214 62.1378 62.3965 61.8626C62.1715 61.5873 61.8583 61.3982 61.5098 61.3273V58.8279H73.2302ZM38.8979 77.9911C40.5171 77.1292 42.2158 76.4253 43.9704 75.8893C44.286 75.7924 44.5623 75.5972 44.7585 75.3319C44.9548 75.0667 45.0607 74.7454 45.0609 74.4156V64.3704H59.6553V74.4156C59.6556 74.7457 59.7619 75.0672 59.9585 75.3325C60.1552 75.5977 60.4318 75.7928 60.7478 75.8893C62.5022 76.4256 64.2009 77.1295 65.8204 77.9911C66.112 78.1462 66.4458 78.2036 66.7726 78.1548C67.0993 78.1061 67.4018 77.9537 67.6354 77.7203L74.7469 70.6163L83.6694 79.5314L85.0673 80.9271L77.9568 88.0319C77.7231 88.2652 77.5706 88.5674 77.5218 88.8939C77.473 89.2203 77.5305 89.554 77.6857 89.8453C78.5485 91.4631 79.2529 93.1602 79.7893 94.9132C79.886 95.2287 80.0814 95.5049 80.347 95.7012C80.6125 95.8974 80.9341 96.0034 81.2645 96.0035H91.3179V101.756H75.6393C75.3888 98.0096 74.237 94.3795 72.2819 91.1734C70.3268 87.9673 67.626 85.28 64.409 83.3396C61.192 81.3993 57.5538 80.263 53.8034 80.0278C50.053 79.7925 46.3012 80.465 42.8665 81.9882C42.5125 82.166 42.2405 82.4731 42.1071 82.8458C41.9737 83.2186 41.989 83.6283 42.1499 83.99C42.3109 84.3518 42.605 84.6379 42.9714 84.7887C43.3377 84.9396 43.7481 84.9438 44.1174 84.8004C47.0824 83.4859 50.32 82.9017 53.558 83.0968C56.7959 83.2919 59.9397 84.2607 62.725 85.9217C65.5104 87.5828 67.856 89.8875 69.5647 92.6423C71.2733 95.3971 72.2952 98.5213 72.5443 101.752H63.8647C63.4914 98.9659 62.1183 96.4094 60.0005 94.558C57.8828 92.7065 55.1643 91.686 52.3502 91.686C49.5361 91.686 46.8177 92.7065 44.7 94.558C42.5822 96.4094 41.2091 98.9659 40.8358 101.752H32.1542C32.5181 96.7002 34.7855 91.9737 38.4996 88.5257C38.6473 88.3874 38.7665 88.2213 38.85 88.037C38.9336 87.8527 38.9798 87.6536 38.9864 87.4514C38.993 87.2492 38.9597 87.0478 38.8883 86.8585C38.8169 86.6691 38.7089 86.4955 38.5704 86.3479C38.432 86.2002 38.2658 86.0815 38.0813 85.998C37.8968 85.9145 37.6977 85.868 37.4953 85.8615C37.2929 85.8549 37.0912 85.8883 36.9016 85.9596C36.7121 86.0309 36.5385 86.1388 36.3907 86.2772C32.0829 90.3258 29.4669 95.8521 29.0674 101.747H13.3857V95.9953H23.4403C23.7706 95.9953 24.0921 95.8893 24.3576 95.693C24.6232 95.4967 24.8186 95.2204 24.9153 94.9048C25.4517 93.1518 26.1563 91.4547 27.019 89.837C27.1744 89.5457 27.232 89.2122 27.1834 88.8857C27.1348 88.5593 26.9825 88.2572 26.749 88.0238L19.6373 80.9187L21.0353 79.5231L29.9577 70.6079L37.0694 77.7119C37.3026 77.9501 37.6069 78.1065 37.9366 78.1574C38.2662 78.2083 38.6035 78.1509 38.8979 77.9941V77.9911ZM3.73355 20.0003V6.33892C3.73438 5.65829 4.00542 5.00599 4.48714 4.52471C4.96887 4.04344 5.62191 3.77265 6.30318 3.77182H99.2406C99.9219 3.77265 100.575 4.04344 101.057 4.52471C101.538 5.00599 101.809 5.65829 101.81 6.33892V20.0003H3.73355Z" fill="#231F20"/>
<defs>
<linearGradient id="paint0_linear_0_472" x1="13.9111" y1="47.6074" x2="103.053" y2="47.6074" gradientUnits="userSpaceOnUse">
<stop stop-color="#EF8431"/>
<stop offset="1" stop-color="#E71A86"/>
</linearGradient>
</defs>
</svg>
