<svg width="105" height="105" viewBox="0 0 105 105" fill="none" xmlns="http://www.w3.org/2000/svg">
<path d="M55.1631 37.896L37.9761 66.6525L44.2746 84.4045C44.2746 84.4045 37.7624 88.4767 44.2746 93.28V102.888H65.4115V92.8625C65.4115 92.8625 71.4964 91.4045 67.9739 86.1793L65.8389 84.6171L72.2438 67.9022L55.1631 37.896Z" fill="url(#paint0_linear_0_431)"/>
<path d="M88.0623 21.0354C87.6596 21.0354 87.266 21.1547 86.9312 21.3782C86.5964 21.6017 86.3354 21.9193 86.1813 22.291C86.0272 22.6627 85.9869 23.0717 86.0655 23.4662C86.1441 23.8608 86.3379 24.2233 86.6227 24.5077C86.9074 24.7922 87.2702 24.9858 87.6651 25.0643C88.06 25.1428 88.4694 25.1026 88.8414 24.9486C89.2134 24.7947 89.5314 24.534 89.7551 24.1996C89.9788 23.8651 90.0982 23.4716 90.0982 23.0693C90.0979 22.53 89.8833 22.0128 89.5016 21.6314C89.1198 21.25 88.6022 21.0357 88.0623 21.0354Z" fill="#231F20"/>
<path d="M16.3938 21.0354C15.9912 21.0354 15.5975 21.1547 15.2627 21.3782C14.9279 21.6017 14.667 21.9193 14.5129 22.291C14.3588 22.6627 14.3185 23.0717 14.397 23.4662C14.4756 23.8608 14.6695 24.2233 14.9542 24.5077C15.2389 24.7922 15.6017 24.9858 15.9966 25.0643C16.3916 25.1428 16.8009 25.1026 17.1729 24.9486C17.545 24.7947 17.8629 24.534 18.0866 24.1996C18.3103 23.8651 18.4298 23.4716 18.4298 23.0693C18.4295 22.53 18.2149 22.0128 17.8331 21.6314C17.4514 21.25 16.9337 21.0357 16.3938 21.0354Z" fill="#231F20"/>
<path d="M102.316 45.4447H99.8804C99.1281 39.6061 97.2659 33.9649 94.394 28.8247C94.2667 28.5863 94.0932 28.3755 93.8835 28.2048C93.6738 28.0341 93.4321 27.9069 93.1727 27.8305C92.9132 27.7542 92.6411 27.7302 92.3723 27.7601C92.1034 27.79 91.8432 27.8732 91.6069 28.0047C91.3706 28.1362 91.1629 28.3134 90.9959 28.5259C90.8289 28.7385 90.706 28.9822 90.6343 29.2427C90.5626 29.5033 90.5436 29.7754 90.5785 30.0434C90.6133 30.3114 90.7012 30.5698 90.8371 30.8034C93.3715 35.3379 95.0453 40.3015 95.7742 45.4437H94.1709C93.6308 45.444 93.113 45.6584 92.7312 46.04C92.3494 46.4216 92.135 46.9391 92.135 47.4786V55.6147C92.135 56.1542 92.3495 56.6717 92.7313 57.0531C93.1131 57.4346 93.6309 57.6489 94.1709 57.6489H102.316C102.583 57.6489 102.848 57.5961 103.095 57.4938C103.342 57.3914 103.567 57.2415 103.756 57.0524C103.945 56.8633 104.095 56.6388 104.197 56.3918C104.299 56.1447 104.352 55.88 104.352 55.6127V47.4766C104.351 46.9375 104.136 46.4207 103.755 46.0397C103.373 45.6587 102.855 45.4447 102.316 45.4447ZM100.28 53.5818H96.2068V49.5138H100.28V53.5818Z" fill="#231F20"/>
<path d="M74.6223 60.2172C74.6223 60.186 74.6223 60.1547 74.6223 60.1224C74.6223 60.0901 74.613 60.0369 74.6067 59.9952C74.6067 59.9692 74.5994 59.9432 74.5942 59.9172C74.5848 59.8672 74.5733 59.8182 74.5598 59.7692C74.5598 59.7505 74.5514 59.7328 74.5462 59.714C74.5275 59.6536 74.5066 59.5933 74.4826 59.535L74.4764 59.5162C74.4481 59.4487 74.4165 59.3827 74.3815 59.3184L54.0212 22.0937C53.846 21.7732 53.5876 21.5055 53.2733 21.3192C52.9589 21.1329 52.6 21.0347 52.2345 21.0347C51.8689 21.0347 51.5101 21.1329 51.1957 21.3192C50.8813 21.5055 50.6229 21.7732 50.4477 22.0937L30.0874 59.3174C30.0525 59.3817 30.0208 59.4477 29.9926 59.5152L29.9863 59.535C29.9623 59.5933 29.9415 59.6526 29.9227 59.713C29.9227 59.7318 29.9133 59.7505 29.9091 59.7682C29.8956 59.8171 29.8841 59.8662 29.8748 59.9162C29.8695 59.9422 29.8664 59.9682 29.8623 59.9942C29.856 60.0359 29.8497 60.0786 29.8466 60.1224C29.8435 60.1661 29.8466 60.185 29.8466 60.2162C29.8466 60.2475 29.8466 60.2672 29.8466 60.2933C29.8466 60.3193 29.8466 60.3191 29.8466 60.3327C29.8466 60.3649 29.8466 60.3962 29.8466 60.4285C29.8466 60.4608 29.8529 60.5097 29.8581 60.5493C29.8633 60.5889 29.8664 60.6056 29.8706 60.6337C29.8779 60.6775 29.8873 60.7212 29.8966 60.7639L29.9154 60.8359C29.9293 60.8824 29.9439 60.928 29.9592 60.9732C29.9592 60.9857 29.9665 60.9993 29.9717 61.0118L37.3137 80.4522C36.7169 80.7479 36.1722 81.1385 35.7011 81.6091C34.9714 82.3379 34.4385 83.2396 34.1521 84.2299C33.8656 85.2201 33.8349 86.2666 34.0629 87.2719C34.2909 88.2772 34.7701 89.2084 35.4558 89.9786C36.1415 90.7488 37.0113 91.3327 37.984 91.6761V102.807C37.9843 103.347 38.1989 103.864 38.5807 104.246C38.9624 104.627 39.4801 104.841 40.02 104.842H64.4532C64.993 104.841 65.5107 104.627 65.8925 104.246C66.2742 103.864 66.4888 103.347 66.4891 102.807V91.6794C67.6214 91.2792 68.6106 90.5543 69.3329 89.5954C70.0551 88.6366 70.4784 87.4863 70.5498 86.2884C70.6213 85.0905 70.3376 83.8983 69.7344 82.8606C69.1312 81.8229 68.2352 80.9859 67.1583 80.4542L74.5025 61.0118C74.5025 60.9993 74.5098 60.9857 74.5139 60.9732C74.5306 60.9287 74.5452 60.8831 74.5577 60.8359L74.5765 60.7639C74.5869 60.7212 74.5952 60.6775 74.6025 60.6337C74.6078 60.6056 74.6119 60.5774 74.615 60.5493C74.6182 60.5212 74.6234 60.4691 74.6265 60.4285C74.6296 60.3879 74.6265 60.3649 74.6317 60.3327C74.6317 60.3202 74.6317 60.3068 74.6317 60.2933C74.6317 60.2797 74.6234 60.2433 74.6223 60.2172ZM52.2293 58.2601C52.6319 58.2601 53.0256 58.3794 53.3604 58.6029C53.6952 58.8264 53.9561 59.144 54.1102 59.5157C54.2643 59.8874 54.3046 60.2964 54.2261 60.6909C54.1475 61.0855 53.9536 61.4479 53.6689 61.7324C53.3842 62.0169 53.0214 62.2108 52.6265 62.2893C52.2315 62.3677 51.8222 62.3273 51.4502 62.1733C51.0781 62.0194 50.7602 61.7587 50.5364 61.4242C50.3127 61.0897 50.1933 60.6966 50.1933 60.2943C50.1939 59.755 50.4086 59.238 50.7903 58.8566C51.1719 58.4753 51.6895 58.2607 52.2293 58.2601ZM62.4099 100.774H42.0486V92.0252H62.4099V100.774ZM65.8844 87.3624C65.696 87.552 65.4719 87.7022 65.225 87.8046C64.978 87.9071 64.7132 87.9597 64.4458 87.9592H40.0127C39.4727 87.9592 38.9549 87.7449 38.5731 87.3635C38.1913 86.982 37.9768 86.4645 37.9768 85.9251C37.9768 85.3856 38.1913 84.8684 38.5731 84.4869C38.9549 84.1055 39.4727 83.8912 40.0127 83.8912H64.4521C64.8542 83.8923 65.2469 84.0123 65.5807 84.2362C65.9145 84.4601 66.1744 84.7779 66.3276 85.1493C66.4809 85.5207 66.5206 85.9291 66.4417 86.323C66.3628 86.7169 66.1689 87.0786 65.8844 87.3624ZM63.0375 79.8221H41.421L34.8129 62.3251H40.0127C40.5526 62.3251 41.0705 62.1108 41.4523 61.7294C41.8341 61.3479 42.0486 60.8304 42.0486 60.291C42.0486 59.7515 41.8341 59.2343 41.4523 58.8528C41.0705 58.4714 40.5526 58.2571 40.0127 58.2571H35.3018L50.1933 31.0305V54.5389C48.8349 55.0187 47.6901 55.9628 46.961 57.2044C46.232 58.446 45.9658 59.9051 46.2094 61.3238C46.4531 62.7425 47.1909 64.0295 48.2925 64.9573C49.3941 65.8851 50.7885 66.3942 52.2293 66.3942C53.6701 66.3942 55.0645 65.8851 56.166 64.9573C57.2676 64.0295 58.0054 62.7425 58.2491 61.3238C58.4927 59.9051 58.2265 58.446 57.4975 57.2044C56.7685 55.9628 55.6236 55.0187 54.2652 54.5389V31.0338L69.1567 58.2601H64.4458C63.9059 58.2601 63.388 58.4744 63.0062 58.8559C62.6244 59.2373 62.4099 59.7548 62.4099 60.2943C62.4099 60.8337 62.6244 61.351 63.0062 61.7324C63.388 62.1139 63.9059 62.3282 64.4458 62.3282H69.6456L63.0375 79.8221Z" fill="#231F20"/>
<path d="M12.8318 28.0372C12.36 27.7748 11.8032 27.7105 11.2838 27.8582C10.7644 28.0058 10.3249 28.3534 10.062 28.8246C7.19087 33.9651 5.32903 39.6062 4.57658 45.4447H2.1414C1.87395 45.4447 1.60911 45.4972 1.36203 45.5995C1.11495 45.7018 0.890479 45.8517 0.701412 46.0407C0.512346 46.2297 0.362399 46.4541 0.260146 46.701C0.157892 46.9479 0.105332 47.2126 0.105469 47.4798V55.6157C0.105469 56.1551 0.319969 56.6726 0.701778 57.0541C1.08359 57.4355 1.60144 57.6498 2.1414 57.6498H10.2861C10.8261 57.6498 11.3439 57.4355 11.7257 57.0541C12.1075 56.6726 12.322 56.1551 12.322 55.6157V47.4798C12.322 46.9403 12.1076 46.4228 11.7258 46.0412C11.344 45.6596 10.8262 45.4449 10.2861 45.4447H8.68282C9.41172 40.3024 11.0855 35.3389 13.6199 30.8044C13.7501 30.571 13.833 30.3143 13.8638 30.0489C13.8946 29.7836 13.8729 29.5146 13.7997 29.2577C13.7265 29.0007 13.6033 28.7607 13.4373 28.5513C13.2712 28.3419 13.0655 28.1671 12.8318 28.0372ZM8.24499 53.5818H4.17314V49.5137H8.24499V53.5818Z" fill="#231F20"/>
<path d="M98.2436 0.694153C96.9809 0.695806 95.7497 1.08767 94.7187 1.81599C93.6877 2.5443 92.9075 3.57341 92.485 4.7622H58.3362V2.7283C58.3362 2.18885 58.1217 1.67136 57.7398 1.2899C57.358 0.908452 56.8402 0.694153 56.3002 0.694153H48.1565C47.6166 0.694153 47.0987 0.908452 46.7169 1.2899C46.3351 1.67136 46.1206 2.18885 46.1206 2.7283V4.7622H11.9717C11.4914 3.40507 10.5464 2.26132 9.30368 1.53299C8.06093 0.804649 6.60046 0.538716 5.18041 0.78213C3.76037 1.02554 2.47217 1.76252 1.5435 2.86307C0.614825 3.96361 0.105469 5.35664 0.105469 6.79609C0.105469 8.23554 0.614825 9.62883 1.5435 10.7294C2.47217 11.8299 3.76037 12.5669 5.18041 12.8103C6.60046 13.0537 8.06093 12.7878 9.30368 12.0595C10.5464 11.3311 11.4914 10.1874 11.9717 8.83024H32.4404C28.246 10.5454 24.3345 12.8827 20.8378 15.7634C20.6334 15.9355 20.4649 16.1461 20.3419 16.3833C20.2189 16.6205 20.1439 16.8797 20.1212 17.1458C20.0984 17.412 20.1284 17.68 20.2093 17.9346C20.2902 18.1892 20.4205 18.4252 20.5928 18.6295C20.7651 18.8338 20.976 19.0022 21.2134 19.1251C21.4508 19.2479 21.7101 19.3228 21.9765 19.3455C22.2429 19.3683 22.5112 19.3384 22.766 19.2575C23.0209 19.1767 23.2572 19.0465 23.4617 18.8744C29.2995 13.9544 37.6391 10.4384 46.1206 9.26148V10.8641C46.1206 11.4036 46.3351 11.9211 46.7169 12.3025C47.0987 12.684 47.6166 12.8983 48.1565 12.8983H56.3002C56.8402 12.8983 57.358 12.684 57.7398 12.3025C58.1217 11.9211 58.3362 11.4036 58.3362 10.8641V9.26657C66.8166 10.4455 75.1531 13.9595 80.9951 18.8795C81.408 19.2271 81.9422 19.3968 82.4802 19.3509C83.0182 19.305 83.5159 19.0474 83.8639 18.6348C84.2118 18.2223 84.3815 17.6884 84.3356 17.1509C84.2896 16.6134 84.0318 16.1164 83.6189 15.7687C80.1223 12.888 76.2108 10.5505 72.0163 8.83533H92.485C92.8583 9.89005 93.5146 10.8221 94.3822 11.5293C95.2498 12.2366 96.2952 12.692 97.4044 12.8457C98.5135 12.9994 99.6436 12.8453 100.671 12.4007C101.699 11.9561 102.584 11.238 103.23 10.3246C103.877 9.41117 104.26 8.33778 104.337 7.22174C104.414 6.1057 104.182 4.98983 103.668 3.99634C103.153 3.00285 102.375 2.16988 101.418 1.58842C100.462 1.00695 99.3633 0.699508 98.2436 0.699492V0.694153ZM6.21315 8.83024C5.81049 8.83024 5.41687 8.71099 5.08206 8.48749C4.74726 8.26399 4.4863 7.94633 4.33221 7.57466C4.17811 7.203 4.1378 6.794 4.21636 6.39943C4.29491 6.00487 4.48882 5.64241 4.77355 5.35795C5.05828 5.07349 5.42103 4.87984 5.81596 4.80136C6.2109 4.72287 6.62026 4.7631 6.99228 4.91705C7.3643 5.071 7.68226 5.33163 7.90597 5.66612C8.12968 6.00062 8.24908 6.3938 8.24908 6.79609C8.24853 7.33538 8.03386 7.85265 7.65217 8.23398C7.27048 8.61532 6.75295 8.82969 6.21315 8.83024ZM54.2643 6.79609V8.83024H50.1924V4.7622H54.2643V6.79609ZM98.2436 8.83024C97.8409 8.83024 97.4473 8.71099 97.1125 8.48749C96.7777 8.26399 96.5167 7.94633 96.3626 7.57466C96.2086 7.203 96.1682 6.794 96.2468 6.39943C96.3253 6.00487 96.5192 5.64241 96.804 5.35795C97.0887 5.07349 97.4515 4.87984 97.8464 4.80136C98.2413 4.72287 98.6507 4.7631 99.0227 4.91705C99.3947 5.071 99.7127 5.33163 99.9364 5.66612C100.16 6.00062 100.28 6.3938 100.28 6.79609C100.279 7.3353 100.064 7.8522 99.6823 8.23347C99.3007 8.61475 98.7833 8.82942 98.2436 8.83024Z" fill="#231F20"/>
<defs>
<linearGradient id="paint0_linear_0_431" x1="37.9761" y1="70.3919" x2="72.2438" y2="70.3919" gradientUnits="userSpaceOnUse">
<stop stop-color="#EF8431"/>
<stop offset="1" stop-color="#E71A86"/>
</linearGradient>
</defs>
</svg>
